<?xml version='1.0' encoding='utf-8'?>
<mlt title="Anonymous Submission" version="6.4.1" root="/media/lnj/LNJ-1TB-HDD/vid/yt/Harry_Potter_Synchro/3-_Harry_Potter_und_der_Penner_von_Alcatraz/1080Rmk/02" producer="main bin" LC_NUMERIC="de_DE.UTF-8">
 <profile width="1920" frame_rate_den="1" height="800" display_aspect_num="12" display_aspect_den="5" frame_rate_num="25" colorspace="709" sample_aspect_den="1" description="HD 1920x800p 25 fps" progressive="1" sample_aspect_num="1"/>
 <producer id="1" title="Anonymous Submission" out="13630" in="0">
  <property name="length">00:09:05:06</property>
  <property name="eof">pause</property>
  <property name="resource">/media/lnj/LNJ-1TB-HDD/vid/yt/Harry_Potter_Synchro/3-_Harry_Potter_und_der_Penner_von_Alcatraz/02-_HP_und_der_Penner_von_Alcatraz.mp4</property>
  <property name="audio_index">1</property>
  <property name="video_index">0</property>
  <property name="mute_on_pause">1</property>
  <property name="mlt_service">avformat-novalidate</property>
  <property name="meta.media.nb_streams">2</property>
  <property name="meta.media.0.stream.type">video</property>
  <property name="meta.media.0.stream.frame_rate">23,976</property>
  <property name="meta.media.0.stream.sample_aspect_ratio">0</property>
  <property name="meta.media.0.codec.width">1280</property>
  <property name="meta.media.0.codec.height">720</property>
  <property name="meta.media.0.codec.rotate">0</property>
  <property name="meta.media.0.codec.frame_rate">23,976</property>
  <property name="meta.media.0.codec.pix_fmt">yuv420p</property>
  <property name="meta.media.0.codec.sample_aspect_ratio">1</property>
  <property name="meta.media.0.codec.colorspace">709</property>
  <property name="meta.media.0.codec.color_trc">1</property>
  <property name="meta.media.0.codec.name">h264</property>
  <property name="meta.media.0.codec.long_name">H.264 / AVC / MPEG-4 AVC / MPEG-4 part 10</property>
  <property name="meta.media.0.codec.bit_rate">2170130</property>
  <property name="meta.attr.0.stream.handler_name.markup">VideoHandler</property>
  <property name="meta.media.1.stream.type">audio</property>
  <property name="meta.media.1.codec.sample_fmt">s16p</property>
  <property name="meta.media.1.codec.sample_rate">48000</property>
  <property name="meta.media.1.codec.channels">2</property>
  <property name="meta.media.1.codec.name">mp3</property>
  <property name="meta.media.1.codec.long_name">MP3 (MPEG audio layer 3)</property>
  <property name="meta.media.1.codec.bit_rate">156407</property>
  <property name="meta.attr.1.stream.language.markup">deu</property>
  <property name="meta.attr.1.stream.handler_name.markup">Stereo</property>
  <property name="meta.attr.major_brand.markup">mp42</property>
  <property name="meta.attr.minor_version.markup">512</property>
  <property name="meta.attr.compatible_brands.markup">isomiso2avc1mp41</property>
  <property name="meta.attr.encoder.markup">HandBrake 6548svn 2014112401</property>
  <property name="meta.attr.title.markup">Harry Potter und der Penner von Alcatraz Teil 2 [Remake]</property>
  <property name="seekable">1</property>
  <property name="meta.media.sample_aspect_num">1</property>
  <property name="meta.media.sample_aspect_den">1</property>
  <property name="aspect_ratio">1</property>
  <property name="meta.media.frame_rate_num">1176480000</property>
  <property name="meta.media.frame_rate_den">49069019</property>
  <property name="meta.media.colorspace">709</property>
  <property name="meta.media.color_trc">1</property>
  <property name="meta.media.width">1280</property>
  <property name="meta.media.height">720</property>
  <property name="meta.media.top_field_first">0</property>
  <property name="meta.media.progressive">1</property>
  <property name="kdenlive:folderid">-1</property>
  <property name="kdenlive:file_size">158987219</property>
  <property name="kdenlive:file_hash">7d6aac8c2d36ec9bfba62af07afebd6a</property>
  <property name="kdenlive:exiftool">1</property>
  <property name="global_feed">1</property>
 </producer>
 <producer id="2" title="Anonymous Submission" out="203845" in="0">
  <property name="length">02:15:53:21</property>
  <property name="eof">pause</property>
  <property name="resource">/media/lnj/LNJ-1TB-HDD/vid/yt/Harry_Potter_Synchro/3-_Harry_Potter_und_der_Penner_von_Alcatraz/1080Rmk/warner-bros/HP3.25fps.mkv</property>
  <property name="audio_index">-1</property>
  <property name="video_index">0</property>
  <property name="mute_on_pause">1</property>
  <property name="mlt_service">avformat-novalidate</property>
  <property name="meta.media.nb_streams">1</property>
  <property name="meta.media.0.stream.type">video</property>
  <property name="meta.media.0.stream.frame_rate">25</property>
  <property name="meta.media.0.stream.sample_aspect_ratio">1</property>
  <property name="meta.media.0.codec.width">1920</property>
  <property name="meta.media.0.codec.height">800</property>
  <property name="meta.media.0.codec.rotate">0</property>
  <property name="meta.media.0.codec.frame_rate">25</property>
  <property name="meta.media.0.codec.pix_fmt">yuv420p</property>
  <property name="meta.media.0.codec.sample_aspect_ratio">0</property>
  <property name="meta.media.0.codec.colorspace">709</property>
  <property name="meta.media.0.codec.name">h264</property>
  <property name="meta.media.0.codec.long_name">H.264 / AVC / MPEG-4 AVC / MPEG-4 part 10</property>
  <property name="meta.media.0.codec.bit_rate">0</property>
  <property name="meta.attr.0.stream.language.markup">eng</property>
  <property name="meta.attr.0.stream.BPS.markup">10784498</property>
  <property name="meta.attr.0.stream.BPS-eng.markup">10784498</property>
  <property name="meta.attr.0.stream.DURATION.markup">02:15:53.840000000</property>
  <property name="meta.attr.0.stream.DURATION-eng.markup">02:15:53.840000000</property>
  <property name="meta.attr.0.stream.NUMBER_OF_FRAMES.markup">203846</property>
  <property name="meta.attr.0.stream.NUMBER_OF_FRAMES-eng.markup">203846</property>
  <property name="meta.attr.0.stream.NUMBER_OF_BYTES.markup">10991884703</property>
  <property name="meta.attr.0.stream.NUMBER_OF_BYTES-eng.markup">10991884703</property>
  <property name="meta.attr.0.stream._STATISTICS_WRITING_APP.markup">mkvmerge v15.0.0 ('Duel with the Devil') 64-bit</property>
  <property name="meta.attr.0.stream._STATISTICS_WRITING_APP-eng.markup">mkvmerge v15.0.0 ('Duel with the Devil') 64-bit</property>
  <property name="meta.attr.0.stream._STATISTICS_WRITING_DATE_UTC.markup">2017-09-08 14:50:06</property>
  <property name="meta.attr.0.stream._STATISTICS_WRITING_DATE_UTC-eng.markup">2017-09-08 14:50:06</property>
  <property name="meta.attr.0.stream._STATISTICS_TAGS.markup">BPS DURATION NUMBER_OF_FRAMES NUMBER_OF_BYTES</property>
  <property name="meta.attr.0.stream._STATISTICS_TAGS-eng.markup">BPS DURATION NUMBER_OF_FRAMES NUMBER_OF_BYTES</property>
  <property name="meta.attr.creation_time.markup">2017-09-08T14:50:06.000000Z</property>
  <property name="meta.attr.ENCODER.markup">Lavf57.71.100</property>
  <property name="seekable">1</property>
  <property name="meta.media.sample_aspect_num">1</property>
  <property name="meta.media.sample_aspect_den">1</property>
  <property name="aspect_ratio">1</property>
  <property name="kdenlive:folderid">-1</property>
  <property name="meta.media.frame_rate_num">25</property>
  <property name="meta.media.frame_rate_den">1</property>
  <property name="meta.media.colorspace">709</property>
  <property name="meta.media.color_trc">2</property>
  <property name="meta.media.width">1920</property>
  <property name="meta.media.height">800</property>
  <property name="meta.media.top_field_first">0</property>
  <property name="meta.media.progressive">1</property>
  <property name="kdenlive:file_size">10993645281</property>
  <property name="kdenlive:file_hash">9f7daa7562789427ddfc11190935ec91</property>
  <property name="kdenlive:exiftool">1</property>
  <property name="global_feed">1</property>
 </producer>
 <producer id="3" out="124" in="0">
  <property name="length">125</property>
  <property name="eof">pause</property>
  <property name="resource">/media/lnj/LNJ-1TB-HDD/vid/yt/Harry_Potter_Synchro/3-_Harry_Potter_und_der_Penner_von_Alcatraz/1080Rmk/end-card-1080rmk-lnj.png</property>
  <property name="ttl">25</property>
  <property name="aspect_ratio">1</property>
  <property name="progressive">1</property>
  <property name="seekable">1</property>
  <property name="loop">1</property>
  <property name="meta.media.width">3840</property>
  <property name="meta.media.height">1600</property>
  <property name="mlt_service">pixbuf</property>
  <property name="kdenlive:folderid">-1</property>
  <property name="kdenlive:duration">125</property>
  <property name="kdenlive:file_size">64586</property>
  <property name="kdenlive:file_hash">507e11a430c110cbc012fa7557fb4427</property>
 </producer>
 <producer id="4" title="Anonymous Submission" out="174" in="0">
  <property name="length">00:00:07:00</property>
  <property name="eof">pause</property>
  <property name="resource">/media/lnj/LNJ-1TB-HDD/vid/yt/Harry_Potter_Synchro/3-_Harry_Potter_und_der_Penner_von_Alcatraz/HPudPvA_Intro_1080Rmk.mp4</property>
  <property name="audio_index">1</property>
  <property name="video_index">0</property>
  <property name="mute_on_pause">1</property>
  <property name="mlt_service">avformat-novalidate</property>
  <property name="meta.media.nb_streams">2</property>
  <property name="meta.media.0.stream.type">video</property>
  <property name="meta.media.0.stream.frame_rate">25</property>
  <property name="meta.media.0.stream.sample_aspect_ratio">1</property>
  <property name="meta.media.0.codec.width">1920</property>
  <property name="meta.media.0.codec.height">1080</property>
  <property name="meta.media.0.codec.rotate">0</property>
  <property name="meta.media.0.codec.frame_rate">25</property>
  <property name="meta.media.0.codec.pix_fmt">yuv420p</property>
  <property name="meta.media.0.codec.sample_aspect_ratio">1</property>
  <property name="meta.media.0.codec.colorspace">709</property>
  <property name="meta.media.0.codec.color_trc">1</property>
  <property name="meta.media.0.codec.name">h264</property>
  <property name="meta.media.0.codec.long_name">H.264 / AVC / MPEG-4 AVC / MPEG-4 part 10</property>
  <property name="meta.media.0.codec.bit_rate">3275175</property>
  <property name="meta.attr.0.stream.handler_name.markup">VideoHandler</property>
  <property name="meta.media.1.stream.type">audio</property>
  <property name="meta.media.1.codec.sample_fmt">fltp</property>
  <property name="meta.media.1.codec.sample_rate">48000</property>
  <property name="meta.media.1.codec.channels">2</property>
  <property name="meta.media.1.codec.name">aac</property>
  <property name="meta.media.1.codec.long_name">AAC (Advanced Audio Coding)</property>
  <property name="meta.media.1.codec.bit_rate">195945</property>
  <property name="meta.attr.1.stream.handler_name.markup">SoundHandler</property>
  <property name="meta.attr.major_brand.markup">isom</property>
  <property name="meta.attr.minor_version.markup">512</property>
  <property name="meta.attr.compatible_brands.markup">isomiso2avc1mp41</property>
  <property name="meta.attr.encoder.markup">Lavf57.56.101</property>
  <property name="seekable">1</property>
  <property name="meta.media.sample_aspect_num">1</property>
  <property name="meta.media.sample_aspect_den">1</property>
  <property name="aspect_ratio">1</property>
  <property name="kdenlive:folderid">-1</property>
  <property name="meta.media.frame_rate_num">25</property>
  <property name="meta.media.frame_rate_den">1</property>
  <property name="meta.media.colorspace">709</property>
  <property name="meta.media.color_trc">1</property>
  <property name="meta.media.width">1920</property>
  <property name="meta.media.height">1080</property>
  <property name="meta.media.top_field_first">0</property>
  <property name="meta.media.progressive">1</property>
  <property name="kdenlive:file_size">3027348</property>
  <property name="kdenlive:file_hash">15d1fd6e5cc38bbc7f98ba7a7eee56ea</property>
  <property name="kdenlive:exiftool">1</property>
  <property name="global_feed">1</property>
 </producer>
 <producer id="6" out="301" in="0">
  <property name="length">302</property>
  <property name="eof">pause</property>
  <property name="resource">/media/lnj/LNJ-1TB-HDD/vid/yt/Harry_Potter_Synchro/3-_Harry_Potter_und_der_Penner_von_Alcatraz/1080Rmk/01/end-card-duraphilms-removal.png</property>
  <property name="ttl">25</property>
  <property name="aspect_ratio">1</property>
  <property name="progressive">1</property>
  <property name="seekable">1</property>
  <property name="loop">1</property>
  <property name="meta.media.width">1920</property>
  <property name="meta.media.height">800</property>
  <property name="mlt_service">pixbuf</property>
  <property name="kdenlive:folderid">-1</property>
  <property name="kdenlive:duration">125</property>
  <property name="kdenlive:file_size">15197</property>
  <property name="kdenlive:file_hash">934f4c535ea5bede19eeeb6977f36c63</property>
 </producer>
 <playlist id="main bin">
  <property name="kdenlive:docproperties.audiotargettrack">2</property>
  <property name="kdenlive:docproperties.decimalPoint">,</property>
  <property name="kdenlive:docproperties.dirtypreviewchunks"/>
  <property name="kdenlive:docproperties.disablepreview">0</property>
  <property name="kdenlive:docproperties.documentid">1505562525221</property>
  <property name="kdenlive:docproperties.enableproxy">0</property>
  <property name="kdenlive:docproperties.generateimageproxy">0</property>
  <property name="kdenlive:docproperties.generateproxy">0</property>
  <property name="kdenlive:docproperties.kdenliveversion">17.08.1</property>
  <property name="kdenlive:docproperties.position">13623</property>
  <property name="kdenlive:docproperties.previewchunks"/>
  <property name="kdenlive:docproperties.previewextension"/>
  <property name="kdenlive:docproperties.previewparameters"/>
  <property name="kdenlive:docproperties.profile">/home/lnj/.local/share/kdenlive/profiles/customprofile1</property>
  <property name="kdenlive:docproperties.proxyextension">mpg</property>
  <property name="kdenlive:docproperties.proxyimageminsize">2000</property>
  <property name="kdenlive:docproperties.proxyminsize">1000</property>
  <property name="kdenlive:docproperties.proxyparams">-vf scale=640:-1 -g 5 -qscale 6 -ab 128k -vcodec mpeg2video -acodec mp2</property>
  <property name="kdenlive:docproperties.version">0.96</property>
  <property name="kdenlive:docproperties.verticalzoom">1</property>
  <property name="kdenlive:docproperties.videotargettrack">3</property>
  <property name="kdenlive:docproperties.zonein">0</property>
  <property name="kdenlive:docproperties.zoneout">100</property>
  <property name="kdenlive:docproperties.zoom">11</property>
  <property name="kdenlive:documentnotes"/>
  <property name="kdenlive:clipgroups"/>
  <property name="kdenlive:docproperties.renderaudioquality">192</property>
  <property name="kdenlive:docproperties.rendercategory">Generic (HD for web, mobile devices...)</property>
  <property name="kdenlive:docproperties.renderendguide">-1</property>
  <property name="kdenlive:docproperties.renderexportaudio">0</property>
  <property name="kdenlive:docproperties.renderguide">0</property>
  <property name="kdenlive:docproperties.renderplay">0</property>
  <property name="kdenlive:docproperties.renderprofile">MKV H.264/AAC</property>
  <property name="kdenlive:docproperties.renderquality">20</property>
  <property name="kdenlive:docproperties.renderratio">1</property>
  <property name="kdenlive:docproperties.renderrescale">0</property>
  <property name="kdenlive:docproperties.renderrescaleheight">133</property>
  <property name="kdenlive:docproperties.renderrescalewidth">320</property>
  <property name="kdenlive:docproperties.renderscanning">0</property>
  <property name="kdenlive:docproperties.renderspeed">0</property>
  <property name="kdenlive:docproperties.renderstartguide">-1</property>
  <property name="kdenlive:docproperties.rendertcoverlay">0</property>
  <property name="kdenlive:docproperties.rendertctype">0</property>
  <property name="kdenlive:docproperties.rendertwopass">0</property>
  <property name="kdenlive:docproperties.renderurl">/media/lnj/LNJ-1TB-HDD/vid/yt/Harry_Potter_Synchro/3-_Harry_Potter_und_der_Penner_von_Alcatraz/1080Rmk/HPudPvA_02_1080Rmk.mkv</property>
  <property name="kdenlive:docproperties.renderzone">0</property>
  <property name="xml_retain">1</property>
  <entry out="13630" producer="1" in="0"/>
  <entry out="203845" producer="2" in="0"/>
  <entry out="124" producer="3" in="0"/>
  <entry out="174" producer="4" in="0"/>
  <entry out="124" producer="6" in="0"/>
 </playlist>
 <producer id="black" out="203964" in="0">
  <property name="length">203965</property>
  <property name="eof">pause</property>
  <property name="resource">black</property>
  <property name="aspect_ratio">0</property>
  <property name="mlt_service">colour</property>
  <property name="set.test_audio">0</property>
 </producer>
 <playlist id="black_track">
  <entry out="13623" producer="black" in="0"/>
 </playlist>
 <playlist id="playlist1">
  <property name="kdenlive:track_name">Audio 2</property>
  <property name="kdenlive:audio_track">1</property>
 </playlist>
 <producer id="1_playlist2_audio" title="Anonymous Submission" out="13630" in="0">
  <property name="length">00:09:05:06</property>
  <property name="eof">pause</property>
  <property name="resource">/media/lnj/LNJ-1TB-HDD/vid/yt/Harry_Potter_Synchro/3-_Harry_Potter_und_der_Penner_von_Alcatraz/02-_HP_und_der_Penner_von_Alcatraz.mp4</property>
  <property name="audio_index">1</property>
  <property name="video_index">-1</property>
  <property name="mute_on_pause">1</property>
  <property name="mlt_service">avformat-novalidate</property>
  <property name="seekable">1</property>
  <property name="aspect_ratio">1</property>
  <property name="kdenlive:folderid">-1</property>
  <property name="kdenlive:file_size">158987219</property>
  <property name="kdenlive:file_hash">7d6aac8c2d36ec9bfba62af07afebd6a</property>
  <property name="kdenlive:exiftool">1</property>
  <property name="global_feed">1</property>
  <property name="xml">was here</property>
  <property name="meta.media.nb_streams">2</property>
  <property name="meta.media.0.stream.type">video</property>
  <property name="meta.media.0.stream.frame_rate">23,976</property>
  <property name="meta.media.0.stream.sample_aspect_ratio">0</property>
  <property name="meta.media.0.codec.width">1280</property>
  <property name="meta.media.0.codec.height">720</property>
  <property name="meta.media.0.codec.rotate">0</property>
  <property name="meta.media.0.codec.frame_rate">23,976</property>
  <property name="meta.media.0.codec.pix_fmt">yuv420p</property>
  <property name="meta.media.0.codec.sample_aspect_ratio">1</property>
  <property name="meta.media.0.codec.colorspace">709</property>
  <property name="meta.media.0.codec.color_trc">1</property>
  <property name="meta.media.0.codec.name">h264</property>
  <property name="meta.media.0.codec.long_name">H.264 / AVC / MPEG-4 AVC / MPEG-4 part 10</property>
  <property name="meta.media.0.codec.bit_rate">2170130</property>
  <property name="meta.attr.0.stream.handler_name.markup">VideoHandler</property>
  <property name="meta.media.1.stream.type">audio</property>
  <property name="meta.media.1.codec.sample_fmt">s16p</property>
  <property name="meta.media.1.codec.sample_rate">48000</property>
  <property name="meta.media.1.codec.channels">2</property>
  <property name="meta.media.1.codec.name">mp3</property>
  <property name="meta.media.1.codec.long_name">MP3 (MPEG audio layer 3)</property>
  <property name="meta.media.1.codec.bit_rate">156407</property>
  <property name="meta.attr.1.stream.language.markup">deu</property>
  <property name="meta.attr.1.stream.handler_name.markup">Stereo</property>
  <property name="meta.attr.major_brand.markup">mp42</property>
  <property name="meta.attr.minor_version.markup">512</property>
  <property name="meta.attr.compatible_brands.markup">isomiso2avc1mp41</property>
  <property name="meta.attr.encoder.markup">HandBrake 6548svn 2014112401</property>
  <property name="meta.attr.title.markup">Harry Potter und der Penner von Alcatraz Teil 2 [Remake]</property>
  <property name="meta.media.sample_aspect_num">1</property>
  <property name="meta.media.sample_aspect_den">1</property>
 </producer>
 <playlist id="playlist2">
  <property name="kdenlive:track_name">Audio 1</property>
  <property name="kdenlive:audio_track">1</property>
  <blank length="175"/>
  <entry out="13630" producer="1_playlist2_audio" in="183"/>
 </playlist>
 <producer id="slowmotion:2:0,69:1:0" out="295421" in="0">
  <property name="length">295422</property>
  <property name="eof">pause</property>
  <property name="resource">0,69:/media/lnj/LNJ-1TB-HDD/vid/yt/Harry_Potter_Synchro/3-_Harry_Potter_und_der_Penner_von_Alcatraz/1080Rmk/warner-bros/HP3.25fps.mkv</property>
  <property name="aspect_ratio">1</property>
  <property name="meta.media.nb_streams">1</property>
  <property name="meta.media.0.stream.type">video</property>
  <property name="meta.media.0.stream.frame_rate">25</property>
  <property name="meta.media.0.stream.sample_aspect_ratio">1</property>
  <property name="meta.media.0.codec.width">1920</property>
  <property name="meta.media.0.codec.height">800</property>
  <property name="meta.media.0.codec.rotate">0</property>
  <property name="meta.media.0.codec.frame_rate">25</property>
  <property name="meta.media.0.codec.pix_fmt">yuv420p</property>
  <property name="meta.media.0.codec.sample_aspect_ratio">0</property>
  <property name="meta.media.0.codec.colorspace">709</property>
  <property name="meta.media.0.codec.name">h264</property>
  <property name="meta.media.0.codec.long_name">H.264 / AVC / MPEG-4 AVC / MPEG-4 part 10</property>
  <property name="meta.media.0.codec.bit_rate">0</property>
  <property name="meta.attr.0.stream.language.markup">eng</property>
  <property name="meta.attr.0.stream.BPS.markup">10784498</property>
  <property name="meta.attr.0.stream.BPS-eng.markup">10784498</property>
  <property name="meta.attr.0.stream.DURATION.markup">02:15:53.840000000</property>
  <property name="meta.attr.0.stream.DURATION-eng.markup">02:15:53.840000000</property>
  <property name="meta.attr.0.stream.NUMBER_OF_FRAMES.markup">203846</property>
  <property name="meta.attr.0.stream.NUMBER_OF_FRAMES-eng.markup">203846</property>
  <property name="meta.attr.0.stream.NUMBER_OF_BYTES.markup">10991884703</property>
  <property name="meta.attr.0.stream.NUMBER_OF_BYTES-eng.markup">10991884703</property>
  <property name="meta.attr.0.stream._STATISTICS_WRITING_APP.markup">mkvmerge v15.0.0 ('Duel with the Devil') 64-bit</property>
  <property name="meta.attr.0.stream._STATISTICS_WRITING_APP-eng.markup">mkvmerge v15.0.0 ('Duel with the Devil') 64-bit</property>
  <property name="meta.attr.0.stream._STATISTICS_WRITING_DATE_UTC.markup">2017-09-08 14:50:06</property>
  <property name="meta.attr.0.stream._STATISTICS_WRITING_DATE_UTC-eng.markup">2017-09-08 14:50:06</property>
  <property name="meta.attr.0.stream._STATISTICS_TAGS.markup">BPS DURATION NUMBER_OF_FRAMES NUMBER_OF_BYTES</property>
  <property name="meta.attr.0.stream._STATISTICS_TAGS-eng.markup">BPS DURATION NUMBER_OF_FRAMES NUMBER_OF_BYTES</property>
  <property name="meta.attr.creation_time.markup">2017-09-08T14:50:06.000000Z</property>
  <property name="meta.attr.ENCODER.markup">Lavf57.71.100</property>
  <property name="seekable">1</property>
  <property name="meta.media.sample_aspect_num">1</property>
  <property name="meta.media.sample_aspect_den">1</property>
  <property name="audio_index">-1</property>
  <property name="video_index">0</property>
  <property name="mute_on_pause">1</property>
  <property name="warp_speed">0,69</property>
  <property name="warp_resource">/media/lnj/LNJ-1TB-HDD/vid/yt/Harry_Potter_Synchro/3-_Harry_Potter_und_der_Penner_von_Alcatraz/1080Rmk/warner-bros/HP3.25fps.mkv</property>
  <property name="mlt_service">timewarp</property>
  <property name="meta.media.frame_rate_num">25</property>
  <property name="meta.media.frame_rate_den">1</property>
  <property name="meta.media.colorspace">709</property>
  <property name="meta.media.color_trc">2</property>
  <property name="meta.media.width">1920</property>
  <property name="meta.media.height">800</property>
  <property name="meta.media.top_field_first">0</property>
  <property name="meta.media.progressive">1</property>
 </producer>
 <producer id="2_playlist3" title="Anonymous Submission" out="203845" in="0">
  <property name="length">02:15:53:21</property>
  <property name="eof">pause</property>
  <property name="resource">/media/lnj/LNJ-1TB-HDD/vid/yt/Harry_Potter_Synchro/3-_Harry_Potter_und_der_Penner_von_Alcatraz/1080Rmk/warner-bros/HP3.25fps.mkv</property>
  <property name="audio_index">-1</property>
  <property name="video_index">0</property>
  <property name="mute_on_pause">1</property>
  <property name="mlt_service">avformat-novalidate</property>
  <property name="seekable">1</property>
  <property name="aspect_ratio">1</property>
  <property name="kdenlive:folderid">-1</property>
  <property name="kdenlive:file_size">10993645281</property>
  <property name="kdenlive:file_hash">9f7daa7562789427ddfc11190935ec91</property>
  <property name="kdenlive:exiftool">1</property>
  <property name="global_feed">1</property>
  <property name="xml">was here</property>
  <property name="meta.media.nb_streams">1</property>
  <property name="meta.media.0.stream.type">video</property>
  <property name="meta.media.0.stream.frame_rate">25</property>
  <property name="meta.media.0.stream.sample_aspect_ratio">1</property>
  <property name="meta.media.0.codec.width">1920</property>
  <property name="meta.media.0.codec.height">800</property>
  <property name="meta.media.0.codec.rotate">0</property>
  <property name="meta.media.0.codec.frame_rate">25</property>
  <property name="meta.media.0.codec.pix_fmt">yuv420p</property>
  <property name="meta.media.0.codec.sample_aspect_ratio">0</property>
  <property name="meta.media.0.codec.colorspace">709</property>
  <property name="meta.media.0.codec.name">h264</property>
  <property name="meta.media.0.codec.long_name">H.264 / AVC / MPEG-4 AVC / MPEG-4 part 10</property>
  <property name="meta.media.0.codec.bit_rate">0</property>
  <property name="meta.attr.0.stream.language.markup">eng</property>
  <property name="meta.attr.0.stream.BPS.markup">10784498</property>
  <property name="meta.attr.0.stream.BPS-eng.markup">10784498</property>
  <property name="meta.attr.0.stream.DURATION.markup">02:15:53.840000000</property>
  <property name="meta.attr.0.stream.DURATION-eng.markup">02:15:53.840000000</property>
  <property name="meta.attr.0.stream.NUMBER_OF_FRAMES.markup">203846</property>
  <property name="meta.attr.0.stream.NUMBER_OF_FRAMES-eng.markup">203846</property>
  <property name="meta.attr.0.stream.NUMBER_OF_BYTES.markup">10991884703</property>
  <property name="meta.attr.0.stream.NUMBER_OF_BYTES-eng.markup">10991884703</property>
  <property name="meta.attr.0.stream._STATISTICS_WRITING_APP.markup">mkvmerge v15.0.0 ('Duel with the Devil') 64-bit</property>
  <property name="meta.attr.0.stream._STATISTICS_WRITING_APP-eng.markup">mkvmerge v15.0.0 ('Duel with the Devil') 64-bit</property>
  <property name="meta.attr.0.stream._STATISTICS_WRITING_DATE_UTC.markup">2017-09-08 14:50:06</property>
  <property name="meta.attr.0.stream._STATISTICS_WRITING_DATE_UTC-eng.markup">2017-09-08 14:50:06</property>
  <property name="meta.attr.0.stream._STATISTICS_TAGS.markup">BPS DURATION NUMBER_OF_FRAMES NUMBER_OF_BYTES</property>
  <property name="meta.attr.0.stream._STATISTICS_TAGS-eng.markup">BPS DURATION NUMBER_OF_FRAMES NUMBER_OF_BYTES</property>
  <property name="meta.attr.creation_time.markup">2017-09-08T14:50:06.000000Z</property>
  <property name="meta.attr.ENCODER.markup">Lavf57.71.100</property>
  <property name="meta.media.sample_aspect_num">1</property>
  <property name="meta.media.sample_aspect_den">1</property>
  <property name="meta.media.frame_rate_num">25</property>
  <property name="meta.media.frame_rate_den">1</property>
  <property name="meta.media.colorspace">709</property>
  <property name="meta.media.color_trc">2</property>
  <property name="meta.media.width">1920</property>
  <property name="meta.media.height">800</property>
  <property name="meta.media.top_field_first">0</property>
  <property name="meta.media.progressive">1</property>
 </producer>
 <producer id="slowmotion:2:0,88:1:0" out="231641" in="0">
  <property name="length">231642</property>
  <property name="eof">pause</property>
  <property name="resource">0,88:/media/lnj/LNJ-1TB-HDD/vid/yt/Harry_Potter_Synchro/3-_Harry_Potter_und_der_Penner_von_Alcatraz/1080Rmk/warner-bros/HP3.25fps.mkv</property>
  <property name="aspect_ratio">1</property>
  <property name="meta.media.nb_streams">1</property>
  <property name="meta.media.0.stream.type">video</property>
  <property name="meta.media.0.stream.frame_rate">25</property>
  <property name="meta.media.0.stream.sample_aspect_ratio">1</property>
  <property name="meta.media.0.codec.width">1920</property>
  <property name="meta.media.0.codec.height">800</property>
  <property name="meta.media.0.codec.rotate">0</property>
  <property name="meta.media.0.codec.frame_rate">25</property>
  <property name="meta.media.0.codec.pix_fmt">yuv420p</property>
  <property name="meta.media.0.codec.sample_aspect_ratio">0</property>
  <property name="meta.media.0.codec.colorspace">709</property>
  <property name="meta.media.0.codec.name">h264</property>
  <property name="meta.media.0.codec.long_name">H.264 / AVC / MPEG-4 AVC / MPEG-4 part 10</property>
  <property name="meta.media.0.codec.bit_rate">0</property>
  <property name="meta.attr.0.stream.language.markup">eng</property>
  <property name="meta.attr.0.stream.BPS.markup">10784498</property>
  <property name="meta.attr.0.stream.BPS-eng.markup">10784498</property>
  <property name="meta.attr.0.stream.DURATION.markup">02:15:53.840000000</property>
  <property name="meta.attr.0.stream.DURATION-eng.markup">02:15:53.840000000</property>
  <property name="meta.attr.0.stream.NUMBER_OF_FRAMES.markup">203846</property>
  <property name="meta.attr.0.stream.NUMBER_OF_FRAMES-eng.markup">203846</property>
  <property name="meta.attr.0.stream.NUMBER_OF_BYTES.markup">10991884703</property>
  <property name="meta.attr.0.stream.NUMBER_OF_BYTES-eng.markup">10991884703</property>
  <property name="meta.attr.0.stream._STATISTICS_WRITING_APP.markup">mkvmerge v15.0.0 ('Duel with the Devil') 64-bit</property>
  <property name="meta.attr.0.stream._STATISTICS_WRITING_APP-eng.markup">mkvmerge v15.0.0 ('Duel with the Devil') 64-bit</property>
  <property name="meta.attr.0.stream._STATISTICS_WRITING_DATE_UTC.markup">2017-09-08 14:50:06</property>
  <property name="meta.attr.0.stream._STATISTICS_WRITING_DATE_UTC-eng.markup">2017-09-08 14:50:06</property>
  <property name="meta.attr.0.stream._STATISTICS_TAGS.markup">BPS DURATION NUMBER_OF_FRAMES NUMBER_OF_BYTES</property>
  <property name="meta.attr.0.stream._STATISTICS_TAGS-eng.markup">BPS DURATION NUMBER_OF_FRAMES NUMBER_OF_BYTES</property>
  <property name="meta.attr.creation_time.markup">2017-09-08T14:50:06.000000Z</property>
  <property name="meta.attr.ENCODER.markup">Lavf57.71.100</property>
  <property name="seekable">1</property>
  <property name="meta.media.sample_aspect_num">1</property>
  <property name="meta.media.sample_aspect_den">1</property>
  <property name="audio_index">-1</property>
  <property name="video_index">0</property>
  <property name="mute_on_pause">1</property>
  <property name="warp_speed">0,88</property>
  <property name="warp_resource">/media/lnj/LNJ-1TB-HDD/vid/yt/Harry_Potter_Synchro/3-_Harry_Potter_und_der_Penner_von_Alcatraz/1080Rmk/warner-bros/HP3.25fps.mkv</property>
  <property name="mlt_service">timewarp</property>
  <property name="meta.media.frame_rate_num">25</property>
  <property name="meta.media.frame_rate_den">1</property>
  <property name="meta.media.colorspace">709</property>
  <property name="meta.media.color_trc">2</property>
  <property name="meta.media.width">1920</property>
  <property name="meta.media.height">800</property>
  <property name="meta.media.top_field_first">0</property>
  <property name="meta.media.progressive">1</property>
 </producer>
 <producer id="slowmotion:2:1:1:0" out="203845" in="0">
  <property name="length">203846</property>
  <property name="eof">pause</property>
  <property name="resource">1:/media/lnj/LNJ-1TB-HDD/vid/yt/Harry_Potter_Synchro/3-_Harry_Potter_und_der_Penner_von_Alcatraz/1080Rmk/warner-bros/HP3.25fps.mkv</property>
  <property name="aspect_ratio">1</property>
  <property name="meta.media.nb_streams">1</property>
  <property name="meta.media.0.stream.type">video</property>
  <property name="meta.media.0.stream.frame_rate">25</property>
  <property name="meta.media.0.stream.sample_aspect_ratio">1</property>
  <property name="meta.media.0.codec.width">1920</property>
  <property name="meta.media.0.codec.height">800</property>
  <property name="meta.media.0.codec.rotate">0</property>
  <property name="meta.media.0.codec.frame_rate">25</property>
  <property name="meta.media.0.codec.pix_fmt">yuv420p</property>
  <property name="meta.media.0.codec.sample_aspect_ratio">0</property>
  <property name="meta.media.0.codec.colorspace">709</property>
  <property name="meta.media.0.codec.name">h264</property>
  <property name="meta.media.0.codec.long_name">H.264 / AVC / MPEG-4 AVC / MPEG-4 part 10</property>
  <property name="meta.media.0.codec.bit_rate">0</property>
  <property name="meta.attr.0.stream.language.markup">eng</property>
  <property name="meta.attr.0.stream.BPS.markup">10784498</property>
  <property name="meta.attr.0.stream.BPS-eng.markup">10784498</property>
  <property name="meta.attr.0.stream.DURATION.markup">02:15:53.840000000</property>
  <property name="meta.attr.0.stream.DURATION-eng.markup">02:15:53.840000000</property>
  <property name="meta.attr.0.stream.NUMBER_OF_FRAMES.markup">203846</property>
  <property name="meta.attr.0.stream.NUMBER_OF_FRAMES-eng.markup">203846</property>
  <property name="meta.attr.0.stream.NUMBER_OF_BYTES.markup">10991884703</property>
  <property name="meta.attr.0.stream.NUMBER_OF_BYTES-eng.markup">10991884703</property>
  <property name="meta.attr.0.stream._STATISTICS_WRITING_APP.markup">mkvmerge v15.0.0 ('Duel with the Devil') 64-bit</property>
  <property name="meta.attr.0.stream._STATISTICS_WRITING_APP-eng.markup">mkvmerge v15.0.0 ('Duel with the Devil') 64-bit</property>
  <property name="meta.attr.0.stream._STATISTICS_WRITING_DATE_UTC.markup">2017-09-08 14:50:06</property>
  <property name="meta.attr.0.stream._STATISTICS_WRITING_DATE_UTC-eng.markup">2017-09-08 14:50:06</property>
  <property name="meta.attr.0.stream._STATISTICS_TAGS.markup">BPS DURATION NUMBER_OF_FRAMES NUMBER_OF_BYTES</property>
  <property name="meta.attr.0.stream._STATISTICS_TAGS-eng.markup">BPS DURATION NUMBER_OF_FRAMES NUMBER_OF_BYTES</property>
  <property name="meta.attr.creation_time.markup">2017-09-08T14:50:06.000000Z</property>
  <property name="meta.attr.ENCODER.markup">Lavf57.71.100</property>
  <property name="seekable">1</property>
  <property name="meta.media.sample_aspect_num">1</property>
  <property name="meta.media.sample_aspect_den">1</property>
  <property name="audio_index">-1</property>
  <property name="video_index">0</property>
  <property name="mute_on_pause">1</property>
  <property name="warp_speed">1</property>
  <property name="warp_resource">/media/lnj/LNJ-1TB-HDD/vid/yt/Harry_Potter_Synchro/3-_Harry_Potter_und_der_Penner_von_Alcatraz/1080Rmk/warner-bros/HP3.25fps.mkv</property>
  <property name="mlt_service">timewarp</property>
  <property name="meta.media.frame_rate_num">25</property>
  <property name="meta.media.frame_rate_den">1</property>
  <property name="meta.media.colorspace">709</property>
  <property name="meta.media.color_trc">2</property>
  <property name="meta.media.width">1920</property>
  <property name="meta.media.height">800</property>
  <property name="meta.media.top_field_first">0</property>
  <property name="meta.media.progressive">1</property>
 </producer>
 <producer id="1_video" title="Anonymous Submission" out="13630" in="0">
  <property name="length">00:09:05:06</property>
  <property name="eof">pause</property>
  <property name="resource">/media/lnj/LNJ-1TB-HDD/vid/yt/Harry_Potter_Synchro/3-_Harry_Potter_und_der_Penner_von_Alcatraz/02-_HP_und_der_Penner_von_Alcatraz.mp4</property>
  <property name="audio_index">-1</property>
  <property name="video_index">0</property>
  <property name="mute_on_pause">1</property>
  <property name="mlt_service">avformat-novalidate</property>
  <property name="seekable">1</property>
  <property name="aspect_ratio">1</property>
  <property name="kdenlive:folderid">-1</property>
  <property name="kdenlive:file_size">158987219</property>
  <property name="kdenlive:file_hash">7d6aac8c2d36ec9bfba62af07afebd6a</property>
  <property name="kdenlive:exiftool">1</property>
  <property name="global_feed">1</property>
  <property name="xml">was here</property>
  <property name="meta.media.nb_streams">2</property>
  <property name="meta.media.0.stream.type">video</property>
  <property name="meta.media.0.stream.frame_rate">23,976</property>
  <property name="meta.media.0.stream.sample_aspect_ratio">0</property>
  <property name="meta.media.0.codec.width">1280</property>
  <property name="meta.media.0.codec.height">720</property>
  <property name="meta.media.0.codec.rotate">0</property>
  <property name="meta.media.0.codec.frame_rate">23,976</property>
  <property name="meta.media.0.codec.pix_fmt">yuv420p</property>
  <property name="meta.media.0.codec.sample_aspect_ratio">1</property>
  <property name="meta.media.0.codec.colorspace">709</property>
  <property name="meta.media.0.codec.color_trc">1</property>
  <property name="meta.media.0.codec.name">h264</property>
  <property name="meta.media.0.codec.long_name">H.264 / AVC / MPEG-4 AVC / MPEG-4 part 10</property>
  <property name="meta.media.0.codec.bit_rate">2170130</property>
  <property name="meta.attr.0.stream.handler_name.markup">VideoHandler</property>
  <property name="meta.media.1.stream.type">audio</property>
  <property name="meta.media.1.codec.sample_fmt">s16p</property>
  <property name="meta.media.1.codec.sample_rate">48000</property>
  <property name="meta.media.1.codec.channels">2</property>
  <property name="meta.media.1.codec.name">mp3</property>
  <property name="meta.media.1.codec.long_name">MP3 (MPEG audio layer 3)</property>
  <property name="meta.media.1.codec.bit_rate">156407</property>
  <property name="meta.attr.1.stream.language.markup">deu</property>
  <property name="meta.attr.1.stream.handler_name.markup">Stereo</property>
  <property name="meta.attr.major_brand.markup">mp42</property>
  <property name="meta.attr.minor_version.markup">512</property>
  <property name="meta.attr.compatible_brands.markup">isomiso2avc1mp41</property>
  <property name="meta.attr.encoder.markup">HandBrake 6548svn 2014112401</property>
  <property name="meta.attr.title.markup">Harry Potter und der Penner von Alcatraz Teil 2 [Remake]</property>
  <property name="meta.media.sample_aspect_num">1</property>
  <property name="meta.media.sample_aspect_den">1</property>
  <property name="meta.media.frame_rate_num">1176480000</property>
  <property name="meta.media.frame_rate_den">49069019</property>
  <property name="meta.media.colorspace">709</property>
  <property name="meta.media.color_trc">1</property>
  <property name="meta.media.width">1280</property>
  <property name="meta.media.height">720</property>
  <property name="meta.media.top_field_first">0</property>
  <property name="meta.media.progressive">1</property>
 </producer>
 <playlist id="playlist3">
  <property name="kdenlive:track_name">Video 1</property>
  <blank length="175"/>
  <entry out="22270" producer="slowmotion:2:0,69:1:0" in="22135">
   <filter id="filter1">
    <property name="mirror">flip</property>
    <property name="mlt_service">mirror</property>
    <property name="kdenlive_id">mirror</property>
    <property name="tag">mirror</property>
    <property name="kdenlive_ix">1</property>
    <property name="reverse">0</property>
    <property name="kdenlive_info"/>
   </filter>
  </entry>
  <entry out="17654" producer="2_playlist3" in="15367">
   <filter id="filter2">
    <property name="mirror">flip</property>
    <property name="mlt_service">mirror</property>
    <property name="kdenlive_id">mirror</property>
    <property name="tag">mirror</property>
    <property name="kdenlive_ix">1</property>
    <property name="reverse">0</property>
    <property name="kdenlive_info"/>
   </filter>
  </entry>
  <entry out="15269" producer="2_playlist3" in="15248">
   <filter id="filter0">
    <property name="mirror">flip</property>
    <property name="mlt_service">mirror</property>
    <property name="kdenlive_id">mirror</property>
    <property name="tag">mirror</property>
    <property name="kdenlive_ix">1</property>
    <property name="reverse">0</property>
    <property name="kdenlive_info"/>
   </filter>
  </entry>
  <entry out="17747" producer="2_playlist3" in="17668">
   <filter id="filter3">
    <property name="mirror">flip</property>
    <property name="mlt_service">mirror</property>
    <property name="kdenlive_id">mirror</property>
    <property name="tag">mirror</property>
    <property name="kdenlive_ix">1</property>
    <property name="reverse">0</property>
    <property name="kdenlive_info"/>
   </filter>
  </entry>
  <entry out="24578" producer="2_playlist3" in="17748">
   <filter id="filter4">
    <property name="mirror">flip</property>
    <property name="mlt_service">mirror</property>
    <property name="kdenlive_id">mirror</property>
    <property name="tag">mirror</property>
    <property name="kdenlive_ix">1</property>
    <property name="reverse">0</property>
    <property name="kdenlive_info"/>
   </filter>
  </entry>
  <entry out="28231" producer="slowmotion:2:0,88:1:0" in="27932">
   <filter id="filter5">
    <property name="mirror">flip</property>
    <property name="mlt_service">mirror</property>
    <property name="kdenlive_id">mirror</property>
    <property name="tag">mirror</property>
    <property name="kdenlive_ix">1</property>
    <property name="reverse">0</property>
    <property name="kdenlive_info"/>
   </filter>
  </entry>
  <entry out="25308" producer="slowmotion:2:1:1:0" in="24844">
   <filter id="filter6">
    <property name="mirror">flip</property>
    <property name="mlt_service">mirror</property>
    <property name="kdenlive_id">mirror</property>
    <property name="tag">mirror</property>
    <property name="kdenlive_ix">1</property>
    <property name="reverse">0</property>
    <property name="kdenlive_info"/>
   </filter>
  </entry>
  <entry out="27213" producer="2_playlist3" in="25310">
   <filter id="filter7">
    <property name="mirror">flip</property>
    <property name="mlt_service">mirror</property>
    <property name="kdenlive_id">mirror</property>
    <property name="tag">mirror</property>
    <property name="kdenlive_ix">1</property>
    <property name="reverse">0</property>
    <property name="kdenlive_info"/>
   </filter>
  </entry>
  <entry out="28333" producer="2_playlist3" in="27214">
   <filter id="filter8">
    <property name="mirror">flip</property>
    <property name="mlt_service">mirror</property>
    <property name="kdenlive_id">mirror</property>
    <property name="tag">mirror</property>
    <property name="kdenlive_ix">1</property>
    <property name="reverse">0</property>
    <property name="kdenlive_info"/>
   </filter>
  </entry>
  <blank length="1"/>
  <entry out="13630" producer="1_video" in="13330"/>
 </playlist>
 <producer id="4_playlist4" title="Anonymous Submission" out="174" in="0">
  <property name="length">00:00:07:00</property>
  <property name="eof">pause</property>
  <property name="resource">/media/lnj/LNJ-1TB-HDD/vid/yt/Harry_Potter_Synchro/3-_Harry_Potter_und_der_Penner_von_Alcatraz/HPudPvA_Intro_1080Rmk.mp4</property>
  <property name="audio_index">1</property>
  <property name="video_index">0</property>
  <property name="mute_on_pause">1</property>
  <property name="mlt_service">avformat-novalidate</property>
  <property name="seekable">1</property>
  <property name="aspect_ratio">1</property>
  <property name="kdenlive:folderid">-1</property>
  <property name="kdenlive:file_size">3027348</property>
  <property name="kdenlive:file_hash">15d1fd6e5cc38bbc7f98ba7a7eee56ea</property>
  <property name="kdenlive:exiftool">1</property>
  <property name="global_feed">1</property>
  <property name="xml">was here</property>
 </producer>
 <playlist id="playlist4">
  <property name="kdenlive:track_name">Video 2</property>
  <entry out="174" producer="4_playlist4" in="0">
   <filter id="filter9">
    <property name="mlt_service">crop</property>
    <property name="kdenlive_id">crop</property>
    <property name="tag">crop</property>
    <property name="kdenlive_ix">1</property>
    <property name="top">140</property>
    <property name="left">0</property>
    <property name="bottom">140</property>
    <property name="right">0</property>
    <property name="center">0</property>
    <property name="center_bias">0</property>
    <property name="use_profile">0</property>
    <property name="kdenlive_info"/>
   </filter>
  </entry>
  <blank length="2433"/>
  <entry out="2628" producer="1_video" in="2616">
   <filter id="crop">
    <property name="mlt_service">crop</property>
    <property name="kdenlive_id">crop</property>
    <property name="tag">crop</property>
    <property name="kdenlive_ix">1</property>
    <property name="kdenlive_info"/>
    <property name="disable"/>
    <property name="top">93</property>
    <property name="left">0</property>
    <property name="bottom">93</property>
    <property name="right">0</property>
    <property name="center">0</property>
    <property name="center_bias">0</property>
    <property name="use_profile">0</property>
   </filter>
   <filter id="frei0r.select0r">
    <property name="version">0,5</property>
    <property name="mlt_service">frei0r.select0r</property>
    <property name="kdenlive_id">frei0r.select0r</property>
    <property name="tag">frei0r.select0r</property>
    <property name="kdenlive_info"/>
    <property name="kdenlive_ix">2</property>
    <property name="disable">0</property>
    <property name="Color to select">0x000000ff</property>
    <property name="Invert selection">0</property>
    <property name="Selection subspace">0,0</property>
    <property name="Subspace shape">1,0</property>
    <property name="Edge mode">0,7</property>
    <property name="Delta R / A / Hue">2616=0,186</property>
    <property name="Delta G / B / Chroma">2616=0,2</property>
    <property name="Delta B / I / I">2616=0,2</property>
    <property name="Slope">2616=0</property>
    <property name="Operation">0,0</property>
   </filter>
  </entry>
  <blank length="10701"/>
  <entry out="300" producer="6" in="0"/>
 </playlist>
 <playlist id="playlist5">
  <property name="kdenlive:track_name">Video 3</property>
  <blank length="2608"/>
  <entry out="2628" producer="1_video" in="2616">
   <filter id="filter10">
    <property name="mlt_service">crop</property>
    <property name="kdenlive_id">crop</property>
    <property name="tag">crop</property>
    <property name="kdenlive_ix">1</property>
    <property name="kdenlive_info"/>
    <property name="disable"/>
    <property name="top">93</property>
    <property name="left">0</property>
    <property name="bottom">93</property>
    <property name="right">0</property>
    <property name="center">0</property>
    <property name="center_bias">0</property>
    <property name="use_profile">0</property>
   </filter>
   <filter id="filter11">
    <property name="version">0,5</property>
    <property name="mlt_service">frei0r.select0r</property>
    <property name="kdenlive_id">frei0r.select0r</property>
    <property name="tag">frei0r.select0r</property>
    <property name="kdenlive_info"/>
    <property name="kdenlive_ix">2</property>
    <property name="disable">0</property>
    <property name="Color to select">0x410504ff</property>
    <property name="Invert selection">0</property>
    <property name="Selection subspace">0,0</property>
    <property name="Subspace shape">1,0</property>
    <property name="Edge mode">0,60</property>
    <property name="Delta R / A / Hue">2616=0,356</property>
    <property name="Delta G / B / Chroma">2616=0,2</property>
    <property name="Delta B / I / I">2616=0,2</property>
    <property name="Slope">2616=0</property>
    <property name="Operation">0,0</property>
   </filter>
  </entry>
  <blank length="10983"/>
  <entry out="27" producer="3" in="9"/>
 </playlist>
 <tractor id="maintractor" title="Anonymous Submission" global_feed="1" out="13623" in="0">
  <track producer="black_track"/>
  <track producer="playlist1" hide="video"/>
  <track producer="playlist2" hide="video"/>
  <track producer="playlist3"/>
  <track producer="playlist4"/>
  <track producer="playlist5"/>
  <transition id="transition0">
   <property name="a_track">0</property>
   <property name="b_track">1</property>
   <property name="mlt_service">mix</property>
   <property name="always_active">1</property>
   <property name="combine">1</property>
   <property name="internal_added">237</property>
  </transition>
  <transition id="transition1">
   <property name="a_track">0</property>
   <property name="b_track">2</property>
   <property name="mlt_service">mix</property>
   <property name="always_active">1</property>
   <property name="combine">1</property>
   <property name="internal_added">237</property>
  </transition>
  <transition id="transition2">
   <property name="a_track">0</property>
   <property name="b_track">3</property>
   <property name="mlt_service">mix</property>
   <property name="always_active">1</property>
   <property name="combine">1</property>
   <property name="internal_added">237</property>
  </transition>
  <transition id="transition4">
   <property name="a_track">0</property>
   <property name="b_track">4</property>
   <property name="mlt_service">mix</property>
   <property name="always_active">1</property>
   <property name="combine">1</property>
   <property name="internal_added">237</property>
  </transition>
  <transition id="transition6">
   <property name="a_track">0</property>
   <property name="b_track">5</property>
   <property name="mlt_service">mix</property>
   <property name="always_active">1</property>
   <property name="combine">1</property>
   <property name="internal_added">237</property>
  </transition>
  <transition id="transition3">
   <property name="a_track">0</property>
   <property name="b_track">3</property>
   <property name="compositing">0</property>
   <property name="distort">0</property>
   <property name="mlt_service">qtblend</property>
   <property name="internal_added">237</property>
  </transition>
  <transition id="transition5">
   <property name="a_track">0</property>
   <property name="b_track">4</property>
   <property name="compositing">0</property>
   <property name="distort">0</property>
   <property name="mlt_service">qtblend</property>
   <property name="internal_added">237</property>
  </transition>
  <transition id="transition7">
   <property name="a_track">0</property>
   <property name="b_track">5</property>
   <property name="compositing">0</property>
   <property name="distort">0</property>
   <property name="mlt_service">qtblend</property>
   <property name="internal_added">237</property>
  </transition>
 </tractor>
</mlt>
