<?xml version='1.0' encoding='utf-8'?>
<mlt title="Anonymous Submission" LC_NUMERIC="de_DE.UTF-8" producer="main_bin" version="6.16.0" root="/media/lnj/LNJ-1TB-HDD/vid/yt/DuraPhilms/SynchroRemasters/kdenlive-projects">
 <profile frame_rate_num="25" sample_aspect_num="1" display_aspect_den="5" colorspace="709" progressive="1" description="4K UHD 3840x1600p 25 fps" display_aspect_num="12" frame_rate_den="1" width="3840" height="1600" sample_aspect_den="1"/>
 <producer title="Anonymous Submission" id="5" in="00:00:00,000" out="00:25:17,480">
  <property name="length">00:25:17:13</property>
  <property name="eof">pause</property>
  <property name="resource">/media/lnj/LNJ-1TB-HDD/vid/yt/DuraPhilms/SynchroRemasters/videos/tagesthemen_07.01.2008_22_15.mp4</property>
  <property name="audio_index">1</property>
  <property name="video_index">0</property>
  <property name="mute_on_pause">1</property>
  <property name="mlt_service">avformat-novalidate</property>
  <property name="meta.media.nb_streams">1</property>
  <property name="meta.media.0.stream.type">video</property>
  <property name="meta.media.0.stream.frame_rate">25</property>
  <property name="meta.media.0.stream.sample_aspect_ratio">1</property>
  <property name="meta.media.0.codec.width">1280</property>
  <property name="meta.media.0.codec.height">720</property>
  <property name="meta.media.0.codec.rotate">0</property>
  <property name="meta.media.0.codec.frame_rate">25</property>
  <property name="meta.media.0.codec.pix_fmt">yuv420p</property>
  <property name="meta.media.0.codec.sample_aspect_ratio">1</property>
  <property name="meta.media.0.codec.colorspace">709</property>
  <property name="meta.media.0.codec.name">h264</property>
  <property name="meta.media.0.codec.long_name">H.264 / AVC / MPEG-4 AVC / MPEG-4 part 10</property>
  <property name="meta.media.0.codec.bit_rate">3564070</property>
  <property name="meta.attr.0.stream.creation_time.markup">1970-01-01T00:00:00.000000Z</property>
  <property name="meta.attr.0.stream.handler_name.markup">VideoHandler</property>
  <property name="meta.media.1.stream.type">audio</property>
  <property name="meta.media.1.codec.sample_fmt">fltp</property>
  <property name="meta.media.1.codec.sample_rate">48000</property>
  <property name="meta.media.1.codec.channels">1</property>
  <property name="meta.media.1.codec.name">aac</property>
  <property name="meta.media.1.codec.long_name">AAC (Advanced Audio Coding)</property>
  <property name="meta.media.1.codec.bit_rate">64000</property>
  <property name="meta.attr.1.stream.creation_time.markup">1970-01-01T00:00:00.000000Z</property>
  <property name="meta.attr.1.stream.handler_name.markup">SoundHandler</property>
  <property name="meta.attr.major_brand.markup">isom</property>
  <property name="meta.attr.minor_version.markup">512</property>
  <property name="meta.attr.compatible_brands.markup">isomiso2avc1mp41</property>
  <property name="meta.attr.creation_time.markup">1970-01-01T00:00:00.000000Z</property>
  <property name="meta.attr.title.markup">tagesschau.de</property>
  <property name="meta.attr.artist.markup">ard-aktuell</property>
  <property name="meta.attr.composer.markup">ard-aktuell</property>
  <property name="meta.attr.encoder.markup">Lavf58.20.100</property>
  <property name="meta.attr.comment.markup">Archivversion</property>
  <property name="seekable">1</property>
  <property name="meta.media.sample_aspect_num">1</property>
  <property name="meta.media.sample_aspect_den">1</property>
  <property name="aspect_ratio">1</property>
  <property name="meta.media.frame_rate_num">25</property>
  <property name="meta.media.frame_rate_den">1</property>
  <property name="meta.media.colorspace">709</property>
  <property name="meta.media.color_trc">2</property>
  <property name="meta.media.width">1280</property>
  <property name="meta.media.height">720</property>
  <property name="meta.media.top_field_first">0</property>
  <property name="meta.media.progressive">1</property>
  <property name="kdenlive:file_size">689331312</property>
  <property name="kdenlive:file_hash">618b3c570ed75c99da49ccd2f4f1cbde</property>
  <property name="global_feed">1</property>
  <property name="kdenlive:id">5</property>
  <property name="kdenlive:folderid">-1</property>
  <property name="kdenlive:proxy">-</property>
  <property name="kdenlive:originalurl">/media/lnj/LNJ-1TB-HDD/vid/yt/DuraPhilms/SynchroRemasters/videos/tagesthemen_07.01.2008_22_15.mp4</property>
  <property name="kdenlive:original.mlt_type">mlt_producer</property>
  <property name="kdenlive:original.in">00:00:00,000</property>
  <property name="kdenlive:original.out">00:25:17,480</property>
  <property name="kdenlive:original.length">00:25:17:13</property>
  <property name="kdenlive:original.eof">pause</property>
  <property name="kdenlive:original.resource">/media/lnj/LNJ-1TB-HDD/vid/yt/DuraPhilms/SynchroRemasters/videos/tagesthemen_07.01.2008_22_15.mp4</property>
  <property name="kdenlive:original.audio_index">1</property>
  <property name="kdenlive:original.video_index">0</property>
  <property name="kdenlive:original.mute_on_pause">1</property>
  <property name="kdenlive:original.mlt_service">avformat-novalidate</property>
  <property name="kdenlive:original.title">Anonymous Submission</property>
  <property name="kdenlive:original.id">5</property>
  <property name="kdenlive:original.meta.media.nb_streams">1</property>
  <property name="kdenlive:original.meta.media.0.stream.type">video</property>
  <property name="kdenlive:original.meta.media.0.stream.frame_rate">25</property>
  <property name="kdenlive:original.meta.media.0.stream.sample_aspect_ratio">1</property>
  <property name="kdenlive:original.meta.media.0.codec.width">1280</property>
  <property name="kdenlive:original.meta.media.0.codec.height">720</property>
  <property name="kdenlive:original.meta.media.0.codec.rotate">0</property>
  <property name="kdenlive:original.meta.media.0.codec.frame_rate">25</property>
  <property name="kdenlive:original.meta.media.0.codec.pix_fmt">yuv420p</property>
  <property name="kdenlive:original.meta.media.0.codec.sample_aspect_ratio">1</property>
  <property name="kdenlive:original.meta.media.0.codec.colorspace">709</property>
  <property name="kdenlive:original.meta.media.0.codec.name">h264</property>
  <property name="kdenlive:original.meta.media.0.codec.long_name">H.264 / AVC / MPEG-4 AVC / MPEG-4 part 10</property>
  <property name="kdenlive:original.meta.media.0.codec.bit_rate">3564070</property>
  <property name="kdenlive:original.meta.attr.0.stream.creation_time.markup">1970-01-01T00:00:00.000000Z</property>
  <property name="kdenlive:original.meta.attr.0.stream.handler_name.markup">VideoHandler</property>
  <property name="kdenlive:original.meta.media.1.stream.type">audio</property>
  <property name="kdenlive:original.meta.media.1.codec.sample_fmt">fltp</property>
  <property name="kdenlive:original.meta.media.1.codec.sample_rate">48000</property>
  <property name="kdenlive:original.meta.media.1.codec.channels">1</property>
  <property name="kdenlive:original.meta.media.1.codec.name">aac</property>
  <property name="kdenlive:original.meta.media.1.codec.long_name">AAC (Advanced Audio Coding)</property>
  <property name="kdenlive:original.meta.media.1.codec.bit_rate">64000</property>
  <property name="kdenlive:original.meta.attr.1.stream.creation_time.markup">1970-01-01T00:00:00.000000Z</property>
  <property name="kdenlive:original.meta.attr.1.stream.handler_name.markup">SoundHandler</property>
  <property name="kdenlive:original.meta.attr.major_brand.markup">isom</property>
  <property name="kdenlive:original.meta.attr.minor_version.markup">512</property>
  <property name="kdenlive:original.meta.attr.compatible_brands.markup">isomiso2avc1mp41</property>
  <property name="kdenlive:original.meta.attr.creation_time.markup">1970-01-01T00:00:00.000000Z</property>
  <property name="kdenlive:original.meta.attr.title.markup">tagesschau.de</property>
  <property name="kdenlive:original.meta.attr.artist.markup">ard-aktuell</property>
  <property name="kdenlive:original.meta.attr.composer.markup">ard-aktuell</property>
  <property name="kdenlive:original.meta.attr.encoder.markup">Lavf58.20.100</property>
  <property name="kdenlive:original.meta.attr.comment.markup">Archivversion</property>
  <property name="kdenlive:original.seekable">1</property>
  <property name="kdenlive:original.meta.media.sample_aspect_num">1</property>
  <property name="kdenlive:original.meta.media.sample_aspect_den">1</property>
  <property name="kdenlive:original.aspect_ratio">1</property>
  <property name="kdenlive:original.meta.media.frame_rate_num">25</property>
  <property name="kdenlive:original.meta.media.frame_rate_den">1</property>
  <property name="kdenlive:original.meta.media.colorspace">709</property>
  <property name="kdenlive:original.meta.media.color_trc">2</property>
  <property name="kdenlive:original.meta.media.width">1280</property>
  <property name="kdenlive:original.meta.media.height">720</property>
  <property name="kdenlive:original.meta.media.top_field_first">0</property>
  <property name="kdenlive:original.meta.media.progressive">1</property>
  <property name="kdenlive:original.kdenlive:file_size">689331312</property>
  <property name="kdenlive:original.kdenlive:file_hash">618b3c570ed75c99da49ccd2f4f1cbde</property>
  <property name="kdenlive:original.global_feed">1</property>
  <property name="kdenlive:original.kdenlive:id">5</property>
  <property name="kdenlive:original.kdenlive:folderid">-1</property>
  <property name="kdenlive:original.width">1280</property>
  <property name="kdenlive:original.height">720</property>
  <property name="kdenlive:original.root">/</property>
  <property name="kdenlive:original.backup">1</property>
 </producer>
 <producer title="Anonymous Submission" id="8" in="00:00:00,000" out="00:00:12,560">
  <property name="length">315</property>
  <property name="eof">pause</property>
  <property name="resource">/media/lnj/LNJ-1TB-HDD/vid/yt/DuraPhilms/SynchroRemasters/images/pva-08-tagesthemen-statistik.png</property>
  <property name="ttl">25</property>
  <property name="aspect_ratio">1</property>
  <property name="progressive">1</property>
  <property name="seekable">1</property>
  <property name="meta.media.width">1920</property>
  <property name="meta.media.height">800</property>
  <property name="mlt_service">qimage</property>
  <property name="kdenlive:folderid">-1</property>
  <property name="kdenlive:duration">125</property>
  <property name="kdenlive:file_size">101178</property>
  <property name="kdenlive:file_hash">241ab4456d3a8fff01bfb0526a4708f8</property>
  <property name="global_feed">1</property>
  <property name="kdenlive:id">8</property>
 </producer>
 <producer title="Anonymous Submission" id="9" in="00:00:00,000" out="00:00:04,960">
  <property name="length">125</property>
  <property name="eof">pause</property>
  <property name="resource">0x000000ff</property>
  <property name="aspect_ratio">1</property>
  <property name="mlt_service">color</property>
  <property name="kdenlive:clipname">Farb-Clip</property>
  <property name="kdenlive:folderid">-1</property>
  <property name="kdenlive:duration">125</property>
  <property name="kdenlive:file_hash">9196813120dc5c505072516b15baf414</property>
  <property name="global_feed">1</property>
  <property name="kdenlive:id">9</property>
 </producer>
 <producer title="Anonymous Submission" id="11" in="00:00:00,000" out="00:00:08,280">
  <property name="length">208</property>
  <property name="eof">pause</property>
  <property name="resource">/media/lnj/LNJ-1TB-HDD/vid/yt/DuraPhilms/SynchroRemasters/images/pva-08-tagesthemen-hintergrund-statistik.png</property>
  <property name="ttl">25</property>
  <property name="aspect_ratio">1</property>
  <property name="progressive">1</property>
  <property name="seekable">1</property>
  <property name="meta.media.width">1920</property>
  <property name="meta.media.height">800</property>
  <property name="mlt_service">qimage</property>
  <property name="kdenlive:duration">125</property>
  <property name="kdenlive:file_size">183811</property>
  <property name="kdenlive:file_hash">124a490d45e23250b92752acd1c88b04</property>
  <property name="global_feed">1</property>
  <property name="kdenlive:id">11</property>
  <property name="kdenlive:folderid">-1</property>
 </producer>
 <producer title="Anonymous Submission" id="7" in="00:00:00,000" out="00:00:15,480">
  <property name="length">388</property>
  <property name="eof">pause</property>
  <property name="resource">/media/lnj/LNJ-1TB-HDD/vid/yt/DuraPhilms/SynchroRemasters/images/pva-08-tagesthemen-hintergrund.png</property>
  <property name="ttl">25</property>
  <property name="aspect_ratio">1</property>
  <property name="progressive">1</property>
  <property name="seekable">1</property>
  <property name="meta.media.width">1920</property>
  <property name="meta.media.height">800</property>
  <property name="mlt_service">qimage</property>
  <property name="kdenlive:folderid">-1</property>
  <property name="kdenlive:duration">125</property>
  <property name="kdenlive:file_size">482857</property>
  <property name="kdenlive:file_hash">654ad3a502e9df01e094d50345342dd2</property>
  <property name="global_feed">1</property>
  <property name="kdenlive:id">7</property>
 </producer>
 <producer title="Anonymous Submission" id="producer0" in="00:00:00,000" out="00:10:24,760">
  <property name="length">15620</property>
  <property name="eof">pause</property>
  <property name="resource">/media/lnj/LNJ-1TB-HDD/vid/yt/DuraPhilms/SynchroRemasters/videos/PvA-08.mp4</property>
  <property name="audio_index">1</property>
  <property name="video_index">0</property>
  <property name="mute_on_pause">1</property>
  <property name="mlt_service">avformat-novalidate</property>
  <property name="meta.media.nb_streams">2</property>
  <property name="meta.media.0.stream.type">video</property>
  <property name="meta.media.0.stream.frame_rate">23,976</property>
  <property name="meta.media.0.stream.sample_aspect_ratio">0</property>
  <property name="meta.media.0.codec.width">1280</property>
  <property name="meta.media.0.codec.height">720</property>
  <property name="meta.media.0.codec.rotate">0</property>
  <property name="meta.media.0.codec.frame_rate">23,976</property>
  <property name="meta.media.0.codec.pix_fmt">yuv420p</property>
  <property name="meta.media.0.codec.sample_aspect_ratio">1</property>
  <property name="meta.media.0.codec.colorspace">709</property>
  <property name="meta.media.0.codec.color_trc">1</property>
  <property name="meta.media.0.codec.name">h264</property>
  <property name="meta.media.0.codec.long_name">H.264 / AVC / MPEG-4 AVC / MPEG-4 part 10</property>
  <property name="meta.media.0.codec.bit_rate">1760353</property>
  <property name="meta.attr.0.stream.handler_name.markup">VideoHandler</property>
  <property name="meta.media.1.stream.type">audio</property>
  <property name="meta.media.1.codec.sample_fmt">fltp</property>
  <property name="meta.media.1.codec.sample_rate">48000</property>
  <property name="meta.media.1.codec.channels">2</property>
  <property name="meta.media.1.codec.name">mp3float</property>
  <property name="meta.media.1.codec.long_name">MP3 (MPEG audio layer 3)</property>
  <property name="meta.media.1.codec.bit_rate">159012</property>
  <property name="meta.attr.1.stream.language.markup">deu</property>
  <property name="meta.attr.1.stream.handler_name.markup">Stereo</property>
  <property name="meta.attr.major_brand.markup">mp42</property>
  <property name="meta.attr.minor_version.markup">512</property>
  <property name="meta.attr.compatible_brands.markup">isomiso2avc1mp41</property>
  <property name="meta.attr.encoder.markup">HandBrake 6548svn 2014112401</property>
  <property name="meta.attr.title.markup">Harry Potter und der Penner von Alcatraz Teil 8</property>
  <property name="seekable">1</property>
  <property name="meta.media.sample_aspect_num">1</property>
  <property name="meta.media.sample_aspect_den">1</property>
  <property name="aspect_ratio">1</property>
  <property name="kdenlive:clipname"/>
  <property name="meta.media.frame_rate_num">674100000</property>
  <property name="meta.media.frame_rate_den">28115587</property>
  <property name="meta.media.colorspace">709</property>
  <property name="meta.media.color_trc">1</property>
  <property name="meta.media.width">1280</property>
  <property name="meta.media.height">720</property>
  <property name="kdenlive:id">12</property>
  <property name="kdenlive:file_size">150394567</property>
  <property name="kdenlive:file_hash">1ce6a9cbd059f7264b7dc1ff4389a7c4</property>
  <property name="kdenlive:folderid">-1</property>
  <property name="meta.media.top_field_first">0</property>
  <property name="meta.media.progressive">1</property>
  <property name="global_feed">1</property>
  <property name="kdenlive:proxy">-</property>
  <property name="kdenlive:originalurl">/media/lnj/LNJ-1TB-HDD/vid/yt/DuraPhilms/SynchroRemasters/videos/PvA-08.mp4</property>
  <property name="kdenlive:original.mlt_type">mlt_producer</property>
  <property name="kdenlive:original.in">00:00:00,000</property>
  <property name="kdenlive:original.out">00:10:24,760</property>
  <property name="kdenlive:original.length">15620</property>
  <property name="kdenlive:original.eof">pause</property>
  <property name="kdenlive:original.resource">/media/lnj/LNJ-1TB-HDD/vid/yt/DuraPhilms/SynchroRemasters/videos/PvA-08.mp4</property>
  <property name="kdenlive:original.meta.media.nb_streams">2</property>
  <property name="kdenlive:original.meta.media.0.stream.type">video</property>
  <property name="kdenlive:original.meta.media.0.stream.frame_rate">23,976</property>
  <property name="kdenlive:original.meta.media.0.stream.sample_aspect_ratio">0</property>
  <property name="kdenlive:original.meta.media.0.codec.width">1280</property>
  <property name="kdenlive:original.meta.media.0.codec.height">720</property>
  <property name="kdenlive:original.meta.media.0.codec.rotate">0</property>
  <property name="kdenlive:original.meta.media.0.codec.frame_rate">23,976</property>
  <property name="kdenlive:original.meta.media.0.codec.pix_fmt">yuv420p</property>
  <property name="kdenlive:original.meta.media.0.codec.sample_aspect_ratio">1</property>
  <property name="kdenlive:original.meta.media.0.codec.colorspace">709</property>
  <property name="kdenlive:original.meta.media.0.codec.color_trc">1</property>
  <property name="kdenlive:original.meta.media.0.codec.name">h264</property>
  <property name="kdenlive:original.meta.media.0.codec.long_name">H.264 / AVC / MPEG-4 AVC / MPEG-4 part 10</property>
  <property name="kdenlive:original.meta.media.0.codec.bit_rate">1760353</property>
  <property name="kdenlive:original.meta.attr.0.stream.handler_name.markup">VideoHandler</property>
  <property name="kdenlive:original.meta.media.1.stream.type">audio</property>
  <property name="kdenlive:original.meta.media.1.codec.sample_fmt">fltp</property>
  <property name="kdenlive:original.meta.media.1.codec.sample_rate">48000</property>
  <property name="kdenlive:original.meta.media.1.codec.channels">2</property>
  <property name="kdenlive:original.meta.media.1.codec.name">mp3float</property>
  <property name="kdenlive:original.meta.media.1.codec.long_name">MP3 (MPEG audio layer 3)</property>
  <property name="kdenlive:original.meta.media.1.codec.bit_rate">159012</property>
  <property name="kdenlive:original.meta.attr.1.stream.language.markup">deu</property>
  <property name="kdenlive:original.meta.attr.1.stream.handler_name.markup">Stereo</property>
  <property name="kdenlive:original.meta.attr.major_brand.markup">mp42</property>
  <property name="kdenlive:original.meta.attr.minor_version.markup">512</property>
  <property name="kdenlive:original.meta.attr.compatible_brands.markup">isomiso2avc1mp41</property>
  <property name="kdenlive:original.meta.attr.encoder.markup">HandBrake 6548svn 2014112401</property>
  <property name="kdenlive:original.meta.attr.title.markup">Harry Potter und der Penner von Alcatraz Teil 8</property>
  <property name="kdenlive:original.seekable">1</property>
  <property name="kdenlive:original.width">1280</property>
  <property name="kdenlive:original.height">720</property>
  <property name="kdenlive:original.meta.media.sample_aspect_num">1</property>
  <property name="kdenlive:original.meta.media.sample_aspect_den">1</property>
  <property name="kdenlive:original.aspect_ratio">1</property>
  <property name="kdenlive:original.audio_index">1</property>
  <property name="kdenlive:original.video_index">0</property>
  <property name="kdenlive:original.mute_on_pause">1</property>
  <property name="kdenlive:original.mlt_service">avformat-novalidate</property>
  <property name="kdenlive:original.meta.media.frame_rate_num">674100000</property>
  <property name="kdenlive:original.meta.media.frame_rate_den">28115587</property>
  <property name="kdenlive:original.meta.media.colorspace">709</property>
  <property name="kdenlive:original.meta.media.color_trc">1</property>
  <property name="kdenlive:original.meta.media.width">1280</property>
  <property name="kdenlive:original.meta.media.height">720</property>
  <property name="kdenlive:original.kdenlive:id">12</property>
  <property name="kdenlive:original.kdenlive:file_size">150394567</property>
  <property name="kdenlive:original.kdenlive:file_hash">1ce6a9cbd059f7264b7dc1ff4389a7c4</property>
  <property name="kdenlive:original.kdenlive:folderid">-1</property>
  <property name="kdenlive:original.meta.media.top_field_first">0</property>
  <property name="kdenlive:original.meta.media.progressive">1</property>
  <property name="kdenlive:original.title">Anonymous Submission</property>
  <property name="kdenlive:original.root">/</property>
  <property name="kdenlive:original.global_feed">1</property>
  <property name="kdenlive:original.backup">1</property>
 </producer>
 <producer title="Anonymous Submission" id="producer1" in="00:00:00,000" out="00:00:06,960">
  <property name="length">175</property>
  <property name="eof">pause</property>
  <property name="resource">/media/lnj/LNJ-1TB-HDD/vid/yt/DuraPhilms/SynchroRemasters/videos/HPudPvA_Intro_1080Rmk.mp4</property>
  <property name="audio_index">1</property>
  <property name="video_index">0</property>
  <property name="mute_on_pause">1</property>
  <property name="mlt_service">avformat-novalidate</property>
  <property name="seekable">1</property>
  <property name="aspect_ratio">1</property>
  <property name="kdenlive:file_size">3027348</property>
  <property name="kdenlive:file_hash">15d1fd6e5cc38bbc7f98ba7a7eee56ea</property>
  <property name="global_feed">1</property>
  <property name="kdenlive:id">4</property>
  <property name="kdenlive:folderid">-1</property>
  <property name="kdenlive:proxy">-</property>
  <property name="kdenlive:originalurl">/media/lnj/LNJ-1TB-HDD/vid/yt/DuraPhilms/SynchroRemasters/videos/HPudPvA_Intro_1080Rmk.mp4</property>
  <property name="kdenlive:clipname">HPudPvA_Intro_1080Rmk.mp4</property>
  <property name="meta.media.nb_streams">2</property>
  <property name="meta.media.0.stream.type">video</property>
  <property name="meta.media.0.stream.frame_rate">25</property>
  <property name="meta.media.0.stream.sample_aspect_ratio">1</property>
  <property name="meta.media.0.codec.width">1920</property>
  <property name="meta.media.0.codec.height">1080</property>
  <property name="meta.media.0.codec.rotate">0</property>
  <property name="meta.media.0.codec.frame_rate">25</property>
  <property name="meta.media.0.codec.pix_fmt">yuv420p</property>
  <property name="meta.media.0.codec.sample_aspect_ratio">1</property>
  <property name="meta.media.0.codec.colorspace">709</property>
  <property name="meta.media.0.codec.color_trc">1</property>
  <property name="meta.media.0.codec.name">h264</property>
  <property name="meta.media.0.codec.long_name">H.264 / AVC / MPEG-4 AVC / MPEG-4 part 10</property>
  <property name="meta.media.0.codec.bit_rate">3275175</property>
  <property name="meta.attr.0.stream.handler_name.markup">VideoHandler</property>
  <property name="meta.media.1.stream.type">audio</property>
  <property name="meta.media.1.codec.sample_fmt">fltp</property>
  <property name="meta.media.1.codec.sample_rate">48000</property>
  <property name="meta.media.1.codec.channels">2</property>
  <property name="meta.media.1.codec.name">aac</property>
  <property name="meta.media.1.codec.long_name">AAC (Advanced Audio Coding)</property>
  <property name="meta.media.1.codec.bit_rate">195945</property>
  <property name="meta.attr.1.stream.handler_name.markup">SoundHandler</property>
  <property name="meta.attr.major_brand.markup">isom</property>
  <property name="meta.attr.minor_version.markup">512</property>
  <property name="meta.attr.compatible_brands.markup">isomiso2avc1mp41</property>
  <property name="meta.attr.encoder.markup">Lavf57.56.101</property>
  <property name="meta.media.sample_aspect_num">1</property>
  <property name="meta.media.sample_aspect_den">1</property>
  <property name="meta.media.frame_rate_num">25</property>
  <property name="meta.media.frame_rate_den">1</property>
  <property name="meta.media.colorspace">709</property>
  <property name="meta.media.color_trc">1</property>
  <property name="meta.media.width">1920</property>
  <property name="meta.media.height">1080</property>
  <property name="meta.media.top_field_first">0</property>
  <property name="meta.media.progressive">1</property>
 </producer>
 <producer title="Anonymous Submission" id="producer2" in="00:00:00,000" out="00:09:44,720">
  <property name="length">14619</property>
  <property name="eof">pause</property>
  <property name="resource">/home/lnj/.cache/kdenlive/proxy/ac911c457de74c6ccd5e714eca3fc499.mkv</property>
  <property name="audio_index">-1</property>
  <property name="video_index">0</property>
  <property name="mute_on_pause">1</property>
  <property name="mlt_service">avformat-novalidate</property>
  <property name="seekable">1</property>
  <property name="aspect_ratio">1</property>
  <property name="kdenlive:clipname">PvA-08-HP3.2160p25.mkv</property>
  <property name="kdenlive:id">2</property>
  <property name="kdenlive:file_size">3392986612</property>
  <property name="kdenlive:file_hash">ac911c457de74c6ccd5e714eca3fc499</property>
  <property name="kdenlive:folderid">-1</property>
  <property name="kdenlive:proxy">/home/lnj/.cache/kdenlive/proxy/ac911c457de74c6ccd5e714eca3fc499.mkv</property>
  <property name="kdenlive:originalurl">/media/lnj/LNJ-1TB-HDD/vid/yt/DuraPhilms/SynchroRemasters/videos/PvA-08-HP3.2160p25.mkv</property>
  <property name="kdenlive:original.mlt_type">producer</property>
  <property name="kdenlive:original.in">00:00:00,000</property>
  <property name="kdenlive:original.out">00:09:44,720</property>
  <property name="kdenlive:original.length">14619</property>
  <property name="kdenlive:original.eof">pause</property>
  <property name="kdenlive:original.resource">/media/lnj/LNJ-1TB-HDD/vid/yt/DuraPhilms/SynchroRemasters/videos/PvA-08-HP3.2160p25.mkv</property>
  <property name="kdenlive:original.meta.media.nb_streams">1</property>
  <property name="kdenlive:original.meta.media.0.stream.type">video</property>
  <property name="kdenlive:original.meta.media.0.stream.frame_rate">25</property>
  <property name="kdenlive:original.meta.media.0.stream.sample_aspect_ratio">1</property>
  <property name="kdenlive:original.meta.media.0.codec.width">3840</property>
  <property name="kdenlive:original.meta.media.0.codec.height">1600</property>
  <property name="kdenlive:original.meta.media.0.codec.rotate">0</property>
  <property name="kdenlive:original.meta.media.0.codec.frame_rate">25</property>
  <property name="kdenlive:original.meta.media.0.codec.pix_fmt">yuv420p</property>
  <property name="kdenlive:original.meta.media.0.codec.sample_aspect_ratio">1</property>
  <property name="kdenlive:original.meta.media.0.codec.colorspace">709</property>
  <property name="kdenlive:original.meta.media.0.codec.name">h264</property>
  <property name="kdenlive:original.meta.media.0.codec.long_name">H.264 / AVC / MPEG-4 AVC / MPEG-4 part 10</property>
  <property name="kdenlive:original.meta.media.0.codec.bit_rate">0</property>
  <property name="kdenlive:original.meta.attr.0.stream.ENCODER.markup">Lavc58.35.100 libx264</property>
  <property name="kdenlive:original.meta.attr.0.stream.DURATION.markup">00:09:44.760000000</property>
  <property name="kdenlive:original.meta.attr.ENCODER.markup">Lavf58.20.100</property>
  <property name="kdenlive:original.seekable">1</property>
  <property name="kdenlive:original.width">3840</property>
  <property name="kdenlive:original.height">1600</property>
  <property name="kdenlive:original.meta.media.sample_aspect_num">1</property>
  <property name="kdenlive:original.meta.media.sample_aspect_den">1</property>
  <property name="kdenlive:original.aspect_ratio">1</property>
  <property name="kdenlive:original.audio_index">-1</property>
  <property name="kdenlive:original.video_index">0</property>
  <property name="kdenlive:original.mute_on_pause">1</property>
  <property name="kdenlive:original.mlt_service">avformat-novalidate</property>
  <property name="kdenlive:original.meta.media.frame_rate_num">25</property>
  <property name="kdenlive:original.meta.media.frame_rate_den">1</property>
  <property name="kdenlive:original.meta.media.colorspace">709</property>
  <property name="kdenlive:original.meta.media.color_trc">2</property>
  <property name="kdenlive:original.meta.media.width">3840</property>
  <property name="kdenlive:original.meta.media.height">1600</property>
  <property name="kdenlive:original.kdenlive:id">2</property>
  <property name="kdenlive:original.kdenlive:file_size">3392986612</property>
  <property name="kdenlive:original.kdenlive:file_hash">ac911c457de74c6ccd5e714eca3fc499</property>
  <property name="kdenlive:original.kdenlive:folderid">-1</property>
  <property name="kdenlive:original.backup">1</property>
  <property name="global_feed">1</property>
  <property name="meta.media.nb_streams">1</property>
  <property name="meta.media.0.stream.type">video</property>
  <property name="meta.media.0.stream.frame_rate">25</property>
  <property name="meta.media.0.stream.sample_aspect_ratio">1</property>
  <property name="meta.media.0.codec.width">720</property>
  <property name="meta.media.0.codec.height">300</property>
  <property name="meta.media.0.codec.rotate">0</property>
  <property name="meta.media.0.codec.frame_rate">25</property>
  <property name="meta.media.0.codec.pix_fmt">yuv420p</property>
  <property name="meta.media.0.codec.sample_aspect_ratio">1</property>
  <property name="meta.media.0.codec.colorspace">601</property>
  <property name="meta.media.0.codec.name">h264</property>
  <property name="meta.media.0.codec.long_name">H.264 / AVC / MPEG-4 AVC / MPEG-4 part 10</property>
  <property name="meta.media.0.codec.bit_rate">0</property>
  <property name="meta.attr.0.stream.ENCODER.markup">Lavc58.35.100 libx264</property>
  <property name="meta.attr.0.stream.DURATION.markup">00:09:44.760000000</property>
  <property name="meta.attr.ENCODER.markup">Lavf58.20.100</property>
  <property name="meta.media.sample_aspect_num">1</property>
  <property name="meta.media.sample_aspect_den">1</property>
  <property name="meta.media.frame_rate_num">25</property>
  <property name="meta.media.frame_rate_den">1</property>
  <property name="meta.media.colorspace">601</property>
  <property name="meta.media.color_trc">2</property>
  <property name="meta.media.width">720</property>
  <property name="meta.media.height">300</property>
  <property name="meta.media.top_field_first">0</property>
  <property name="meta.media.progressive">1</property>
 </producer>
 <producer id="producer4" in="00:00:00,000" out="00:00:04,920">
  <property name="length">124</property>
  <property name="eof">pause</property>
  <property name="resource"/>
  <property name="progressive">1</property>
  <property name="aspect_ratio">1</property>
  <property name="seekable">1</property>
  <property name="mlt_service">kdenlivetitle</property>
  <property name="kdenlive:duration">00:00:05,000</property>
  <property name="kdenlive:clipname">10 Stunden s...</property>
  <property name="xmldata">&lt;kdenlivetitle duration="125" LC_NUMERIC="de_DE.UTF-8" width="3840" height="1600" out="124">
 &lt;item type="QGraphicsTextItem" z-index="1">
  &lt;position x="2837" y="1437">
   &lt;transform>1,0,0,0,1,0,0,0,1&lt;/transform>
  &lt;/position>
  &lt;content line-spacing="0" shadow="0;#64000000;3;3;3" font-underline="0" box-height="82" font="DejaVu Sans" letter-spacing="0" font-pixel-size="70" font-italic="0" alignment="1" font-weight="50" box-width="810.469" font-color="255,225,125,255">Lautstärkewarnhinweis&lt;/content>
 &lt;/item>
 &lt;item type="QGraphicsTextItem" z-index="0">
  &lt;position x="1255" y="724">
   &lt;transform>1,0,0,0,1,0,0,0,1&lt;/transform>
  &lt;/position>
  &lt;content line-spacing="0" shadow="0;#64000000;3;3;3" font-underline="0" box-height="152" font-outline-color="223,223,223,255" font="DejaVu Sans" letter-spacing="0" font-pixel-size="130" font-italic="0" alignment="1" font-weight="50" font-outline="0" box-width="1329.38" font-color="255,255,255,255">10 Stunden später...&lt;/content>
 &lt;/item>
 &lt;startviewport rect="0,0,3840,1600"/>
 &lt;endviewport rect="0,0,3840,1600"/>
 &lt;background color="0,0,0,0"/>
&lt;/kdenlivetitle>
</property>
  <property name="kdenlive:id">6</property>
  <property name="kdenlive:file_hash">2126a9415cc384759c8ee7df38bc554f</property>
  <property name="kdenlive:folderid">-1</property>
  <property name="force_reload">0</property>
  <property name="global_feed">1</property>
  <property name="meta.media.width">3840</property>
  <property name="meta.media.height">1600</property>
 </producer>
 <producer id="producer3" in="00:00:00,000" out="00:00:04,920">
  <property name="length">124</property>
  <property name="eof">pause</property>
  <property name="resource"/>
  <property name="progressive">1</property>
  <property name="aspect_ratio">1</property>
  <property name="seekable">1</property>
  <property name="mlt_service">kdenlivetitle</property>
  <property name="kdenlive:duration">00:00:05,000</property>
  <property name="kdenlive:clipname">4K-Remake by...</property>
  <property name="xmldata">&lt;kdenlivetitle duration="125" LC_NUMERIC="de_DE.UTF-8" width="3840" height="1600" out="124">
 &lt;item type="QGraphicsTextItem" z-index="0">
  &lt;position x="1336" y="733">
   &lt;transform rotation="0,0,0" zoom="100">1,0,0,0,1,0,0,0,1&lt;/transform>
  &lt;/position>
  &lt;content line-spacing="0" shadow="0;#64000000;3;3;3" font-underline="0" box-height="131" font-outline-color="223,223,223,255" font="Harry P" letter-spacing="0" font-pixel-size="130" font-italic="0" alignment="4" font-weight="50" font-outline="0" box-width="1165.28" font-color="255,128,46,255">4K-Remake von LNJ, 2019&lt;/content>
 &lt;/item>
 &lt;startviewport rect="0,0,3840,1600"/>
 &lt;endviewport rect="0,0,3840,1600"/>
 &lt;background color="0,0,0,0"/>
&lt;/kdenlivetitle>
</property>
  <property name="kdenlive:id">13</property>
  <property name="kdenlive:file_hash">349426dcac5c54169ff0805569a701d8</property>
  <property name="kdenlive:folderid">-1</property>
  <property name="force_reload">0</property>
  <property name="global_feed">1</property>
  <property name="meta.media.width">3840</property>
  <property name="meta.media.height">1600</property>
 </producer>
 <producer id="producer5" in="00:00:00,000" out="00:00:04,920">
  <property name="length">124</property>
  <property name="eof">pause</property>
  <property name="resource"/>
  <property name="progressive">1</property>
  <property name="aspect_ratio">1</property>
  <property name="seekable">1</property>
  <property name="mlt_service">kdenlivetitle</property>
  <property name="kdenlive:duration">124</property>
  <property name="kdenlive:clipname">Alle Teile a...</property>
  <property name="xmldata">&lt;kdenlivetitle duration="125" LC_NUMERIC="de_DE.UTF-8" width="3840" height="1600" out="124">
 &lt;item type="QGraphicsTextItem" z-index="0">
  &lt;position x="1419" y="660">
   &lt;transform>1,0,0,0,1,0,0,0,1&lt;/transform>
  &lt;/position>
  &lt;content line-spacing="19" shadow="0;#64000000;3;3;3" font-underline="0" box-height="279" font-outline-color="223,223,223,255" font="Harry P" letter-spacing="0" font-pixel-size="130" font-italic="0" alignment="4" font-weight="50" font-outline="0" box-width="1001.13" font-color="255,128,46,255">Alle Teile auf:
https://www.duraphilms.tk&lt;/content>
 &lt;/item>
 &lt;startviewport rect="0,0,3840,1600"/>
 &lt;endviewport rect="0,0,3840,1600"/>
 &lt;background color="0,0,0,0"/>
&lt;/kdenlivetitle>
</property>
  <property name="kdenlive:id">14</property>
  <property name="kdenlive:file_hash">95511ae7a57dd680ad1a5c4f9b71d71c</property>
  <property name="kdenlive:folderid">-1</property>
  <property name="force_reload">0</property>
  <property name="meta.media.width">3840</property>
  <property name="meta.media.height">1600</property>
 </producer>
 <producer title="Anonymous Submission" id="producer6" in="00:00:00,000" out="00:00:04,920">
  <property name="length">124</property>
  <property name="eof">pause</property>
  <property name="resource"/>
  <property name="progressive">1</property>
  <property name="aspect_ratio">1</property>
  <property name="seekable">1</property>
  <property name="mlt_service">kdenlivetitle</property>
  <property name="kdenlive:duration">00:00:05,000</property>
  <property name="kdenlive:clipname">Spasten?</property>
  <property name="xmldata">&lt;kdenlivetitle duration="125" LC_NUMERIC="de_DE.UTF-8" width="3840" height="1600" out="124">
 &lt;item type="QGraphicsTextItem" z-index="0">
  &lt;position x="611" y="1124">
   &lt;transform>1,0,0,0,1,0,0,0,1&lt;/transform>
  &lt;/position>
  &lt;content line-spacing="0" shadow="1;#64000000;3;3;3" font-underline="0" box-height="176" font-outline-color="0,0,0,255" font="DejaVu Sans" letter-spacing="0" font-pixel-size="150" font-italic="0" alignment="1" font-weight="50" font-outline="0.3" box-width="756.609" font-color="255,255,255,255">Spasten…&lt;/content>
 &lt;/item>
 &lt;startviewport rect="0,0,3840,1600"/>
 &lt;endviewport rect="0,0,3840,1600"/>
 &lt;background color="0,0,0,0"/>
&lt;/kdenlivetitle>
</property>
  <property name="kdenlive:id">15</property>
  <property name="kdenlive:file_hash">df60517b92434b996de16ab8ae6412bb</property>
  <property name="kdenlive:folderid">-1</property>
  <property name="force_reload">0</property>
  <property name="global_feed">1</property>
  <property name="meta.media.width">3840</property>
  <property name="meta.media.height">1600</property>
 </producer>
 <producer title="Anonymous Submission" id="producer7" in="00:00:00,000" out="00:00:04,920">
  <property name="length">124</property>
  <property name="eof">pause</property>
  <property name="resource"/>
  <property name="progressive">1</property>
  <property name="aspect_ratio">1</property>
  <property name="seekable">1</property>
  <property name="mlt_service">kdenlivetitle</property>
  <property name="kdenlive:duration">00:00:05,000</property>
  <property name="kdenlive:clipname">Spasten? (Kopie)</property>
  <property name="xmldata">&lt;kdenlivetitle duration="125" LC_NUMERIC="de_DE.UTF-8" width="3840" height="1600" out="124">
 &lt;item type="QGraphicsTextItem" z-index="0">
  &lt;position x="1618" y="800">
   &lt;transform>1,0,0,0,1,0,0,0,1&lt;/transform>
  &lt;/position>
  &lt;content line-spacing="0" shadow="1;#64000000;3;3;3" font-underline="0" box-height="187" font-outline-color="0,0,0,255" font="DejaVu Sans" letter-spacing="0" font-pixel-size="160" font-italic="0" alignment="1" font-weight="50" font-outline="0.3" box-width="714.25" font-color="255,255,255,255">Spasten!&lt;/content>
 &lt;/item>
 &lt;startviewport rect="0,0,3840,1600"/>
 &lt;endviewport rect="0,0,3840,1600"/>
 &lt;background color="0,0,0,0"/>
&lt;/kdenlivetitle>
</property>
  <property name="kdenlive:id">16</property>
  <property name="kdenlive:file_hash">ed4abc90b3d967587037a08e912ac01b</property>
  <property name="kdenlive:folderid">-1</property>
  <property name="force_reload">0</property>
  <property name="global_feed">1</property>
  <property name="meta.media.width">3840</property>
  <property name="meta.media.height">1600</property>
 </producer>
 <producer id="producer8" in="00:00:00,000" out="00:00:04,920">
  <property name="length">124</property>
  <property name="eof">pause</property>
  <property name="resource"/>
  <property name="progressive">1</property>
  <property name="aspect_ratio">1</property>
  <property name="seekable">1</property>
  <property name="mlt_service">kdenlivetitle</property>
  <property name="kdenlive:duration">00:00:05,000</property>
  <property name="kdenlive:clipname">Spasten? (Kopie) (Kopie)</property>
  <property name="xmldata">&lt;kdenlivetitle duration="125" LC_NUMERIC="de_DE.UTF-8" width="3840" height="1600" out="124">
 &lt;item type="QGraphicsTextItem" z-index="0">
  &lt;position x="2391" y="1067">
   &lt;transform>1,0,0,0,1,0,0,0,1&lt;/transform>
  &lt;/position>
  &lt;content line-spacing="0" shadow="1;#64000000;3;3;3" font-underline="0" box-height="187" font-outline-color="0,0,0,255" font="DejaVu Sans" letter-spacing="0" font-pixel-size="160" font-italic="1" alignment="1" font-weight="75" font-outline="0.3" box-width="972.844" font-color="255,255,255,255">SPASTEN!!&lt;/content>
 &lt;/item>
 &lt;startviewport rect="0,0,3840,1600"/>
 &lt;endviewport rect="0,0,3840,1600"/>
 &lt;background color="0,0,0,0"/>
&lt;/kdenlivetitle>
</property>
  <property name="kdenlive:id">17</property>
  <property name="kdenlive:file_hash">bc315ea201b128b587f9c2aad08257e8</property>
  <property name="kdenlive:folderid">-1</property>
  <property name="force_reload">0</property>
  <property name="global_feed">1</property>
  <property name="meta.media.width">3840</property>
  <property name="meta.media.height">1600</property>
 </producer>
 <producer id="producer9" in="00:00:00,000" out="00:00:04,920">
  <property name="length">124</property>
  <property name="eof">pause</property>
  <property name="resource"/>
  <property name="progressive">1</property>
  <property name="aspect_ratio">1</property>
  <property name="seekable">1</property>
  <property name="mlt_service">kdenlivetitle</property>
  <property name="kdenlive:duration">00:00:05,000</property>
  <property name="kdenlive:clipname">Harry Potter...</property>
  <property name="xmldata">&lt;kdenlivetitle duration="125" LC_NUMERIC="de_DE.UTF-8" width="3840" height="1600" out="124">
 &lt;item type="QGraphicsTextItem" z-index="2">
  &lt;position x="69" y="1374">
   &lt;transform>1,0,0,0,1,0,0,0,1&lt;/transform>
  &lt;/position>
  &lt;content line-spacing="0" shadow="1;#64000000;3;3;3" font-underline="0" box-height="100" font="DejaVu Sans" letter-spacing="0" font-pixel-size="85" font-italic="1" alignment="1" font-weight="50" box-width="3001.91" font-color="255,255,255,255">Tut so, als wäre er McDonald's-Qualitäts-Scout in Hogwarts-Downtown&lt;/content>
 &lt;/item>
 &lt;item type="QGraphicsTextItem" z-index="1">
  &lt;position x="69" y="1173">
   &lt;transform>1,0,0,0,1,0,0,0,1&lt;/transform>
  &lt;/position>
  &lt;content line-spacing="0" shadow="0;#64000000;3;3;3" font-underline="0" box-height="187" font="DejaVu Sans" letter-spacing="0" font-pixel-size="160" font-italic="0" alignment="1" font-weight="50" box-width="1746.56" font-color="255,255,255,255">Harry Potter, 11 Jahre&lt;/content>
 &lt;/item>
 &lt;item type="QGraphicsTextItem" z-index="-1">
  &lt;position x="74" y="1177">
   &lt;transform>1,0,0,0,1,0,0,0,1&lt;/transform>
  &lt;/position>
  &lt;content line-spacing="0" shadow="0;#64000000;3;3;3" font-underline="0" box-height="187" font="DejaVu Sans" letter-spacing="0" font-pixel-size="160" font-italic="0" alignment="1" font-weight="50" box-width="1746.56" font-color="0,0,0,100">Harry Potter, 11 Jahre&lt;/content>
 &lt;/item>
 &lt;item type="QGraphicsRectItem" z-index="-2">
  &lt;position x="-938" y="1156">
   &lt;transform zoom="100">1,0,0,0,1,0,0,0,1&lt;/transform>
  &lt;/position>
  &lt;content brushcolor="0,0,0,255" pencolor="0,0,0,255" penwidth="0" rect="0,0,4820,360" gradient="#ffff1414;#00000000;0;100;0"/>
 &lt;/item>
 &lt;startviewport rect="0,0,3840,1600"/>
 &lt;endviewport rect="0,0,3840,1600"/>
 &lt;background color="0,0,0,0"/>
&lt;/kdenlivetitle>
</property>
  <property name="kdenlive:id">18</property>
  <property name="kdenlive:file_hash">5d7d5203e575542b5898c3f390ff5ffc</property>
  <property name="kdenlive:folderid">-1</property>
  <property name="force_reload">0</property>
  <property name="global_feed">1</property>
  <property name="meta.media.width">3840</property>
  <property name="meta.media.height">1600</property>
 </producer>
 <producer id="producer10" in="00:00:00,000" out="00:00:04,920">
  <property name="length">124</property>
  <property name="eof">pause</property>
  <property name="resource"/>
  <property name="progressive">1</property>
  <property name="aspect_ratio">1</property>
  <property name="seekable">1</property>
  <property name="mlt_service">kdenlivetitle</property>
  <property name="kdenlive:duration">00:00:05,000</property>
  <property name="kdenlive:clipname">RTL II</property>
  <property name="xmldata">&lt;kdenlivetitle duration="125" LC_NUMERIC="de_DE.UTF-8" width="3840" height="1600" out="124">
 &lt;item type="QGraphicsTextItem" z-index="1001">
  &lt;position x="114" y="1195">
   &lt;transform>1,0,0,0,1,0,0,0,1&lt;/transform>
  &lt;/position>
  &lt;content line-spacing="0" shadow="0;#64000000;3;3;3" font-underline="0" box-height="164" font="DejaVu Sans" letter-spacing="0" font-pixel-size="140" font-italic="0" alignment="1" font-weight="50" box-width="387.828" font-color="0,3,17,255">RTL II&lt;/content>
 &lt;/item>
 &lt;item type="QGraphicsRectItem" z-index="1000">
  &lt;position x="65" y="1175">
   &lt;transform zoom="100">1,0,0,0,1,0,0,0,1&lt;/transform>
  &lt;/position>
  &lt;content brushcolor="255,255,255,255" pencolor="0,0,0,255" penwidth="0" rect="0,0,735,200"/>
 &lt;/item>
 &lt;item type="QGraphicsTextItem" z-index="4">
  &lt;position x="183" y="1391">
   &lt;transform>1,0,0,0,1,0,0,0,1&lt;/transform>
  &lt;/position>
  &lt;content line-spacing="0" shadow="0;#64000000;3;3;3" font-underline="0" box-height="117" font="DejaVu Sans" letter-spacing="0" font-pixel-size="100" font-italic="0" alignment="1" font-weight="50" box-width="675.891" font-color="21,21,21,255">20:15 - 22:30&lt;/content>
 &lt;/item>
 &lt;item type="QGraphicsTextItem" z-index="2">
  &lt;position x="956" y="1349">
   &lt;transform>1,0,0,0,1,0,0,0,1&lt;/transform>
  &lt;/position>
  &lt;content line-spacing="0" shadow="0;#64000000;3;3;3" font-underline="0" box-height="187" font="DejaVu Sans" letter-spacing="0" font-pixel-size="160" font-italic="0" alignment="1" font-weight="50" box-width="2208.52" font-color="241,241,241,255">Hütler – Aufstieg des Bösen&lt;/content>
 &lt;/item>
 &lt;item type="QGraphicsRectItem" z-index="1">
  &lt;position x="139" y="1340">
   &lt;transform zoom="100">1,0,0,0,1,0,0,0,1&lt;/transform>
  &lt;/position>
  &lt;content brushcolor="46,136,214,255" pencolor="0,0,0,255" penwidth="0" rect="0,0,3100,212"/>
 &lt;/item>
 &lt;startviewport rect="0,0,3840,1600"/>
 &lt;endviewport rect="0,0,3840,1600"/>
 &lt;background color="0,0,0,0"/>
&lt;/kdenlivetitle>
</property>
  <property name="kdenlive:id">19</property>
  <property name="kdenlive:file_hash">db61e97c2372e6d16e3c46b20a394be2</property>
  <property name="kdenlive:folderid">-1</property>
  <property name="force_reload">0</property>
  <property name="global_feed">1</property>
  <property name="meta.media.width">3840</property>
  <property name="meta.media.height">1600</property>
 </producer>
 <playlist id="main_bin">
  <property name="kdenlive:docproperties.activeTrack">4</property>
  <property name="kdenlive:docproperties.audioTarget">-1</property>
  <property name="kdenlive:docproperties.audiotargettrack">1</property>
  <property name="kdenlive:docproperties.decimalPoint">,</property>
  <property name="kdenlive:docproperties.dirtypreviewchunks"/>
  <property name="kdenlive:docproperties.disablepreview">0</property>
  <property name="kdenlive:docproperties.documentid">1551627129603</property>
  <property name="kdenlive:docproperties.enableTimelineZone">0</property>
  <property name="kdenlive:docproperties.enableexternalproxy">0</property>
  <property name="kdenlive:docproperties.enableproxy">1</property>
  <property name="kdenlive:docproperties.externalproxyparams"/>
  <property name="kdenlive:docproperties.generateimageproxy">0</property>
  <property name="kdenlive:docproperties.generateproxy">1</property>
  <property name="kdenlive:docproperties.groups">[
    {
        "children": [
            {
                "data": "1:0",
                "leaf": "clip",
                "type": "Leaf"
            },
            {
                "data": "0:0",
                "leaf": "clip",
                "type": "Leaf"
            }
        ],
        "type": "AVSplit"
    }
]
</property>
  <property name="kdenlive:docproperties.kdenliveversion">19.04.3</property>
  <property name="kdenlive:docproperties.position">15628</property>
  <property name="kdenlive:docproperties.previewchunks">2325,2350,2375,2400,2425</property>
  <property name="kdenlive:docproperties.previewextension">avi</property>
  <property name="kdenlive:docproperties.previewparameters">f=avi vcodec=mjpeg progressive=1 qscale=1</property>
  <property name="kdenlive:docproperties.profile">/home/lnj/.local/share/kdenlive/profiles/customprofile2</property>
  <property name="kdenlive:docproperties.proxyextension">mov</property>
  <property name="kdenlive:docproperties.proxyimageminsize">2000</property>
  <property name="kdenlive:docproperties.proxyimagesize">800</property>
  <property name="kdenlive:docproperties.proxyminsize">3000</property>
  <property name="kdenlive:docproperties.proxyparams">-vf scale=720:-2 -vcodec libx264 -g 1 -bf 0 -vb 0 -crf 20 -preset veryfast -acodec aac -ab 128k</property>
  <property name="kdenlive:docproperties.renderaudioquality">160</property>
  <property name="kdenlive:docproperties.rendercategory">Audio only</property>
  <property name="kdenlive:docproperties.renderendguide">-1</property>
  <property name="kdenlive:docproperties.renderexportaudio">0</property>
  <property name="kdenlive:docproperties.renderfield">0</property>
  <property name="kdenlive:docproperties.renderguide">0</property>
  <property name="kdenlive:docproperties.renderplay">0</property>
  <property name="kdenlive:docproperties.renderprofile">WAV</property>
  <property name="kdenlive:docproperties.renderquality">20</property>
  <property name="kdenlive:docproperties.renderratio">1</property>
  <property name="kdenlive:docproperties.renderrescale">1</property>
  <property name="kdenlive:docproperties.renderrescaleheight">533</property>
  <property name="kdenlive:docproperties.renderrescalewidth">1280</property>
  <property name="kdenlive:docproperties.renderscanning">0</property>
  <property name="kdenlive:docproperties.renderspeed">3</property>
  <property name="kdenlive:docproperties.renderstartguide">-1</property>
  <property name="kdenlive:docproperties.rendertcoverlay">0</property>
  <property name="kdenlive:docproperties.rendertctype">0</property>
  <property name="kdenlive:docproperties.rendertwopass">0</property>
  <property name="kdenlive:docproperties.renderurl">/media/lnj/LNJ-1TB-HDD/vid/yt/DuraPhilms/HPudPvA/1080rmk/HPudPvA_08_4k-Remake.wav</property>
  <property name="kdenlive:docproperties.renderzone">0</property>
  <property name="kdenlive:docproperties.scrollPos">23520</property>
  <property name="kdenlive:docproperties.seekOffset">30000</property>
  <property name="kdenlive:docproperties.version">0.98</property>
  <property name="kdenlive:docproperties.verticalzoom">1</property>
  <property name="kdenlive:docproperties.videoTarget">-1</property>
  <property name="kdenlive:docproperties.videotargettrack">3</property>
  <property name="kdenlive:docproperties.zonein">2330</property>
  <property name="kdenlive:docproperties.zoneout">2427</property>
  <property name="kdenlive:docproperties.zoom">5</property>
  <property name="kdenlive:documentnotes"/>
  <property name="xml_retain">1</property>
  <entry producer="5" in="00:00:00,000" out="00:25:17,480"/>
  <entry producer="8" in="00:00:00,000" out="00:00:12,560"/>
  <entry producer="9" in="00:00:00,000" out="00:00:04,960"/>
  <entry producer="11" in="00:00:00,000" out="00:00:08,280"/>
  <entry producer="7" in="00:00:00,000" out="00:00:15,480"/>
  <entry producer="producer0" in="00:00:00,000" out="00:10:24,760"/>
  <entry producer="producer1" in="00:00:00,000" out="00:00:06,960"/>
  <entry producer="producer2" in="00:00:00,000" out="00:09:44,720"/>
  <entry producer="producer4" in="00:00:00,000" out="00:00:04,920"/>
  <entry producer="producer3" in="00:00:00,000" out="00:00:04,920"/>
  <entry producer="producer5" in="00:00:00,000" out="00:00:04,920"/>
  <entry producer="producer6" in="00:00:00,000" out="00:00:04,920"/>
  <entry producer="producer7" in="00:00:00,000" out="00:00:04,920"/>
  <entry producer="producer8" in="00:00:00,000" out="00:00:04,920"/>
  <entry producer="producer9" in="00:00:00,000" out="00:00:04,920"/>
  <entry producer="producer10" in="00:00:00,000" out="00:00:04,920"/>
 </playlist>
 <producer id="black_track" in="00:00:00,000" out="00:30:26,760">
  <property name="length">2147483647</property>
  <property name="eof">continue</property>
  <property name="resource">black</property>
  <property name="aspect_ratio">1</property>
  <property name="mlt_service">color</property>
  <property name="set.test_audio">0</property>
 </producer>
 <producer title="Anonymous Submission" id="producer11" in="00:00:00,000" out="00:00:06,960">
  <property name="length">175</property>
  <property name="eof">pause</property>
  <property name="resource">/media/lnj/LNJ-1TB-HDD/vid/yt/DuraPhilms/SynchroRemasters/videos/HPudPvA_Intro_1080Rmk.mp4</property>
  <property name="audio_index">1</property>
  <property name="video_index">0</property>
  <property name="mute_on_pause">1</property>
  <property name="mlt_service">avformat-novalidate</property>
  <property name="seekable">1</property>
  <property name="aspect_ratio">1</property>
  <property name="kdenlive:file_size">3027348</property>
  <property name="kdenlive:file_hash">15d1fd6e5cc38bbc7f98ba7a7eee56ea</property>
  <property name="global_feed">1</property>
  <property name="kdenlive:id">4</property>
  <property name="kdenlive:folderid">-1</property>
  <property name="kdenlive:proxy">-</property>
  <property name="kdenlive:originalurl">/media/lnj/LNJ-1TB-HDD/vid/yt/DuraPhilms/SynchroRemasters/videos/HPudPvA_Intro_1080Rmk.mp4</property>
  <property name="kdenlive:clipname">HPudPvA_Intro_1080Rmk.mp4</property>
  <property name="xml">was here</property>
  <property name="meta.media.nb_streams">2</property>
  <property name="meta.media.0.stream.type">video</property>
  <property name="meta.media.0.stream.frame_rate">25</property>
  <property name="meta.media.0.stream.sample_aspect_ratio">1</property>
  <property name="meta.media.0.codec.width">1920</property>
  <property name="meta.media.0.codec.height">1080</property>
  <property name="meta.media.0.codec.rotate">0</property>
  <property name="meta.media.0.codec.frame_rate">25</property>
  <property name="meta.media.0.codec.pix_fmt">yuv420p</property>
  <property name="meta.media.0.codec.sample_aspect_ratio">1</property>
  <property name="meta.media.0.codec.colorspace">709</property>
  <property name="meta.media.0.codec.color_trc">1</property>
  <property name="meta.media.0.codec.name">h264</property>
  <property name="meta.media.0.codec.long_name">H.264 / AVC / MPEG-4 AVC / MPEG-4 part 10</property>
  <property name="meta.media.0.codec.bit_rate">3275175</property>
  <property name="meta.attr.0.stream.handler_name.markup">VideoHandler</property>
  <property name="meta.media.1.stream.type">audio</property>
  <property name="meta.media.1.codec.sample_fmt">fltp</property>
  <property name="meta.media.1.codec.sample_rate">48000</property>
  <property name="meta.media.1.codec.channels">2</property>
  <property name="meta.media.1.codec.name">aac</property>
  <property name="meta.media.1.codec.long_name">AAC (Advanced Audio Coding)</property>
  <property name="meta.media.1.codec.bit_rate">195945</property>
  <property name="meta.attr.1.stream.handler_name.markup">SoundHandler</property>
  <property name="meta.attr.major_brand.markup">isom</property>
  <property name="meta.attr.minor_version.markup">512</property>
  <property name="meta.attr.compatible_brands.markup">isomiso2avc1mp41</property>
  <property name="meta.attr.encoder.markup">Lavf57.56.101</property>
  <property name="meta.media.sample_aspect_num">1</property>
  <property name="meta.media.sample_aspect_den">1</property>
  <property name="meta.media.frame_rate_num">25</property>
  <property name="meta.media.frame_rate_den">1</property>
  <property name="meta.media.colorspace">709</property>
  <property name="meta.media.color_trc">1</property>
  <property name="meta.media.width">1920</property>
  <property name="meta.media.height">1080</property>
  <property name="meta.media.top_field_first">0</property>
  <property name="meta.media.progressive">1</property>
  <property name="set.test_audio">0</property>
  <property name="set.test_image">1</property>
 </producer>
 <producer title="Anonymous Submission" id="producer12" in="00:00:00,000" out="00:10:24,760">
  <property name="length">15620</property>
  <property name="eof">pause</property>
  <property name="resource">/media/lnj/LNJ-1TB-HDD/vid/yt/DuraPhilms/SynchroRemasters/videos/PvA-08.mp4</property>
  <property name="audio_index">1</property>
  <property name="video_index">0</property>
  <property name="mute_on_pause">1</property>
  <property name="mlt_service">avformat-novalidate</property>
  <property name="seekable">1</property>
  <property name="aspect_ratio">1</property>
  <property name="kdenlive:clipname"/>
  <property name="kdenlive:id">12</property>
  <property name="kdenlive:file_size">150394567</property>
  <property name="kdenlive:file_hash">1ce6a9cbd059f7264b7dc1ff4389a7c4</property>
  <property name="kdenlive:folderid">-1</property>
  <property name="global_feed">1</property>
  <property name="kdenlive:proxy">-</property>
  <property name="kdenlive:originalurl">/media/lnj/LNJ-1TB-HDD/vid/yt/DuraPhilms/SynchroRemasters/videos/PvA-08.mp4</property>
  <property name="kdenlive:original.mlt_type">mlt_producer</property>
  <property name="kdenlive:original.in">00:00:00,000</property>
  <property name="kdenlive:original.out">00:10:24,760</property>
  <property name="kdenlive:original.length">15620</property>
  <property name="kdenlive:original.eof">pause</property>
  <property name="kdenlive:original.resource">/media/lnj/LNJ-1TB-HDD/vid/yt/DuraPhilms/SynchroRemasters/videos/PvA-08.mp4</property>
  <property name="kdenlive:original.meta.media.nb_streams">2</property>
  <property name="kdenlive:original.meta.media.0.stream.type">video</property>
  <property name="kdenlive:original.meta.media.0.stream.frame_rate">23,976</property>
  <property name="kdenlive:original.meta.media.0.stream.sample_aspect_ratio">0</property>
  <property name="kdenlive:original.meta.media.0.codec.width">1280</property>
  <property name="kdenlive:original.meta.media.0.codec.height">720</property>
  <property name="kdenlive:original.meta.media.0.codec.rotate">0</property>
  <property name="kdenlive:original.meta.media.0.codec.frame_rate">23,976</property>
  <property name="kdenlive:original.meta.media.0.codec.pix_fmt">yuv420p</property>
  <property name="kdenlive:original.meta.media.0.codec.sample_aspect_ratio">1</property>
  <property name="kdenlive:original.meta.media.0.codec.colorspace">709</property>
  <property name="kdenlive:original.meta.media.0.codec.color_trc">1</property>
  <property name="kdenlive:original.meta.media.0.codec.name">h264</property>
  <property name="kdenlive:original.meta.media.0.codec.long_name">H.264 / AVC / MPEG-4 AVC / MPEG-4 part 10</property>
  <property name="kdenlive:original.meta.media.0.codec.bit_rate">1760353</property>
  <property name="kdenlive:original.meta.attr.0.stream.handler_name.markup">VideoHandler</property>
  <property name="kdenlive:original.meta.media.1.stream.type">audio</property>
  <property name="kdenlive:original.meta.media.1.codec.sample_fmt">fltp</property>
  <property name="kdenlive:original.meta.media.1.codec.sample_rate">48000</property>
  <property name="kdenlive:original.meta.media.1.codec.channels">2</property>
  <property name="kdenlive:original.meta.media.1.codec.name">mp3float</property>
  <property name="kdenlive:original.meta.media.1.codec.long_name">MP3 (MPEG audio layer 3)</property>
  <property name="kdenlive:original.meta.media.1.codec.bit_rate">159012</property>
  <property name="kdenlive:original.meta.attr.1.stream.language.markup">deu</property>
  <property name="kdenlive:original.meta.attr.1.stream.handler_name.markup">Stereo</property>
  <property name="kdenlive:original.meta.attr.major_brand.markup">mp42</property>
  <property name="kdenlive:original.meta.attr.minor_version.markup">512</property>
  <property name="kdenlive:original.meta.attr.compatible_brands.markup">isomiso2avc1mp41</property>
  <property name="kdenlive:original.meta.attr.encoder.markup">HandBrake 6548svn 2014112401</property>
  <property name="kdenlive:original.meta.attr.title.markup">Harry Potter und der Penner von Alcatraz Teil 8</property>
  <property name="kdenlive:original.seekable">1</property>
  <property name="kdenlive:original.width">1280</property>
  <property name="kdenlive:original.height">720</property>
  <property name="kdenlive:original.meta.media.sample_aspect_num">1</property>
  <property name="kdenlive:original.meta.media.sample_aspect_den">1</property>
  <property name="kdenlive:original.aspect_ratio">1</property>
  <property name="kdenlive:original.audio_index">1</property>
  <property name="kdenlive:original.video_index">0</property>
  <property name="kdenlive:original.mute_on_pause">1</property>
  <property name="kdenlive:original.mlt_service">avformat-novalidate</property>
  <property name="kdenlive:original.meta.media.frame_rate_num">674100000</property>
  <property name="kdenlive:original.meta.media.frame_rate_den">28115587</property>
  <property name="kdenlive:original.meta.media.colorspace">709</property>
  <property name="kdenlive:original.meta.media.color_trc">1</property>
  <property name="kdenlive:original.meta.media.width">1280</property>
  <property name="kdenlive:original.meta.media.height">720</property>
  <property name="kdenlive:original.kdenlive:id">12</property>
  <property name="kdenlive:original.kdenlive:file_size">150394567</property>
  <property name="kdenlive:original.kdenlive:file_hash">1ce6a9cbd059f7264b7dc1ff4389a7c4</property>
  <property name="kdenlive:original.kdenlive:folderid">-1</property>
  <property name="kdenlive:original.meta.media.top_field_first">0</property>
  <property name="kdenlive:original.meta.media.progressive">1</property>
  <property name="kdenlive:original.title">Anonymous Submission</property>
  <property name="kdenlive:original.root">/</property>
  <property name="kdenlive:original.global_feed">1</property>
  <property name="kdenlive:original.backup">1</property>
  <property name="xml">was here</property>
  <property name="meta.media.nb_streams">2</property>
  <property name="meta.media.0.stream.type">video</property>
  <property name="meta.media.0.stream.frame_rate">23,976</property>
  <property name="meta.media.0.stream.sample_aspect_ratio">0</property>
  <property name="meta.media.0.codec.width">1280</property>
  <property name="meta.media.0.codec.height">720</property>
  <property name="meta.media.0.codec.rotate">0</property>
  <property name="meta.media.0.codec.frame_rate">23,976</property>
  <property name="meta.media.0.codec.pix_fmt">yuv420p</property>
  <property name="meta.media.0.codec.sample_aspect_ratio">1</property>
  <property name="meta.media.0.codec.colorspace">709</property>
  <property name="meta.media.0.codec.color_trc">1</property>
  <property name="meta.media.0.codec.name">h264</property>
  <property name="meta.media.0.codec.long_name">H.264 / AVC / MPEG-4 AVC / MPEG-4 part 10</property>
  <property name="meta.media.0.codec.bit_rate">1760353</property>
  <property name="meta.attr.0.stream.handler_name.markup">VideoHandler</property>
  <property name="meta.media.1.stream.type">audio</property>
  <property name="meta.media.1.codec.sample_fmt">fltp</property>
  <property name="meta.media.1.codec.sample_rate">48000</property>
  <property name="meta.media.1.codec.channels">2</property>
  <property name="meta.media.1.codec.name">mp3float</property>
  <property name="meta.media.1.codec.long_name">MP3 (MPEG audio layer 3)</property>
  <property name="meta.media.1.codec.bit_rate">159012</property>
  <property name="meta.attr.1.stream.language.markup">deu</property>
  <property name="meta.attr.1.stream.handler_name.markup">Stereo</property>
  <property name="meta.attr.major_brand.markup">mp42</property>
  <property name="meta.attr.minor_version.markup">512</property>
  <property name="meta.attr.compatible_brands.markup">isomiso2avc1mp41</property>
  <property name="meta.attr.encoder.markup">HandBrake 6548svn 2014112401</property>
  <property name="meta.attr.title.markup">Harry Potter und der Penner von Alcatraz Teil 8</property>
  <property name="meta.media.sample_aspect_num">1</property>
  <property name="meta.media.sample_aspect_den">1</property>
  <property name="meta.media.frame_rate_num">674100000</property>
  <property name="meta.media.frame_rate_den">28115587</property>
  <property name="meta.media.colorspace">709</property>
  <property name="meta.media.color_trc">1</property>
  <property name="meta.media.width">1280</property>
  <property name="meta.media.height">720</property>
  <property name="meta.media.top_field_first">0</property>
  <property name="meta.media.progressive">1</property>
  <property name="set.test_audio">0</property>
  <property name="set.test_image">1</property>
 </producer>
 <playlist id="playlist0">
  <property name="kdenlive:audio_track">1</property>
  <entry producer="producer11" in="00:00:00,000" out="00:00:06,960">
   <property name="kdenlive:id">4</property>
  </entry>
  <entry producer="producer12" in="00:00:07,160" out="00:10:24,760">
   <property name="kdenlive:id">12</property>
  </entry>
 </playlist>
 <playlist id="playlist1">
  <property name="kdenlive:audio_track">1</property>
 </playlist>
 <tractor id="tractor0" in="00:00:00,000" out="00:10:24,600">
  <property name="kdenlive:audio_track">1</property>
  <property name="kdenlive:trackheight">65</property>
  <property name="kdenlive:collapsed">0</property>
  <property name="kdenlive:track_name">extra audio</property>
  <property name="kdenlive:thumbs_format"/>
  <property name="kdenlive:audio_rec"/>
  <track hide="video" producer="playlist0"/>
  <track hide="video" producer="playlist1"/>
 </tractor>
 <producer title="Anonymous Submission" id="producer13" in="00:00:00,000" out="00:00:06,960">
  <property name="length">175</property>
  <property name="eof">pause</property>
  <property name="resource">/media/lnj/LNJ-1TB-HDD/vid/yt/DuraPhilms/SynchroRemasters/videos/HPudPvA_Intro_1080Rmk.mp4</property>
  <property name="audio_index">1</property>
  <property name="video_index">0</property>
  <property name="mute_on_pause">1</property>
  <property name="mlt_service">avformat-novalidate</property>
  <property name="seekable">1</property>
  <property name="aspect_ratio">1</property>
  <property name="kdenlive:file_size">3027348</property>
  <property name="kdenlive:file_hash">15d1fd6e5cc38bbc7f98ba7a7eee56ea</property>
  <property name="global_feed">1</property>
  <property name="kdenlive:id">4</property>
  <property name="kdenlive:folderid">-1</property>
  <property name="kdenlive:proxy">-</property>
  <property name="kdenlive:originalurl">/media/lnj/LNJ-1TB-HDD/vid/yt/DuraPhilms/SynchroRemasters/videos/HPudPvA_Intro_1080Rmk.mp4</property>
  <property name="kdenlive:clipname">HPudPvA_Intro_1080Rmk.mp4</property>
  <property name="xml">was here</property>
  <property name="meta.media.nb_streams">2</property>
  <property name="meta.media.0.stream.type">video</property>
  <property name="meta.media.0.stream.frame_rate">25</property>
  <property name="meta.media.0.stream.sample_aspect_ratio">1</property>
  <property name="meta.media.0.codec.width">1920</property>
  <property name="meta.media.0.codec.height">1080</property>
  <property name="meta.media.0.codec.rotate">0</property>
  <property name="meta.media.0.codec.frame_rate">25</property>
  <property name="meta.media.0.codec.pix_fmt">yuv420p</property>
  <property name="meta.media.0.codec.sample_aspect_ratio">1</property>
  <property name="meta.media.0.codec.colorspace">709</property>
  <property name="meta.media.0.codec.color_trc">1</property>
  <property name="meta.media.0.codec.name">h264</property>
  <property name="meta.media.0.codec.long_name">H.264 / AVC / MPEG-4 AVC / MPEG-4 part 10</property>
  <property name="meta.media.0.codec.bit_rate">3275175</property>
  <property name="meta.attr.0.stream.handler_name.markup">VideoHandler</property>
  <property name="meta.media.1.stream.type">audio</property>
  <property name="meta.media.1.codec.sample_fmt">fltp</property>
  <property name="meta.media.1.codec.sample_rate">48000</property>
  <property name="meta.media.1.codec.channels">2</property>
  <property name="meta.media.1.codec.name">aac</property>
  <property name="meta.media.1.codec.long_name">AAC (Advanced Audio Coding)</property>
  <property name="meta.media.1.codec.bit_rate">195945</property>
  <property name="meta.attr.1.stream.handler_name.markup">SoundHandler</property>
  <property name="meta.attr.major_brand.markup">isom</property>
  <property name="meta.attr.minor_version.markup">512</property>
  <property name="meta.attr.compatible_brands.markup">isomiso2avc1mp41</property>
  <property name="meta.attr.encoder.markup">Lavf57.56.101</property>
  <property name="meta.media.sample_aspect_num">1</property>
  <property name="meta.media.sample_aspect_den">1</property>
  <property name="meta.media.frame_rate_num">25</property>
  <property name="meta.media.frame_rate_den">1</property>
  <property name="meta.media.colorspace">709</property>
  <property name="meta.media.color_trc">1</property>
  <property name="meta.media.width">1920</property>
  <property name="meta.media.height">1080</property>
  <property name="meta.media.top_field_first">0</property>
  <property name="meta.media.progressive">1</property>
  <property name="set.test_audio">1</property>
  <property name="set.test_image">0</property>
 </producer>
 <producer title="Anonymous Submission" id="producer14" in="00:00:00,000" out="00:25:17,480">
  <property name="length">00:25:17:13</property>
  <property name="eof">pause</property>
  <property name="resource">/media/lnj/LNJ-1TB-HDD/vid/yt/DuraPhilms/SynchroRemasters/videos/tagesthemen_07.01.2008_22_15.mp4</property>
  <property name="audio_index">1</property>
  <property name="video_index">0</property>
  <property name="mute_on_pause">1</property>
  <property name="mlt_service">avformat-novalidate</property>
  <property name="seekable">1</property>
  <property name="aspect_ratio">1</property>
  <property name="kdenlive:file_size">689331312</property>
  <property name="kdenlive:file_hash">618b3c570ed75c99da49ccd2f4f1cbde</property>
  <property name="global_feed">1</property>
  <property name="kdenlive:id">5</property>
  <property name="kdenlive:folderid">-1</property>
  <property name="kdenlive:proxy">-</property>
  <property name="kdenlive:originalurl">/media/lnj/LNJ-1TB-HDD/vid/yt/DuraPhilms/SynchroRemasters/videos/tagesthemen_07.01.2008_22_15.mp4</property>
  <property name="kdenlive:original.mlt_type">mlt_producer</property>
  <property name="kdenlive:original.in">00:00:00,000</property>
  <property name="kdenlive:original.out">00:25:17,480</property>
  <property name="kdenlive:original.length">00:25:17:13</property>
  <property name="kdenlive:original.eof">pause</property>
  <property name="kdenlive:original.resource">/media/lnj/LNJ-1TB-HDD/vid/yt/DuraPhilms/SynchroRemasters/videos/tagesthemen_07.01.2008_22_15.mp4</property>
  <property name="kdenlive:original.audio_index">1</property>
  <property name="kdenlive:original.video_index">0</property>
  <property name="kdenlive:original.mute_on_pause">1</property>
  <property name="kdenlive:original.mlt_service">avformat-novalidate</property>
  <property name="kdenlive:original.title">Anonymous Submission</property>
  <property name="kdenlive:original.id">5</property>
  <property name="kdenlive:original.meta.media.nb_streams">1</property>
  <property name="kdenlive:original.meta.media.0.stream.type">video</property>
  <property name="kdenlive:original.meta.media.0.stream.frame_rate">25</property>
  <property name="kdenlive:original.meta.media.0.stream.sample_aspect_ratio">1</property>
  <property name="kdenlive:original.meta.media.0.codec.width">1280</property>
  <property name="kdenlive:original.meta.media.0.codec.height">720</property>
  <property name="kdenlive:original.meta.media.0.codec.rotate">0</property>
  <property name="kdenlive:original.meta.media.0.codec.frame_rate">25</property>
  <property name="kdenlive:original.meta.media.0.codec.pix_fmt">yuv420p</property>
  <property name="kdenlive:original.meta.media.0.codec.sample_aspect_ratio">1</property>
  <property name="kdenlive:original.meta.media.0.codec.colorspace">709</property>
  <property name="kdenlive:original.meta.media.0.codec.name">h264</property>
  <property name="kdenlive:original.meta.media.0.codec.long_name">H.264 / AVC / MPEG-4 AVC / MPEG-4 part 10</property>
  <property name="kdenlive:original.meta.media.0.codec.bit_rate">3564070</property>
  <property name="kdenlive:original.meta.attr.0.stream.creation_time.markup">1970-01-01T00:00:00.000000Z</property>
  <property name="kdenlive:original.meta.attr.0.stream.handler_name.markup">VideoHandler</property>
  <property name="kdenlive:original.meta.media.1.stream.type">audio</property>
  <property name="kdenlive:original.meta.media.1.codec.sample_fmt">fltp</property>
  <property name="kdenlive:original.meta.media.1.codec.sample_rate">48000</property>
  <property name="kdenlive:original.meta.media.1.codec.channels">1</property>
  <property name="kdenlive:original.meta.media.1.codec.name">aac</property>
  <property name="kdenlive:original.meta.media.1.codec.long_name">AAC (Advanced Audio Coding)</property>
  <property name="kdenlive:original.meta.media.1.codec.bit_rate">64000</property>
  <property name="kdenlive:original.meta.attr.1.stream.creation_time.markup">1970-01-01T00:00:00.000000Z</property>
  <property name="kdenlive:original.meta.attr.1.stream.handler_name.markup">SoundHandler</property>
  <property name="kdenlive:original.meta.attr.major_brand.markup">isom</property>
  <property name="kdenlive:original.meta.attr.minor_version.markup">512</property>
  <property name="kdenlive:original.meta.attr.compatible_brands.markup">isomiso2avc1mp41</property>
  <property name="kdenlive:original.meta.attr.creation_time.markup">1970-01-01T00:00:00.000000Z</property>
  <property name="kdenlive:original.meta.attr.title.markup">tagesschau.de</property>
  <property name="kdenlive:original.meta.attr.artist.markup">ard-aktuell</property>
  <property name="kdenlive:original.meta.attr.composer.markup">ard-aktuell</property>
  <property name="kdenlive:original.meta.attr.encoder.markup">Lavf58.20.100</property>
  <property name="kdenlive:original.meta.attr.comment.markup">Archivversion</property>
  <property name="kdenlive:original.seekable">1</property>
  <property name="kdenlive:original.meta.media.sample_aspect_num">1</property>
  <property name="kdenlive:original.meta.media.sample_aspect_den">1</property>
  <property name="kdenlive:original.aspect_ratio">1</property>
  <property name="kdenlive:original.meta.media.frame_rate_num">25</property>
  <property name="kdenlive:original.meta.media.frame_rate_den">1</property>
  <property name="kdenlive:original.meta.media.colorspace">709</property>
  <property name="kdenlive:original.meta.media.color_trc">2</property>
  <property name="kdenlive:original.meta.media.width">1280</property>
  <property name="kdenlive:original.meta.media.height">720</property>
  <property name="kdenlive:original.meta.media.top_field_first">0</property>
  <property name="kdenlive:original.meta.media.progressive">1</property>
  <property name="kdenlive:original.kdenlive:file_size">689331312</property>
  <property name="kdenlive:original.kdenlive:file_hash">618b3c570ed75c99da49ccd2f4f1cbde</property>
  <property name="kdenlive:original.global_feed">1</property>
  <property name="kdenlive:original.kdenlive:id">5</property>
  <property name="kdenlive:original.kdenlive:folderid">-1</property>
  <property name="kdenlive:original.width">1280</property>
  <property name="kdenlive:original.height">720</property>
  <property name="kdenlive:original.root">/</property>
  <property name="kdenlive:original.backup">1</property>
  <property name="xml">was here</property>
  <property name="meta.media.nb_streams">1</property>
  <property name="meta.media.0.stream.type">video</property>
  <property name="meta.media.0.stream.frame_rate">25</property>
  <property name="meta.media.0.stream.sample_aspect_ratio">1</property>
  <property name="meta.media.0.codec.width">1280</property>
  <property name="meta.media.0.codec.height">720</property>
  <property name="meta.media.0.codec.rotate">0</property>
  <property name="meta.media.0.codec.frame_rate">25</property>
  <property name="meta.media.0.codec.pix_fmt">yuv420p</property>
  <property name="meta.media.0.codec.sample_aspect_ratio">1</property>
  <property name="meta.media.0.codec.colorspace">709</property>
  <property name="meta.media.0.codec.name">h264</property>
  <property name="meta.media.0.codec.long_name">H.264 / AVC / MPEG-4 AVC / MPEG-4 part 10</property>
  <property name="meta.media.0.codec.bit_rate">3564070</property>
  <property name="meta.attr.0.stream.creation_time.markup">1970-01-01T00:00:00.000000Z</property>
  <property name="meta.attr.0.stream.handler_name.markup">VideoHandler</property>
  <property name="meta.media.1.stream.type">audio</property>
  <property name="meta.media.1.codec.sample_fmt">fltp</property>
  <property name="meta.media.1.codec.sample_rate">48000</property>
  <property name="meta.media.1.codec.channels">1</property>
  <property name="meta.media.1.codec.name">aac</property>
  <property name="meta.media.1.codec.long_name">AAC (Advanced Audio Coding)</property>
  <property name="meta.media.1.codec.bit_rate">64000</property>
  <property name="meta.attr.1.stream.creation_time.markup">1970-01-01T00:00:00.000000Z</property>
  <property name="meta.attr.1.stream.handler_name.markup">SoundHandler</property>
  <property name="meta.attr.major_brand.markup">isom</property>
  <property name="meta.attr.minor_version.markup">512</property>
  <property name="meta.attr.compatible_brands.markup">isomiso2avc1mp41</property>
  <property name="meta.attr.creation_time.markup">1970-01-01T00:00:00.000000Z</property>
  <property name="meta.attr.title.markup">tagesschau.de</property>
  <property name="meta.attr.artist.markup">ard-aktuell</property>
  <property name="meta.attr.composer.markup">ard-aktuell</property>
  <property name="meta.attr.encoder.markup">Lavf58.20.100</property>
  <property name="meta.attr.comment.markup">Archivversion</property>
  <property name="meta.media.sample_aspect_num">1</property>
  <property name="meta.media.sample_aspect_den">1</property>
  <property name="meta.media.frame_rate_num">25</property>
  <property name="meta.media.frame_rate_den">1</property>
  <property name="meta.media.colorspace">709</property>
  <property name="meta.media.color_trc">2</property>
  <property name="meta.media.width">1280</property>
  <property name="meta.media.height">720</property>
  <property name="meta.media.top_field_first">0</property>
  <property name="meta.media.progressive">1</property>
  <property name="set.test_audio">1</property>
  <property name="set.test_image">0</property>
 </producer>
 <producer id="slowmotion:5:1,22:1:1" in="00:00:00,000" out="00:20:43,800">
  <property name="length">31096</property>
  <property name="eof">pause</property>
  <property name="resource">1,22:/media/lnj/LNJ-1TB-HDD/vid/yt/DuraPhilms/SynchroRemasters/videos/tagesthemen_07.01.2008_22_15.mp4</property>
  <property name="aspect_ratio">1</property>
  <property name="meta.media.nb_streams">1</property>
  <property name="meta.media.0.stream.type">video</property>
  <property name="meta.media.0.stream.frame_rate">25</property>
  <property name="meta.media.0.stream.sample_aspect_ratio">1</property>
  <property name="meta.media.0.codec.width">1280</property>
  <property name="meta.media.0.codec.height">720</property>
  <property name="meta.media.0.codec.rotate">0</property>
  <property name="meta.media.0.codec.frame_rate">25</property>
  <property name="meta.media.0.codec.pix_fmt">yuv420p</property>
  <property name="meta.media.0.codec.sample_aspect_ratio">1</property>
  <property name="meta.media.0.codec.colorspace">709</property>
  <property name="meta.media.0.codec.name">h264</property>
  <property name="meta.media.0.codec.long_name">H.264 / AVC / MPEG-4 AVC / MPEG-4 part 10</property>
  <property name="meta.media.0.codec.bit_rate">3564070</property>
  <property name="meta.attr.0.stream.handler_name.markup">VideoHandler</property>
  <property name="meta.attr.major_brand.markup">isom</property>
  <property name="meta.attr.minor_version.markup">512</property>
  <property name="meta.attr.compatible_brands.markup">isomiso2avc1mp41</property>
  <property name="meta.attr.title.markup">tagesschau.de</property>
  <property name="meta.attr.artist.markup">ard-aktuell</property>
  <property name="meta.attr.composer.markup">ard-aktuell</property>
  <property name="meta.attr.encoder.markup">Lavf58.20.100</property>
  <property name="meta.attr.comment.markup">Archivversion</property>
  <property name="seekable">1</property>
  <property name="meta.media.sample_aspect_num">1</property>
  <property name="meta.media.sample_aspect_den">1</property>
  <property name="audio_index">-1</property>
  <property name="video_index">0</property>
  <property name="mute_on_pause">1</property>
  <property name="warp_speed">1,22</property>
  <property name="warp_resource">/media/lnj/LNJ-1TB-HDD/vid/yt/DuraPhilms/SynchroRemasters/videos/tagesthemen_07.01.2008_22_15.mp4</property>
  <property name="mlt_service">timewarp</property>
  <property name="meta.attr.0.stream.creation_time.markup">1970-01-01T00:00:00.000000Z</property>
  <property name="meta.media.1.stream.type">audio</property>
  <property name="meta.media.1.codec.sample_fmt">fltp</property>
  <property name="meta.media.1.codec.sample_rate">48000</property>
  <property name="meta.media.1.codec.channels">1</property>
  <property name="meta.media.1.codec.name">aac</property>
  <property name="meta.media.1.codec.long_name">AAC (Advanced Audio Coding)</property>
  <property name="meta.media.1.codec.bit_rate">64000</property>
  <property name="meta.attr.1.stream.creation_time.markup">1970-01-01T00:00:00.000000Z</property>
  <property name="meta.attr.1.stream.handler_name.markup">SoundHandler</property>
  <property name="meta.attr.creation_time.markup">1970-01-01T00:00:00.000000Z</property>
  <property name="meta.media.frame_rate_num">25</property>
  <property name="meta.media.frame_rate_den">1</property>
  <property name="meta.media.colorspace">709</property>
  <property name="meta.media.color_trc">2</property>
  <property name="meta.media.width">1280</property>
  <property name="meta.media.height">720</property>
  <property name="meta.media.top_field_first">0</property>
  <property name="meta.media.progressive">1</property>
  <property name="kdenlive:id">5</property>
  <property name="set.test_audio">1</property>
  <property name="set.test_image">0</property>
 </producer>
 <producer title="Anonymous Submission" id="producer15" in="00:00:00,000" out="00:09:44,720">
  <property name="length">14619</property>
  <property name="eof">pause</property>
  <property name="resource">/home/lnj/.cache/kdenlive/proxy/ac911c457de74c6ccd5e714eca3fc499.mkv</property>
  <property name="audio_index">-1</property>
  <property name="video_index">0</property>
  <property name="mute_on_pause">1</property>
  <property name="mlt_service">avformat-novalidate</property>
  <property name="seekable">1</property>
  <property name="aspect_ratio">1</property>
  <property name="kdenlive:clipname">PvA-08-HP3.2160p25.mkv</property>
  <property name="kdenlive:id">2</property>
  <property name="kdenlive:file_size">3392986612</property>
  <property name="kdenlive:file_hash">ac911c457de74c6ccd5e714eca3fc499</property>
  <property name="kdenlive:folderid">-1</property>
  <property name="kdenlive:proxy">/home/lnj/.cache/kdenlive/proxy/ac911c457de74c6ccd5e714eca3fc499.mkv</property>
  <property name="kdenlive:originalurl">/media/lnj/LNJ-1TB-HDD/vid/yt/DuraPhilms/SynchroRemasters/videos/PvA-08-HP3.2160p25.mkv</property>
  <property name="kdenlive:original.mlt_type">producer</property>
  <property name="kdenlive:original.in">00:00:00,000</property>
  <property name="kdenlive:original.out">00:09:44,720</property>
  <property name="kdenlive:original.length">14619</property>
  <property name="kdenlive:original.eof">pause</property>
  <property name="kdenlive:original.resource">/media/lnj/LNJ-1TB-HDD/vid/yt/DuraPhilms/SynchroRemasters/videos/PvA-08-HP3.2160p25.mkv</property>
  <property name="kdenlive:original.meta.media.nb_streams">1</property>
  <property name="kdenlive:original.meta.media.0.stream.type">video</property>
  <property name="kdenlive:original.meta.media.0.stream.frame_rate">25</property>
  <property name="kdenlive:original.meta.media.0.stream.sample_aspect_ratio">1</property>
  <property name="kdenlive:original.meta.media.0.codec.width">3840</property>
  <property name="kdenlive:original.meta.media.0.codec.height">1600</property>
  <property name="kdenlive:original.meta.media.0.codec.rotate">0</property>
  <property name="kdenlive:original.meta.media.0.codec.frame_rate">25</property>
  <property name="kdenlive:original.meta.media.0.codec.pix_fmt">yuv420p</property>
  <property name="kdenlive:original.meta.media.0.codec.sample_aspect_ratio">1</property>
  <property name="kdenlive:original.meta.media.0.codec.colorspace">709</property>
  <property name="kdenlive:original.meta.media.0.codec.name">h264</property>
  <property name="kdenlive:original.meta.media.0.codec.long_name">H.264 / AVC / MPEG-4 AVC / MPEG-4 part 10</property>
  <property name="kdenlive:original.meta.media.0.codec.bit_rate">0</property>
  <property name="kdenlive:original.meta.attr.0.stream.ENCODER.markup">Lavc58.35.100 libx264</property>
  <property name="kdenlive:original.meta.attr.0.stream.DURATION.markup">00:09:44.760000000</property>
  <property name="kdenlive:original.meta.attr.ENCODER.markup">Lavf58.20.100</property>
  <property name="kdenlive:original.seekable">1</property>
  <property name="kdenlive:original.width">3840</property>
  <property name="kdenlive:original.height">1600</property>
  <property name="kdenlive:original.meta.media.sample_aspect_num">1</property>
  <property name="kdenlive:original.meta.media.sample_aspect_den">1</property>
  <property name="kdenlive:original.aspect_ratio">1</property>
  <property name="kdenlive:original.audio_index">-1</property>
  <property name="kdenlive:original.video_index">0</property>
  <property name="kdenlive:original.mute_on_pause">1</property>
  <property name="kdenlive:original.mlt_service">avformat-novalidate</property>
  <property name="kdenlive:original.meta.media.frame_rate_num">25</property>
  <property name="kdenlive:original.meta.media.frame_rate_den">1</property>
  <property name="kdenlive:original.meta.media.colorspace">709</property>
  <property name="kdenlive:original.meta.media.color_trc">2</property>
  <property name="kdenlive:original.meta.media.width">3840</property>
  <property name="kdenlive:original.meta.media.height">1600</property>
  <property name="kdenlive:original.kdenlive:id">2</property>
  <property name="kdenlive:original.kdenlive:file_size">3392986612</property>
  <property name="kdenlive:original.kdenlive:file_hash">ac911c457de74c6ccd5e714eca3fc499</property>
  <property name="kdenlive:original.kdenlive:folderid">-1</property>
  <property name="kdenlive:original.backup">1</property>
  <property name="global_feed">1</property>
  <property name="xml">was here</property>
  <property name="meta.media.nb_streams">1</property>
  <property name="meta.media.0.stream.type">video</property>
  <property name="meta.media.0.stream.frame_rate">25</property>
  <property name="meta.media.0.stream.sample_aspect_ratio">1</property>
  <property name="meta.media.0.codec.width">720</property>
  <property name="meta.media.0.codec.height">300</property>
  <property name="meta.media.0.codec.rotate">0</property>
  <property name="meta.media.0.codec.frame_rate">25</property>
  <property name="meta.media.0.codec.pix_fmt">yuv420p</property>
  <property name="meta.media.0.codec.sample_aspect_ratio">1</property>
  <property name="meta.media.0.codec.colorspace">601</property>
  <property name="meta.media.0.codec.name">h264</property>
  <property name="meta.media.0.codec.long_name">H.264 / AVC / MPEG-4 AVC / MPEG-4 part 10</property>
  <property name="meta.media.0.codec.bit_rate">0</property>
  <property name="meta.attr.0.stream.ENCODER.markup">Lavc58.35.100 libx264</property>
  <property name="meta.attr.0.stream.DURATION.markup">00:09:44.760000000</property>
  <property name="meta.attr.ENCODER.markup">Lavf58.20.100</property>
  <property name="meta.media.sample_aspect_num">1</property>
  <property name="meta.media.sample_aspect_den">1</property>
  <property name="meta.media.frame_rate_num">25</property>
  <property name="meta.media.frame_rate_den">1</property>
  <property name="meta.media.colorspace">601</property>
  <property name="meta.media.color_trc">2</property>
  <property name="meta.media.width">720</property>
  <property name="meta.media.height">300</property>
  <property name="meta.media.top_field_first">0</property>
  <property name="meta.media.progressive">1</property>
  <property name="set.test_audio">1</property>
  <property name="set.test_image">0</property>
 </producer>
 <playlist id="playlist2">
  <entry producer="producer13" in="00:00:00,000" out="00:00:06,960">
   <property name="kdenlive:id">4</property>
   <filter id="pan_zoom" out="00:00:06,960">
    <property name="background">colour:0x00000000</property>
    <property name="mlt_service">affine</property>
    <property name="kdenlive_id">pan_zoom</property>
    <property name="tag">affine</property>
    <property name="kdenlive_ix">1</property>
    <property name="transition.geometry">0=0 -280 3840 2160</property>
    <property name="transition.distort">0</property>
    <property name="kdenlive:sync_in_out">1</property>
    <property name="kdenlive_info"/>
    <property name="use_normalised">0</property>
    <property name="kdenlive:collapsed">0</property>
    <property name="disable">0</property>
   </filter>
   <filter id="frei0r.contrast0r">
    <property name="version">0,2</property>
    <property name="mlt_service">frei0r.contrast0r</property>
    <property name="kdenlive_id">frei0r.contrast0r</property>
    <property name="tag">frei0r.contrast0r</property>
    <property name="kdenlive_ix">2</property>
    <property name="Contrast">00:00:00,000=0,54</property>
    <property name="kdenlive_info"/>
    <property name="kdenlive:collapsed">0</property>
   </filter>
  </entry>
  <entry producer="producer14" in="00:00:32,440" out="00:00:37,080">
   <property name="kdenlive:id">5</property>
   <filter id="filter0">
    <property name="background">colour:0x00000000</property>
    <property name="mlt_service">affine</property>
    <property name="kdenlive_id">pan_zoom</property>
    <property name="transition.geometry">811=-672 -280 5184 2160</property>
    <property name="transition.distort">0</property>
    <property name="use_normalised">0</property>
    <property name="kdenlive:collapsed">0</property>
    <property name="disable">0</property>
   </filter>
   <filter id="frei0r.IIRblur">
    <property name="version">0,1</property>
    <property name="mlt_service">frei0r.IIRblur</property>
    <property name="kdenlive_id">frei0r.IIRblur</property>
    <property name="tag">frei0r.IIRblur</property>
    <property name="kdenlive_ix">2</property>
    <property name="Amount">00:00:32,440=1</property>
    <property name="Type">0.5</property>
    <property name="Edge">1</property>
    <property name="kdenlive_info"/>
    <property name="disable">0</property>
    <property name="kdenlive:collapsed">0</property>
   </filter>
  </entry>
  <entry producer="slowmotion:5:1,22:1:1" in="00:00:30,440" out="00:00:31,360">
   <property name="kdenlive:id">5</property>
   <filter id="filter1">
    <property name="background">colour:0x00000000</property>
    <property name="mlt_service">affine</property>
    <property name="kdenlive_id">pan_zoom</property>
    <property name="transition.geometry">761=-672 -280 5184 2160</property>
    <property name="transition.distort">0</property>
    <property name="use_normalised">0</property>
    <property name="kdenlive:collapsed">0</property>
   </filter>
   <filter id="filter2">
    <property name="version">0,1</property>
    <property name="mlt_service">frei0r.IIRblur</property>
    <property name="kdenlive_id">frei0r.IIRblur</property>
    <property name="Amount">00:00:30,440=1</property>
    <property name="Type">0.5</property>
    <property name="Edge">1</property>
    <property name="kdenlive:collapsed">0</property>
   </filter>
  </entry>
  <entry producer="producer14" in="00:00:38,320" out="00:00:41,840">
   <property name="kdenlive:id">5</property>
   <filter id="filter3">
    <property name="background">colour:0x00000000</property>
    <property name="mlt_service">affine</property>
    <property name="kdenlive_id">pan_zoom</property>
    <property name="transition.geometry">811=-672 -280 5184 2160</property>
    <property name="transition.distort">0</property>
    <property name="use_normalised">0</property>
    <property name="kdenlive:collapsed">0</property>
   </filter>
   <filter id="filter4">
    <property name="version">0,1</property>
    <property name="mlt_service">frei0r.IIRblur</property>
    <property name="kdenlive_id">frei0r.IIRblur</property>
    <property name="Amount">00:00:32,440=1</property>
    <property name="Type">0.5</property>
    <property name="Edge">1</property>
    <property name="kdenlive:collapsed">0</property>
   </filter>
  </entry>
  <entry producer="producer14" in="00:00:35,480" out="00:00:36,600">
   <property name="kdenlive:id">5</property>
   <filter id="filter5">
    <property name="background">colour:0x00000000</property>
    <property name="mlt_service">affine</property>
    <property name="kdenlive_id">pan_zoom</property>
    <property name="transition.geometry">811=-672 -280 5184 2160</property>
    <property name="transition.distort">0</property>
    <property name="use_normalised">0</property>
    <property name="kdenlive:collapsed">0</property>
   </filter>
   <filter id="filter6">
    <property name="version">0,1</property>
    <property name="mlt_service">frei0r.IIRblur</property>
    <property name="kdenlive_id">frei0r.IIRblur</property>
    <property name="Amount">00:00:32,440=1</property>
    <property name="Type">0.5</property>
    <property name="Edge">1</property>
    <property name="kdenlive:collapsed">0</property>
   </filter>
  </entry>
  <entry producer="producer14" in="00:00:43,280" out="00:00:48,360">
   <property name="kdenlive:id">5</property>
   <filter id="filter7">
    <property name="background">colour:0x00000000</property>
    <property name="mlt_service">affine</property>
    <property name="kdenlive_id">pan_zoom</property>
    <property name="transition.geometry">811=-672 -280 5184 2160</property>
    <property name="transition.distort">0</property>
    <property name="use_normalised">0</property>
    <property name="kdenlive:collapsed">0</property>
   </filter>
   <filter id="filter8">
    <property name="version">0,1</property>
    <property name="mlt_service">frei0r.IIRblur</property>
    <property name="kdenlive_id">frei0r.IIRblur</property>
    <property name="Amount">00:00:32,440=1</property>
    <property name="Type">0.5</property>
    <property name="Edge">1</property>
    <property name="kdenlive:collapsed">0</property>
   </filter>
  </entry>
  <entry producer="8" in="00:00:00,000" out="00:00:08,280">
   <property name="kdenlive:id">8</property>
  </entry>
  <entry producer="producer14" in="00:00:56,720" out="00:01:04,960">
   <property name="kdenlive:id">5</property>
   <filter id="filter9">
    <property name="background">colour:0x00000000</property>
    <property name="mlt_service">affine</property>
    <property name="kdenlive_id">pan_zoom</property>
    <property name="transition.geometry">811=-672 -280 5184 2160</property>
    <property name="transition.distort">0</property>
    <property name="use_normalised">0</property>
    <property name="kdenlive:collapsed">0</property>
   </filter>
   <filter id="filter10">
    <property name="version">0,1</property>
    <property name="mlt_service">frei0r.IIRblur</property>
    <property name="kdenlive_id">frei0r.IIRblur</property>
    <property name="Amount">00:00:32,440=1</property>
    <property name="Type">0.5</property>
    <property name="Edge">1</property>
    <property name="kdenlive:collapsed">0</property>
   </filter>
  </entry>
  <blank length="00:00:00,120"/>
  <entry producer="producer15" in="00:00:00,000" out="00:00:51,960">
   <property name="kdenlive:id">2</property>
  </entry>
 </playlist>
 <playlist id="playlist3"/>
 <tractor id="tractor1" in="00:00:00,000" out="00:01:31,160">
  <property name="kdenlive:trackheight">34</property>
  <property name="kdenlive:collapsed">0</property>
  <property name="kdenlive:track_name">Video 1</property>
  <property name="kdenlive:thumbs_format">1</property>
  <property name="kdenlive:audio_rec"/>
  <track hide="audio" producer="playlist2"/>
  <track hide="audio" producer="playlist3"/>
 </tractor>
 <producer title="Anonymous Submission" id="producer16" in="00:00:00,000" out="00:25:17,480">
  <property name="length">00:25:17:13</property>
  <property name="eof">pause</property>
  <property name="resource">/media/lnj/LNJ-1TB-HDD/vid/yt/DuraPhilms/SynchroRemasters/videos/tagesthemen_07.01.2008_22_15.mp4</property>
  <property name="audio_index">1</property>
  <property name="video_index">0</property>
  <property name="mute_on_pause">1</property>
  <property name="mlt_service">avformat-novalidate</property>
  <property name="seekable">1</property>
  <property name="aspect_ratio">1</property>
  <property name="kdenlive:file_size">689331312</property>
  <property name="kdenlive:file_hash">618b3c570ed75c99da49ccd2f4f1cbde</property>
  <property name="global_feed">1</property>
  <property name="kdenlive:id">5</property>
  <property name="kdenlive:folderid">-1</property>
  <property name="kdenlive:proxy">-</property>
  <property name="kdenlive:originalurl">/media/lnj/LNJ-1TB-HDD/vid/yt/DuraPhilms/SynchroRemasters/videos/tagesthemen_07.01.2008_22_15.mp4</property>
  <property name="kdenlive:original.mlt_type">mlt_producer</property>
  <property name="kdenlive:original.in">00:00:00,000</property>
  <property name="kdenlive:original.out">00:25:17,480</property>
  <property name="kdenlive:original.length">00:25:17:13</property>
  <property name="kdenlive:original.eof">pause</property>
  <property name="kdenlive:original.resource">/media/lnj/LNJ-1TB-HDD/vid/yt/DuraPhilms/SynchroRemasters/videos/tagesthemen_07.01.2008_22_15.mp4</property>
  <property name="kdenlive:original.audio_index">1</property>
  <property name="kdenlive:original.video_index">0</property>
  <property name="kdenlive:original.mute_on_pause">1</property>
  <property name="kdenlive:original.mlt_service">avformat-novalidate</property>
  <property name="kdenlive:original.title">Anonymous Submission</property>
  <property name="kdenlive:original.id">5</property>
  <property name="kdenlive:original.meta.media.nb_streams">1</property>
  <property name="kdenlive:original.meta.media.0.stream.type">video</property>
  <property name="kdenlive:original.meta.media.0.stream.frame_rate">25</property>
  <property name="kdenlive:original.meta.media.0.stream.sample_aspect_ratio">1</property>
  <property name="kdenlive:original.meta.media.0.codec.width">1280</property>
  <property name="kdenlive:original.meta.media.0.codec.height">720</property>
  <property name="kdenlive:original.meta.media.0.codec.rotate">0</property>
  <property name="kdenlive:original.meta.media.0.codec.frame_rate">25</property>
  <property name="kdenlive:original.meta.media.0.codec.pix_fmt">yuv420p</property>
  <property name="kdenlive:original.meta.media.0.codec.sample_aspect_ratio">1</property>
  <property name="kdenlive:original.meta.media.0.codec.colorspace">709</property>
  <property name="kdenlive:original.meta.media.0.codec.name">h264</property>
  <property name="kdenlive:original.meta.media.0.codec.long_name">H.264 / AVC / MPEG-4 AVC / MPEG-4 part 10</property>
  <property name="kdenlive:original.meta.media.0.codec.bit_rate">3564070</property>
  <property name="kdenlive:original.meta.attr.0.stream.creation_time.markup">1970-01-01T00:00:00.000000Z</property>
  <property name="kdenlive:original.meta.attr.0.stream.handler_name.markup">VideoHandler</property>
  <property name="kdenlive:original.meta.media.1.stream.type">audio</property>
  <property name="kdenlive:original.meta.media.1.codec.sample_fmt">fltp</property>
  <property name="kdenlive:original.meta.media.1.codec.sample_rate">48000</property>
  <property name="kdenlive:original.meta.media.1.codec.channels">1</property>
  <property name="kdenlive:original.meta.media.1.codec.name">aac</property>
  <property name="kdenlive:original.meta.media.1.codec.long_name">AAC (Advanced Audio Coding)</property>
  <property name="kdenlive:original.meta.media.1.codec.bit_rate">64000</property>
  <property name="kdenlive:original.meta.attr.1.stream.creation_time.markup">1970-01-01T00:00:00.000000Z</property>
  <property name="kdenlive:original.meta.attr.1.stream.handler_name.markup">SoundHandler</property>
  <property name="kdenlive:original.meta.attr.major_brand.markup">isom</property>
  <property name="kdenlive:original.meta.attr.minor_version.markup">512</property>
  <property name="kdenlive:original.meta.attr.compatible_brands.markup">isomiso2avc1mp41</property>
  <property name="kdenlive:original.meta.attr.creation_time.markup">1970-01-01T00:00:00.000000Z</property>
  <property name="kdenlive:original.meta.attr.title.markup">tagesschau.de</property>
  <property name="kdenlive:original.meta.attr.artist.markup">ard-aktuell</property>
  <property name="kdenlive:original.meta.attr.composer.markup">ard-aktuell</property>
  <property name="kdenlive:original.meta.attr.encoder.markup">Lavf58.20.100</property>
  <property name="kdenlive:original.meta.attr.comment.markup">Archivversion</property>
  <property name="kdenlive:original.seekable">1</property>
  <property name="kdenlive:original.meta.media.sample_aspect_num">1</property>
  <property name="kdenlive:original.meta.media.sample_aspect_den">1</property>
  <property name="kdenlive:original.aspect_ratio">1</property>
  <property name="kdenlive:original.meta.media.frame_rate_num">25</property>
  <property name="kdenlive:original.meta.media.frame_rate_den">1</property>
  <property name="kdenlive:original.meta.media.colorspace">709</property>
  <property name="kdenlive:original.meta.media.color_trc">2</property>
  <property name="kdenlive:original.meta.media.width">1280</property>
  <property name="kdenlive:original.meta.media.height">720</property>
  <property name="kdenlive:original.meta.media.top_field_first">0</property>
  <property name="kdenlive:original.meta.media.progressive">1</property>
  <property name="kdenlive:original.kdenlive:file_size">689331312</property>
  <property name="kdenlive:original.kdenlive:file_hash">618b3c570ed75c99da49ccd2f4f1cbde</property>
  <property name="kdenlive:original.global_feed">1</property>
  <property name="kdenlive:original.kdenlive:id">5</property>
  <property name="kdenlive:original.kdenlive:folderid">-1</property>
  <property name="kdenlive:original.width">1280</property>
  <property name="kdenlive:original.height">720</property>
  <property name="kdenlive:original.root">/</property>
  <property name="kdenlive:original.backup">1</property>
  <property name="xml">was here</property>
  <property name="meta.media.nb_streams">1</property>
  <property name="meta.media.0.stream.type">video</property>
  <property name="meta.media.0.stream.frame_rate">25</property>
  <property name="meta.media.0.stream.sample_aspect_ratio">1</property>
  <property name="meta.media.0.codec.width">1280</property>
  <property name="meta.media.0.codec.height">720</property>
  <property name="meta.media.0.codec.rotate">0</property>
  <property name="meta.media.0.codec.frame_rate">25</property>
  <property name="meta.media.0.codec.pix_fmt">yuv420p</property>
  <property name="meta.media.0.codec.sample_aspect_ratio">1</property>
  <property name="meta.media.0.codec.colorspace">709</property>
  <property name="meta.media.0.codec.name">h264</property>
  <property name="meta.media.0.codec.long_name">H.264 / AVC / MPEG-4 AVC / MPEG-4 part 10</property>
  <property name="meta.media.0.codec.bit_rate">3564070</property>
  <property name="meta.attr.0.stream.creation_time.markup">1970-01-01T00:00:00.000000Z</property>
  <property name="meta.attr.0.stream.handler_name.markup">VideoHandler</property>
  <property name="meta.media.1.stream.type">audio</property>
  <property name="meta.media.1.codec.sample_fmt">fltp</property>
  <property name="meta.media.1.codec.sample_rate">48000</property>
  <property name="meta.media.1.codec.channels">1</property>
  <property name="meta.media.1.codec.name">aac</property>
  <property name="meta.media.1.codec.long_name">AAC (Advanced Audio Coding)</property>
  <property name="meta.media.1.codec.bit_rate">64000</property>
  <property name="meta.attr.1.stream.creation_time.markup">1970-01-01T00:00:00.000000Z</property>
  <property name="meta.attr.1.stream.handler_name.markup">SoundHandler</property>
  <property name="meta.attr.major_brand.markup">isom</property>
  <property name="meta.attr.minor_version.markup">512</property>
  <property name="meta.attr.compatible_brands.markup">isomiso2avc1mp41</property>
  <property name="meta.attr.creation_time.markup">1970-01-01T00:00:00.000000Z</property>
  <property name="meta.attr.title.markup">tagesschau.de</property>
  <property name="meta.attr.artist.markup">ard-aktuell</property>
  <property name="meta.attr.composer.markup">ard-aktuell</property>
  <property name="meta.attr.encoder.markup">Lavf58.20.100</property>
  <property name="meta.attr.comment.markup">Archivversion</property>
  <property name="meta.media.sample_aspect_num">1</property>
  <property name="meta.media.sample_aspect_den">1</property>
  <property name="meta.media.frame_rate_num">25</property>
  <property name="meta.media.frame_rate_den">1</property>
  <property name="meta.media.colorspace">709</property>
  <property name="meta.media.color_trc">2</property>
  <property name="meta.media.width">1280</property>
  <property name="meta.media.height">720</property>
  <property name="meta.media.top_field_first">0</property>
  <property name="meta.media.progressive">1</property>
  <property name="set.test_audio">1</property>
  <property name="set.test_image">0</property>
 </producer>
 <producer id="producer17" in="00:00:00,000" out="00:20:43,800">
  <property name="length">31096,7</property>
  <property name="eof">pause</property>
  <property name="resource">1,22:/media/lnj/LNJ-1TB-HDD/vid/yt/DuraPhilms/SynchroRemasters/videos/tagesthemen_07.01.2008_22_15.mp4</property>
  <property name="aspect_ratio">1</property>
  <property name="meta.media.nb_streams">1</property>
  <property name="meta.media.0.stream.type">video</property>
  <property name="meta.media.0.stream.frame_rate">25</property>
  <property name="meta.media.0.stream.sample_aspect_ratio">1</property>
  <property name="meta.media.0.codec.width">1280</property>
  <property name="meta.media.0.codec.height">720</property>
  <property name="meta.media.0.codec.rotate">0</property>
  <property name="meta.media.0.codec.frame_rate">25</property>
  <property name="meta.media.0.codec.pix_fmt">yuv420p</property>
  <property name="meta.media.0.codec.sample_aspect_ratio">1</property>
  <property name="meta.media.0.codec.colorspace">709</property>
  <property name="meta.media.0.codec.name">h264</property>
  <property name="meta.media.0.codec.long_name">H.264 / AVC / MPEG-4 AVC / MPEG-4 part 10</property>
  <property name="meta.media.0.codec.bit_rate">3564070</property>
  <property name="meta.attr.0.stream.handler_name.markup">VideoHandler</property>
  <property name="meta.attr.major_brand.markup">isom</property>
  <property name="meta.attr.minor_version.markup">512</property>
  <property name="meta.attr.compatible_brands.markup">isomiso2avc1mp41</property>
  <property name="meta.attr.title.markup">tagesschau.de</property>
  <property name="meta.attr.artist.markup">ard-aktuell</property>
  <property name="meta.attr.composer.markup">ard-aktuell</property>
  <property name="meta.attr.encoder.markup">Lavf58.20.100</property>
  <property name="meta.attr.comment.markup">Archivversion</property>
  <property name="seekable">1</property>
  <property name="meta.media.sample_aspect_num">1</property>
  <property name="meta.media.sample_aspect_den">1</property>
  <property name="audio_index">1</property>
  <property name="video_index">0</property>
  <property name="mute_on_pause">1</property>
  <property name="warp_speed">1,22</property>
  <property name="warp_resource">/media/lnj/LNJ-1TB-HDD/vid/yt/DuraPhilms/SynchroRemasters/videos/tagesthemen_07.01.2008_22_15.mp4</property>
  <property name="mlt_service">timewarp</property>
  <property name="meta.attr.0.stream.creation_time.markup">1970-01-01T00:00:00.000000Z</property>
  <property name="meta.media.1.stream.type">audio</property>
  <property name="meta.media.1.codec.sample_fmt">fltp</property>
  <property name="meta.media.1.codec.sample_rate">48000</property>
  <property name="meta.media.1.codec.channels">1</property>
  <property name="meta.media.1.codec.name">aac</property>
  <property name="meta.media.1.codec.long_name">AAC (Advanced Audio Coding)</property>
  <property name="meta.media.1.codec.bit_rate">64000</property>
  <property name="meta.attr.1.stream.creation_time.markup">1970-01-01T00:00:00.000000Z</property>
  <property name="meta.attr.1.stream.handler_name.markup">SoundHandler</property>
  <property name="meta.attr.creation_time.markup">1970-01-01T00:00:00.000000Z</property>
  <property name="set.test_audio">1</property>
  <property name="set.test_image">0</property>
  <property name="meta.media.frame_rate_num">25</property>
  <property name="meta.media.frame_rate_den">1</property>
  <property name="meta.media.colorspace">709</property>
  <property name="meta.media.color_trc">2</property>
  <property name="meta.media.width">1280</property>
  <property name="meta.media.height">720</property>
  <property name="meta.media.top_field_first">0</property>
  <property name="meta.media.progressive">1</property>
  <property name="kdenlive:id">5</property>
 </producer>
 <producer id="slowmotion:5:1,18:1:1" in="00:00:00,000" out="00:21:25,960">
  <property name="length">32150</property>
  <property name="eof">pause</property>
  <property name="resource">1,18:/media/lnj/LNJ-1TB-HDD/vid/yt/DuraPhilms/SynchroRemasters/videos/tagesthemen_07.01.2008_22_15.mp4</property>
  <property name="aspect_ratio">1</property>
  <property name="meta.media.nb_streams">1</property>
  <property name="meta.media.0.stream.type">video</property>
  <property name="meta.media.0.stream.frame_rate">25</property>
  <property name="meta.media.0.stream.sample_aspect_ratio">1</property>
  <property name="meta.media.0.codec.width">1280</property>
  <property name="meta.media.0.codec.height">720</property>
  <property name="meta.media.0.codec.rotate">0</property>
  <property name="meta.media.0.codec.frame_rate">25</property>
  <property name="meta.media.0.codec.pix_fmt">yuv420p</property>
  <property name="meta.media.0.codec.sample_aspect_ratio">1</property>
  <property name="meta.media.0.codec.colorspace">709</property>
  <property name="meta.media.0.codec.name">h264</property>
  <property name="meta.media.0.codec.long_name">H.264 / AVC / MPEG-4 AVC / MPEG-4 part 10</property>
  <property name="meta.media.0.codec.bit_rate">3564070</property>
  <property name="meta.attr.0.stream.handler_name.markup">VideoHandler</property>
  <property name="meta.attr.major_brand.markup">isom</property>
  <property name="meta.attr.minor_version.markup">512</property>
  <property name="meta.attr.compatible_brands.markup">isomiso2avc1mp41</property>
  <property name="meta.attr.title.markup">tagesschau.de</property>
  <property name="meta.attr.artist.markup">ard-aktuell</property>
  <property name="meta.attr.composer.markup">ard-aktuell</property>
  <property name="meta.attr.encoder.markup">Lavf58.20.100</property>
  <property name="meta.attr.comment.markup">Archivversion</property>
  <property name="seekable">1</property>
  <property name="meta.media.sample_aspect_num">1</property>
  <property name="meta.media.sample_aspect_den">1</property>
  <property name="audio_index">-1</property>
  <property name="video_index">0</property>
  <property name="mute_on_pause">1</property>
  <property name="warp_speed">1,18</property>
  <property name="warp_resource">/media/lnj/LNJ-1TB-HDD/vid/yt/DuraPhilms/SynchroRemasters/videos/tagesthemen_07.01.2008_22_15.mp4</property>
  <property name="mlt_service">timewarp</property>
  <property name="meta.attr.0.stream.creation_time.markup">1970-01-01T00:00:00.000000Z</property>
  <property name="meta.media.1.stream.type">audio</property>
  <property name="meta.media.1.codec.sample_fmt">fltp</property>
  <property name="meta.media.1.codec.sample_rate">48000</property>
  <property name="meta.media.1.codec.channels">1</property>
  <property name="meta.media.1.codec.name">aac</property>
  <property name="meta.media.1.codec.long_name">AAC (Advanced Audio Coding)</property>
  <property name="meta.media.1.codec.bit_rate">64000</property>
  <property name="meta.attr.1.stream.creation_time.markup">1970-01-01T00:00:00.000000Z</property>
  <property name="meta.attr.1.stream.handler_name.markup">SoundHandler</property>
  <property name="meta.attr.creation_time.markup">1970-01-01T00:00:00.000000Z</property>
  <property name="meta.media.frame_rate_num">25</property>
  <property name="meta.media.frame_rate_den">1</property>
  <property name="meta.media.colorspace">709</property>
  <property name="meta.media.color_trc">2</property>
  <property name="meta.media.width">1280</property>
  <property name="meta.media.height">720</property>
  <property name="meta.media.top_field_first">0</property>
  <property name="meta.media.progressive">1</property>
  <property name="kdenlive:id">5</property>
  <property name="set.test_audio">1</property>
  <property name="set.test_image">0</property>
 </producer>
 <producer title="Anonymous Submission" id="producer18" in="00:00:00,000" out="00:09:44,720">
  <property name="length">14619</property>
  <property name="eof">pause</property>
  <property name="resource">/home/lnj/.cache/kdenlive/proxy/ac911c457de74c6ccd5e714eca3fc499.mkv</property>
  <property name="audio_index">-1</property>
  <property name="video_index">0</property>
  <property name="mute_on_pause">1</property>
  <property name="mlt_service">avformat-novalidate</property>
  <property name="seekable">1</property>
  <property name="aspect_ratio">1</property>
  <property name="kdenlive:clipname">PvA-08-HP3.2160p25.mkv</property>
  <property name="kdenlive:id">2</property>
  <property name="kdenlive:file_size">3392986612</property>
  <property name="kdenlive:file_hash">ac911c457de74c6ccd5e714eca3fc499</property>
  <property name="kdenlive:folderid">-1</property>
  <property name="kdenlive:proxy">/home/lnj/.cache/kdenlive/proxy/ac911c457de74c6ccd5e714eca3fc499.mkv</property>
  <property name="kdenlive:originalurl">/media/lnj/LNJ-1TB-HDD/vid/yt/DuraPhilms/SynchroRemasters/videos/PvA-08-HP3.2160p25.mkv</property>
  <property name="kdenlive:original.mlt_type">producer</property>
  <property name="kdenlive:original.in">00:00:00,000</property>
  <property name="kdenlive:original.out">00:09:44,720</property>
  <property name="kdenlive:original.length">14619</property>
  <property name="kdenlive:original.eof">pause</property>
  <property name="kdenlive:original.resource">/media/lnj/LNJ-1TB-HDD/vid/yt/DuraPhilms/SynchroRemasters/videos/PvA-08-HP3.2160p25.mkv</property>
  <property name="kdenlive:original.meta.media.nb_streams">1</property>
  <property name="kdenlive:original.meta.media.0.stream.type">video</property>
  <property name="kdenlive:original.meta.media.0.stream.frame_rate">25</property>
  <property name="kdenlive:original.meta.media.0.stream.sample_aspect_ratio">1</property>
  <property name="kdenlive:original.meta.media.0.codec.width">3840</property>
  <property name="kdenlive:original.meta.media.0.codec.height">1600</property>
  <property name="kdenlive:original.meta.media.0.codec.rotate">0</property>
  <property name="kdenlive:original.meta.media.0.codec.frame_rate">25</property>
  <property name="kdenlive:original.meta.media.0.codec.pix_fmt">yuv420p</property>
  <property name="kdenlive:original.meta.media.0.codec.sample_aspect_ratio">1</property>
  <property name="kdenlive:original.meta.media.0.codec.colorspace">709</property>
  <property name="kdenlive:original.meta.media.0.codec.name">h264</property>
  <property name="kdenlive:original.meta.media.0.codec.long_name">H.264 / AVC / MPEG-4 AVC / MPEG-4 part 10</property>
  <property name="kdenlive:original.meta.media.0.codec.bit_rate">0</property>
  <property name="kdenlive:original.meta.attr.0.stream.ENCODER.markup">Lavc58.35.100 libx264</property>
  <property name="kdenlive:original.meta.attr.0.stream.DURATION.markup">00:09:44.760000000</property>
  <property name="kdenlive:original.meta.attr.ENCODER.markup">Lavf58.20.100</property>
  <property name="kdenlive:original.seekable">1</property>
  <property name="kdenlive:original.width">3840</property>
  <property name="kdenlive:original.height">1600</property>
  <property name="kdenlive:original.meta.media.sample_aspect_num">1</property>
  <property name="kdenlive:original.meta.media.sample_aspect_den">1</property>
  <property name="kdenlive:original.aspect_ratio">1</property>
  <property name="kdenlive:original.audio_index">-1</property>
  <property name="kdenlive:original.video_index">0</property>
  <property name="kdenlive:original.mute_on_pause">1</property>
  <property name="kdenlive:original.mlt_service">avformat-novalidate</property>
  <property name="kdenlive:original.meta.media.frame_rate_num">25</property>
  <property name="kdenlive:original.meta.media.frame_rate_den">1</property>
  <property name="kdenlive:original.meta.media.colorspace">709</property>
  <property name="kdenlive:original.meta.media.color_trc">2</property>
  <property name="kdenlive:original.meta.media.width">3840</property>
  <property name="kdenlive:original.meta.media.height">1600</property>
  <property name="kdenlive:original.kdenlive:id">2</property>
  <property name="kdenlive:original.kdenlive:file_size">3392986612</property>
  <property name="kdenlive:original.kdenlive:file_hash">ac911c457de74c6ccd5e714eca3fc499</property>
  <property name="kdenlive:original.kdenlive:folderid">-1</property>
  <property name="kdenlive:original.backup">1</property>
  <property name="global_feed">1</property>
  <property name="xml">was here</property>
  <property name="meta.media.nb_streams">1</property>
  <property name="meta.media.0.stream.type">video</property>
  <property name="meta.media.0.stream.frame_rate">25</property>
  <property name="meta.media.0.stream.sample_aspect_ratio">1</property>
  <property name="meta.media.0.codec.width">720</property>
  <property name="meta.media.0.codec.height">300</property>
  <property name="meta.media.0.codec.rotate">0</property>
  <property name="meta.media.0.codec.frame_rate">25</property>
  <property name="meta.media.0.codec.pix_fmt">yuv420p</property>
  <property name="meta.media.0.codec.sample_aspect_ratio">1</property>
  <property name="meta.media.0.codec.colorspace">601</property>
  <property name="meta.media.0.codec.name">h264</property>
  <property name="meta.media.0.codec.long_name">H.264 / AVC / MPEG-4 AVC / MPEG-4 part 10</property>
  <property name="meta.media.0.codec.bit_rate">0</property>
  <property name="meta.attr.0.stream.ENCODER.markup">Lavc58.35.100 libx264</property>
  <property name="meta.attr.0.stream.DURATION.markup">00:09:44.760000000</property>
  <property name="meta.attr.ENCODER.markup">Lavf58.20.100</property>
  <property name="meta.media.sample_aspect_num">1</property>
  <property name="meta.media.sample_aspect_den">1</property>
  <property name="meta.media.frame_rate_num">25</property>
  <property name="meta.media.frame_rate_den">1</property>
  <property name="meta.media.colorspace">601</property>
  <property name="meta.media.color_trc">2</property>
  <property name="meta.media.width">720</property>
  <property name="meta.media.height">300</property>
  <property name="meta.media.top_field_first">0</property>
  <property name="meta.media.progressive">1</property>
  <property name="set.test_audio">1</property>
  <property name="set.test_image">0</property>
 </producer>
 <producer id="producer19" in="00:00:00,000" out="00:11:12,080">
  <property name="length">16803</property>
  <property name="eof">pause</property>
  <property name="resource">0,87:/home/lnj/.cache/kdenlive/proxy/ac911c457de74c6ccd5e714eca3fc499.mkv</property>
  <property name="aspect_ratio">1</property>
  <property name="meta.media.nb_streams">1</property>
  <property name="meta.media.0.stream.type">video</property>
  <property name="meta.media.0.stream.frame_rate">25</property>
  <property name="meta.media.0.stream.sample_aspect_ratio">1</property>
  <property name="meta.media.0.codec.width">720</property>
  <property name="meta.media.0.codec.height">300</property>
  <property name="meta.media.0.codec.rotate">0</property>
  <property name="meta.media.0.codec.frame_rate">25</property>
  <property name="meta.media.0.codec.pix_fmt">yuv420p</property>
  <property name="meta.media.0.codec.sample_aspect_ratio">1</property>
  <property name="meta.media.0.codec.colorspace">601</property>
  <property name="meta.media.0.codec.name">h264</property>
  <property name="meta.media.0.codec.long_name">H.264 / AVC / MPEG-4 AVC / MPEG-4 part 10</property>
  <property name="meta.media.0.codec.bit_rate">0</property>
  <property name="meta.attr.0.stream.ENCODER.markup">Lavc58.35.100 libx264</property>
  <property name="meta.attr.0.stream.DURATION.markup">00:09:44.760000000</property>
  <property name="meta.attr.ENCODER.markup">Lavf58.20.100</property>
  <property name="seekable">1</property>
  <property name="meta.media.sample_aspect_num">1</property>
  <property name="meta.media.sample_aspect_den">1</property>
  <property name="audio_index">-1</property>
  <property name="video_index">0</property>
  <property name="mute_on_pause">1</property>
  <property name="warp_speed">0,87</property>
  <property name="warp_resource">/home/lnj/.cache/kdenlive/proxy/ac911c457de74c6ccd5e714eca3fc499.mkv</property>
  <property name="mlt_service">timewarp</property>
  <property name="kdenlive:proxy">/home/lnj/.cache/kdenlive/proxy/ac911c457de74c6ccd5e714eca3fc499.mkv</property>
  <property name="kdenlive:originalurl">/media/lnj/LNJ-1TB-HDD/vid/yt/DuraPhilms/SynchroRemasters/videos/PvA-08-HP3.2160p25.mkv</property>
  <property name="set.test_audio">1</property>
  <property name="set.test_image">0</property>
  <property name="meta.media.frame_rate_num">25</property>
  <property name="meta.media.frame_rate_den">1</property>
  <property name="meta.media.colorspace">601</property>
  <property name="meta.media.color_trc">2</property>
  <property name="meta.media.width">720</property>
  <property name="meta.media.height">300</property>
  <property name="meta.media.top_field_first">0</property>
  <property name="meta.media.progressive">1</property>
  <property name="kdenlive:id">2</property>
 </producer>
 <producer id="producer20" in="00:00:00,000" out="00:02:33,840">
  <property name="length">3847</property>
  <property name="eof">pause</property>
  <property name="resource">3,8:/home/lnj/.cache/kdenlive/proxy/ac911c457de74c6ccd5e714eca3fc499.mkv</property>
  <property name="aspect_ratio">1</property>
  <property name="meta.media.nb_streams">1</property>
  <property name="meta.media.0.stream.type">video</property>
  <property name="meta.media.0.stream.frame_rate">25</property>
  <property name="meta.media.0.stream.sample_aspect_ratio">1</property>
  <property name="meta.media.0.codec.width">720</property>
  <property name="meta.media.0.codec.height">300</property>
  <property name="meta.media.0.codec.rotate">0</property>
  <property name="meta.media.0.codec.frame_rate">25</property>
  <property name="meta.media.0.codec.pix_fmt">yuv420p</property>
  <property name="meta.media.0.codec.sample_aspect_ratio">1</property>
  <property name="meta.media.0.codec.colorspace">601</property>
  <property name="meta.media.0.codec.name">h264</property>
  <property name="meta.media.0.codec.long_name">H.264 / AVC / MPEG-4 AVC / MPEG-4 part 10</property>
  <property name="meta.media.0.codec.bit_rate">0</property>
  <property name="meta.attr.0.stream.ENCODER.markup">Lavc58.35.100 libx264</property>
  <property name="meta.attr.0.stream.DURATION.markup">00:09:44.760000000</property>
  <property name="meta.attr.ENCODER.markup">Lavf58.20.100</property>
  <property name="seekable">1</property>
  <property name="meta.media.sample_aspect_num">1</property>
  <property name="meta.media.sample_aspect_den">1</property>
  <property name="audio_index">-1</property>
  <property name="video_index">0</property>
  <property name="mute_on_pause">1</property>
  <property name="warp_speed">3,8</property>
  <property name="warp_resource">/home/lnj/.cache/kdenlive/proxy/ac911c457de74c6ccd5e714eca3fc499.mkv</property>
  <property name="mlt_service">timewarp</property>
  <property name="kdenlive:proxy">/home/lnj/.cache/kdenlive/proxy/ac911c457de74c6ccd5e714eca3fc499.mkv</property>
  <property name="kdenlive:originalurl">/media/lnj/LNJ-1TB-HDD/vid/yt/DuraPhilms/SynchroRemasters/videos/PvA-08-HP3.2160p25.mkv</property>
  <property name="set.test_audio">1</property>
  <property name="set.test_image">0</property>
  <property name="meta.media.frame_rate_num">25</property>
  <property name="meta.media.frame_rate_den">1</property>
  <property name="meta.media.colorspace">601</property>
  <property name="meta.media.color_trc">2</property>
  <property name="meta.media.width">720</property>
  <property name="meta.media.height">300</property>
  <property name="meta.media.top_field_first">0</property>
  <property name="meta.media.progressive">1</property>
  <property name="kdenlive:id">2</property>
 </producer>
 <producer id="producer21" in="00:00:00,000" out="00:11:12,080">
  <property name="length">16803</property>
  <property name="eof">pause</property>
  <property name="resource">0,87:/home/lnj/.cache/kdenlive/proxy/ac911c457de74c6ccd5e714eca3fc499.mkv</property>
  <property name="aspect_ratio">1</property>
  <property name="meta.media.nb_streams">1</property>
  <property name="meta.media.0.stream.type">video</property>
  <property name="meta.media.0.stream.frame_rate">25</property>
  <property name="meta.media.0.stream.sample_aspect_ratio">1</property>
  <property name="meta.media.0.codec.width">720</property>
  <property name="meta.media.0.codec.height">300</property>
  <property name="meta.media.0.codec.rotate">0</property>
  <property name="meta.media.0.codec.frame_rate">25</property>
  <property name="meta.media.0.codec.pix_fmt">yuv420p</property>
  <property name="meta.media.0.codec.sample_aspect_ratio">1</property>
  <property name="meta.media.0.codec.colorspace">601</property>
  <property name="meta.media.0.codec.name">h264</property>
  <property name="meta.media.0.codec.long_name">H.264 / AVC / MPEG-4 AVC / MPEG-4 part 10</property>
  <property name="meta.media.0.codec.bit_rate">0</property>
  <property name="meta.attr.0.stream.ENCODER.markup">Lavc58.35.100 libx264</property>
  <property name="meta.attr.0.stream.DURATION.markup">00:09:44.760000000</property>
  <property name="meta.attr.ENCODER.markup">Lavf58.20.100</property>
  <property name="seekable">1</property>
  <property name="meta.media.sample_aspect_num">1</property>
  <property name="meta.media.sample_aspect_den">1</property>
  <property name="audio_index">-1</property>
  <property name="video_index">0</property>
  <property name="mute_on_pause">1</property>
  <property name="warp_speed">0,87</property>
  <property name="warp_resource">/home/lnj/.cache/kdenlive/proxy/ac911c457de74c6ccd5e714eca3fc499.mkv</property>
  <property name="mlt_service">timewarp</property>
  <property name="kdenlive:proxy">/home/lnj/.cache/kdenlive/proxy/ac911c457de74c6ccd5e714eca3fc499.mkv</property>
  <property name="kdenlive:originalurl">/media/lnj/LNJ-1TB-HDD/vid/yt/DuraPhilms/SynchroRemasters/videos/PvA-08-HP3.2160p25.mkv</property>
  <property name="set.test_audio">1</property>
  <property name="set.test_image">0</property>
  <property name="meta.media.frame_rate_num">25</property>
  <property name="meta.media.frame_rate_den">1</property>
  <property name="meta.media.colorspace">601</property>
  <property name="meta.media.color_trc">2</property>
  <property name="meta.media.width">720</property>
  <property name="meta.media.height">300</property>
  <property name="meta.media.top_field_first">0</property>
  <property name="meta.media.progressive">1</property>
  <property name="kdenlive:id">2</property>
 </producer>
 <producer title="Anonymous Submission" id="producer22" in="00:00:00,000" out="00:10:24,760">
  <property name="length">15620</property>
  <property name="eof">pause</property>
  <property name="resource">/media/lnj/LNJ-1TB-HDD/vid/yt/DuraPhilms/SynchroRemasters/videos/PvA-08.mp4</property>
  <property name="audio_index">1</property>
  <property name="video_index">0</property>
  <property name="mute_on_pause">1</property>
  <property name="mlt_service">avformat-novalidate</property>
  <property name="seekable">1</property>
  <property name="aspect_ratio">1</property>
  <property name="kdenlive:clipname"/>
  <property name="kdenlive:id">12</property>
  <property name="kdenlive:file_size">150394567</property>
  <property name="kdenlive:file_hash">1ce6a9cbd059f7264b7dc1ff4389a7c4</property>
  <property name="kdenlive:folderid">-1</property>
  <property name="global_feed">1</property>
  <property name="kdenlive:proxy">-</property>
  <property name="kdenlive:originalurl">/media/lnj/LNJ-1TB-HDD/vid/yt/DuraPhilms/SynchroRemasters/videos/PvA-08.mp4</property>
  <property name="kdenlive:original.mlt_type">mlt_producer</property>
  <property name="kdenlive:original.in">00:00:00,000</property>
  <property name="kdenlive:original.out">00:10:24,760</property>
  <property name="kdenlive:original.length">15620</property>
  <property name="kdenlive:original.eof">pause</property>
  <property name="kdenlive:original.resource">/media/lnj/LNJ-1TB-HDD/vid/yt/DuraPhilms/SynchroRemasters/videos/PvA-08.mp4</property>
  <property name="kdenlive:original.meta.media.nb_streams">2</property>
  <property name="kdenlive:original.meta.media.0.stream.type">video</property>
  <property name="kdenlive:original.meta.media.0.stream.frame_rate">23,976</property>
  <property name="kdenlive:original.meta.media.0.stream.sample_aspect_ratio">0</property>
  <property name="kdenlive:original.meta.media.0.codec.width">1280</property>
  <property name="kdenlive:original.meta.media.0.codec.height">720</property>
  <property name="kdenlive:original.meta.media.0.codec.rotate">0</property>
  <property name="kdenlive:original.meta.media.0.codec.frame_rate">23,976</property>
  <property name="kdenlive:original.meta.media.0.codec.pix_fmt">yuv420p</property>
  <property name="kdenlive:original.meta.media.0.codec.sample_aspect_ratio">1</property>
  <property name="kdenlive:original.meta.media.0.codec.colorspace">709</property>
  <property name="kdenlive:original.meta.media.0.codec.color_trc">1</property>
  <property name="kdenlive:original.meta.media.0.codec.name">h264</property>
  <property name="kdenlive:original.meta.media.0.codec.long_name">H.264 / AVC / MPEG-4 AVC / MPEG-4 part 10</property>
  <property name="kdenlive:original.meta.media.0.codec.bit_rate">1760353</property>
  <property name="kdenlive:original.meta.attr.0.stream.handler_name.markup">VideoHandler</property>
  <property name="kdenlive:original.meta.media.1.stream.type">audio</property>
  <property name="kdenlive:original.meta.media.1.codec.sample_fmt">fltp</property>
  <property name="kdenlive:original.meta.media.1.codec.sample_rate">48000</property>
  <property name="kdenlive:original.meta.media.1.codec.channels">2</property>
  <property name="kdenlive:original.meta.media.1.codec.name">mp3float</property>
  <property name="kdenlive:original.meta.media.1.codec.long_name">MP3 (MPEG audio layer 3)</property>
  <property name="kdenlive:original.meta.media.1.codec.bit_rate">159012</property>
  <property name="kdenlive:original.meta.attr.1.stream.language.markup">deu</property>
  <property name="kdenlive:original.meta.attr.1.stream.handler_name.markup">Stereo</property>
  <property name="kdenlive:original.meta.attr.major_brand.markup">mp42</property>
  <property name="kdenlive:original.meta.attr.minor_version.markup">512</property>
  <property name="kdenlive:original.meta.attr.compatible_brands.markup">isomiso2avc1mp41</property>
  <property name="kdenlive:original.meta.attr.encoder.markup">HandBrake 6548svn 2014112401</property>
  <property name="kdenlive:original.meta.attr.title.markup">Harry Potter und der Penner von Alcatraz Teil 8</property>
  <property name="kdenlive:original.seekable">1</property>
  <property name="kdenlive:original.width">1280</property>
  <property name="kdenlive:original.height">720</property>
  <property name="kdenlive:original.meta.media.sample_aspect_num">1</property>
  <property name="kdenlive:original.meta.media.sample_aspect_den">1</property>
  <property name="kdenlive:original.aspect_ratio">1</property>
  <property name="kdenlive:original.audio_index">1</property>
  <property name="kdenlive:original.video_index">0</property>
  <property name="kdenlive:original.mute_on_pause">1</property>
  <property name="kdenlive:original.mlt_service">avformat-novalidate</property>
  <property name="kdenlive:original.meta.media.frame_rate_num">674100000</property>
  <property name="kdenlive:original.meta.media.frame_rate_den">28115587</property>
  <property name="kdenlive:original.meta.media.colorspace">709</property>
  <property name="kdenlive:original.meta.media.color_trc">1</property>
  <property name="kdenlive:original.meta.media.width">1280</property>
  <property name="kdenlive:original.meta.media.height">720</property>
  <property name="kdenlive:original.kdenlive:id">12</property>
  <property name="kdenlive:original.kdenlive:file_size">150394567</property>
  <property name="kdenlive:original.kdenlive:file_hash">1ce6a9cbd059f7264b7dc1ff4389a7c4</property>
  <property name="kdenlive:original.kdenlive:folderid">-1</property>
  <property name="kdenlive:original.meta.media.top_field_first">0</property>
  <property name="kdenlive:original.meta.media.progressive">1</property>
  <property name="kdenlive:original.title">Anonymous Submission</property>
  <property name="kdenlive:original.root">/</property>
  <property name="kdenlive:original.global_feed">1</property>
  <property name="kdenlive:original.backup">1</property>
  <property name="xml">was here</property>
  <property name="meta.media.nb_streams">2</property>
  <property name="meta.media.0.stream.type">video</property>
  <property name="meta.media.0.stream.frame_rate">23,976</property>
  <property name="meta.media.0.stream.sample_aspect_ratio">0</property>
  <property name="meta.media.0.codec.width">1280</property>
  <property name="meta.media.0.codec.height">720</property>
  <property name="meta.media.0.codec.rotate">0</property>
  <property name="meta.media.0.codec.frame_rate">23,976</property>
  <property name="meta.media.0.codec.pix_fmt">yuv420p</property>
  <property name="meta.media.0.codec.sample_aspect_ratio">1</property>
  <property name="meta.media.0.codec.colorspace">709</property>
  <property name="meta.media.0.codec.color_trc">1</property>
  <property name="meta.media.0.codec.name">h264</property>
  <property name="meta.media.0.codec.long_name">H.264 / AVC / MPEG-4 AVC / MPEG-4 part 10</property>
  <property name="meta.media.0.codec.bit_rate">1760353</property>
  <property name="meta.attr.0.stream.handler_name.markup">VideoHandler</property>
  <property name="meta.media.1.stream.type">audio</property>
  <property name="meta.media.1.codec.sample_fmt">fltp</property>
  <property name="meta.media.1.codec.sample_rate">48000</property>
  <property name="meta.media.1.codec.channels">2</property>
  <property name="meta.media.1.codec.name">mp3float</property>
  <property name="meta.media.1.codec.long_name">MP3 (MPEG audio layer 3)</property>
  <property name="meta.media.1.codec.bit_rate">159012</property>
  <property name="meta.attr.1.stream.language.markup">deu</property>
  <property name="meta.attr.1.stream.handler_name.markup">Stereo</property>
  <property name="meta.attr.major_brand.markup">mp42</property>
  <property name="meta.attr.minor_version.markup">512</property>
  <property name="meta.attr.compatible_brands.markup">isomiso2avc1mp41</property>
  <property name="meta.attr.encoder.markup">HandBrake 6548svn 2014112401</property>
  <property name="meta.attr.title.markup">Harry Potter und der Penner von Alcatraz Teil 8</property>
  <property name="meta.media.sample_aspect_num">1</property>
  <property name="meta.media.sample_aspect_den">1</property>
  <property name="meta.media.frame_rate_num">674100000</property>
  <property name="meta.media.frame_rate_den">28115587</property>
  <property name="meta.media.colorspace">709</property>
  <property name="meta.media.color_trc">1</property>
  <property name="meta.media.width">1280</property>
  <property name="meta.media.height">720</property>
  <property name="meta.media.top_field_first">0</property>
  <property name="meta.media.progressive">1</property>
  <property name="set.test_audio">1</property>
  <property name="set.test_image">0</property>
 </producer>
 <producer id="producer23" in="00:00:00,000" out="00:03:18,160">
  <property name="length">4956</property>
  <property name="eof">pause</property>
  <property name="resource">2,95:/home/lnj/.cache/kdenlive/proxy/ac911c457de74c6ccd5e714eca3fc499.mkv</property>
  <property name="aspect_ratio">1</property>
  <property name="meta.media.nb_streams">1</property>
  <property name="meta.media.0.stream.type">video</property>
  <property name="meta.media.0.stream.frame_rate">25</property>
  <property name="meta.media.0.stream.sample_aspect_ratio">1</property>
  <property name="meta.media.0.codec.width">720</property>
  <property name="meta.media.0.codec.height">300</property>
  <property name="meta.media.0.codec.rotate">0</property>
  <property name="meta.media.0.codec.frame_rate">25</property>
  <property name="meta.media.0.codec.pix_fmt">yuv420p</property>
  <property name="meta.media.0.codec.sample_aspect_ratio">1</property>
  <property name="meta.media.0.codec.colorspace">601</property>
  <property name="meta.media.0.codec.name">h264</property>
  <property name="meta.media.0.codec.long_name">H.264 / AVC / MPEG-4 AVC / MPEG-4 part 10</property>
  <property name="meta.media.0.codec.bit_rate">0</property>
  <property name="meta.attr.0.stream.ENCODER.markup">Lavc58.35.100 libx264</property>
  <property name="meta.attr.0.stream.DURATION.markup">00:09:44.760000000</property>
  <property name="meta.attr.ENCODER.markup">Lavf58.20.100</property>
  <property name="seekable">1</property>
  <property name="meta.media.sample_aspect_num">1</property>
  <property name="meta.media.sample_aspect_den">1</property>
  <property name="audio_index">-1</property>
  <property name="video_index">0</property>
  <property name="mute_on_pause">1</property>
  <property name="warp_speed">2,95</property>
  <property name="warp_resource">/home/lnj/.cache/kdenlive/proxy/ac911c457de74c6ccd5e714eca3fc499.mkv</property>
  <property name="mlt_service">timewarp</property>
  <property name="kdenlive:proxy">/home/lnj/.cache/kdenlive/proxy/ac911c457de74c6ccd5e714eca3fc499.mkv</property>
  <property name="kdenlive:originalurl">/media/lnj/LNJ-1TB-HDD/vid/yt/DuraPhilms/SynchroRemasters/videos/PvA-08-HP3.2160p25.mkv</property>
  <property name="set.test_audio">1</property>
  <property name="set.test_image">0</property>
  <property name="meta.media.frame_rate_num">25</property>
  <property name="meta.media.frame_rate_den">1</property>
  <property name="meta.media.colorspace">601</property>
  <property name="meta.media.color_trc">2</property>
  <property name="meta.media.width">720</property>
  <property name="meta.media.height">300</property>
  <property name="meta.media.top_field_first">0</property>
  <property name="meta.media.progressive">1</property>
  <property name="kdenlive:id">2</property>
 </producer>
 <producer id="producer24" in="00:00:00,000" out="00:03:53,880">
  <property name="length">5848</property>
  <property name="eof">pause</property>
  <property name="resource">2,5:/home/lnj/.cache/kdenlive/proxy/ac911c457de74c6ccd5e714eca3fc499.mkv</property>
  <property name="aspect_ratio">1</property>
  <property name="meta.media.nb_streams">1</property>
  <property name="meta.media.0.stream.type">video</property>
  <property name="meta.media.0.stream.frame_rate">25</property>
  <property name="meta.media.0.stream.sample_aspect_ratio">1</property>
  <property name="meta.media.0.codec.width">720</property>
  <property name="meta.media.0.codec.height">300</property>
  <property name="meta.media.0.codec.rotate">0</property>
  <property name="meta.media.0.codec.frame_rate">25</property>
  <property name="meta.media.0.codec.pix_fmt">yuv420p</property>
  <property name="meta.media.0.codec.sample_aspect_ratio">1</property>
  <property name="meta.media.0.codec.colorspace">601</property>
  <property name="meta.media.0.codec.name">h264</property>
  <property name="meta.media.0.codec.long_name">H.264 / AVC / MPEG-4 AVC / MPEG-4 part 10</property>
  <property name="meta.media.0.codec.bit_rate">0</property>
  <property name="meta.attr.0.stream.ENCODER.markup">Lavc58.35.100 libx264</property>
  <property name="meta.attr.0.stream.DURATION.markup">00:09:44.760000000</property>
  <property name="meta.attr.ENCODER.markup">Lavf58.20.100</property>
  <property name="seekable">1</property>
  <property name="meta.media.sample_aspect_num">1</property>
  <property name="meta.media.sample_aspect_den">1</property>
  <property name="audio_index">-1</property>
  <property name="video_index">0</property>
  <property name="mute_on_pause">1</property>
  <property name="warp_speed">2,5</property>
  <property name="warp_resource">/home/lnj/.cache/kdenlive/proxy/ac911c457de74c6ccd5e714eca3fc499.mkv</property>
  <property name="mlt_service">timewarp</property>
  <property name="kdenlive:proxy">/home/lnj/.cache/kdenlive/proxy/ac911c457de74c6ccd5e714eca3fc499.mkv</property>
  <property name="kdenlive:originalurl">/media/lnj/LNJ-1TB-HDD/vid/yt/DuraPhilms/SynchroRemasters/videos/PvA-08-HP3.2160p25.mkv</property>
  <property name="set.test_audio">1</property>
  <property name="set.test_image">0</property>
  <property name="meta.media.frame_rate_num">25</property>
  <property name="meta.media.frame_rate_den">1</property>
  <property name="meta.media.colorspace">601</property>
  <property name="meta.media.color_trc">2</property>
  <property name="meta.media.width">720</property>
  <property name="meta.media.height">300</property>
  <property name="meta.media.top_field_first">0</property>
  <property name="meta.media.progressive">1</property>
  <property name="kdenlive:id">2</property>
 </producer>
 <producer id="producer25" in="00:00:00,000" out="00:13:55,320">
  <property name="length">20884</property>
  <property name="eof">pause</property>
  <property name="resource">-0,7:/home/lnj/.cache/kdenlive/proxy/ac911c457de74c6ccd5e714eca3fc499.mkv</property>
  <property name="aspect_ratio">1</property>
  <property name="meta.media.nb_streams">1</property>
  <property name="meta.media.0.stream.type">video</property>
  <property name="meta.media.0.stream.frame_rate">25</property>
  <property name="meta.media.0.stream.sample_aspect_ratio">1</property>
  <property name="meta.media.0.codec.width">720</property>
  <property name="meta.media.0.codec.height">300</property>
  <property name="meta.media.0.codec.rotate">0</property>
  <property name="meta.media.0.codec.frame_rate">25</property>
  <property name="meta.media.0.codec.pix_fmt">yuv420p</property>
  <property name="meta.media.0.codec.sample_aspect_ratio">1</property>
  <property name="meta.media.0.codec.colorspace">601</property>
  <property name="meta.media.0.codec.name">h264</property>
  <property name="meta.media.0.codec.long_name">H.264 / AVC / MPEG-4 AVC / MPEG-4 part 10</property>
  <property name="meta.media.0.codec.bit_rate">0</property>
  <property name="meta.attr.0.stream.ENCODER.markup">Lavc58.35.100 libx264</property>
  <property name="meta.attr.0.stream.DURATION.markup">00:09:44.760000000</property>
  <property name="meta.attr.ENCODER.markup">Lavf58.20.100</property>
  <property name="seekable">1</property>
  <property name="meta.media.sample_aspect_num">1</property>
  <property name="meta.media.sample_aspect_den">1</property>
  <property name="audio_index">-1</property>
  <property name="video_index">0</property>
  <property name="mute_on_pause">1</property>
  <property name="warp_speed">-0,7</property>
  <property name="warp_resource">/home/lnj/.cache/kdenlive/proxy/ac911c457de74c6ccd5e714eca3fc499.mkv</property>
  <property name="mlt_service">timewarp</property>
  <property name="kdenlive:proxy">/home/lnj/.cache/kdenlive/proxy/ac911c457de74c6ccd5e714eca3fc499.mkv</property>
  <property name="kdenlive:originalurl">/media/lnj/LNJ-1TB-HDD/vid/yt/DuraPhilms/SynchroRemasters/videos/PvA-08-HP3.2160p25.mkv</property>
  <property name="set.test_audio">1</property>
  <property name="set.test_image">0</property>
  <property name="meta.media.frame_rate_num">25</property>
  <property name="meta.media.frame_rate_den">1</property>
  <property name="meta.media.colorspace">601</property>
  <property name="meta.media.color_trc">2</property>
  <property name="meta.media.width">720</property>
  <property name="meta.media.height">300</property>
  <property name="meta.media.top_field_first">0</property>
  <property name="meta.media.progressive">1</property>
  <property name="kdenlive:id">2</property>
 </producer>
 <producer id="producer26" in="00:00:00,000" out="00:13:55,320">
  <property name="length">20884</property>
  <property name="eof">pause</property>
  <property name="resource">-0,7:/home/lnj/.cache/kdenlive/proxy/ac911c457de74c6ccd5e714eca3fc499.mkv</property>
  <property name="aspect_ratio">1</property>
  <property name="meta.media.nb_streams">1</property>
  <property name="meta.media.0.stream.type">video</property>
  <property name="meta.media.0.stream.frame_rate">25</property>
  <property name="meta.media.0.stream.sample_aspect_ratio">1</property>
  <property name="meta.media.0.codec.width">720</property>
  <property name="meta.media.0.codec.height">300</property>
  <property name="meta.media.0.codec.rotate">0</property>
  <property name="meta.media.0.codec.frame_rate">25</property>
  <property name="meta.media.0.codec.pix_fmt">yuv420p</property>
  <property name="meta.media.0.codec.sample_aspect_ratio">1</property>
  <property name="meta.media.0.codec.colorspace">601</property>
  <property name="meta.media.0.codec.name">h264</property>
  <property name="meta.media.0.codec.long_name">H.264 / AVC / MPEG-4 AVC / MPEG-4 part 10</property>
  <property name="meta.media.0.codec.bit_rate">0</property>
  <property name="meta.attr.0.stream.ENCODER.markup">Lavc58.35.100 libx264</property>
  <property name="meta.attr.0.stream.DURATION.markup">00:09:44.760000000</property>
  <property name="meta.attr.ENCODER.markup">Lavf58.20.100</property>
  <property name="seekable">1</property>
  <property name="meta.media.sample_aspect_num">1</property>
  <property name="meta.media.sample_aspect_den">1</property>
  <property name="audio_index">-1</property>
  <property name="video_index">0</property>
  <property name="mute_on_pause">1</property>
  <property name="warp_speed">-0,7</property>
  <property name="warp_resource">/home/lnj/.cache/kdenlive/proxy/ac911c457de74c6ccd5e714eca3fc499.mkv</property>
  <property name="mlt_service">timewarp</property>
  <property name="kdenlive:proxy">/home/lnj/.cache/kdenlive/proxy/ac911c457de74c6ccd5e714eca3fc499.mkv</property>
  <property name="kdenlive:originalurl">/media/lnj/LNJ-1TB-HDD/vid/yt/DuraPhilms/SynchroRemasters/videos/PvA-08-HP3.2160p25.mkv</property>
  <property name="set.test_audio">1</property>
  <property name="set.test_image">0</property>
  <property name="meta.media.frame_rate_num">25</property>
  <property name="meta.media.frame_rate_den">1</property>
  <property name="meta.media.colorspace">601</property>
  <property name="meta.media.color_trc">2</property>
  <property name="meta.media.width">720</property>
  <property name="meta.media.height">300</property>
  <property name="meta.media.top_field_first">0</property>
  <property name="meta.media.progressive">1</property>
  <property name="kdenlive:id">2</property>
 </producer>
 <producer id="producer27" in="00:00:00,000" out="00:13:43,560">
  <property name="length">20590</property>
  <property name="eof">pause</property>
  <property name="resource">0,71:/home/lnj/.cache/kdenlive/proxy/ac911c457de74c6ccd5e714eca3fc499.mkv</property>
  <property name="aspect_ratio">1</property>
  <property name="meta.media.nb_streams">1</property>
  <property name="meta.media.0.stream.type">video</property>
  <property name="meta.media.0.stream.frame_rate">25</property>
  <property name="meta.media.0.stream.sample_aspect_ratio">1</property>
  <property name="meta.media.0.codec.width">720</property>
  <property name="meta.media.0.codec.height">300</property>
  <property name="meta.media.0.codec.rotate">0</property>
  <property name="meta.media.0.codec.frame_rate">25</property>
  <property name="meta.media.0.codec.pix_fmt">yuv420p</property>
  <property name="meta.media.0.codec.sample_aspect_ratio">1</property>
  <property name="meta.media.0.codec.colorspace">601</property>
  <property name="meta.media.0.codec.name">h264</property>
  <property name="meta.media.0.codec.long_name">H.264 / AVC / MPEG-4 AVC / MPEG-4 part 10</property>
  <property name="meta.media.0.codec.bit_rate">0</property>
  <property name="meta.attr.0.stream.ENCODER.markup">Lavc58.35.100 libx264</property>
  <property name="meta.attr.0.stream.DURATION.markup">00:09:44.760000000</property>
  <property name="meta.attr.ENCODER.markup">Lavf58.20.100</property>
  <property name="seekable">1</property>
  <property name="meta.media.sample_aspect_num">1</property>
  <property name="meta.media.sample_aspect_den">1</property>
  <property name="audio_index">-1</property>
  <property name="video_index">0</property>
  <property name="mute_on_pause">1</property>
  <property name="warp_speed">0,71</property>
  <property name="warp_resource">/home/lnj/.cache/kdenlive/proxy/ac911c457de74c6ccd5e714eca3fc499.mkv</property>
  <property name="mlt_service">timewarp</property>
  <property name="kdenlive:proxy">/home/lnj/.cache/kdenlive/proxy/ac911c457de74c6ccd5e714eca3fc499.mkv</property>
  <property name="kdenlive:originalurl">/media/lnj/LNJ-1TB-HDD/vid/yt/DuraPhilms/SynchroRemasters/videos/PvA-08-HP3.2160p25.mkv</property>
  <property name="set.test_audio">1</property>
  <property name="set.test_image">0</property>
  <property name="meta.media.frame_rate_num">25</property>
  <property name="meta.media.frame_rate_den">1</property>
  <property name="meta.media.colorspace">601</property>
  <property name="meta.media.color_trc">2</property>
  <property name="meta.media.width">720</property>
  <property name="meta.media.height">300</property>
  <property name="meta.media.top_field_first">0</property>
  <property name="meta.media.progressive">1</property>
  <property name="kdenlive:id">2</property>
 </producer>
 <producer id="producer28" in="00:00:00,000" out="00:15:58,560">
  <property name="length">23966</property>
  <property name="eof">pause</property>
  <property name="resource">0,61:/home/lnj/.cache/kdenlive/proxy/ac911c457de74c6ccd5e714eca3fc499.mkv</property>
  <property name="aspect_ratio">1</property>
  <property name="meta.media.nb_streams">1</property>
  <property name="meta.media.0.stream.type">video</property>
  <property name="meta.media.0.stream.frame_rate">25</property>
  <property name="meta.media.0.stream.sample_aspect_ratio">1</property>
  <property name="meta.media.0.codec.width">720</property>
  <property name="meta.media.0.codec.height">300</property>
  <property name="meta.media.0.codec.rotate">0</property>
  <property name="meta.media.0.codec.frame_rate">25</property>
  <property name="meta.media.0.codec.pix_fmt">yuv420p</property>
  <property name="meta.media.0.codec.sample_aspect_ratio">1</property>
  <property name="meta.media.0.codec.colorspace">601</property>
  <property name="meta.media.0.codec.name">h264</property>
  <property name="meta.media.0.codec.long_name">H.264 / AVC / MPEG-4 AVC / MPEG-4 part 10</property>
  <property name="meta.media.0.codec.bit_rate">0</property>
  <property name="meta.attr.0.stream.ENCODER.markup">Lavc58.35.100 libx264</property>
  <property name="meta.attr.0.stream.DURATION.markup">00:09:44.760000000</property>
  <property name="meta.attr.ENCODER.markup">Lavf58.20.100</property>
  <property name="seekable">1</property>
  <property name="meta.media.sample_aspect_num">1</property>
  <property name="meta.media.sample_aspect_den">1</property>
  <property name="audio_index">-1</property>
  <property name="video_index">0</property>
  <property name="mute_on_pause">1</property>
  <property name="warp_speed">0,61</property>
  <property name="warp_resource">/home/lnj/.cache/kdenlive/proxy/ac911c457de74c6ccd5e714eca3fc499.mkv</property>
  <property name="mlt_service">timewarp</property>
  <property name="kdenlive:proxy">/home/lnj/.cache/kdenlive/proxy/ac911c457de74c6ccd5e714eca3fc499.mkv</property>
  <property name="kdenlive:originalurl">/media/lnj/LNJ-1TB-HDD/vid/yt/DuraPhilms/SynchroRemasters/videos/PvA-08-HP3.2160p25.mkv</property>
  <property name="set.test_audio">1</property>
  <property name="set.test_image">0</property>
  <property name="meta.media.frame_rate_num">25</property>
  <property name="meta.media.frame_rate_den">1</property>
  <property name="meta.media.colorspace">601</property>
  <property name="meta.media.color_trc">2</property>
  <property name="meta.media.width">720</property>
  <property name="meta.media.height">300</property>
  <property name="meta.media.top_field_first">0</property>
  <property name="meta.media.progressive">1</property>
  <property name="kdenlive:id">2</property>
 </producer>
 <playlist id="playlist4">
  <blank length="00:00:07,000"/>
  <entry producer="producer16" in="00:00:32,440" out="00:00:37,080">
   <property name="kdenlive:id">5</property>
  </entry>
  <entry producer="producer17" in="00:00:30,440" out="00:00:31,360">
   <property name="kdenlive:id">5</property>
  </entry>
  <entry producer="producer16" in="00:00:38,320" out="00:00:41,840">
   <property name="kdenlive:id">5</property>
  </entry>
  <entry producer="slowmotion:5:1,18:1:1" in="00:00:35,480" out="00:00:36,600">
   <property name="kdenlive:id">5</property>
  </entry>
  <entry producer="producer16" in="00:00:43,280" out="00:00:48,360">
   <property name="kdenlive:id">5</property>
  </entry>
  <blank length="00:00:08,320"/>
  <entry producer="producer16" in="00:00:56,720" out="00:01:04,960">
   <property name="kdenlive:id">5</property>
  </entry>
  <blank length="00:00:22,840"/>
  <entry producer="producer6" in="00:00:00,000" out="00:00:01,960">
   <property name="kdenlive:id">15</property>
  </entry>
  <blank length="00:00:27,280"/>
  <entry producer="producer18" in="00:00:52,000" out="00:00:54,520">
   <property name="kdenlive:id">2</property>
  </entry>
  <entry producer="producer19" in="00:01:02,640" out="00:01:08,320">
   <property name="kdenlive:id">2</property>
  </entry>
  <entry producer="producer20" in="00:00:15,560" out="00:00:16,160">
   <property name="kdenlive:id">2</property>
  </entry>
  <entry producer="producer21" in="00:01:10,680" out="00:01:15,160">
   <property name="kdenlive:id">2</property>
  </entry>
  <entry producer="producer18" in="00:01:05,400" out="00:01:17,880">
   <property name="kdenlive:id">2</property>
  </entry>
  <entry producer="producer18" in="00:01:19,360" out="00:01:23,480">
   <property name="kdenlive:id">2</property>
  </entry>
  <entry producer="producer18" in="00:01:23,600" out="00:01:28,520">
   <property name="kdenlive:id">2</property>
  </entry>
  <entry producer="producer18" in="00:01:28,560" out="00:01:31,680">
   <property name="kdenlive:id">2</property>
  </entry>
  <entry producer="producer18" in="00:01:35,600" out="00:02:25,000">
   <property name="kdenlive:id">2</property>
  </entry>
  <entry producer="producer18" in="00:00:52,120" out="00:00:54,520">
   <property name="kdenlive:id">2</property>
  </entry>
  <entry producer="producer22" in="00:03:01,480" out="00:03:04,840">
   <property name="kdenlive:id">12</property>
   <filter id="filter11">
    <property name="background">colour:0x00000000</property>
    <property name="mlt_service">affine</property>
    <property name="kdenlive_id">pan_zoom</property>
    <property name="transition.geometry">4537=0 -100 3840 1800</property>
    <property name="transition.distort">1</property>
    <property name="use_normalised">0</property>
    <property name="kdenlive:collapsed">0</property>
    <property name="disable">0</property>
   </filter>
  </entry>
  <blank length="00:00:00,520"/>
  <entry producer="producer18" in="00:02:28,920" out="00:02:37,560">
   <property name="kdenlive:id">2</property>
  </entry>
  <entry producer="producer18" in="00:02:42,400" out="00:02:49,800">
   <property name="kdenlive:id">2</property>
  </entry>
  <entry producer="producer23" in="00:00:59,240" out="00:01:00,080">
   <property name="kdenlive:id">2</property>
  </entry>
  <entry producer="producer24" in="00:01:11,120" out="00:01:11,600">
   <property name="kdenlive:id">2</property>
  </entry>
  <entry producer="producer18" in="00:02:59,040" out="00:03:21,320">
   <property name="kdenlive:id">2</property>
  </entry>
  <entry producer="producer22" in="00:03:45,240" out="00:03:45,800">
   <property name="kdenlive:id">12</property>
   <filter id="filter12">
    <property name="background">colour:0x00000000</property>
    <property name="mlt_service">affine</property>
    <property name="kdenlive_id">pan_zoom</property>
    <property name="transition.geometry">5631=-960 -400 6912 2880</property>
    <property name="transition.distort">0</property>
    <property name="use_normalised">0</property>
    <property name="kdenlive:collapsed">0</property>
   </filter>
   <filter id="filter13">
    <property name="version">0,1</property>
    <property name="mlt_service">frei0r.IIRblur</property>
    <property name="kdenlive_id">frei0r.IIRblur</property>
    <property name="Amount">00:03:45,240=0,067</property>
    <property name="Type">0,5</property>
    <property name="Edge">1</property>
    <property name="kdenlive:collapsed">0</property>
    <property name="disable">1</property>
   </filter>
  </entry>
  <entry producer="producer18" in="00:03:40,680" out="00:03:46,280">
   <property name="kdenlive:id">2</property>
  </entry>
  <blank length="00:00:01,320"/>
  <entry producer="producer18" in="00:03:47,200" out="00:03:48,800">
   <property name="kdenlive:id">2</property>
  </entry>
  <blank length="00:00:04,080"/>
  <entry producer="producer18" in="00:03:40,720" out="00:03:49,040">
   <property name="kdenlive:id">2</property>
  </entry>
  <blank length="00:00:02,440"/>
  <entry producer="producer18" in="00:03:51,480" out="00:05:56,160">
   <property name="kdenlive:id">2</property>
  </entry>
  <entry producer="producer18" in="00:05:56,920" out="00:06:53,760">
   <property name="kdenlive:id">2</property>
  </entry>
  <entry producer="producer18" in="00:06:53,800" out="00:07:30,040">
   <property name="kdenlive:id">2</property>
  </entry>
  <entry producer="producer25" in="00:02:37,120" out="00:02:42,200">
   <property name="kdenlive:id">2</property>
  </entry>
  <entry producer="producer18" in="00:07:29,920" out="00:07:37,800">
   <property name="kdenlive:id">2</property>
  </entry>
  <entry producer="producer26" in="00:02:40,160" out="00:02:44,400">
   <property name="kdenlive:id">2</property>
  </entry>
  <entry producer="producer18" in="00:07:36,880" out="00:07:41,720">
   <property name="kdenlive:id">2</property>
  </entry>
  <entry producer="producer18" in="00:07:49,640" out="00:07:55,080">
   <property name="kdenlive:id">2</property>
  </entry>
  <blank length="00:00:00,520"/>
  <entry producer="producer18" in="00:07:55,120" out="00:09:09,720">
   <property name="kdenlive:id">2</property>
  </entry>
  <entry producer="producer27" in="00:12:54,280" out="00:13:00,880">
   <property name="kdenlive:id">2</property>
  </entry>
  <entry producer="producer4" in="00:00:00,000" out="00:00:02,240">
   <property name="kdenlive:id">6</property>
  </entry>
  <entry producer="producer18" in="00:09:15,720" out="00:09:19,800">
   <property name="kdenlive:id">2</property>
  </entry>
  <entry producer="producer18" in="00:09:19,840" out="00:09:39,200">
   <property name="kdenlive:id">2</property>
  </entry>
  <entry producer="producer28" in="00:15:49,480" out="00:15:57,960">
   <property name="kdenlive:id">2</property>
  </entry>
 </playlist>
 <playlist id="playlist5"/>
 <tractor id="tractor2" in="00:00:00,000" out="00:10:10,800">
  <property name="kdenlive:trackheight">84</property>
  <property name="kdenlive:collapsed">0</property>
  <property name="kdenlive:track_name">Video 2</property>
  <property name="kdenlive:thumbs_format">1</property>
  <property name="kdenlive:audio_rec"/>
  <track hide="audio" producer="playlist4"/>
  <track hide="audio" producer="playlist5"/>
 </tractor>
 <producer id="producer29" in="00:00:00,000" out="00:02:33,840">
  <property name="length">3847</property>
  <property name="eof">pause</property>
  <property name="resource">3,8:/home/lnj/.cache/kdenlive/proxy/ac911c457de74c6ccd5e714eca3fc499.mkv</property>
  <property name="aspect_ratio">1</property>
  <property name="meta.media.nb_streams">1</property>
  <property name="meta.media.0.stream.type">video</property>
  <property name="meta.media.0.stream.frame_rate">25</property>
  <property name="meta.media.0.stream.sample_aspect_ratio">1</property>
  <property name="meta.media.0.codec.width">720</property>
  <property name="meta.media.0.codec.height">300</property>
  <property name="meta.media.0.codec.rotate">0</property>
  <property name="meta.media.0.codec.frame_rate">25</property>
  <property name="meta.media.0.codec.pix_fmt">yuv420p</property>
  <property name="meta.media.0.codec.sample_aspect_ratio">1</property>
  <property name="meta.media.0.codec.colorspace">601</property>
  <property name="meta.media.0.codec.name">h264</property>
  <property name="meta.media.0.codec.long_name">H.264 / AVC / MPEG-4 AVC / MPEG-4 part 10</property>
  <property name="meta.media.0.codec.bit_rate">0</property>
  <property name="meta.attr.0.stream.ENCODER.markup">Lavc58.35.100 libx264</property>
  <property name="meta.attr.0.stream.DURATION.markup">00:09:44.760000000</property>
  <property name="meta.attr.ENCODER.markup">Lavf58.20.100</property>
  <property name="seekable">1</property>
  <property name="meta.media.sample_aspect_num">1</property>
  <property name="meta.media.sample_aspect_den">1</property>
  <property name="audio_index">-1</property>
  <property name="video_index">0</property>
  <property name="mute_on_pause">1</property>
  <property name="warp_speed">3,8</property>
  <property name="warp_resource">/home/lnj/.cache/kdenlive/proxy/ac911c457de74c6ccd5e714eca3fc499.mkv</property>
  <property name="mlt_service">timewarp</property>
  <property name="kdenlive:proxy">/home/lnj/.cache/kdenlive/proxy/ac911c457de74c6ccd5e714eca3fc499.mkv</property>
  <property name="kdenlive:originalurl">/media/lnj/LNJ-1TB-HDD/vid/yt/DuraPhilms/SynchroRemasters/videos/PvA-08-HP3.2160p25.mkv</property>
  <property name="set.test_audio">1</property>
  <property name="set.test_image">0</property>
  <property name="meta.media.frame_rate_num">25</property>
  <property name="meta.media.frame_rate_den">1</property>
  <property name="meta.media.colorspace">601</property>
  <property name="meta.media.color_trc">2</property>
  <property name="meta.media.width">720</property>
  <property name="meta.media.height">300</property>
  <property name="meta.media.top_field_first">0</property>
  <property name="meta.media.progressive">1</property>
  <property name="kdenlive:id">2</property>
 </producer>
 <producer title="Anonymous Submission" id="producer30" in="00:00:00,000" out="00:10:24,760">
  <property name="length">15620</property>
  <property name="eof">pause</property>
  <property name="resource">/media/lnj/LNJ-1TB-HDD/vid/yt/DuraPhilms/SynchroRemasters/videos/PvA-08.mp4</property>
  <property name="audio_index">1</property>
  <property name="video_index">0</property>
  <property name="mute_on_pause">1</property>
  <property name="mlt_service">avformat-novalidate</property>
  <property name="seekable">1</property>
  <property name="aspect_ratio">1</property>
  <property name="kdenlive:clipname"/>
  <property name="kdenlive:id">12</property>
  <property name="kdenlive:file_size">150394567</property>
  <property name="kdenlive:file_hash">1ce6a9cbd059f7264b7dc1ff4389a7c4</property>
  <property name="kdenlive:folderid">-1</property>
  <property name="global_feed">1</property>
  <property name="kdenlive:proxy">-</property>
  <property name="kdenlive:originalurl">/media/lnj/LNJ-1TB-HDD/vid/yt/DuraPhilms/SynchroRemasters/videos/PvA-08.mp4</property>
  <property name="kdenlive:original.mlt_type">mlt_producer</property>
  <property name="kdenlive:original.in">00:00:00,000</property>
  <property name="kdenlive:original.out">00:10:24,760</property>
  <property name="kdenlive:original.length">15620</property>
  <property name="kdenlive:original.eof">pause</property>
  <property name="kdenlive:original.resource">/media/lnj/LNJ-1TB-HDD/vid/yt/DuraPhilms/SynchroRemasters/videos/PvA-08.mp4</property>
  <property name="kdenlive:original.meta.media.nb_streams">2</property>
  <property name="kdenlive:original.meta.media.0.stream.type">video</property>
  <property name="kdenlive:original.meta.media.0.stream.frame_rate">23,976</property>
  <property name="kdenlive:original.meta.media.0.stream.sample_aspect_ratio">0</property>
  <property name="kdenlive:original.meta.media.0.codec.width">1280</property>
  <property name="kdenlive:original.meta.media.0.codec.height">720</property>
  <property name="kdenlive:original.meta.media.0.codec.rotate">0</property>
  <property name="kdenlive:original.meta.media.0.codec.frame_rate">23,976</property>
  <property name="kdenlive:original.meta.media.0.codec.pix_fmt">yuv420p</property>
  <property name="kdenlive:original.meta.media.0.codec.sample_aspect_ratio">1</property>
  <property name="kdenlive:original.meta.media.0.codec.colorspace">709</property>
  <property name="kdenlive:original.meta.media.0.codec.color_trc">1</property>
  <property name="kdenlive:original.meta.media.0.codec.name">h264</property>
  <property name="kdenlive:original.meta.media.0.codec.long_name">H.264 / AVC / MPEG-4 AVC / MPEG-4 part 10</property>
  <property name="kdenlive:original.meta.media.0.codec.bit_rate">1760353</property>
  <property name="kdenlive:original.meta.attr.0.stream.handler_name.markup">VideoHandler</property>
  <property name="kdenlive:original.meta.media.1.stream.type">audio</property>
  <property name="kdenlive:original.meta.media.1.codec.sample_fmt">fltp</property>
  <property name="kdenlive:original.meta.media.1.codec.sample_rate">48000</property>
  <property name="kdenlive:original.meta.media.1.codec.channels">2</property>
  <property name="kdenlive:original.meta.media.1.codec.name">mp3float</property>
  <property name="kdenlive:original.meta.media.1.codec.long_name">MP3 (MPEG audio layer 3)</property>
  <property name="kdenlive:original.meta.media.1.codec.bit_rate">159012</property>
  <property name="kdenlive:original.meta.attr.1.stream.language.markup">deu</property>
  <property name="kdenlive:original.meta.attr.1.stream.handler_name.markup">Stereo</property>
  <property name="kdenlive:original.meta.attr.major_brand.markup">mp42</property>
  <property name="kdenlive:original.meta.attr.minor_version.markup">512</property>
  <property name="kdenlive:original.meta.attr.compatible_brands.markup">isomiso2avc1mp41</property>
  <property name="kdenlive:original.meta.attr.encoder.markup">HandBrake 6548svn 2014112401</property>
  <property name="kdenlive:original.meta.attr.title.markup">Harry Potter und der Penner von Alcatraz Teil 8</property>
  <property name="kdenlive:original.seekable">1</property>
  <property name="kdenlive:original.width">1280</property>
  <property name="kdenlive:original.height">720</property>
  <property name="kdenlive:original.meta.media.sample_aspect_num">1</property>
  <property name="kdenlive:original.meta.media.sample_aspect_den">1</property>
  <property name="kdenlive:original.aspect_ratio">1</property>
  <property name="kdenlive:original.audio_index">1</property>
  <property name="kdenlive:original.video_index">0</property>
  <property name="kdenlive:original.mute_on_pause">1</property>
  <property name="kdenlive:original.mlt_service">avformat-novalidate</property>
  <property name="kdenlive:original.meta.media.frame_rate_num">674100000</property>
  <property name="kdenlive:original.meta.media.frame_rate_den">28115587</property>
  <property name="kdenlive:original.meta.media.colorspace">709</property>
  <property name="kdenlive:original.meta.media.color_trc">1</property>
  <property name="kdenlive:original.meta.media.width">1280</property>
  <property name="kdenlive:original.meta.media.height">720</property>
  <property name="kdenlive:original.kdenlive:id">12</property>
  <property name="kdenlive:original.kdenlive:file_size">150394567</property>
  <property name="kdenlive:original.kdenlive:file_hash">1ce6a9cbd059f7264b7dc1ff4389a7c4</property>
  <property name="kdenlive:original.kdenlive:folderid">-1</property>
  <property name="kdenlive:original.meta.media.top_field_first">0</property>
  <property name="kdenlive:original.meta.media.progressive">1</property>
  <property name="kdenlive:original.title">Anonymous Submission</property>
  <property name="kdenlive:original.root">/</property>
  <property name="kdenlive:original.global_feed">1</property>
  <property name="kdenlive:original.backup">1</property>
  <property name="xml">was here</property>
  <property name="meta.media.nb_streams">2</property>
  <property name="meta.media.0.stream.type">video</property>
  <property name="meta.media.0.stream.frame_rate">23,976</property>
  <property name="meta.media.0.stream.sample_aspect_ratio">0</property>
  <property name="meta.media.0.codec.width">1280</property>
  <property name="meta.media.0.codec.height">720</property>
  <property name="meta.media.0.codec.rotate">0</property>
  <property name="meta.media.0.codec.frame_rate">23,976</property>
  <property name="meta.media.0.codec.pix_fmt">yuv420p</property>
  <property name="meta.media.0.codec.sample_aspect_ratio">1</property>
  <property name="meta.media.0.codec.colorspace">709</property>
  <property name="meta.media.0.codec.color_trc">1</property>
  <property name="meta.media.0.codec.name">h264</property>
  <property name="meta.media.0.codec.long_name">H.264 / AVC / MPEG-4 AVC / MPEG-4 part 10</property>
  <property name="meta.media.0.codec.bit_rate">1760353</property>
  <property name="meta.attr.0.stream.handler_name.markup">VideoHandler</property>
  <property name="meta.media.1.stream.type">audio</property>
  <property name="meta.media.1.codec.sample_fmt">fltp</property>
  <property name="meta.media.1.codec.sample_rate">48000</property>
  <property name="meta.media.1.codec.channels">2</property>
  <property name="meta.media.1.codec.name">mp3float</property>
  <property name="meta.media.1.codec.long_name">MP3 (MPEG audio layer 3)</property>
  <property name="meta.media.1.codec.bit_rate">159012</property>
  <property name="meta.attr.1.stream.language.markup">deu</property>
  <property name="meta.attr.1.stream.handler_name.markup">Stereo</property>
  <property name="meta.attr.major_brand.markup">mp42</property>
  <property name="meta.attr.minor_version.markup">512</property>
  <property name="meta.attr.compatible_brands.markup">isomiso2avc1mp41</property>
  <property name="meta.attr.encoder.markup">HandBrake 6548svn 2014112401</property>
  <property name="meta.attr.title.markup">Harry Potter und der Penner von Alcatraz Teil 8</property>
  <property name="meta.media.sample_aspect_num">1</property>
  <property name="meta.media.sample_aspect_den">1</property>
  <property name="meta.media.frame_rate_num">674100000</property>
  <property name="meta.media.frame_rate_den">28115587</property>
  <property name="meta.media.colorspace">709</property>
  <property name="meta.media.color_trc">1</property>
  <property name="meta.media.width">1280</property>
  <property name="meta.media.height">720</property>
  <property name="meta.media.top_field_first">0</property>
  <property name="meta.media.progressive">1</property>
  <property name="set.test_audio">1</property>
  <property name="set.test_image">0</property>
 </producer>
 <playlist id="playlist6">
  <blank length="00:00:07,000"/>
  <entry producer="7" in="00:00:00,000" out="00:00:15,440">
   <property name="kdenlive:id">7</property>
  </entry>
  <blank length="00:00:08,320"/>
  <entry producer="11" in="00:00:00,000" out="00:00:08,240">
   <property name="kdenlive:id">11</property>
  </entry>
  <blank length="00:00:23,320"/>
  <entry producer="producer7" in="00:00:00,000" out="00:00:01,480">
   <property name="kdenlive:id">16</property>
  </entry>
  <blank length="00:00:29,840"/>
  <entry producer="producer9" in="00:00:00,000" out="00:00:03,720">
   <property name="kdenlive:id">18</property>
  </entry>
  <blank length="00:00:01,960"/>
  <entry producer="producer29" in="00:00:15,520" out="00:00:16,160">
   <property name="kdenlive:id">2</property>
  </entry>
  <blank length="00:02:05,520"/>
  <entry producer="producer10" in="00:00:00,000" out="00:00:03,600">
   <property name="kdenlive:id">19</property>
  </entry>
  <blank length="00:00:02,000"/>
  <entry producer="producer30" in="00:03:51,480" out="00:03:52,760">
   <property name="kdenlive:id">12</property>
   <filter id="filter14">
    <property name="version">0,2</property>
    <property name="mlt_service">frei0r.contrast0r</property>
    <property name="kdenlive_id">frei0r.contrast0r</property>
    <property name="Contrast">00:03:51,480=0,54</property>
    <property name="kdenlive:collapsed">0</property>
   </filter>
   <filter id="filter15">
    <property name="background">colour:0x00000000</property>
    <property name="mlt_service">affine</property>
    <property name="kdenlive_id">pan_zoom</property>
    <property name="transition.geometry">5787=0 0 3840 1600</property>
    <property name="transition.distort">1</property>
    <property name="use_normalised">0</property>
    <property name="kdenlive:collapsed">0</property>
   </filter>
   <filter id="filter16">
    <property name="version">0,1</property>
    <property name="mlt_service">frei0r.IIRblur</property>
    <property name="kdenlive_id">frei0r.IIRblur</property>
    <property name="Amount">00:03:51,480=1</property>
    <property name="Type">0</property>
    <property name="Edge">1</property>
    <property name="kdenlive:collapsed">0</property>
   </filter>
  </entry>
  <blank length="00:00:01,640"/>
  <entry producer="producer30" in="00:03:54,440" out="00:03:58,480">
   <property name="kdenlive:id">12</property>
   <filter id="filter17">
    <property name="version">0,2</property>
    <property name="mlt_service">frei0r.contrast0r</property>
    <property name="kdenlive_id">frei0r.contrast0r</property>
    <property name="Contrast">00:03:54,440=0,54</property>
    <property name="kdenlive:collapsed">0</property>
   </filter>
   <filter id="filter18">
    <property name="background">colour:0x00000000</property>
    <property name="mlt_service">affine</property>
    <property name="kdenlive_id">pan_zoom</property>
    <property name="transition.geometry">5861=0 0 3840 1600</property>
    <property name="transition.distort">1</property>
    <property name="use_normalised">0</property>
   </filter>
   <filter id="filter19">
    <property name="version">0,1</property>
    <property name="mlt_service">frei0r.IIRblur</property>
    <property name="kdenlive_id">frei0r.IIRblur</property>
    <property name="Amount">00:03:54,440=1</property>
    <property name="Type">0</property>
    <property name="Edge">1</property>
   </filter>
  </entry>
  <blank length="00:00:08,360"/>
  <entry producer="producer30" in="00:04:06,880" out="00:04:09,280">
   <property name="kdenlive:id">12</property>
   <filter id="filter20">
    <property name="version">0,2</property>
    <property name="mlt_service">frei0r.contrast0r</property>
    <property name="kdenlive_id">frei0r.contrast0r</property>
    <property name="Contrast">00:04:06,880=0,54</property>
    <property name="kdenlive:collapsed">0</property>
   </filter>
   <filter id="filter21">
    <property name="background">colour:0x00000000</property>
    <property name="mlt_service">affine</property>
    <property name="kdenlive_id">pan_zoom</property>
    <property name="transition.geometry">6172=0 0 3840 1600</property>
    <property name="transition.distort">1</property>
    <property name="use_normalised">0</property>
    <property name="kdenlive:collapsed">0</property>
   </filter>
   <filter id="filter22">
    <property name="version">0,1</property>
    <property name="mlt_service">frei0r.IIRblur</property>
    <property name="kdenlive_id">frei0r.IIRblur</property>
    <property name="Amount">00:04:06,880=1</property>
    <property name="Type">0</property>
    <property name="Edge">1</property>
    <property name="kdenlive:collapsed">0</property>
   </filter>
  </entry>
  <blank length="00:01:03,640"/>
  <entry producer="producer30" in="00:05:12,960" out="00:05:13,040">
   <property name="kdenlive:id">12</property>
   <filter id="filter29">
    <property name="background">colour:0x00000000</property>
    <property name="mlt_service">affine</property>
    <property name="kdenlive_id">pan_zoom</property>
    <property name="transition.geometry">7824=0 -280 3840 2160</property>
    <property name="transition.distort">0</property>
    <property name="use_normalised">0</property>
    <property name="kdenlive:collapsed">0</property>
   </filter>
   <filter id="filter30">
    <property name="version">0,1</property>
    <property name="mlt_service">frei0r.alphaspot</property>
    <property name="kdenlive_id">frei0r.alphaspot</property>
    <property name="Shape">0,62</property>
    <property name="Position X">00:05:12,960=0,501</property>
    <property name="Position Y">00:05:12,960=0,429</property>
    <property name="Size X">00:05:12,960=0,167</property>
    <property name="Size Y">00:05:12,960=0,564</property>
    <property name="Tilt">00:05:12,960=0,748</property>
    <property name="Transition width">00:05:12,960=0,15</property>
    <property name="Min">00:05:12,960=0</property>
    <property name="Max">00:05:12,960=1</property>
    <property name="Operation">0,5</property>
    <property name="kdenlive:collapsed">0</property>
   </filter>
   <filter id="filter23">
    <property name="version">0,2</property>
    <property name="mlt_service">frei0r.contrast0r</property>
    <property name="kdenlive_id">frei0r.contrast0r</property>
    <property name="Contrast">00:05:12,960=0,54</property>
    <property name="kdenlive:collapsed">0</property>
   </filter>
  </entry>
 </playlist>
 <playlist id="playlist7"/>
 <tractor id="tractor3" in="00:00:00,000" out="00:05:12,880">
  <property name="kdenlive:trackheight">52</property>
  <property name="kdenlive:collapsed">0</property>
  <property name="kdenlive:track_name">Video 3</property>
  <property name="kdenlive:thumbs_format">1</property>
  <property name="kdenlive:audio_rec"/>
  <track hide="audio" producer="playlist6"/>
  <track hide="audio" producer="playlist7"/>
 </tractor>
 <producer title="Anonymous Submission" id="producer31" in="00:00:00,000" out="00:25:17,480">
  <property name="length">00:25:17:13</property>
  <property name="eof">pause</property>
  <property name="resource">/media/lnj/LNJ-1TB-HDD/vid/yt/DuraPhilms/SynchroRemasters/videos/tagesthemen_07.01.2008_22_15.mp4</property>
  <property name="audio_index">1</property>
  <property name="video_index">0</property>
  <property name="mute_on_pause">1</property>
  <property name="mlt_service">avformat-novalidate</property>
  <property name="seekable">1</property>
  <property name="aspect_ratio">1</property>
  <property name="kdenlive:file_size">689331312</property>
  <property name="kdenlive:file_hash">618b3c570ed75c99da49ccd2f4f1cbde</property>
  <property name="global_feed">1</property>
  <property name="kdenlive:id">5</property>
  <property name="kdenlive:folderid">-1</property>
  <property name="kdenlive:proxy">-</property>
  <property name="kdenlive:originalurl">/media/lnj/LNJ-1TB-HDD/vid/yt/DuraPhilms/SynchroRemasters/videos/tagesthemen_07.01.2008_22_15.mp4</property>
  <property name="kdenlive:original.mlt_type">mlt_producer</property>
  <property name="kdenlive:original.in">00:00:00,000</property>
  <property name="kdenlive:original.out">00:25:17,480</property>
  <property name="kdenlive:original.length">00:25:17:13</property>
  <property name="kdenlive:original.eof">pause</property>
  <property name="kdenlive:original.resource">/media/lnj/LNJ-1TB-HDD/vid/yt/DuraPhilms/SynchroRemasters/videos/tagesthemen_07.01.2008_22_15.mp4</property>
  <property name="kdenlive:original.audio_index">1</property>
  <property name="kdenlive:original.video_index">0</property>
  <property name="kdenlive:original.mute_on_pause">1</property>
  <property name="kdenlive:original.mlt_service">avformat-novalidate</property>
  <property name="kdenlive:original.title">Anonymous Submission</property>
  <property name="kdenlive:original.id">5</property>
  <property name="kdenlive:original.meta.media.nb_streams">1</property>
  <property name="kdenlive:original.meta.media.0.stream.type">video</property>
  <property name="kdenlive:original.meta.media.0.stream.frame_rate">25</property>
  <property name="kdenlive:original.meta.media.0.stream.sample_aspect_ratio">1</property>
  <property name="kdenlive:original.meta.media.0.codec.width">1280</property>
  <property name="kdenlive:original.meta.media.0.codec.height">720</property>
  <property name="kdenlive:original.meta.media.0.codec.rotate">0</property>
  <property name="kdenlive:original.meta.media.0.codec.frame_rate">25</property>
  <property name="kdenlive:original.meta.media.0.codec.pix_fmt">yuv420p</property>
  <property name="kdenlive:original.meta.media.0.codec.sample_aspect_ratio">1</property>
  <property name="kdenlive:original.meta.media.0.codec.colorspace">709</property>
  <property name="kdenlive:original.meta.media.0.codec.name">h264</property>
  <property name="kdenlive:original.meta.media.0.codec.long_name">H.264 / AVC / MPEG-4 AVC / MPEG-4 part 10</property>
  <property name="kdenlive:original.meta.media.0.codec.bit_rate">3564070</property>
  <property name="kdenlive:original.meta.attr.0.stream.creation_time.markup">1970-01-01T00:00:00.000000Z</property>
  <property name="kdenlive:original.meta.attr.0.stream.handler_name.markup">VideoHandler</property>
  <property name="kdenlive:original.meta.media.1.stream.type">audio</property>
  <property name="kdenlive:original.meta.media.1.codec.sample_fmt">fltp</property>
  <property name="kdenlive:original.meta.media.1.codec.sample_rate">48000</property>
  <property name="kdenlive:original.meta.media.1.codec.channels">1</property>
  <property name="kdenlive:original.meta.media.1.codec.name">aac</property>
  <property name="kdenlive:original.meta.media.1.codec.long_name">AAC (Advanced Audio Coding)</property>
  <property name="kdenlive:original.meta.media.1.codec.bit_rate">64000</property>
  <property name="kdenlive:original.meta.attr.1.stream.creation_time.markup">1970-01-01T00:00:00.000000Z</property>
  <property name="kdenlive:original.meta.attr.1.stream.handler_name.markup">SoundHandler</property>
  <property name="kdenlive:original.meta.attr.major_brand.markup">isom</property>
  <property name="kdenlive:original.meta.attr.minor_version.markup">512</property>
  <property name="kdenlive:original.meta.attr.compatible_brands.markup">isomiso2avc1mp41</property>
  <property name="kdenlive:original.meta.attr.creation_time.markup">1970-01-01T00:00:00.000000Z</property>
  <property name="kdenlive:original.meta.attr.title.markup">tagesschau.de</property>
  <property name="kdenlive:original.meta.attr.artist.markup">ard-aktuell</property>
  <property name="kdenlive:original.meta.attr.composer.markup">ard-aktuell</property>
  <property name="kdenlive:original.meta.attr.encoder.markup">Lavf58.20.100</property>
  <property name="kdenlive:original.meta.attr.comment.markup">Archivversion</property>
  <property name="kdenlive:original.seekable">1</property>
  <property name="kdenlive:original.meta.media.sample_aspect_num">1</property>
  <property name="kdenlive:original.meta.media.sample_aspect_den">1</property>
  <property name="kdenlive:original.aspect_ratio">1</property>
  <property name="kdenlive:original.meta.media.frame_rate_num">25</property>
  <property name="kdenlive:original.meta.media.frame_rate_den">1</property>
  <property name="kdenlive:original.meta.media.colorspace">709</property>
  <property name="kdenlive:original.meta.media.color_trc">2</property>
  <property name="kdenlive:original.meta.media.width">1280</property>
  <property name="kdenlive:original.meta.media.height">720</property>
  <property name="kdenlive:original.meta.media.top_field_first">0</property>
  <property name="kdenlive:original.meta.media.progressive">1</property>
  <property name="kdenlive:original.kdenlive:file_size">689331312</property>
  <property name="kdenlive:original.kdenlive:file_hash">618b3c570ed75c99da49ccd2f4f1cbde</property>
  <property name="kdenlive:original.global_feed">1</property>
  <property name="kdenlive:original.kdenlive:id">5</property>
  <property name="kdenlive:original.kdenlive:folderid">-1</property>
  <property name="kdenlive:original.width">1280</property>
  <property name="kdenlive:original.height">720</property>
  <property name="kdenlive:original.root">/</property>
  <property name="kdenlive:original.backup">1</property>
  <property name="xml">was here</property>
  <property name="meta.media.nb_streams">1</property>
  <property name="meta.media.0.stream.type">video</property>
  <property name="meta.media.0.stream.frame_rate">25</property>
  <property name="meta.media.0.stream.sample_aspect_ratio">1</property>
  <property name="meta.media.0.codec.width">1280</property>
  <property name="meta.media.0.codec.height">720</property>
  <property name="meta.media.0.codec.rotate">0</property>
  <property name="meta.media.0.codec.frame_rate">25</property>
  <property name="meta.media.0.codec.pix_fmt">yuv420p</property>
  <property name="meta.media.0.codec.sample_aspect_ratio">1</property>
  <property name="meta.media.0.codec.colorspace">709</property>
  <property name="meta.media.0.codec.name">h264</property>
  <property name="meta.media.0.codec.long_name">H.264 / AVC / MPEG-4 AVC / MPEG-4 part 10</property>
  <property name="meta.media.0.codec.bit_rate">3564070</property>
  <property name="meta.attr.0.stream.creation_time.markup">1970-01-01T00:00:00.000000Z</property>
  <property name="meta.attr.0.stream.handler_name.markup">VideoHandler</property>
  <property name="meta.media.1.stream.type">audio</property>
  <property name="meta.media.1.codec.sample_fmt">fltp</property>
  <property name="meta.media.1.codec.sample_rate">48000</property>
  <property name="meta.media.1.codec.channels">1</property>
  <property name="meta.media.1.codec.name">aac</property>
  <property name="meta.media.1.codec.long_name">AAC (Advanced Audio Coding)</property>
  <property name="meta.media.1.codec.bit_rate">64000</property>
  <property name="meta.attr.1.stream.creation_time.markup">1970-01-01T00:00:00.000000Z</property>
  <property name="meta.attr.1.stream.handler_name.markup">SoundHandler</property>
  <property name="meta.attr.major_brand.markup">isom</property>
  <property name="meta.attr.minor_version.markup">512</property>
  <property name="meta.attr.compatible_brands.markup">isomiso2avc1mp41</property>
  <property name="meta.attr.creation_time.markup">1970-01-01T00:00:00.000000Z</property>
  <property name="meta.attr.title.markup">tagesschau.de</property>
  <property name="meta.attr.artist.markup">ard-aktuell</property>
  <property name="meta.attr.composer.markup">ard-aktuell</property>
  <property name="meta.attr.encoder.markup">Lavf58.20.100</property>
  <property name="meta.attr.comment.markup">Archivversion</property>
  <property name="meta.media.sample_aspect_num">1</property>
  <property name="meta.media.sample_aspect_den">1</property>
  <property name="meta.media.frame_rate_num">25</property>
  <property name="meta.media.frame_rate_den">1</property>
  <property name="meta.media.colorspace">709</property>
  <property name="meta.media.color_trc">2</property>
  <property name="meta.media.width">1280</property>
  <property name="meta.media.height">720</property>
  <property name="meta.media.top_field_first">0</property>
  <property name="meta.media.progressive">1</property>
  <property name="set.test_audio">1</property>
  <property name="set.test_image">0</property>
 </producer>
 <producer id="producer32" in="00:00:00,000" out="00:20:43,800">
  <property name="length">31096,7</property>
  <property name="eof">pause</property>
  <property name="resource">1,22:/media/lnj/LNJ-1TB-HDD/vid/yt/DuraPhilms/SynchroRemasters/videos/tagesthemen_07.01.2008_22_15.mp4</property>
  <property name="aspect_ratio">1</property>
  <property name="meta.media.nb_streams">1</property>
  <property name="meta.media.0.stream.type">video</property>
  <property name="meta.media.0.stream.frame_rate">25</property>
  <property name="meta.media.0.stream.sample_aspect_ratio">1</property>
  <property name="meta.media.0.codec.width">1280</property>
  <property name="meta.media.0.codec.height">720</property>
  <property name="meta.media.0.codec.rotate">0</property>
  <property name="meta.media.0.codec.frame_rate">25</property>
  <property name="meta.media.0.codec.pix_fmt">yuv420p</property>
  <property name="meta.media.0.codec.sample_aspect_ratio">1</property>
  <property name="meta.media.0.codec.colorspace">709</property>
  <property name="meta.media.0.codec.name">h264</property>
  <property name="meta.media.0.codec.long_name">H.264 / AVC / MPEG-4 AVC / MPEG-4 part 10</property>
  <property name="meta.media.0.codec.bit_rate">3564070</property>
  <property name="meta.attr.0.stream.handler_name.markup">VideoHandler</property>
  <property name="meta.attr.major_brand.markup">isom</property>
  <property name="meta.attr.minor_version.markup">512</property>
  <property name="meta.attr.compatible_brands.markup">isomiso2avc1mp41</property>
  <property name="meta.attr.title.markup">tagesschau.de</property>
  <property name="meta.attr.artist.markup">ard-aktuell</property>
  <property name="meta.attr.composer.markup">ard-aktuell</property>
  <property name="meta.attr.encoder.markup">Lavf58.20.100</property>
  <property name="meta.attr.comment.markup">Archivversion</property>
  <property name="seekable">1</property>
  <property name="meta.media.sample_aspect_num">1</property>
  <property name="meta.media.sample_aspect_den">1</property>
  <property name="audio_index">1</property>
  <property name="video_index">0</property>
  <property name="mute_on_pause">1</property>
  <property name="warp_speed">1,22</property>
  <property name="warp_resource">/media/lnj/LNJ-1TB-HDD/vid/yt/DuraPhilms/SynchroRemasters/videos/tagesthemen_07.01.2008_22_15.mp4</property>
  <property name="mlt_service">timewarp</property>
  <property name="meta.attr.0.stream.creation_time.markup">1970-01-01T00:00:00.000000Z</property>
  <property name="meta.media.1.stream.type">audio</property>
  <property name="meta.media.1.codec.sample_fmt">fltp</property>
  <property name="meta.media.1.codec.sample_rate">48000</property>
  <property name="meta.media.1.codec.channels">1</property>
  <property name="meta.media.1.codec.name">aac</property>
  <property name="meta.media.1.codec.long_name">AAC (Advanced Audio Coding)</property>
  <property name="meta.media.1.codec.bit_rate">64000</property>
  <property name="meta.attr.1.stream.creation_time.markup">1970-01-01T00:00:00.000000Z</property>
  <property name="meta.attr.1.stream.handler_name.markup">SoundHandler</property>
  <property name="meta.attr.creation_time.markup">1970-01-01T00:00:00.000000Z</property>
  <property name="set.test_audio">1</property>
  <property name="set.test_image">0</property>
  <property name="meta.media.frame_rate_num">25</property>
  <property name="meta.media.frame_rate_den">1</property>
  <property name="meta.media.colorspace">709</property>
  <property name="meta.media.color_trc">2</property>
  <property name="meta.media.width">1280</property>
  <property name="meta.media.height">720</property>
  <property name="meta.media.top_field_first">0</property>
  <property name="meta.media.progressive">1</property>
  <property name="kdenlive:id">5</property>
 </producer>
 <producer title="Anonymous Submission" id="producer33" in="00:00:00,000" out="00:10:24,760">
  <property name="length">15620</property>
  <property name="eof">pause</property>
  <property name="resource">/media/lnj/LNJ-1TB-HDD/vid/yt/DuraPhilms/SynchroRemasters/videos/PvA-08.mp4</property>
  <property name="audio_index">1</property>
  <property name="video_index">0</property>
  <property name="mute_on_pause">1</property>
  <property name="mlt_service">avformat-novalidate</property>
  <property name="seekable">1</property>
  <property name="aspect_ratio">1</property>
  <property name="kdenlive:clipname"/>
  <property name="kdenlive:id">12</property>
  <property name="kdenlive:file_size">150394567</property>
  <property name="kdenlive:file_hash">1ce6a9cbd059f7264b7dc1ff4389a7c4</property>
  <property name="kdenlive:folderid">-1</property>
  <property name="global_feed">1</property>
  <property name="kdenlive:proxy">-</property>
  <property name="kdenlive:originalurl">/media/lnj/LNJ-1TB-HDD/vid/yt/DuraPhilms/SynchroRemasters/videos/PvA-08.mp4</property>
  <property name="kdenlive:original.mlt_type">mlt_producer</property>
  <property name="kdenlive:original.in">00:00:00,000</property>
  <property name="kdenlive:original.out">00:10:24,760</property>
  <property name="kdenlive:original.length">15620</property>
  <property name="kdenlive:original.eof">pause</property>
  <property name="kdenlive:original.resource">/media/lnj/LNJ-1TB-HDD/vid/yt/DuraPhilms/SynchroRemasters/videos/PvA-08.mp4</property>
  <property name="kdenlive:original.meta.media.nb_streams">2</property>
  <property name="kdenlive:original.meta.media.0.stream.type">video</property>
  <property name="kdenlive:original.meta.media.0.stream.frame_rate">23,976</property>
  <property name="kdenlive:original.meta.media.0.stream.sample_aspect_ratio">0</property>
  <property name="kdenlive:original.meta.media.0.codec.width">1280</property>
  <property name="kdenlive:original.meta.media.0.codec.height">720</property>
  <property name="kdenlive:original.meta.media.0.codec.rotate">0</property>
  <property name="kdenlive:original.meta.media.0.codec.frame_rate">23,976</property>
  <property name="kdenlive:original.meta.media.0.codec.pix_fmt">yuv420p</property>
  <property name="kdenlive:original.meta.media.0.codec.sample_aspect_ratio">1</property>
  <property name="kdenlive:original.meta.media.0.codec.colorspace">709</property>
  <property name="kdenlive:original.meta.media.0.codec.color_trc">1</property>
  <property name="kdenlive:original.meta.media.0.codec.name">h264</property>
  <property name="kdenlive:original.meta.media.0.codec.long_name">H.264 / AVC / MPEG-4 AVC / MPEG-4 part 10</property>
  <property name="kdenlive:original.meta.media.0.codec.bit_rate">1760353</property>
  <property name="kdenlive:original.meta.attr.0.stream.handler_name.markup">VideoHandler</property>
  <property name="kdenlive:original.meta.media.1.stream.type">audio</property>
  <property name="kdenlive:original.meta.media.1.codec.sample_fmt">fltp</property>
  <property name="kdenlive:original.meta.media.1.codec.sample_rate">48000</property>
  <property name="kdenlive:original.meta.media.1.codec.channels">2</property>
  <property name="kdenlive:original.meta.media.1.codec.name">mp3float</property>
  <property name="kdenlive:original.meta.media.1.codec.long_name">MP3 (MPEG audio layer 3)</property>
  <property name="kdenlive:original.meta.media.1.codec.bit_rate">159012</property>
  <property name="kdenlive:original.meta.attr.1.stream.language.markup">deu</property>
  <property name="kdenlive:original.meta.attr.1.stream.handler_name.markup">Stereo</property>
  <property name="kdenlive:original.meta.attr.major_brand.markup">mp42</property>
  <property name="kdenlive:original.meta.attr.minor_version.markup">512</property>
  <property name="kdenlive:original.meta.attr.compatible_brands.markup">isomiso2avc1mp41</property>
  <property name="kdenlive:original.meta.attr.encoder.markup">HandBrake 6548svn 2014112401</property>
  <property name="kdenlive:original.meta.attr.title.markup">Harry Potter und der Penner von Alcatraz Teil 8</property>
  <property name="kdenlive:original.seekable">1</property>
  <property name="kdenlive:original.width">1280</property>
  <property name="kdenlive:original.height">720</property>
  <property name="kdenlive:original.meta.media.sample_aspect_num">1</property>
  <property name="kdenlive:original.meta.media.sample_aspect_den">1</property>
  <property name="kdenlive:original.aspect_ratio">1</property>
  <property name="kdenlive:original.audio_index">1</property>
  <property name="kdenlive:original.video_index">0</property>
  <property name="kdenlive:original.mute_on_pause">1</property>
  <property name="kdenlive:original.mlt_service">avformat-novalidate</property>
  <property name="kdenlive:original.meta.media.frame_rate_num">674100000</property>
  <property name="kdenlive:original.meta.media.frame_rate_den">28115587</property>
  <property name="kdenlive:original.meta.media.colorspace">709</property>
  <property name="kdenlive:original.meta.media.color_trc">1</property>
  <property name="kdenlive:original.meta.media.width">1280</property>
  <property name="kdenlive:original.meta.media.height">720</property>
  <property name="kdenlive:original.kdenlive:id">12</property>
  <property name="kdenlive:original.kdenlive:file_size">150394567</property>
  <property name="kdenlive:original.kdenlive:file_hash">1ce6a9cbd059f7264b7dc1ff4389a7c4</property>
  <property name="kdenlive:original.kdenlive:folderid">-1</property>
  <property name="kdenlive:original.meta.media.top_field_first">0</property>
  <property name="kdenlive:original.meta.media.progressive">1</property>
  <property name="kdenlive:original.title">Anonymous Submission</property>
  <property name="kdenlive:original.root">/</property>
  <property name="kdenlive:original.global_feed">1</property>
  <property name="kdenlive:original.backup">1</property>
  <property name="xml">was here</property>
  <property name="meta.media.nb_streams">2</property>
  <property name="meta.media.0.stream.type">video</property>
  <property name="meta.media.0.stream.frame_rate">23,976</property>
  <property name="meta.media.0.stream.sample_aspect_ratio">0</property>
  <property name="meta.media.0.codec.width">1280</property>
  <property name="meta.media.0.codec.height">720</property>
  <property name="meta.media.0.codec.rotate">0</property>
  <property name="meta.media.0.codec.frame_rate">23,976</property>
  <property name="meta.media.0.codec.pix_fmt">yuv420p</property>
  <property name="meta.media.0.codec.sample_aspect_ratio">1</property>
  <property name="meta.media.0.codec.colorspace">709</property>
  <property name="meta.media.0.codec.color_trc">1</property>
  <property name="meta.media.0.codec.name">h264</property>
  <property name="meta.media.0.codec.long_name">H.264 / AVC / MPEG-4 AVC / MPEG-4 part 10</property>
  <property name="meta.media.0.codec.bit_rate">1760353</property>
  <property name="meta.attr.0.stream.handler_name.markup">VideoHandler</property>
  <property name="meta.media.1.stream.type">audio</property>
  <property name="meta.media.1.codec.sample_fmt">fltp</property>
  <property name="meta.media.1.codec.sample_rate">48000</property>
  <property name="meta.media.1.codec.channels">2</property>
  <property name="meta.media.1.codec.name">mp3float</property>
  <property name="meta.media.1.codec.long_name">MP3 (MPEG audio layer 3)</property>
  <property name="meta.media.1.codec.bit_rate">159012</property>
  <property name="meta.attr.1.stream.language.markup">deu</property>
  <property name="meta.attr.1.stream.handler_name.markup">Stereo</property>
  <property name="meta.attr.major_brand.markup">mp42</property>
  <property name="meta.attr.minor_version.markup">512</property>
  <property name="meta.attr.compatible_brands.markup">isomiso2avc1mp41</property>
  <property name="meta.attr.encoder.markup">HandBrake 6548svn 2014112401</property>
  <property name="meta.attr.title.markup">Harry Potter und der Penner von Alcatraz Teil 8</property>
  <property name="meta.media.sample_aspect_num">1</property>
  <property name="meta.media.sample_aspect_den">1</property>
  <property name="meta.media.frame_rate_num">674100000</property>
  <property name="meta.media.frame_rate_den">28115587</property>
  <property name="meta.media.colorspace">709</property>
  <property name="meta.media.color_trc">1</property>
  <property name="meta.media.width">1280</property>
  <property name="meta.media.height">720</property>
  <property name="meta.media.top_field_first">0</property>
  <property name="meta.media.progressive">1</property>
  <property name="set.test_audio">1</property>
  <property name="set.test_image">0</property>
 </producer>
 <playlist id="playlist8">
  <blank length="00:00:07,000"/>
  <entry producer="producer31" in="00:00:32,440" out="00:00:37,080">
   <property name="kdenlive:id">5</property>
   <filter id="frei0r.select0r">
    <property name="version">0,5</property>
    <property name="mlt_service">frei0r.select0r</property>
    <property name="kdenlive_id">frei0r.select0r</property>
    <property name="tag">frei0r.select0r</property>
    <property name="kdenlive_ix">1</property>
    <property name="kdenlive_info">0/-1/</property>
    <property name="disable">0</property>
    <property name="Color to select">0x4d4d52ff</property>
    <property name="Invert selection">0</property>
    <property name="Selection subspace">0,5</property>
    <property name="Subspace shape">0,5</property>
    <property name="Edge mode">0,7</property>
    <property name="Delta R / A / Hue">00:00:32,440=0,218</property>
    <property name="Delta G / B / Chroma">00:00:32,440=1</property>
    <property name="Delta B / I / I">00:00:32,440=1</property>
    <property name="Slope">00:00:32,440=0</property>
    <property name="Operation">0</property>
    <property name="kdenlive:collapsed">0</property>
   </filter>
   <filter id="frei0r.mask0mate">
    <property name="version">0,1</property>
    <property name="mlt_service">frei0r.mask0mate</property>
    <property name="kdenlive_id">frei0r.mask0mate</property>
    <property name="tag">frei0r.mask0mate</property>
    <property name="kdenlive_ix">2</property>
    <property name="kdenlive_info">1/-1/</property>
    <property name="disable">0</property>
    <property name="Left">00:00:00,000=0,448</property>
    <property name="Right">00:00:00,000=0,492</property>
    <property name="Top">00:00:00,000=0,544</property>
    <property name="Bottom">00:00:00,000=0,365</property>
    <property name="Invert">1</property>
    <property name="Blur">00:00:00,000=0</property>
    <property name="kdenlive:collapsed">0</property>
   </filter>
  </entry>
  <entry producer="producer32" in="00:00:30,440" out="00:00:31,360">
   <property name="kdenlive:id">5</property>
   <filter id="filter24">
    <property name="version">0,5</property>
    <property name="mlt_service">frei0r.select0r</property>
    <property name="kdenlive_id">frei0r.select0r</property>
    <property name="tag">frei0r.select0r</property>
    <property name="kdenlive_info">1/-1/</property>
    <property name="kdenlive_ix">2</property>
    <property name="disable">0</property>
    <property name="Color to select">0x4d4d52ff</property>
    <property name="Invert selection">0</property>
    <property name="Selection subspace">0,5</property>
    <property name="Subspace shape">0,5</property>
    <property name="Edge mode">0,7</property>
    <property name="Delta R / A / Hue">00:00:30,440=0,219</property>
    <property name="Delta G / B / Chroma">00:00:30,440=1</property>
    <property name="Delta B / I / I">00:00:30,440=1</property>
    <property name="Slope">00:00:30,440=0</property>
    <property name="Operation">0</property>
    <property name="kdenlive:collapsed">0</property>
   </filter>
   <filter id="filter25">
    <property name="version">0,1</property>
    <property name="mlt_service">frei0r.mask0mate</property>
    <property name="kdenlive_id">frei0r.mask0mate</property>
    <property name="tag">frei0r.mask0mate</property>
    <property name="kdenlive_info">1/-1/</property>
    <property name="kdenlive_ix">3</property>
    <property name="disable">0</property>
    <property name="Left">00:00:00,000=0,448</property>
    <property name="Right">00:00:00,000=0,492</property>
    <property name="Top">00:00:00,000=0,544</property>
    <property name="Bottom">00:00:00,000=0,365</property>
    <property name="Invert">1</property>
    <property name="Blur">00:00:00,000=0</property>
    <property name="kdenlive:collapsed">0</property>
   </filter>
  </entry>
  <entry producer="producer31" in="00:00:38,320" out="00:00:41,840">
   <property name="kdenlive:id">5</property>
   <filter id="filter26">
    <property name="version">0,5</property>
    <property name="mlt_service">frei0r.select0r</property>
    <property name="kdenlive_id">frei0r.select0r</property>
    <property name="tag">frei0r.select0r</property>
    <property name="kdenlive_info">1/-1/</property>
    <property name="kdenlive_ix">1</property>
    <property name="disable">0</property>
    <property name="Color to select">0x4d4d52ff</property>
    <property name="Invert selection">0</property>
    <property name="Selection subspace">0,5</property>
    <property name="Subspace shape">0,5</property>
    <property name="Edge mode">0,7</property>
    <property name="Delta R / A / Hue">00:00:38,320=0,219</property>
    <property name="Delta G / B / Chroma">00:00:38,320=1</property>
    <property name="Delta B / I / I">00:00:38,320=1</property>
    <property name="Slope">00:00:38,320=0</property>
    <property name="Operation">0</property>
   </filter>
   <filter id="filter27">
    <property name="version">0,1</property>
    <property name="mlt_service">frei0r.mask0mate</property>
    <property name="kdenlive_id">frei0r.mask0mate</property>
    <property name="tag">frei0r.mask0mate</property>
    <property name="kdenlive_info">1/-1/</property>
    <property name="kdenlive_ix">2</property>
    <property name="disable">0</property>
    <property name="Left">00:00:00,000=0,448</property>
    <property name="Right">00:00:00,000=0,492</property>
    <property name="Top">00:00:00,000=0,544</property>
    <property name="Bottom">00:00:00,000=0,365</property>
    <property name="Invert">1</property>
    <property name="Blur">00:00:00,000=0</property>
   </filter>
  </entry>
  <entry producer="producer31" in="00:00:35,480" out="00:00:36,600">
   <property name="kdenlive:id">5</property>
   <filter id="filter28">
    <property name="version">0,5</property>
    <property name="mlt_service">frei0r.select0r</property>
    <property name="kdenlive_id">frei0r.select0r</property>
    <property name="tag">frei0r.select0r</property>
    <property name="kdenlive_info">1/-1/</property>
    <property name="kdenlive_ix">2</property>
    <property name="disable">0</property>
    <property name="Color to select">0x4d4d52ff</property>
    <property name="Invert selection">0</property>
    <property name="Selection subspace">0,5</property>
    <property name="Subspace shape">0,5</property>
    <property name="Edge mode">0,7</property>
    <property name="Delta R / A / Hue">00:00:35,480=0,219</property>
    <property name="Delta G / B / Chroma">00:00:35,480=1</property>
    <property name="Delta B / I / I">00:00:35,480=1</property>
    <property name="Slope">00:00:35,480=0</property>
    <property name="Operation">0</property>
   </filter>
   <filter id="filter31">
    <property name="version">0,1</property>
    <property name="mlt_service">frei0r.mask0mate</property>
    <property name="kdenlive_id">frei0r.mask0mate</property>
    <property name="tag">frei0r.mask0mate</property>
    <property name="kdenlive_info">1/-1/</property>
    <property name="kdenlive_ix">3</property>
    <property name="disable">0</property>
    <property name="Left">00:00:00,000=0,448</property>
    <property name="Right">00:00:00,000=0,492</property>
    <property name="Top">00:00:00,000=0,544</property>
    <property name="Bottom">00:00:00,000=0,365</property>
    <property name="Invert">1</property>
    <property name="Blur">00:00:00,000=0</property>
   </filter>
  </entry>
  <entry producer="producer31" in="00:00:43,280" out="00:00:48,360">
   <property name="kdenlive:id">5</property>
   <filter id="filter32">
    <property name="version">0,5</property>
    <property name="mlt_service">frei0r.select0r</property>
    <property name="kdenlive_id">frei0r.select0r</property>
    <property name="tag">frei0r.select0r</property>
    <property name="kdenlive_info">1/-1/</property>
    <property name="kdenlive_ix">1</property>
    <property name="disable">0</property>
    <property name="Color to select">0x4d4d52ff</property>
    <property name="Invert selection">0</property>
    <property name="Selection subspace">0,5</property>
    <property name="Subspace shape">0,5</property>
    <property name="Edge mode">0,7</property>
    <property name="Delta R / A / Hue">00:00:43,280=0,219</property>
    <property name="Delta G / B / Chroma">00:00:43,280=1</property>
    <property name="Delta B / I / I">00:00:43,280=1</property>
    <property name="Slope">00:00:43,280=0</property>
    <property name="Operation">0</property>
   </filter>
   <filter id="filter33">
    <property name="version">0,1</property>
    <property name="mlt_service">frei0r.mask0mate</property>
    <property name="kdenlive_id">frei0r.mask0mate</property>
    <property name="tag">frei0r.mask0mate</property>
    <property name="kdenlive_info">1/-1/</property>
    <property name="kdenlive_ix">2</property>
    <property name="disable">0</property>
    <property name="Left">00:00:00,000=0,448</property>
    <property name="Right">00:00:00,000=0,492</property>
    <property name="Top">00:00:00,000=0,544</property>
    <property name="Bottom">00:00:00,000=0,365</property>
    <property name="Invert">1</property>
    <property name="Blur">00:00:00,000=0</property>
   </filter>
  </entry>
  <blank length="00:00:16,240"/>
  <entry producer="9" in="00:00:00,000" out="00:00:00,320">
   <property name="kdenlive:id">9</property>
  </entry>
  <blank length="00:00:23,840"/>
  <entry producer="producer8" in="00:00:00,000" out="00:00:00,960">
   <property name="kdenlive:id">17</property>
  </entry>
  <blank length="00:02:47,400"/>
  <entry producer="producer33" in="00:03:51,480" out="00:03:52,760">
   <property name="kdenlive:id">12</property>
   <filter id="filter34">
    <property name="version">0,2</property>
    <property name="mlt_service">frei0r.contrast0r</property>
    <property name="kdenlive_id">frei0r.contrast0r</property>
    <property name="Contrast">00:03:51,480=0,54</property>
    <property name="kdenlive:collapsed">0</property>
   </filter>
  </entry>
  <blank length="00:00:01,640"/>
  <entry producer="producer33" in="00:03:54,440" out="00:03:58,480">
   <property name="kdenlive:id">12</property>
   <filter id="filter35">
    <property name="version">0,2</property>
    <property name="mlt_service">frei0r.contrast0r</property>
    <property name="kdenlive_id">frei0r.contrast0r</property>
    <property name="Contrast">00:03:54,440=0,54</property>
    <property name="kdenlive:collapsed">0</property>
   </filter>
  </entry>
  <blank length="00:00:08,360"/>
  <entry producer="producer33" in="00:04:06,880" out="00:04:09,280">
   <property name="kdenlive:id">12</property>
   <filter id="filter36">
    <property name="version">0,2</property>
    <property name="mlt_service">frei0r.contrast0r</property>
    <property name="kdenlive_id">frei0r.contrast0r</property>
    <property name="Contrast">00:04:06,880=0,54</property>
    <property name="kdenlive:collapsed">0</property>
   </filter>
  </entry>
  <blank length="00:06:02,680"/>
  <entry producer="producer33" in="00:10:12,000" out="00:10:24,760">
   <property name="kdenlive:id">12</property>
   <filter id="filter37">
    <property name="version">0,2</property>
    <property name="mlt_service">frei0r.contrast0r</property>
    <property name="kdenlive_id">frei0r.contrast0r</property>
    <property name="Contrast">00:10:12,000=0,54</property>
    <property name="kdenlive:collapsed">0</property>
   </filter>
  </entry>
  <blank length="00:00:00,160"/>
  <entry producer="producer3" in="00:00:00,000" out="00:00:00,960">
   <property name="kdenlive:id">13</property>
  </entry>
  <entry producer="producer5" in="00:00:00,000" out="00:00:00,920">
   <property name="kdenlive:id">14</property>
  </entry>
 </playlist>
 <playlist id="playlist9"/>
 <tractor id="tractor4" in="00:00:00,000" out="00:10:26,720">
  <property name="kdenlive:trackheight">70</property>
  <property name="kdenlive:collapsed">0</property>
  <property name="kdenlive:track_name">Video 4</property>
  <property name="kdenlive:thumbs_format">1</property>
  <property name="kdenlive:audio_rec"/>
  <track hide="audio" producer="playlist8"/>
  <track hide="audio" producer="playlist9"/>
 </tractor>
 <playlist id="playlist10">
  <blank length="00:00:07,000"/>
  <entry producer="9" in="00:00:00,000" out="00:00:00,320">
   <property name="kdenlive:id">9</property>
  </entry>
 </playlist>
 <playlist id="playlist11"/>
 <tractor id="tractor5" in="00:00:00,000" out="00:00:07,320">
  <property name="kdenlive:trackheight">45</property>
  <property name="kdenlive:collapsed">0</property>
  <property name="kdenlive:track_name">Video 5</property>
  <property name="kdenlive:thumbs_format"/>
  <property name="kdenlive:audio_rec"/>
  <track hide="audio" producer="playlist10"/>
  <track hide="audio" producer="playlist11"/>
 </tractor>
 <producer id="producer34" in="00:00:00,000" out="00:00:00,960">
  <property name="length">25</property>
  <property name="eof">pause</property>
  <property name="resource">/home/lnj/.cache/kdenlive/1551627129603/preview/2325.avi</property>
  <property name="meta.media.nb_streams">1</property>
  <property name="meta.media.0.stream.type">video</property>
  <property name="meta.media.0.stream.frame_rate">25</property>
  <property name="meta.media.0.stream.sample_aspect_ratio">1</property>
  <property name="meta.media.0.codec.width">3840</property>
  <property name="meta.media.0.codec.height">1600</property>
  <property name="meta.media.0.codec.rotate">0</property>
  <property name="meta.media.0.codec.frame_rate">25</property>
  <property name="meta.media.0.codec.pix_fmt">yuvj420p</property>
  <property name="meta.media.0.codec.sample_aspect_ratio">1</property>
  <property name="meta.media.0.codec.colorspace">601</property>
  <property name="meta.media.0.codec.name">mjpeg</property>
  <property name="meta.media.0.codec.long_name">MJPEG (Motion JPEG)</property>
  <property name="meta.media.0.codec.bit_rate">26378075</property>
  <property name="meta.attr.encoder.markup">Lavf58.20.100</property>
  <property name="seekable">1</property>
  <property name="meta.media.sample_aspect_num">1</property>
  <property name="meta.media.sample_aspect_den">1</property>
  <property name="aspect_ratio">1</property>
  <property name="audio_index">-1</property>
  <property name="video_index">0</property>
  <property name="mute_on_pause">1</property>
  <property name="mlt_service">avformat-novalidate</property>
 </producer>
 <producer id="producer35" in="00:00:00,000" out="00:00:00,960">
  <property name="length">25</property>
  <property name="eof">pause</property>
  <property name="resource">/home/lnj/.cache/kdenlive/1551627129603/preview/2350.avi</property>
  <property name="meta.media.nb_streams">1</property>
  <property name="meta.media.0.stream.type">video</property>
  <property name="meta.media.0.stream.frame_rate">25</property>
  <property name="meta.media.0.stream.sample_aspect_ratio">1</property>
  <property name="meta.media.0.codec.width">3840</property>
  <property name="meta.media.0.codec.height">1600</property>
  <property name="meta.media.0.codec.rotate">0</property>
  <property name="meta.media.0.codec.frame_rate">25</property>
  <property name="meta.media.0.codec.pix_fmt">yuvj420p</property>
  <property name="meta.media.0.codec.sample_aspect_ratio">1</property>
  <property name="meta.media.0.codec.colorspace">601</property>
  <property name="meta.media.0.codec.name">mjpeg</property>
  <property name="meta.media.0.codec.long_name">MJPEG (Motion JPEG)</property>
  <property name="meta.media.0.codec.bit_rate">48497525</property>
  <property name="meta.attr.encoder.markup">Lavf58.20.100</property>
  <property name="seekable">1</property>
  <property name="meta.media.sample_aspect_num">1</property>
  <property name="meta.media.sample_aspect_den">1</property>
  <property name="aspect_ratio">1</property>
  <property name="audio_index">-1</property>
  <property name="video_index">0</property>
  <property name="mute_on_pause">1</property>
  <property name="mlt_service">avformat-novalidate</property>
 </producer>
 <producer id="producer36" in="00:00:00,000" out="00:00:00,960">
  <property name="length">25</property>
  <property name="eof">pause</property>
  <property name="resource">/home/lnj/.cache/kdenlive/1551627129603/preview/2375.avi</property>
  <property name="meta.media.nb_streams">1</property>
  <property name="meta.media.0.stream.type">video</property>
  <property name="meta.media.0.stream.frame_rate">25</property>
  <property name="meta.media.0.stream.sample_aspect_ratio">1</property>
  <property name="meta.media.0.codec.width">3840</property>
  <property name="meta.media.0.codec.height">1600</property>
  <property name="meta.media.0.codec.rotate">0</property>
  <property name="meta.media.0.codec.frame_rate">25</property>
  <property name="meta.media.0.codec.pix_fmt">yuvj420p</property>
  <property name="meta.media.0.codec.sample_aspect_ratio">1</property>
  <property name="meta.media.0.codec.colorspace">601</property>
  <property name="meta.media.0.codec.name">mjpeg</property>
  <property name="meta.media.0.codec.long_name">MJPEG (Motion JPEG)</property>
  <property name="meta.media.0.codec.bit_rate">48663992</property>
  <property name="meta.attr.encoder.markup">Lavf58.20.100</property>
  <property name="seekable">1</property>
  <property name="meta.media.sample_aspect_num">1</property>
  <property name="meta.media.sample_aspect_den">1</property>
  <property name="aspect_ratio">1</property>
  <property name="audio_index">-1</property>
  <property name="video_index">0</property>
  <property name="mute_on_pause">1</property>
  <property name="mlt_service">avformat-novalidate</property>
 </producer>
 <producer id="producer37" in="00:00:00,000" out="00:00:00,960">
  <property name="length">25</property>
  <property name="eof">pause</property>
  <property name="resource">/home/lnj/.cache/kdenlive/1551627129603/preview/2400.avi</property>
  <property name="meta.media.nb_streams">1</property>
  <property name="meta.media.0.stream.type">video</property>
  <property name="meta.media.0.stream.frame_rate">25</property>
  <property name="meta.media.0.stream.sample_aspect_ratio">1</property>
  <property name="meta.media.0.codec.width">3840</property>
  <property name="meta.media.0.codec.height">1600</property>
  <property name="meta.media.0.codec.rotate">0</property>
  <property name="meta.media.0.codec.frame_rate">25</property>
  <property name="meta.media.0.codec.pix_fmt">yuvj420p</property>
  <property name="meta.media.0.codec.sample_aspect_ratio">1</property>
  <property name="meta.media.0.codec.colorspace">601</property>
  <property name="meta.media.0.codec.name">mjpeg</property>
  <property name="meta.media.0.codec.long_name">MJPEG (Motion JPEG)</property>
  <property name="meta.media.0.codec.bit_rate">47888075</property>
  <property name="meta.attr.encoder.markup">Lavf58.20.100</property>
  <property name="seekable">1</property>
  <property name="meta.media.sample_aspect_num">1</property>
  <property name="meta.media.sample_aspect_den">1</property>
  <property name="aspect_ratio">1</property>
  <property name="audio_index">-1</property>
  <property name="video_index">0</property>
  <property name="mute_on_pause">1</property>
  <property name="mlt_service">avformat-novalidate</property>
 </producer>
 <producer id="producer38" in="00:00:00,000" out="00:00:00,960">
  <property name="length">25</property>
  <property name="eof">pause</property>
  <property name="resource">/home/lnj/.cache/kdenlive/1551627129603/preview/2425.avi</property>
  <property name="meta.media.nb_streams">1</property>
  <property name="meta.media.0.stream.type">video</property>
  <property name="meta.media.0.stream.frame_rate">25</property>
  <property name="meta.media.0.stream.sample_aspect_ratio">1</property>
  <property name="meta.media.0.codec.width">3840</property>
  <property name="meta.media.0.codec.height">1600</property>
  <property name="meta.media.0.codec.rotate">0</property>
  <property name="meta.media.0.codec.frame_rate">25</property>
  <property name="meta.media.0.codec.pix_fmt">yuvj420p</property>
  <property name="meta.media.0.codec.sample_aspect_ratio">1</property>
  <property name="meta.media.0.codec.colorspace">601</property>
  <property name="meta.media.0.codec.name">mjpeg</property>
  <property name="meta.media.0.codec.long_name">MJPEG (Motion JPEG)</property>
  <property name="meta.media.0.codec.bit_rate">28134817</property>
  <property name="meta.attr.encoder.markup">Lavf58.20.100</property>
  <property name="seekable">1</property>
  <property name="meta.media.sample_aspect_num">1</property>
  <property name="meta.media.sample_aspect_den">1</property>
  <property name="aspect_ratio">1</property>
  <property name="audio_index">-1</property>
  <property name="video_index">0</property>
  <property name="mute_on_pause">1</property>
  <property name="mlt_service">avformat-novalidate</property>
 </producer>
 <playlist id="timeline_preview">
  <blank length="00:01:33,000"/>
  <entry producer="producer34" in="00:00:00,000" out="00:00:00,960"/>
  <entry producer="producer35" in="00:00:00,000" out="00:00:00,960"/>
  <entry producer="producer36" in="00:00:00,000" out="00:00:00,960"/>
  <entry producer="producer37" in="00:00:00,000" out="00:00:00,960"/>
  <entry producer="producer38" in="00:00:00,000" out="00:00:00,960"/>
 </playlist>
 <tractor title="Anonymous Submission" id="tractor6" global_feed="1" in="00:00:00,000" out="00:30:26,760">
  <track producer="black_track"/>
  <track producer="tractor0"/>
  <track producer="tractor1"/>
  <track producer="tractor2"/>
  <track producer="tractor3"/>
  <track producer="tractor4"/>
  <track producer="tractor5"/>
  <track hide="audio" producer="timeline_preview"/>
  <transition id="transition0">
   <property name="a_track">0</property>
   <property name="b_track">1</property>
   <property name="mlt_service">mix</property>
   <property name="kdenlive_id">mix</property>
   <property name="internal_added">237</property>
   <property name="always_active">1</property>
   <property name="sum">1</property>
  </transition>
  <transition id="transition1" in="00:00:07,000" out="00:00:07,320">
   <property name="a_track">5</property>
   <property name="b_track">6</property>
   <property name="distort">0</property>
   <property name="rect">0%/0%:100%x100%:100%</property>
   <property name="fill">1</property>
   <property name="mlt_service">affine</property>
   <property name="kdenlive_id">affine</property>
   <property name="geometry">0=0 0 3840 1600 100;8=0 0 3840 1600 0</property>
   <property name="rotate_x">00:00:00,000|=0;00:00:00,320=0</property>
   <property name="rotate_y">00:00:00,000|=0;00:00:00,320=0</property>
   <property name="rotate_z">00:00:00,000|=0;00:00:00,320=0</property>
   <property name="keyed">1</property>
  </transition>
  <transition id="transition2" in="00:00:38,720" out="00:00:39,040">
   <property name="a_track">4</property>
   <property name="b_track">5</property>
   <property name="distort">0</property>
   <property name="rect">0%/0%:100%x100%:100%</property>
   <property name="fill">1</property>
   <property name="mlt_service">affine</property>
   <property name="kdenlive_id">affine</property>
   <property name="force_track">0</property>
   <property name="geometry">0=0 0 3840 1600 0;8=0 0 3840 1600 100</property>
   <property name="rotate_x">00:00:00,000|=0;00:00:00,320=0</property>
   <property name="rotate_y">00:00:00,000|=0;00:00:00,320=0</property>
   <property name="rotate_z">00:00:00,000|=0;00:00:00,320=0</property>
   <property name="keyed">1</property>
  </transition>
  <transition id="transition3" in="00:01:37,040" out="00:01:37,480">
   <property name="a_track">3</property>
   <property name="b_track">4</property>
   <property name="start">0/0:100%x100%</property>
   <property name="factory">loader</property>
   <property name="aligned">0</property>
   <property name="progressive">1</property>
   <property name="mlt_service">composite</property>
   <property name="kdenlive_id">wipe</property>
   <property name="softness">0</property>
   <property name="luma"/>
   <property name="luma_invert">0</property>
   <property name="geometry">0%/0%:100%x100%:100;-1=0%/0%:100%x100%:0</property>
   <property name="fill">1</property>
  </transition>
  <transition id="transition4" in="00:01:33,760" out="00:01:34,400">
   <property name="a_track">3</property>
   <property name="b_track">4</property>
   <property name="start">0/0:100%x100%</property>
   <property name="factory">loader</property>
   <property name="aligned">0</property>
   <property name="progressive">1</property>
   <property name="mlt_service">composite</property>
   <property name="kdenlive_id">wipe</property>
   <property name="softness">0</property>
   <property name="luma"/>
   <property name="luma_invert">0</property>
   <property name="geometry">0%/0%:100%x100%:0;-1=0%/0%:100%x100%:100</property>
   <property name="fill">1</property>
  </transition>
  <transition id="transition5" in="00:01:39,480" out="00:01:40,120">
   <property name="a_track">3</property>
   <property name="b_track">4</property>
   <property name="start">0/0:100%x100%</property>
   <property name="factory">loader</property>
   <property name="aligned">0</property>
   <property name="progressive">1</property>
   <property name="mlt_service">composite</property>
   <property name="kdenlive_id">composite</property>
   <property name="geometry">0=0 0 3840 1600 30</property>
   <property name="invert">0</property>
  </transition>
  <transition id="transition6" in="00:09:36,520" out="00:09:37,400">
   <property name="a_track">0</property>
   <property name="b_track">3</property>
   <property name="start">0/0:100%x100%</property>
   <property name="factory">loader</property>
   <property name="aligned">0</property>
   <property name="progressive">1</property>
   <property name="mlt_service">composite</property>
   <property name="kdenlive_id">wipe</property>
   <property name="force_track">1</property>
   <property name="softness">0</property>
   <property name="luma"/>
   <property name="luma_invert">0</property>
   <property name="geometry">0%/0%:100%x100%:0;-1=0%/0%:100%x100%:100</property>
   <property name="fill">1</property>
  </transition>
  <transition id="transition7" in="00:00:39,200" out="00:00:39,560">
   <property name="a_track">0</property>
   <property name="b_track">3</property>
   <property name="factory">loader</property>
   <property name="mlt_service">luma</property>
   <property name="kdenlive_id">dissolve</property>
   <property name="force_track">1</property>
   <property name="reverse">0</property>
  </transition>
  <transition id="transition8" in="00:03:05,240" out="00:03:05,480">
   <property name="a_track">0</property>
   <property name="b_track">3</property>
   <property name="start">0/0:100%x100%</property>
   <property name="factory">loader</property>
   <property name="aligned">0</property>
   <property name="progressive">1</property>
   <property name="mlt_service">composite</property>
   <property name="kdenlive_id">wipe</property>
   <property name="force_track">1</property>
   <property name="softness">0</property>
   <property name="luma"/>
   <property name="luma_invert">0</property>
   <property name="geometry">0%/0%:100%x100%:0;-1=0%/0%:100%x100%:100</property>
   <property name="fill">1</property>
  </transition>
  <transition id="transition9" in="00:10:10,200" out="00:10:10,800">
   <property name="a_track">0</property>
   <property name="b_track">3</property>
   <property name="start">0/0:100%x100%</property>
   <property name="factory">loader</property>
   <property name="aligned">0</property>
   <property name="progressive">1</property>
   <property name="mlt_service">composite</property>
   <property name="kdenlive_id">wipe</property>
   <property name="softness">0</property>
   <property name="luma"/>
   <property name="luma_invert">0</property>
   <property name="geometry">0%/0%:100%x100%:100;-1=0%/0%:100%x100%:0</property>
   <property name="fill">1</property>
   <property name="force_track">1</property>
  </transition>
  <transition id="transition10">
   <property name="a_track">0</property>
   <property name="b_track">2</property>
   <property name="compositing">0</property>
   <property name="distort">0</property>
   <property name="rotate_center">0</property>
   <property name="mlt_service">qtblend</property>
   <property name="kdenlive_id">qtblend</property>
   <property name="internal_added">237</property>
   <property name="always_active">1</property>
  </transition>
  <transition id="transition11">
   <property name="a_track">0</property>
   <property name="b_track">3</property>
   <property name="compositing">0</property>
   <property name="distort">0</property>
   <property name="rotate_center">0</property>
   <property name="mlt_service">qtblend</property>
   <property name="kdenlive_id">qtblend</property>
   <property name="internal_added">237</property>
   <property name="always_active">1</property>
  </transition>
  <transition id="transition12">
   <property name="a_track">0</property>
   <property name="b_track">4</property>
   <property name="compositing">0</property>
   <property name="distort">0</property>
   <property name="rotate_center">0</property>
   <property name="mlt_service">qtblend</property>
   <property name="kdenlive_id">qtblend</property>
   <property name="internal_added">237</property>
   <property name="always_active">1</property>
  </transition>
  <transition id="transition13">
   <property name="a_track">0</property>
   <property name="b_track">5</property>
   <property name="compositing">0</property>
   <property name="distort">0</property>
   <property name="rotate_center">0</property>
   <property name="mlt_service">qtblend</property>
   <property name="kdenlive_id">qtblend</property>
   <property name="internal_added">237</property>
   <property name="always_active">1</property>
  </transition>
  <transition id="transition14">
   <property name="a_track">0</property>
   <property name="b_track">6</property>
   <property name="compositing">0</property>
   <property name="distort">0</property>
   <property name="rotate_center">0</property>
   <property name="mlt_service">qtblend</property>
   <property name="kdenlive_id">qtblend</property>
   <property name="internal_added">237</property>
   <property name="always_active">1</property>
  </transition>
 </tractor>
</mlt>
