<?xml version='1.0' encoding='utf-8'?>
<mlt title="Anonymous Submission" version="6.4.1" root="/media/lnj/LNJ-1TB-HDD/vid/Harry_Potter_Synchro/3-_Harry_Potter_und_der_Penner_von_Alcatraz" producer="main bin" LC_NUMERIC="de_DE.UTF-8">
 <profile width="1920" frame_rate_den="1" height="1080" display_aspect_num="16" display_aspect_den="9" frame_rate_num="25" colorspace="709" sample_aspect_den="1" description="HD 1080p 25 fps" progressive="1" sample_aspect_num="1"/>
 <producer id="3" title="Anonymous Submission" out="15668" in="0">
  <property name="length">00:10:26:19</property>
  <property name="eof">pause</property>
  <property name="resource">01-_HP_und_der_Penner_von_Alcatraz.mp4</property>
  <property name="audio_index">1</property>
  <property name="video_index">0</property>
  <property name="mute_on_pause">1</property>
  <property name="mlt_service">avformat-novalidate</property>
  <property name="meta.media.nb_streams">2</property>
  <property name="meta.media.0.stream.type">video</property>
  <property name="meta.media.0.stream.frame_rate">23,976</property>
  <property name="meta.media.0.stream.sample_aspect_ratio">0</property>
  <property name="meta.media.0.codec.width">1280</property>
  <property name="meta.media.0.codec.height">720</property>
  <property name="meta.media.0.codec.rotate">0</property>
  <property name="meta.media.0.codec.frame_rate">23,976</property>
  <property name="meta.media.0.codec.pix_fmt">yuv420p</property>
  <property name="meta.media.0.codec.sample_aspect_ratio">1</property>
  <property name="meta.media.0.codec.colorspace">709</property>
  <property name="meta.media.0.codec.color_trc">1</property>
  <property name="meta.media.0.codec.name">h264</property>
  <property name="meta.media.0.codec.long_name">H.264 / AVC / MPEG-4 AVC / MPEG-4 part 10</property>
  <property name="meta.media.0.codec.bit_rate">2155724</property>
  <property name="meta.attr.0.stream.handler_name.markup">VideoHandler</property>
  <property name="meta.media.1.stream.type">audio</property>
  <property name="meta.media.1.codec.sample_fmt">s16p</property>
  <property name="meta.media.1.codec.sample_rate">48000</property>
  <property name="meta.media.1.codec.channels">2</property>
  <property name="meta.media.1.codec.name">mp3</property>
  <property name="meta.media.1.codec.long_name">MP3 (MPEG audio layer 3)</property>
  <property name="meta.media.1.codec.bit_rate">156734</property>
  <property name="meta.attr.1.stream.language.markup">deu</property>
  <property name="meta.attr.1.stream.handler_name.markup">Stereo</property>
  <property name="meta.attr.major_brand.markup">mp42</property>
  <property name="meta.attr.minor_version.markup">512</property>
  <property name="meta.attr.compatible_brands.markup">isomiso2avc1mp41</property>
  <property name="meta.attr.encoder.markup">HandBrake 6548svn 2014112401</property>
  <property name="meta.attr.title.markup">Harry Potter und der Penner von Alcatraz Teil 1 [Remake]</property>
  <property name="seekable">1</property>
  <property name="meta.media.sample_aspect_num">1</property>
  <property name="meta.media.sample_aspect_den">1</property>
  <property name="aspect_ratio">1</property>
  <property name="meta.media.frame_rate_num">3381075</property>
  <property name="meta.media.frame_rate_den">141019</property>
  <property name="meta.media.colorspace">709</property>
  <property name="meta.media.color_trc">1</property>
  <property name="meta.media.width">1280</property>
  <property name="meta.media.height">720</property>
  <property name="meta.media.top_field_first">0</property>
  <property name="meta.media.progressive">1</property>
  <property name="kdenlive:file_size">181656792</property>
  <property name="kdenlive:file_hash">fa0d842257f46d9eda978a1a1d24de90</property>
  <property name="global_feed">1</property>
 </producer>
 <producer id="4" title="Anonymous Submission" out="13630" in="0">
  <property name="length">00:09:05:06</property>
  <property name="eof">pause</property>
  <property name="resource">02-_HPudPvA.25fps.mp4</property>
  <property name="audio_index">1</property>
  <property name="video_index">0</property>
  <property name="mute_on_pause">1</property>
  <property name="mlt_service">avformat-novalidate</property>
  <property name="meta.media.nb_streams">2</property>
  <property name="meta.media.0.stream.type">video</property>
  <property name="meta.media.0.stream.frame_rate">25</property>
  <property name="meta.media.0.stream.sample_aspect_ratio">1</property>
  <property name="meta.media.0.codec.width">1280</property>
  <property name="meta.media.0.codec.height">720</property>
  <property name="meta.media.0.codec.rotate">0</property>
  <property name="meta.media.0.codec.frame_rate">25</property>
  <property name="meta.media.0.codec.pix_fmt">yuv420p</property>
  <property name="meta.media.0.codec.sample_aspect_ratio">1</property>
  <property name="meta.media.0.codec.colorspace">709</property>
  <property name="meta.media.0.codec.name">h264</property>
  <property name="meta.media.0.codec.long_name">H.264 / AVC / MPEG-4 AVC / MPEG-4 part 10</property>
  <property name="meta.media.0.codec.bit_rate">13172123</property>
  <property name="meta.attr.0.stream.handler_name.markup">VideoHandler</property>
  <property name="meta.media.1.stream.type">audio</property>
  <property name="meta.media.1.codec.sample_fmt">s16p</property>
  <property name="meta.media.1.codec.sample_rate">48000</property>
  <property name="meta.media.1.codec.channels">2</property>
  <property name="meta.media.1.codec.name">mp3</property>
  <property name="meta.media.1.codec.long_name">MP3 (MPEG audio layer 3)</property>
  <property name="meta.media.1.codec.bit_rate">156391</property>
  <property name="meta.attr.1.stream.language.markup">deu</property>
  <property name="meta.attr.1.stream.handler_name.markup">SoundHandler</property>
  <property name="meta.attr.major_brand.markup">isom</property>
  <property name="meta.attr.minor_version.markup">512</property>
  <property name="meta.attr.compatible_brands.markup">isomiso2avc1mp41</property>
  <property name="meta.attr.title.markup">Harry Potter und der Penner von Alcatraz Teil 2 [Remake]</property>
  <property name="meta.attr.encoder.markup">Lavf57.56.101</property>
  <property name="seekable">1</property>
  <property name="meta.media.sample_aspect_num">1</property>
  <property name="meta.media.sample_aspect_den">1</property>
  <property name="aspect_ratio">1</property>
  <property name="kdenlive:folderid">-1</property>
  <property name="meta.media.frame_rate_num">25</property>
  <property name="meta.media.frame_rate_den">1</property>
  <property name="meta.media.colorspace">709</property>
  <property name="meta.media.color_trc">2</property>
  <property name="meta.media.width">1280</property>
  <property name="meta.media.height">720</property>
  <property name="meta.media.top_field_first">0</property>
  <property name="meta.media.progressive">1</property>
  <property name="kdenlive:file_size">908704664</property>
  <property name="kdenlive:file_hash">c309892ed7aea35dea29aaf3cb5d227d</property>
  <property name="global_feed">1</property>
 </producer>
 <producer id="5" title="Anonymous Submission" out="43599" in="0">
  <property name="length">00:29:04:00</property>
  <property name="eof">pause</property>
  <property name="resource">/media/lnj/LNJ-1TB-HDD/copy/HP3.25fps.mkv</property>
  <property name="audio_index">1</property>
  <property name="video_index">0</property>
  <property name="mute_on_pause">1</property>
  <property name="mlt_service">avformat-novalidate</property>
  <property name="meta.media.nb_streams">3</property>
  <property name="meta.media.0.stream.type">video</property>
  <property name="meta.media.0.stream.frame_rate">25</property>
  <property name="meta.media.0.stream.sample_aspect_ratio">1</property>
  <property name="meta.media.0.codec.width">1920</property>
  <property name="meta.media.0.codec.height">800</property>
  <property name="meta.media.0.codec.rotate">0</property>
  <property name="meta.media.0.codec.frame_rate">25</property>
  <property name="meta.media.0.codec.pix_fmt">yuv420p</property>
  <property name="meta.media.0.codec.sample_aspect_ratio">1</property>
  <property name="meta.media.0.codec.colorspace">709</property>
  <property name="meta.media.0.codec.name">h264</property>
  <property name="meta.media.0.codec.long_name">H.264 / AVC / MPEG-4 AVC / MPEG-4 part 10</property>
  <property name="meta.media.0.codec.bit_rate">0</property>
  <property name="meta.attr.0.stream.language.markup">eng</property>
  <property name="meta.attr.0.stream.ENCODER.markup">Lavc57.64.101 libx264</property>
  <property name="meta.attr.0.stream.DURATION.markup">00:27:52.320000000</property>
  <property name="meta.media.1.stream.type">audio</property>
  <property name="meta.media.1.codec.sample_fmt">fltp</property>
  <property name="meta.media.1.codec.sample_rate">48000</property>
  <property name="meta.media.1.codec.channels">6</property>
  <property name="meta.media.1.codec.name">dca</property>
  <property name="meta.media.1.codec.long_name">DCA (DTS Coherent Acoustics)</property>
  <property name="meta.media.1.codec.bit_rate">1536000</property>
  <property name="meta.attr.1.stream.language.markup">eng</property>
  <property name="meta.attr.1.stream.DURATION.markup">00:29:04.016000000</property>
  <property name="meta.media.2.codec.name">ssa</property>
  <property name="meta.media.2.codec.long_name">ASS (Advanced SubStation Alpha) subtitle</property>
  <property name="meta.media.2.codec.bit_rate">0</property>
  <property name="meta.attr.2.stream.language.markup">eng</property>
  <property name="meta.attr.2.stream.ENCODER.markup">Lavc57.64.101 ssa</property>
  <property name="meta.attr.2.stream.DURATION.markup">00:28:29.860000000</property>
  <property name="meta.attr.ENCODER.markup">Lavf57.56.101</property>
  <property name="seekable">1</property>
  <property name="meta.media.sample_aspect_num">1</property>
  <property name="meta.media.sample_aspect_den">1</property>
  <property name="aspect_ratio">1</property>
  <property name="kdenlive:folderid">-1</property>
  <property name="meta.media.frame_rate_num">25</property>
  <property name="meta.media.frame_rate_den">1</property>
  <property name="meta.media.colorspace">709</property>
  <property name="meta.media.color_trc">2</property>
  <property name="meta.media.width">1920</property>
  <property name="meta.media.height">800</property>
  <property name="meta.media.top_field_first">0</property>
  <property name="meta.media.progressive">1</property>
  <property name="kdenlive:file_size">11024747597</property>
  <property name="kdenlive:file_hash">c7e64bf45aa042a391e7108fcb7243da</property>
  <property name="global_feed">1</property>
 </producer>
 <producer id="6" title="Anonymous Submission" out="43599" in="0">
  <property name="length">00:29:04:00</property>
  <property name="eof">pause</property>
  <property name="resource">/media/lnj/LNJ-1TB-HDD/copy/HP3.25fps.mkv.mov</property>
  <property name="audio_index">1</property>
  <property name="video_index">0</property>
  <property name="mute_on_pause">1</property>
  <property name="mlt_service">avformat-novalidate</property>
  <property name="meta.media.nb_streams">2</property>
  <property name="meta.media.0.stream.type">video</property>
  <property name="meta.media.0.stream.frame_rate">25</property>
  <property name="meta.media.0.stream.sample_aspect_ratio">1,35</property>
  <property name="meta.media.0.codec.width">1920</property>
  <property name="meta.media.0.codec.height">1080</property>
  <property name="meta.media.0.codec.rotate">0</property>
  <property name="meta.media.0.codec.frame_rate">12800</property>
  <property name="meta.media.0.codec.pix_fmt">yuv422p</property>
  <property name="meta.media.0.codec.sample_aspect_ratio">0</property>
  <property name="meta.media.0.codec.colorspace">709</property>
  <property name="meta.media.0.codec.name">dnxhd</property>
  <property name="meta.media.0.codec.long_name">VC3/DNxHD</property>
  <property name="meta.media.0.codec.bit_rate">183500800</property>
  <property name="meta.attr.0.stream.language.markup">eng</property>
  <property name="meta.attr.0.stream.handler_name.markup">DataHandler</property>
  <property name="meta.attr.0.stream.encoder.markup">Lavc57.64.101 dnxhd</property>
  <property name="meta.media.1.stream.type">audio</property>
  <property name="meta.media.1.codec.sample_fmt">fltp</property>
  <property name="meta.media.1.codec.sample_rate">48000</property>
  <property name="meta.media.1.codec.channels">6</property>
  <property name="meta.media.1.codec.name">dca</property>
  <property name="meta.media.1.codec.long_name">DCA (DTS Coherent Acoustics)</property>
  <property name="meta.media.1.codec.bit_rate">1536000</property>
  <property name="meta.attr.1.stream.language.markup">eng</property>
  <property name="meta.attr.1.stream.handler_name.markup">DataHandler</property>
  <property name="meta.attr.major_brand.markup">qt  </property>
  <property name="meta.attr.minor_version.markup">512</property>
  <property name="meta.attr.compatible_brands.markup">qt  </property>
  <property name="meta.attr.encoder.markup">Lavf57.56.101</property>
  <property name="seekable">1</property>
  <property name="meta.media.sample_aspect_num">27</property>
  <property name="meta.media.sample_aspect_den">20</property>
  <property name="aspect_ratio">1,35</property>
  <property name="meta.media.frame_rate_num">25</property>
  <property name="meta.media.frame_rate_den">1</property>
  <property name="meta.media.colorspace">709</property>
  <property name="meta.media.color_trc">2</property>
  <property name="meta.media.width">1920</property>
  <property name="meta.media.height">1080</property>
  <property name="meta.media.top_field_first">0</property>
  <property name="meta.media.progressive">1</property>
  <property name="kdenlive:file_size">38689228922</property>
  <property name="kdenlive:file_hash">58e5f954eb57d7fd3efb16fc6bd45c2c</property>
  <property name="global_feed">1</property>
 </producer>
 <producer id="7" out="124" in="0">
  <property name="length">125</property>
  <property name="eof">pause</property>
  <property name="resource">1080Rmk/02/HPudPvA_02_1080Rmk-f9536.png</property>
  <property name="ttl">25</property>
  <property name="aspect_ratio">1</property>
  <property name="progressive">1</property>
  <property name="seekable">1</property>
  <property name="loop">1</property>
  <property name="meta.media.width">1920</property>
  <property name="meta.media.height">1080</property>
  <property name="mlt_service">pixbuf</property>
  <property name="kdenlive:duration">125</property>
  <property name="kdenlive:file_size">2048645</property>
  <property name="kdenlive:file_hash">e9b25a150cd35c23bcd960f689e36bd4</property>
 </producer>
 <producer id="8" title="Anonymous Submission" out="174" in="0">
  <property name="length">00:00:07:00</property>
  <property name="eof">pause</property>
  <property name="resource">HPudPvA_Intro_1080Rmk.mp4</property>
  <property name="meta.media.nb_streams">2</property>
  <property name="meta.media.0.stream.type">video</property>
  <property name="meta.media.0.stream.frame_rate">25</property>
  <property name="meta.media.0.stream.sample_aspect_ratio">1</property>
  <property name="meta.media.0.codec.width">1920</property>
  <property name="meta.media.0.codec.height">1080</property>
  <property name="meta.media.0.codec.rotate">0</property>
  <property name="meta.media.0.codec.frame_rate">25</property>
  <property name="meta.media.0.codec.pix_fmt">yuv420p</property>
  <property name="meta.media.0.codec.sample_aspect_ratio">1</property>
  <property name="meta.media.0.codec.colorspace">709</property>
  <property name="meta.media.0.codec.color_trc">1</property>
  <property name="meta.media.0.codec.name">h264</property>
  <property name="meta.media.0.codec.long_name">H.264 / AVC / MPEG-4 AVC / MPEG-4 part 10</property>
  <property name="meta.media.0.codec.bit_rate">3275175</property>
  <property name="meta.attr.0.stream.handler_name.markup">VideoHandler</property>
  <property name="meta.media.1.stream.type">audio</property>
  <property name="meta.media.1.codec.sample_fmt">fltp</property>
  <property name="meta.media.1.codec.sample_rate">48000</property>
  <property name="meta.media.1.codec.channels">2</property>
  <property name="meta.media.1.codec.name">aac</property>
  <property name="meta.media.1.codec.long_name">AAC (Advanced Audio Coding)</property>
  <property name="meta.media.1.codec.bit_rate">195945</property>
  <property name="meta.attr.1.stream.handler_name.markup">SoundHandler</property>
  <property name="meta.attr.major_brand.markup">isom</property>
  <property name="meta.attr.minor_version.markup">512</property>
  <property name="meta.attr.compatible_brands.markup">isomiso2avc1mp41</property>
  <property name="meta.attr.encoder.markup">Lavf57.56.101</property>
  <property name="seekable">1</property>
  <property name="meta.media.sample_aspect_num">1</property>
  <property name="meta.media.sample_aspect_den">1</property>
  <property name="aspect_ratio">1</property>
  <property name="audio_index">1</property>
  <property name="video_index">0</property>
  <property name="mute_on_pause">1</property>
  <property name="mlt_service">avformat-novalidate</property>
  <property name="kdenlive:folderid">-1</property>
  <property name="meta.media.frame_rate_num">25</property>
  <property name="meta.media.frame_rate_den">1</property>
  <property name="meta.media.colorspace">709</property>
  <property name="meta.media.color_trc">1</property>
  <property name="meta.media.width">1920</property>
  <property name="meta.media.height">1080</property>
  <property name="meta.media.top_field_first">0</property>
  <property name="meta.media.progressive">1</property>
  <property name="kdenlive:file_size">3027348</property>
  <property name="kdenlive:file_hash">15d1fd6e5cc38bbc7f98ba7a7eee56ea</property>
  <property name="global_feed">1</property>
 </producer>
 <playlist id="main bin">
  <property name="kdenlive:docproperties.audiotargettrack">2</property>
  <property name="kdenlive:docproperties.decimalPoint">,</property>
  <property name="kdenlive:docproperties.dirtypreviewchunks"/>
  <property name="kdenlive:docproperties.disablepreview">0</property>
  <property name="kdenlive:docproperties.documentid">1491942824441</property>
  <property name="kdenlive:docproperties.enableproxy">0</property>
  <property name="kdenlive:docproperties.generateimageproxy">0</property>
  <property name="kdenlive:docproperties.generateproxy">0</property>
  <property name="kdenlive:docproperties.kdenliveversion">16.12.2</property>
  <property name="kdenlive:docproperties.position">13594</property>
  <property name="kdenlive:docproperties.previewchunks"/>
  <property name="kdenlive:docproperties.previewextension"/>
  <property name="kdenlive:docproperties.previewparameters"/>
  <property name="kdenlive:docproperties.profile">atsc_1080p_25</property>
  <property name="kdenlive:docproperties.proxyextension">mpg</property>
  <property name="kdenlive:docproperties.proxyimageminsize">2000</property>
  <property name="kdenlive:docproperties.proxyminsize">1000</property>
  <property name="kdenlive:docproperties.proxyparams">-vf scale=640:-1 -g 5 -qscale 6 -ab 128k -vcodec mpeg2video -acodec mp2</property>
  <property name="kdenlive:docproperties.version">0.95</property>
  <property name="kdenlive:docproperties.verticalzoom">1</property>
  <property name="kdenlive:docproperties.videotargettrack">3</property>
  <property name="kdenlive:docproperties.zonein">0</property>
  <property name="kdenlive:docproperties.zoneout">100</property>
  <property name="kdenlive:docproperties.zoom">7</property>
  <property name="kdenlive:documentnotes"/>
  <property name="kdenlive:clipgroups"/>
  <property name="kdenlive:docproperties.renderaudioquality">160</property>
  <property name="kdenlive:docproperties.rendercategory">Generic (HD for web, mobile devices...)</property>
  <property name="kdenlive:docproperties.renderendguide">-1</property>
  <property name="kdenlive:docproperties.renderexportaudio">0</property>
  <property name="kdenlive:docproperties.renderguide">0</property>
  <property name="kdenlive:docproperties.renderplay">0</property>
  <property name="kdenlive:docproperties.renderprofile">MP4 - the dominating format (H264/AAC)</property>
  <property name="kdenlive:docproperties.renderquality">19</property>
  <property name="kdenlive:docproperties.renderratio">1</property>
  <property name="kdenlive:docproperties.renderrescale">0</property>
  <property name="kdenlive:docproperties.renderrescaleheight">180</property>
  <property name="kdenlive:docproperties.renderrescalewidth">320</property>
  <property name="kdenlive:docproperties.renderscanning">0</property>
  <property name="kdenlive:docproperties.renderspeed">1</property>
  <property name="kdenlive:docproperties.renderstartguide">-1</property>
  <property name="kdenlive:docproperties.rendertcoverlay">0</property>
  <property name="kdenlive:docproperties.rendertctype">0</property>
  <property name="kdenlive:docproperties.rendertwopass">0</property>
  <property name="kdenlive:docproperties.renderurl">/home/lnj/HPudPvA_02_1080Rmk.mp4</property>
  <property name="kdenlive:docproperties.renderzone">0</property>
  <property name="xml_retain">1</property>
  <entry out="15668" producer="3" in="0"/>
  <entry out="13630" producer="4" in="0"/>
  <entry out="43599" producer="5" in="0"/>
  <entry out="43599" producer="6" in="0"/>
  <entry out="124" producer="7" in="0"/>
  <entry out="174" producer="8" in="0"/>
 </playlist>
 <producer id="black" out="212593" in="0">
  <property name="length">212594</property>
  <property name="eof">pause</property>
  <property name="resource">black</property>
  <property name="aspect_ratio">0</property>
  <property name="mlt_service">colour</property>
  <property name="set.test_audio">0</property>
 </producer>
 <playlist id="black_track">
  <entry out="13625" producer="black" in="0"/>
 </playlist>
 <producer id="4_playlist1_audio" title="Anonymous Submission" out="13630" in="0">
  <property name="length">00:09:05:06</property>
  <property name="eof">pause</property>
  <property name="resource">02-_HPudPvA.25fps.mp4</property>
  <property name="audio_index">1</property>
  <property name="video_index">-1</property>
  <property name="mute_on_pause">1</property>
  <property name="mlt_service">avformat-novalidate</property>
  <property name="seekable">1</property>
  <property name="aspect_ratio">1</property>
  <property name="kdenlive:folderid">-1</property>
  <property name="kdenlive:file_size">908704664</property>
  <property name="kdenlive:file_hash">c309892ed7aea35dea29aaf3cb5d227d</property>
  <property name="global_feed">1</property>
  <property name="xml">was here</property>
  <property name="meta.media.nb_streams">2</property>
  <property name="meta.media.0.stream.type">video</property>
  <property name="meta.media.0.stream.frame_rate">25</property>
  <property name="meta.media.0.stream.sample_aspect_ratio">1</property>
  <property name="meta.media.0.codec.width">1280</property>
  <property name="meta.media.0.codec.height">720</property>
  <property name="meta.media.0.codec.rotate">0</property>
  <property name="meta.media.0.codec.frame_rate">25</property>
  <property name="meta.media.0.codec.pix_fmt">yuv420p</property>
  <property name="meta.media.0.codec.sample_aspect_ratio">1</property>
  <property name="meta.media.0.codec.colorspace">709</property>
  <property name="meta.media.0.codec.name">h264</property>
  <property name="meta.media.0.codec.long_name">H.264 / AVC / MPEG-4 AVC / MPEG-4 part 10</property>
  <property name="meta.media.0.codec.bit_rate">13172123</property>
  <property name="meta.attr.0.stream.handler_name.markup">VideoHandler</property>
  <property name="meta.media.1.stream.type">audio</property>
  <property name="meta.media.1.codec.sample_fmt">s16p</property>
  <property name="meta.media.1.codec.sample_rate">48000</property>
  <property name="meta.media.1.codec.channels">2</property>
  <property name="meta.media.1.codec.name">mp3</property>
  <property name="meta.media.1.codec.long_name">MP3 (MPEG audio layer 3)</property>
  <property name="meta.media.1.codec.bit_rate">156391</property>
  <property name="meta.attr.1.stream.language.markup">deu</property>
  <property name="meta.attr.1.stream.handler_name.markup">SoundHandler</property>
  <property name="meta.attr.major_brand.markup">isom</property>
  <property name="meta.attr.minor_version.markup">512</property>
  <property name="meta.attr.compatible_brands.markup">isomiso2avc1mp41</property>
  <property name="meta.attr.title.markup">Harry Potter und der Penner von Alcatraz Teil 2 [Remake]</property>
  <property name="meta.attr.encoder.markup">Lavf57.56.101</property>
  <property name="meta.media.sample_aspect_num">1</property>
  <property name="meta.media.sample_aspect_den">1</property>
 </producer>
 <playlist id="playlist1">
  <property name="kdenlive:track_name">Audio 2</property>
  <property name="kdenlive:audio_track">1</property>
  <blank length="175"/>
  <entry out="13630" producer="4_playlist1_audio" in="181"/>
 </playlist>
 <producer id="8_playlist2_audio" title="Anonymous Submission" out="174" in="0">
  <property name="length">00:00:07:00</property>
  <property name="eof">pause</property>
  <property name="resource">HPudPvA_Intro_1080Rmk.mp4</property>
  <property name="audio_index">1</property>
  <property name="video_index">-1</property>
  <property name="mute_on_pause">1</property>
  <property name="mlt_service">avformat-novalidate</property>
  <property name="seekable">1</property>
  <property name="aspect_ratio">1</property>
  <property name="kdenlive:folderid">-1</property>
  <property name="kdenlive:file_size">3027348</property>
  <property name="kdenlive:file_hash">15d1fd6e5cc38bbc7f98ba7a7eee56ea</property>
  <property name="global_feed">1</property>
  <property name="xml">was here</property>
 </producer>
 <playlist id="playlist2">
  <property name="kdenlive:track_name">Audio 1</property>
  <property name="kdenlive:audio_track">1</property>
  <entry out="174" producer="8_playlist2_audio" in="0"/>
 </playlist>
 <producer id="slowmotion:6:0,69:1:0" out="63186" in="0">
  <property name="length">63187</property>
  <property name="eof">pause</property>
  <property name="resource">0,69:/media/lnj/LNJ-1TB-HDD/copy/HP3.25fps.mkv.mov</property>
  <property name="aspect_ratio">1</property>
  <property name="meta.media.nb_streams">2</property>
  <property name="meta.media.0.stream.type">video</property>
  <property name="meta.media.0.stream.frame_rate">25</property>
  <property name="meta.media.0.stream.sample_aspect_ratio">1,35</property>
  <property name="meta.media.0.codec.width">1920</property>
  <property name="meta.media.0.codec.height">1080</property>
  <property name="meta.media.0.codec.rotate">0</property>
  <property name="meta.media.0.codec.frame_rate">12800</property>
  <property name="meta.media.0.codec.pix_fmt">yuv422p</property>
  <property name="meta.media.0.codec.sample_aspect_ratio">0</property>
  <property name="meta.media.0.codec.colorspace">709</property>
  <property name="meta.media.0.codec.name">dnxhd</property>
  <property name="meta.media.0.codec.long_name">VC3/DNxHD</property>
  <property name="meta.media.0.codec.bit_rate">183500800</property>
  <property name="meta.attr.0.stream.language.markup">eng</property>
  <property name="meta.attr.0.stream.handler_name.markup">DataHandler</property>
  <property name="meta.attr.0.stream.encoder.markup">Lavc57.64.101 dnxhd</property>
  <property name="meta.media.1.stream.type">audio</property>
  <property name="meta.media.1.codec.sample_fmt">fltp</property>
  <property name="meta.media.1.codec.sample_rate">48000</property>
  <property name="meta.media.1.codec.channels">6</property>
  <property name="meta.media.1.codec.name">dca</property>
  <property name="meta.media.1.codec.long_name">DCA (DTS Coherent Acoustics)</property>
  <property name="meta.media.1.codec.bit_rate">1536000</property>
  <property name="meta.attr.1.stream.language.markup">eng</property>
  <property name="meta.attr.1.stream.handler_name.markup">DataHandler</property>
  <property name="meta.attr.major_brand.markup">qt  </property>
  <property name="meta.attr.minor_version.markup">512</property>
  <property name="meta.attr.compatible_brands.markup">qt  </property>
  <property name="meta.attr.encoder.markup">Lavf57.56.101</property>
  <property name="seekable">1</property>
  <property name="meta.media.sample_aspect_num">27</property>
  <property name="meta.media.sample_aspect_den">20</property>
  <property name="audio_index">1</property>
  <property name="video_index">0</property>
  <property name="mute_on_pause">1</property>
  <property name="warp_speed">0,69</property>
  <property name="warp_resource">/media/lnj/LNJ-1TB-HDD/copy/HP3.25fps.mkv.mov</property>
  <property name="mlt_service">timewarp</property>
  <property name="meta.media.frame_rate_num">25</property>
  <property name="meta.media.frame_rate_den">1</property>
  <property name="meta.media.colorspace">709</property>
  <property name="meta.media.color_trc">2</property>
  <property name="meta.media.width">1920</property>
  <property name="meta.media.height">1080</property>
  <property name="meta.media.top_field_first">0</property>
  <property name="meta.media.progressive">1</property>
 </producer>
 <producer id="6_playlist3" title="Anonymous Submission" out="43599" in="0">
  <property name="length">00:29:04:00</property>
  <property name="eof">pause</property>
  <property name="resource">/media/lnj/LNJ-1TB-HDD/copy/HP3.25fps.mkv.mov</property>
  <property name="audio_index">1</property>
  <property name="video_index">0</property>
  <property name="mute_on_pause">1</property>
  <property name="mlt_service">avformat-novalidate</property>
  <property name="seekable">1</property>
  <property name="aspect_ratio">1,35</property>
  <property name="kdenlive:file_size">38689228922</property>
  <property name="kdenlive:file_hash">58e5f954eb57d7fd3efb16fc6bd45c2c</property>
  <property name="global_feed">1</property>
  <property name="xml">was here</property>
  <property name="meta.media.nb_streams">2</property>
  <property name="meta.media.0.stream.type">video</property>
  <property name="meta.media.0.stream.frame_rate">25</property>
  <property name="meta.media.0.stream.sample_aspect_ratio">1,35</property>
  <property name="meta.media.0.codec.width">1920</property>
  <property name="meta.media.0.codec.height">1080</property>
  <property name="meta.media.0.codec.rotate">0</property>
  <property name="meta.media.0.codec.frame_rate">12800</property>
  <property name="meta.media.0.codec.pix_fmt">yuv422p</property>
  <property name="meta.media.0.codec.sample_aspect_ratio">0</property>
  <property name="meta.media.0.codec.colorspace">709</property>
  <property name="meta.media.0.codec.name">dnxhd</property>
  <property name="meta.media.0.codec.long_name">VC3/DNxHD</property>
  <property name="meta.media.0.codec.bit_rate">183500800</property>
  <property name="meta.attr.0.stream.language.markup">eng</property>
  <property name="meta.attr.0.stream.handler_name.markup">DataHandler</property>
  <property name="meta.attr.0.stream.encoder.markup">Lavc57.64.101 dnxhd</property>
  <property name="meta.media.1.stream.type">audio</property>
  <property name="meta.media.1.codec.sample_fmt">fltp</property>
  <property name="meta.media.1.codec.sample_rate">48000</property>
  <property name="meta.media.1.codec.channels">6</property>
  <property name="meta.media.1.codec.name">dca</property>
  <property name="meta.media.1.codec.long_name">DCA (DTS Coherent Acoustics)</property>
  <property name="meta.media.1.codec.bit_rate">1536000</property>
  <property name="meta.attr.1.stream.language.markup">eng</property>
  <property name="meta.attr.1.stream.handler_name.markup">DataHandler</property>
  <property name="meta.attr.major_brand.markup">qt  </property>
  <property name="meta.attr.minor_version.markup">512</property>
  <property name="meta.attr.compatible_brands.markup">qt  </property>
  <property name="meta.attr.encoder.markup">Lavf57.56.101</property>
  <property name="meta.media.sample_aspect_num">27</property>
  <property name="meta.media.sample_aspect_den">20</property>
  <property name="meta.media.frame_rate_num">25</property>
  <property name="meta.media.frame_rate_den">1</property>
  <property name="meta.media.colorspace">709</property>
  <property name="meta.media.color_trc">2</property>
  <property name="meta.media.width">1920</property>
  <property name="meta.media.height">1080</property>
  <property name="meta.media.top_field_first">0</property>
  <property name="meta.media.progressive">1</property>
 </producer>
 <playlist id="playlist3">
  <property name="kdenlive:track_name">Video 1</property>
  <blank length="175"/>
  <entry out="22271" producer="slowmotion:6:0,69:1:0" in="22136">
   <filter id="mirror">
    <property name="mirror">flip</property>
    <property name="mlt_service">mirror</property>
    <property name="kdenlive_id">mirror</property>
    <property name="tag">mirror</property>
    <property name="kdenlive_ix">1</property>
    <property name="kdenlive_info"/>
    <property name="disable"/>
    <property name="reverse">0</property>
   </filter>
  </entry>
  <entry out="17655" producer="6_playlist3" in="15368">
   <filter id="filter0">
    <property name="mirror">flip</property>
    <property name="mlt_service">mirror</property>
    <property name="kdenlive_id">mirror</property>
    <property name="tag">mirror</property>
    <property name="kdenlive_ix">1</property>
    <property name="kdenlive_info"/>
    <property name="disable"/>
    <property name="reverse">0</property>
   </filter>
  </entry>
  <blank length="22"/>
  <entry out="17677" producer="6_playlist3" in="17669">
   <filter id="filter1">
    <property name="mirror">flip</property>
    <property name="mlt_service">mirror</property>
    <property name="kdenlive_id">mirror</property>
    <property name="tag">mirror</property>
    <property name="kdenlive_ix">1</property>
    <property name="kdenlive_info"/>
    <property name="disable"/>
    <property name="reverse">0</property>
   </filter>
  </entry>
  <entry out="17747" producer="6_playlist3" in="17678">
   <filter id="filter2">
    <property name="mirror">flip</property>
    <property name="mlt_service">mirror</property>
    <property name="kdenlive_id">mirror</property>
    <property name="tag">mirror</property>
    <property name="kdenlive_ix">1</property>
    <property name="kdenlive_info"/>
    <property name="disable"/>
    <property name="reverse">0</property>
   </filter>
  </entry>
  <entry out="24579" producer="6_playlist3" in="17749">
   <filter id="filter3">
    <property name="mirror">flip</property>
    <property name="mlt_service">mirror</property>
    <property name="kdenlive_id">mirror</property>
    <property name="tag">mirror</property>
    <property name="kdenlive_ix">1</property>
    <property name="kdenlive_info"/>
    <property name="disable"/>
    <property name="reverse">0</property>
   </filter>
  </entry>
  <entry out="0" producer="7" in="0"/>
  <entry out="27942" producer="6_playlist3" in="27618">
   <filter id="filter4">
    <property name="mirror">flip</property>
    <property name="mlt_service">mirror</property>
    <property name="kdenlive_id">mirror</property>
    <property name="tag">mirror</property>
    <property name="kdenlive_ix">2</property>
    <property name="kdenlive_info"/>
    <property name="disable"/>
    <property name="reverse">0</property>
   </filter>
  </entry>
  <entry out="27214" producer="6_playlist3" in="24871">
   <filter id="filter5">
    <property name="mirror">flip</property>
    <property name="mlt_service">mirror</property>
    <property name="kdenlive_id">mirror</property>
    <property name="tag">mirror</property>
    <property name="kdenlive_ix">1</property>
    <property name="kdenlive_info"/>
    <property name="disable"/>
    <property name="reverse">0</property>
   </filter>
  </entry>
  <entry out="28334" producer="6_playlist3" in="27215">
   <filter id="filter6">
    <property name="mirror">flip</property>
    <property name="mlt_service">mirror</property>
    <property name="kdenlive_id">mirror</property>
    <property name="tag">mirror</property>
    <property name="kdenlive_ix">1</property>
    <property name="kdenlive_info"/>
    <property name="disable"/>
    <property name="reverse">0</property>
   </filter>
  </entry>
 </playlist>
 <producer id="8_video" title="Anonymous Submission" out="174" in="0">
  <property name="length">00:00:07:00</property>
  <property name="eof">pause</property>
  <property name="resource">HPudPvA_Intro_1080Rmk.mp4</property>
  <property name="audio_index">-1</property>
  <property name="video_index">0</property>
  <property name="mute_on_pause">1</property>
  <property name="mlt_service">avformat-novalidate</property>
  <property name="seekable">1</property>
  <property name="aspect_ratio">1</property>
  <property name="kdenlive:folderid">-1</property>
  <property name="kdenlive:file_size">3027348</property>
  <property name="kdenlive:file_hash">15d1fd6e5cc38bbc7f98ba7a7eee56ea</property>
  <property name="global_feed">1</property>
  <property name="xml">was here</property>
 </producer>
 <producer id="4_video" title="Anonymous Submission" out="13630" in="0">
  <property name="length">00:09:05:06</property>
  <property name="eof">pause</property>
  <property name="resource">02-_HPudPvA.25fps.mp4</property>
  <property name="audio_index">-1</property>
  <property name="video_index">0</property>
  <property name="mute_on_pause">1</property>
  <property name="mlt_service">avformat-novalidate</property>
  <property name="seekable">1</property>
  <property name="aspect_ratio">1</property>
  <property name="kdenlive:folderid">-1</property>
  <property name="kdenlive:file_size">908704664</property>
  <property name="kdenlive:file_hash">c309892ed7aea35dea29aaf3cb5d227d</property>
  <property name="global_feed">1</property>
  <property name="xml">was here</property>
  <property name="meta.media.nb_streams">2</property>
  <property name="meta.media.0.stream.type">video</property>
  <property name="meta.media.0.stream.frame_rate">25</property>
  <property name="meta.media.0.stream.sample_aspect_ratio">1</property>
  <property name="meta.media.0.codec.width">1280</property>
  <property name="meta.media.0.codec.height">720</property>
  <property name="meta.media.0.codec.rotate">0</property>
  <property name="meta.media.0.codec.frame_rate">25</property>
  <property name="meta.media.0.codec.pix_fmt">yuv420p</property>
  <property name="meta.media.0.codec.sample_aspect_ratio">1</property>
  <property name="meta.media.0.codec.colorspace">709</property>
  <property name="meta.media.0.codec.name">h264</property>
  <property name="meta.media.0.codec.long_name">H.264 / AVC / MPEG-4 AVC / MPEG-4 part 10</property>
  <property name="meta.media.0.codec.bit_rate">13172123</property>
  <property name="meta.attr.0.stream.handler_name.markup">VideoHandler</property>
  <property name="meta.media.1.stream.type">audio</property>
  <property name="meta.media.1.codec.sample_fmt">s16p</property>
  <property name="meta.media.1.codec.sample_rate">48000</property>
  <property name="meta.media.1.codec.channels">2</property>
  <property name="meta.media.1.codec.name">mp3</property>
  <property name="meta.media.1.codec.long_name">MP3 (MPEG audio layer 3)</property>
  <property name="meta.media.1.codec.bit_rate">156391</property>
  <property name="meta.attr.1.stream.language.markup">deu</property>
  <property name="meta.attr.1.stream.handler_name.markup">SoundHandler</property>
  <property name="meta.attr.major_brand.markup">isom</property>
  <property name="meta.attr.minor_version.markup">512</property>
  <property name="meta.attr.compatible_brands.markup">isomiso2avc1mp41</property>
  <property name="meta.attr.title.markup">Harry Potter und der Penner von Alcatraz Teil 2 [Remake]</property>
  <property name="meta.attr.encoder.markup">Lavf57.56.101</property>
  <property name="meta.media.sample_aspect_num">1</property>
  <property name="meta.media.sample_aspect_den">1</property>
  <property name="meta.media.frame_rate_num">25</property>
  <property name="meta.media.frame_rate_den">1</property>
  <property name="meta.media.colorspace">709</property>
  <property name="meta.media.color_trc">2</property>
  <property name="meta.media.width">1280</property>
  <property name="meta.media.height">720</property>
  <property name="meta.media.top_field_first">0</property>
  <property name="meta.media.progressive">1</property>
 </producer>
 <playlist id="playlist4">
  <property name="kdenlive:track_name">Video 2</property>
  <entry out="174" producer="8_video" in="0"/>
  <blank length="2424"/>
  <entry out="2626" producer="4_video" in="2605">
   <filter id="frei0r.scale0tilt">
    <property name="version">0,1</property>
    <property name="mlt_service">frei0r.scale0tilt</property>
    <property name="kdenlive_id">frei0r.scale0tilt</property>
    <property name="tag">frei0r.scale0tilt</property>
    <property name="kdenlive_ix">1</property>
    <property name="Clip left">0</property>
    <property name="Clip right">0</property>
    <property name="Clip top">0,12963</property>
    <property name="Clip bottom">0,12963</property>
    <property name="Scale X">0,5</property>
    <property name="Scale Y">0,5</property>
    <property name="Tilt X">0,5</property>
    <property name="Tilt Y">0,5</property>
    <property name="kdenlive_info"/>
   </filter>
   <filter id="frei0r.contrast0r">
    <property name="version">0,2</property>
    <property name="mlt_service">frei0r.contrast0r</property>
    <property name="kdenlive_id">frei0r.contrast0r</property>
    <property name="tag">frei0r.contrast0r</property>
    <property name="kdenlive_ix">2</property>
    <property name="Contrast">2605=0,55</property>
    <property name="kdenlive_info"/>
   </filter>
  </entry>
  <blank length="10700"/>
  <entry out="13630" producer="4_video" in="13327"/>
 </playlist>
 <playlist id="playlist5">
  <property name="kdenlive:track_name">Video 3</property>
 </playlist>
 <tractor id="maintractor" title="Anonymous Submission" global_feed="1" out="13625" in="0">
  <track producer="black_track"/>
  <track producer="playlist1" hide="video"/>
  <track producer="playlist2" hide="video"/>
  <track producer="playlist3" hide="audio"/>
  <track producer="playlist4"/>
  <track producer="playlist5" hide="video"/>
  <transition id="transition0">
   <property name="a_track">0</property>
   <property name="b_track">1</property>
   <property name="mlt_service">mix</property>
   <property name="always_active">1</property>
   <property name="combine">1</property>
   <property name="internal_added">237</property>
  </transition>
  <transition id="transition1">
   <property name="a_track">0</property>
   <property name="b_track">2</property>
   <property name="mlt_service">mix</property>
   <property name="always_active">1</property>
   <property name="combine">1</property>
   <property name="internal_added">237</property>
  </transition>
  <transition id="transition2">
   <property name="a_track">0</property>
   <property name="b_track">3</property>
   <property name="mlt_service">mix</property>
   <property name="always_active">1</property>
   <property name="combine">1</property>
   <property name="internal_added">237</property>
  </transition>
  <transition id="transition3">
   <property name="a_track">0</property>
   <property name="b_track">3</property>
   <property name="compositing">0</property>
   <property name="distort">0</property>
   <property name="mlt_service">qtblend</property>
   <property name="internal_added">237</property>
   <property name="disable">0</property>
  </transition>
  <transition id="transition4">
   <property name="a_track">0</property>
   <property name="b_track">4</property>
   <property name="mlt_service">mix</property>
   <property name="always_active">1</property>
   <property name="combine">1</property>
   <property name="internal_added">237</property>
  </transition>
  <transition id="transition5">
   <property name="a_track">0</property>
   <property name="b_track">4</property>
   <property name="compositing">0</property>
   <property name="distort">0</property>
   <property name="mlt_service">qtblend</property>
   <property name="internal_added">237</property>
   <property name="disable">0</property>
  </transition>
  <transition id="transition6">
   <property name="a_track">0</property>
   <property name="b_track">5</property>
   <property name="mlt_service">mix</property>
   <property name="always_active">1</property>
   <property name="combine">1</property>
   <property name="internal_added">237</property>
  </transition>
  <transition id="transition7">
   <property name="a_track">0</property>
   <property name="b_track">5</property>
   <property name="compositing">0</property>
   <property name="distort">0</property>
   <property name="mlt_service">qtblend</property>
   <property name="internal_added">237</property>
   <property name="disable">0</property>
  </transition>
 </tractor>
</mlt>
