<?xml version='1.0' encoding='utf-8'?>
<mlt title="Anonymous Submission" LC_NUMERIC="de_DE.UTF-8" producer="main_bin" version="6.17.0" root="/media/lnj/LNJ-1TB-HDD/vid/yt/DuraPhilms/SynchroRemasters/kdenlive-projects">
 <profile frame_rate_num="25" sample_aspect_num="1" display_aspect_den="1600" colorspace="709" progressive="1" description="3840x1600 25.00fps" display_aspect_num="3840" frame_rate_den="1" width="3840" height="1600" sample_aspect_den="1"/>
 <producer title="Anonymous Submission" id="producer0" in="00:00:00,000" out="00:10:55,560">
  <property name="length">16390</property>
  <property name="eof">pause</property>
  <property name="resource">/media/lnj/LNJ-1TB-HDD/vid/yt/DuraPhilms/SynchroRemasters/videos/PvA-09.mp4</property>
  <property name="audio_index">1</property>
  <property name="video_index">0</property>
  <property name="mute_on_pause">1</property>
  <property name="mlt_service">avformat-novalidate</property>
  <property name="meta.media.nb_streams">2</property>
  <property name="meta.media.0.stream.type">video</property>
  <property name="meta.media.0.stream.frame_rate">23,976</property>
  <property name="meta.media.0.stream.sample_aspect_ratio">0</property>
  <property name="meta.media.0.codec.width">1280</property>
  <property name="meta.media.0.codec.height">720</property>
  <property name="meta.media.0.codec.rotate">0</property>
  <property name="meta.media.0.codec.frame_rate">23,976</property>
  <property name="meta.media.0.codec.pix_fmt">yuv420p</property>
  <property name="meta.media.0.codec.sample_aspect_ratio">1</property>
  <property name="meta.media.0.codec.colorspace">709</property>
  <property name="meta.media.0.codec.color_trc">1</property>
  <property name="meta.media.0.codec.name">h264</property>
  <property name="meta.media.0.codec.long_name">H.264 / AVC / MPEG-4 AVC / MPEG-4 part 10</property>
  <property name="meta.media.0.codec.bit_rate">1533361</property>
  <property name="meta.attr.0.stream.handler_name.markup">VideoHandler</property>
  <property name="meta.media.1.stream.type">audio</property>
  <property name="meta.media.1.codec.sample_fmt">fltp</property>
  <property name="meta.media.1.codec.sample_rate">48000</property>
  <property name="meta.media.1.codec.channels">2</property>
  <property name="meta.media.1.codec.name">mp3float</property>
  <property name="meta.media.1.codec.long_name">MP3 (MPEG audio layer 3)</property>
  <property name="meta.media.1.codec.bit_rate">158679</property>
  <property name="meta.attr.1.stream.language.markup">deu</property>
  <property name="meta.attr.1.stream.handler_name.markup">Stereo</property>
  <property name="meta.attr.major_brand.markup">mp42</property>
  <property name="meta.attr.minor_version.markup">512</property>
  <property name="meta.attr.compatible_brands.markup">isomiso2avc1mp41</property>
  <property name="meta.attr.encoder.markup">HandBrake 6548svn 2014112401</property>
  <property name="meta.attr.title.markup">Harry Potter und der Penner von Alcatraz Teil 9</property>
  <property name="seekable">1</property>
  <property name="meta.media.sample_aspect_num">1</property>
  <property name="meta.media.sample_aspect_den">1</property>
  <property name="aspect_ratio">1</property>
  <property name="kdenlive:clipname"/>
  <property name="meta.media.frame_rate_num">707310000</property>
  <property name="meta.media.frame_rate_den">29500721</property>
  <property name="meta.media.colorspace">709</property>
  <property name="meta.media.color_trc">1</property>
  <property name="meta.media.width">1280</property>
  <property name="meta.media.height">720</property>
  <property name="kdenlive:id">3</property>
  <property name="kdenlive:file_size">139178296</property>
  <property name="kdenlive:file_hash">3e16487f4c98cfa0b5bd2bbd22992b33</property>
  <property name="kdenlive:folderid">-1</property>
  <property name="kdenlive:proxy">-</property>
  <property name="kdenlive:originalurl">/media/lnj/LNJ-1TB-HDD/vid/yt/DuraPhilms/SynchroRemasters/videos/PvA-09.mp4</property>
  <property name="kdenlive:original.mlt_type">producer</property>
  <property name="kdenlive:original.in">0</property>
  <property name="kdenlive:original.out">16389</property>
  <property name="kdenlive:original.length">16390</property>
  <property name="kdenlive:original.eof">pause</property>
  <property name="kdenlive:original.resource">/media/lnj/LNJ-1TB-HDD/vid/yt/DuraPhilms/SynchroRemasters/videos/PvA-09.mp4</property>
  <property name="kdenlive:original.meta.media.nb_streams">2</property>
  <property name="kdenlive:original.meta.media.0.stream.type">video</property>
  <property name="kdenlive:original.meta.media.0.stream.frame_rate">23,976</property>
  <property name="kdenlive:original.meta.media.0.stream.sample_aspect_ratio">0</property>
  <property name="kdenlive:original.meta.media.0.codec.width">1280</property>
  <property name="kdenlive:original.meta.media.0.codec.height">720</property>
  <property name="kdenlive:original.meta.media.0.codec.rotate">0</property>
  <property name="kdenlive:original.meta.media.0.codec.frame_rate">23,976</property>
  <property name="kdenlive:original.meta.media.0.codec.pix_fmt">yuv420p</property>
  <property name="kdenlive:original.meta.media.0.codec.sample_aspect_ratio">1</property>
  <property name="kdenlive:original.meta.media.0.codec.colorspace">709</property>
  <property name="kdenlive:original.meta.media.0.codec.color_trc">1</property>
  <property name="kdenlive:original.meta.media.0.codec.name">h264</property>
  <property name="kdenlive:original.meta.media.0.codec.long_name">H.264 / AVC / MPEG-4 AVC / MPEG-4 part 10</property>
  <property name="kdenlive:original.meta.media.0.codec.bit_rate">1533361</property>
  <property name="kdenlive:original.meta.attr.0.stream.handler_name.markup">VideoHandler</property>
  <property name="kdenlive:original.meta.media.1.stream.type">audio</property>
  <property name="kdenlive:original.meta.media.1.codec.sample_fmt">fltp</property>
  <property name="kdenlive:original.meta.media.1.codec.sample_rate">48000</property>
  <property name="kdenlive:original.meta.media.1.codec.channels">2</property>
  <property name="kdenlive:original.meta.media.1.codec.name">mp3float</property>
  <property name="kdenlive:original.meta.media.1.codec.long_name">MP3 (MPEG audio layer 3)</property>
  <property name="kdenlive:original.meta.media.1.codec.bit_rate">158679</property>
  <property name="kdenlive:original.meta.attr.1.stream.language.markup">deu</property>
  <property name="kdenlive:original.meta.attr.1.stream.handler_name.markup">Stereo</property>
  <property name="kdenlive:original.meta.attr.major_brand.markup">mp42</property>
  <property name="kdenlive:original.meta.attr.minor_version.markup">512</property>
  <property name="kdenlive:original.meta.attr.compatible_brands.markup">isomiso2avc1mp41</property>
  <property name="kdenlive:original.meta.attr.encoder.markup">HandBrake 6548svn 2014112401</property>
  <property name="kdenlive:original.meta.attr.title.markup">Harry Potter und der Penner von Alcatraz Teil 9</property>
  <property name="kdenlive:original.seekable">1</property>
  <property name="kdenlive:original.width">1280</property>
  <property name="kdenlive:original.height">720</property>
  <property name="kdenlive:original.meta.media.sample_aspect_num">1</property>
  <property name="kdenlive:original.meta.media.sample_aspect_den">1</property>
  <property name="kdenlive:original.aspect_ratio">1</property>
  <property name="kdenlive:original.audio_index">1</property>
  <property name="kdenlive:original.video_index">0</property>
  <property name="kdenlive:original.mute_on_pause">1</property>
  <property name="kdenlive:original.mlt_service">avformat-novalidate</property>
  <property name="kdenlive:original.meta.media.frame_rate_num">707310000</property>
  <property name="kdenlive:original.meta.media.frame_rate_den">29500721</property>
  <property name="kdenlive:original.meta.media.colorspace">709</property>
  <property name="kdenlive:original.meta.media.color_trc">1</property>
  <property name="kdenlive:original.meta.media.width">1280</property>
  <property name="kdenlive:original.meta.media.height">720</property>
  <property name="kdenlive:original.kdenlive:id">3</property>
  <property name="kdenlive:original.kdenlive:file_size">139178296</property>
  <property name="kdenlive:original.kdenlive:file_hash">3e16487f4c98cfa0b5bd2bbd22992b33</property>
  <property name="kdenlive:original.kdenlive:folderid">-1</property>
  <property name="kdenlive:original.backup">1</property>
  <property name="meta.media.top_field_first">0</property>
  <property name="meta.media.progressive">1</property>
  <property name="global_feed">1</property>
  <property name="meta.media.color_range">mpeg</property>
 </producer>
 <producer title="Anonymous Submission" id="producer1" in="00:00:00,000" out="00:00:06,960">
  <property name="length">175</property>
  <property name="eof">pause</property>
  <property name="resource">/media/lnj/LNJ-1TB-HDD/vid/yt/DuraPhilms/SynchroRemasters/videos/HPudPvA_Intro_1080Rmk.mp4</property>
  <property name="audio_index">1</property>
  <property name="video_index">0</property>
  <property name="mute_on_pause">1</property>
  <property name="mlt_service">avformat-novalidate</property>
  <property name="seekable">1</property>
  <property name="aspect_ratio">1</property>
  <property name="kdenlive:clipname">HPudPvA_Intro_1080Rmk.mp4</property>
  <property name="kdenlive:id">4</property>
  <property name="kdenlive:file_size">3027348</property>
  <property name="kdenlive:file_hash">15d1fd6e5cc38bbc7f98ba7a7eee56ea</property>
  <property name="kdenlive:folderid">-1</property>
  <property name="kdenlive:proxy">-</property>
  <property name="kdenlive:originalurl">/media/lnj/LNJ-1TB-HDD/vid/yt/DuraPhilms/SynchroRemasters/videos/HPudPvA_Intro_1080Rmk.mp4</property>
  <property name="kdenlive:original.mlt_type">producer</property>
  <property name="kdenlive:original.in">0</property>
  <property name="kdenlive:original.out">174</property>
  <property name="kdenlive:original.length">175</property>
  <property name="kdenlive:original.eof">pause</property>
  <property name="kdenlive:original.resource">/media/lnj/LNJ-1TB-HDD/vid/yt/DuraPhilms/SynchroRemasters/videos/HPudPvA_Intro_1080Rmk.mp4</property>
  <property name="kdenlive:original.meta.media.nb_streams">2</property>
  <property name="kdenlive:original.meta.media.0.stream.type">video</property>
  <property name="kdenlive:original.meta.media.0.stream.frame_rate">25</property>
  <property name="kdenlive:original.meta.media.0.stream.sample_aspect_ratio">1</property>
  <property name="kdenlive:original.meta.media.0.codec.width">1920</property>
  <property name="kdenlive:original.meta.media.0.codec.height">1080</property>
  <property name="kdenlive:original.meta.media.0.codec.rotate">0</property>
  <property name="kdenlive:original.meta.media.0.codec.frame_rate">25</property>
  <property name="kdenlive:original.meta.media.0.codec.pix_fmt">yuv420p</property>
  <property name="kdenlive:original.meta.media.0.codec.sample_aspect_ratio">1</property>
  <property name="kdenlive:original.meta.media.0.codec.colorspace">709</property>
  <property name="kdenlive:original.meta.media.0.codec.color_trc">1</property>
  <property name="kdenlive:original.meta.media.0.codec.name">h264</property>
  <property name="kdenlive:original.meta.media.0.codec.long_name">H.264 / AVC / MPEG-4 AVC / MPEG-4 part 10</property>
  <property name="kdenlive:original.meta.media.0.codec.bit_rate">3275175</property>
  <property name="kdenlive:original.meta.attr.0.stream.handler_name.markup">VideoHandler</property>
  <property name="kdenlive:original.meta.media.1.stream.type">audio</property>
  <property name="kdenlive:original.meta.media.1.codec.sample_fmt">fltp</property>
  <property name="kdenlive:original.meta.media.1.codec.sample_rate">48000</property>
  <property name="kdenlive:original.meta.media.1.codec.channels">2</property>
  <property name="kdenlive:original.meta.media.1.codec.name">aac</property>
  <property name="kdenlive:original.meta.media.1.codec.long_name">AAC (Advanced Audio Coding)</property>
  <property name="kdenlive:original.meta.media.1.codec.bit_rate">195945</property>
  <property name="kdenlive:original.meta.attr.1.stream.handler_name.markup">SoundHandler</property>
  <property name="kdenlive:original.meta.attr.major_brand.markup">isom</property>
  <property name="kdenlive:original.meta.attr.minor_version.markup">512</property>
  <property name="kdenlive:original.meta.attr.compatible_brands.markup">isomiso2avc1mp41</property>
  <property name="kdenlive:original.meta.attr.encoder.markup">Lavf57.56.101</property>
  <property name="kdenlive:original.seekable">1</property>
  <property name="kdenlive:original.width">1920</property>
  <property name="kdenlive:original.height">1080</property>
  <property name="kdenlive:original.meta.media.sample_aspect_num">1</property>
  <property name="kdenlive:original.meta.media.sample_aspect_den">1</property>
  <property name="kdenlive:original.aspect_ratio">1</property>
  <property name="kdenlive:original.audio_index">1</property>
  <property name="kdenlive:original.video_index">0</property>
  <property name="kdenlive:original.mute_on_pause">1</property>
  <property name="kdenlive:original.mlt_service">avformat-novalidate</property>
  <property name="kdenlive:original.meta.media.frame_rate_num">25</property>
  <property name="kdenlive:original.meta.media.frame_rate_den">1</property>
  <property name="kdenlive:original.meta.media.colorspace">709</property>
  <property name="kdenlive:original.meta.media.color_trc">1</property>
  <property name="kdenlive:original.meta.media.width">1920</property>
  <property name="kdenlive:original.meta.media.height">1080</property>
  <property name="kdenlive:original.kdenlive:id">4</property>
  <property name="kdenlive:original.kdenlive:file_size">3027348</property>
  <property name="kdenlive:original.kdenlive:file_hash">15d1fd6e5cc38bbc7f98ba7a7eee56ea</property>
  <property name="kdenlive:original.kdenlive:folderid">-1</property>
  <property name="kdenlive:original.backup">1</property>
  <property name="global_feed">1</property>
  <property name="meta.media.nb_streams">2</property>
  <property name="meta.media.0.stream.type">video</property>
  <property name="meta.media.0.stream.frame_rate">25</property>
  <property name="meta.media.0.stream.sample_aspect_ratio">1</property>
  <property name="meta.media.0.codec.width">1920</property>
  <property name="meta.media.0.codec.height">1080</property>
  <property name="meta.media.0.codec.rotate">0</property>
  <property name="meta.media.0.codec.frame_rate">25</property>
  <property name="meta.media.0.codec.pix_fmt">yuv420p</property>
  <property name="meta.media.0.codec.sample_aspect_ratio">1</property>
  <property name="meta.media.0.codec.colorspace">709</property>
  <property name="meta.media.0.codec.name">h264</property>
  <property name="meta.media.0.codec.long_name">H.264 / AVC / MPEG-4 AVC / MPEG-4 part 10</property>
  <property name="meta.media.0.codec.bit_rate">3275175</property>
  <property name="meta.attr.0.stream.HANDLER_NAME.markup">VideoHandler</property>
  <property name="meta.attr.0.stream.ENCODER.markup">Lavc58.35.100 libx264</property>
  <property name="meta.attr.0.stream.DURATION.markup">00:00:06.981000000</property>
  <property name="meta.media.1.stream.type">audio</property>
  <property name="meta.media.1.codec.sample_fmt">fltp</property>
  <property name="meta.media.1.codec.sample_rate">48000</property>
  <property name="meta.media.1.codec.channels">2</property>
  <property name="meta.media.1.codec.name">aac</property>
  <property name="meta.media.1.codec.long_name">AAC (Advanced Audio Coding)</property>
  <property name="meta.media.1.codec.bit_rate">195945</property>
  <property name="meta.attr.1.stream.HANDLER_NAME.markup">SoundHandler</property>
  <property name="meta.attr.1.stream.ENCODER.markup">Lavc58.35.100 aac</property>
  <property name="meta.attr.1.stream.DURATION.markup">00:00:06.997000000</property>
  <property name="meta.attr.COMPATIBLE_BRANDS.markup">isomiso2avc1mp41</property>
  <property name="meta.attr.MAJOR_BRAND.markup">isom</property>
  <property name="meta.attr.MINOR_VERSION.markup">512</property>
  <property name="meta.attr.ENCODER.markup">Lavf58.20.100</property>
  <property name="meta.media.sample_aspect_num">1</property>
  <property name="meta.media.sample_aspect_den">1</property>
  <property name="meta.media.frame_rate_num">25</property>
  <property name="meta.media.frame_rate_den">1</property>
  <property name="meta.media.colorspace">709</property>
  <property name="meta.media.color_trc">1</property>
  <property name="meta.media.width">1920</property>
  <property name="meta.media.height">1080</property>
  <property name="meta.media.top_field_first">0</property>
  <property name="meta.media.progressive">1</property>
  <property name="meta.media.0.codec.color_trc">1</property>
  <property name="meta.attr.0.stream.handler_name.markup">VideoHandler</property>
  <property name="meta.attr.1.stream.handler_name.markup">SoundHandler</property>
  <property name="meta.attr.major_brand.markup">isom</property>
  <property name="meta.attr.minor_version.markup">512</property>
  <property name="meta.attr.compatible_brands.markup">isomiso2avc1mp41</property>
  <property name="meta.attr.encoder.markup">Lavf57.56.101</property>
  <property name="meta.media.color_range">mpeg</property>
 </producer>
 <producer title="Anonymous Submission" id="producer4" in="00:00:00,000" out="00:00:11,800">
  <property name="length">296</property>
  <property name="eof">pause</property>
  <property name="resource">/media/lnj/LNJ-1TB-HDD/vid/yt/DuraPhilms/SynchroRemasters/videos/PvA-09-seelsorge.mkv</property>
  <property name="audio_index">-1</property>
  <property name="video_index">0</property>
  <property name="mute_on_pause">1</property>
  <property name="mlt_service">avformat-novalidate</property>
  <property name="seekable">1</property>
  <property name="aspect_ratio">1</property>
  <property name="kdenlive:clipname">PvA-09-seelsorge.mkv</property>
  <property name="kdenlive:id">6</property>
  <property name="kdenlive:file_size">24401843</property>
  <property name="kdenlive:file_hash">424a705af3096f21e6b04d4a4c5ba35c</property>
  <property name="kdenlive:folderid">-1</property>
  <property name="kdenlive:proxy">-</property>
  <property name="kdenlive:originalurl">/media/lnj/LNJ-1TB-HDD/vid/yt/DuraPhilms/SynchroRemasters/videos/PvA-09-seelsorge.mkv</property>
  <property name="kdenlive:original.mlt_type">producer</property>
  <property name="kdenlive:original.in">0</property>
  <property name="kdenlive:original.out">295</property>
  <property name="kdenlive:original.length">296</property>
  <property name="kdenlive:original.eof">pause</property>
  <property name="kdenlive:original.resource">/media/lnj/LNJ-1TB-HDD/vid/yt/DuraPhilms/SynchroRemasters/videos/PvA-09-seelsorge.mkv</property>
  <property name="kdenlive:original.meta.media.nb_streams">1</property>
  <property name="kdenlive:original.meta.media.0.stream.type">video</property>
  <property name="kdenlive:original.meta.media.0.stream.frame_rate">25</property>
  <property name="kdenlive:original.meta.media.0.stream.sample_aspect_ratio">1</property>
  <property name="kdenlive:original.meta.media.0.codec.width">3840</property>
  <property name="kdenlive:original.meta.media.0.codec.height">1600</property>
  <property name="kdenlive:original.meta.media.0.codec.rotate">0</property>
  <property name="kdenlive:original.meta.media.0.codec.frame_rate">25</property>
  <property name="kdenlive:original.meta.media.0.codec.pix_fmt">yuv420p</property>
  <property name="kdenlive:original.meta.media.0.codec.sample_aspect_ratio">1</property>
  <property name="kdenlive:original.meta.media.0.codec.colorspace">709</property>
  <property name="kdenlive:original.meta.media.0.codec.name">hevc</property>
  <property name="kdenlive:original.meta.media.0.codec.long_name">HEVC (High Efficiency Video Coding)</property>
  <property name="kdenlive:original.meta.media.0.codec.bit_rate">0</property>
  <property name="kdenlive:original.meta.attr.0.stream.ENCODER.markup">Lavc58.35.100 libx265</property>
  <property name="kdenlive:original.meta.attr.0.stream.DURATION.markup">00:00:11.840000000</property>
  <property name="kdenlive:original.meta.attr.ENCODER.markup">Lavf58.20.100</property>
  <property name="kdenlive:original.seekable">1</property>
  <property name="kdenlive:original.width">3840</property>
  <property name="kdenlive:original.height">1600</property>
  <property name="kdenlive:original.meta.media.sample_aspect_num">1</property>
  <property name="kdenlive:original.meta.media.sample_aspect_den">1</property>
  <property name="kdenlive:original.aspect_ratio">1</property>
  <property name="kdenlive:original.audio_index">-1</property>
  <property name="kdenlive:original.video_index">0</property>
  <property name="kdenlive:original.mute_on_pause">1</property>
  <property name="kdenlive:original.mlt_service">avformat-novalidate</property>
  <property name="kdenlive:original.meta.media.frame_rate_num">25</property>
  <property name="kdenlive:original.meta.media.frame_rate_den">1</property>
  <property name="kdenlive:original.meta.media.colorspace">709</property>
  <property name="kdenlive:original.meta.media.color_trc">2</property>
  <property name="kdenlive:original.meta.media.width">3840</property>
  <property name="kdenlive:original.meta.media.height">1600</property>
  <property name="kdenlive:original.kdenlive:id">6</property>
  <property name="kdenlive:original.kdenlive:file_size">24401843</property>
  <property name="kdenlive:original.kdenlive:file_hash">424a705af3096f21e6b04d4a4c5ba35c</property>
  <property name="kdenlive:original.kdenlive:folderid">-1</property>
  <property name="kdenlive:original.backup">1</property>
  <property name="global_feed">1</property>
  <property name="meta.media.nb_streams">1</property>
  <property name="meta.media.0.stream.type">video</property>
  <property name="meta.media.0.stream.frame_rate">25</property>
  <property name="meta.media.0.stream.sample_aspect_ratio">1</property>
  <property name="meta.media.0.codec.width">3840</property>
  <property name="meta.media.0.codec.height">1600</property>
  <property name="meta.media.0.codec.rotate">0</property>
  <property name="meta.media.0.codec.frame_rate">25</property>
  <property name="meta.media.0.codec.pix_fmt">yuv420p</property>
  <property name="meta.media.0.codec.sample_aspect_ratio">1</property>
  <property name="meta.media.0.codec.colorspace">709</property>
  <property name="meta.media.0.codec.name">hevc</property>
  <property name="meta.media.0.codec.long_name">HEVC (High Efficiency Video Coding)</property>
  <property name="meta.media.0.codec.bit_rate">0</property>
  <property name="meta.attr.0.stream.ENCODER.markup">Lavc58.35.100 libx265</property>
  <property name="meta.attr.0.stream.DURATION.markup">00:00:11.840000000</property>
  <property name="meta.attr.ENCODER.markup">Lavf58.20.100</property>
  <property name="meta.media.sample_aspect_num">1</property>
  <property name="meta.media.sample_aspect_den">1</property>
  <property name="meta.media.frame_rate_num">25</property>
  <property name="meta.media.frame_rate_den">1</property>
  <property name="meta.media.colorspace">709</property>
  <property name="meta.media.color_trc">2</property>
  <property name="meta.media.width">3840</property>
  <property name="meta.media.height">1600</property>
  <property name="meta.media.top_field_first">0</property>
  <property name="meta.media.progressive">1</property>
  <property name="meta.media.color_range">mpeg</property>
 </producer>
 <producer id="producer6" in="00:00:00,000" out="00:00:00,960">
  <property name="length">00:00:01,000</property>
  <property name="eof">pause</property>
  <property name="resource">0x000000ff</property>
  <property name="aspect_ratio">1</property>
  <property name="mlt_service">color</property>
  <property name="kdenlive:clipname">Farb-Clip</property>
  <property name="kdenlive:duration">00:00:01,000</property>
  <property name="kdenlive:id">9</property>
  <property name="kdenlive:file_hash">9196813120dc5c505072516b15baf414</property>
  <property name="kdenlive:folderid">-1</property>
 </producer>
 <producer id="producer8" in="00:00:00,000" out="00:00:07,760">
  <property name="length">195</property>
  <property name="eof">pause</property>
  <property name="resource"/>
  <property name="progressive">1</property>
  <property name="aspect_ratio">1</property>
  <property name="seekable">1</property>
  <property name="mlt_service">kdenlivetitle</property>
  <property name="kdenlive:duration">00:00:05,000</property>
  <property name="kdenlive:clipname">Titel-Clip</property>
  <property name="xmldata">&lt;kdenlivetitle duration="125" LC_NUMERIC="de_DE.UTF-8" width="3840" height="1600" out="124">
 &lt;item type="QGraphicsRectItem" z-index="0">
  &lt;position x="3120" y="1240">
   &lt;transform zoom="100">1,0,0,0,1,0,0,0,1&lt;/transform>
  &lt;/position>
  &lt;content brushcolor="0,0,0,255" pencolor="0,0,0,255" penwidth="0" rect="0,0,240,180"/>
 &lt;/item>
 &lt;startviewport rect="0,0,3840,1600"/>
 &lt;endviewport rect="0,0,3840,1600"/>
 &lt;background color="0,0,0,0"/>
&lt;/kdenlivetitle>
</property>
  <property name="kdenlive:id">11</property>
  <property name="kdenlive:file_hash">83b6c7c58ff0122d66fb9e61119a92ee</property>
  <property name="kdenlive:folderid">-1</property>
  <property name="force_reload">0</property>
  <property name="global_feed">1</property>
  <property name="meta.media.width">3840</property>
  <property name="meta.media.height">1600</property>
 </producer>
 <producer title="Anonymous Submission" id="producer2" in="00:00:00,000" out="00:00:37,720">
  <property name="length">944</property>
  <property name="eof">pause</property>
  <property name="resource">/media/lnj/LNJ-1TB-HDD/vid/yt/DuraPhilms/SynchroRemasters/videos/PvA-09-wetten-dass-intro.mkv</property>
  <property name="audio_index">1</property>
  <property name="video_index">0</property>
  <property name="mute_on_pause">1</property>
  <property name="mlt_service">avformat-novalidate</property>
  <property name="meta.media.nb_streams">2</property>
  <property name="meta.media.0.stream.type">video</property>
  <property name="meta.media.0.stream.frame_rate">25</property>
  <property name="meta.media.0.stream.sample_aspect_ratio">0</property>
  <property name="meta.media.0.codec.width">640</property>
  <property name="meta.media.0.codec.height">480</property>
  <property name="meta.media.0.codec.rotate">0</property>
  <property name="meta.media.0.codec.frame_rate">25</property>
  <property name="meta.media.0.codec.pix_fmt">yuv420p</property>
  <property name="meta.media.0.codec.sample_aspect_ratio">0</property>
  <property name="meta.media.0.codec.colorspace">601</property>
  <property name="meta.media.0.codec.name">h264</property>
  <property name="meta.media.0.codec.long_name">H.264 / AVC / MPEG-4 AVC / MPEG-4 part 10</property>
  <property name="meta.media.0.codec.bit_rate">0</property>
  <property name="meta.attr.0.stream.HANDLER_NAME.markup">VideoHandler</property>
  <property name="meta.attr.0.stream.DURATION.markup">00:00:37.640000000</property>
  <property name="meta.media.1.stream.type">audio</property>
  <property name="meta.media.1.codec.sample_fmt">fltp</property>
  <property name="meta.media.1.codec.sample_rate">48000</property>
  <property name="meta.media.1.codec.channels">2</property>
  <property name="meta.media.1.codec.name">opus</property>
  <property name="meta.media.1.codec.long_name">Opus</property>
  <property name="meta.media.1.codec.bit_rate">0</property>
  <property name="meta.attr.1.stream.language.markup">ger</property>
  <property name="meta.attr.1.stream.DURATION.markup">00:00:37.741000000</property>
  <property name="meta.attr.COMPATIBLE_BRANDS.markup">iso6avc1mp41</property>
  <property name="meta.attr.MAJOR_BRAND.markup">dash</property>
  <property name="meta.attr.MINOR_VERSION.markup">0</property>
  <property name="meta.attr.ENCODER.markup">Lavf58.20.100</property>
  <property name="seekable">1</property>
  <property name="meta.media.sample_aspect_num">1</property>
  <property name="meta.media.sample_aspect_den">1</property>
  <property name="aspect_ratio">1</property>
  <property name="kdenlive:clipname"/>
  <property name="meta.media.frame_rate_num">25</property>
  <property name="meta.media.frame_rate_den">1</property>
  <property name="meta.media.colorspace">601</property>
  <property name="meta.media.color_trc">2</property>
  <property name="meta.media.width">640</property>
  <property name="meta.media.height">480</property>
  <property name="kdenlive:id">7</property>
  <property name="kdenlive:file_size">4193620</property>
  <property name="kdenlive:file_hash">b5199e42b66a574bcfd9d0298d40096e</property>
  <property name="kdenlive:folderid">-1</property>
  <property name="meta.media.top_field_first">0</property>
  <property name="meta.media.progressive">1</property>
  <property name="global_feed">1</property>
  <property name="meta.media.color_range">mpeg</property>
 </producer>
 <producer id="producer3" in="00:00:00,000" out="00:00:05,800">
  <property name="length">00:00:05,840</property>
  <property name="eof">pause</property>
  <property name="resource">/media/lnj/LNJ-1TB-HDD/vid/yt/DuraPhilms/SynchroRemasters/images/pva-09-darth-vader-helmet.png</property>
  <property name="ttl">25</property>
  <property name="aspect_ratio">1</property>
  <property name="progressive">1</property>
  <property name="seekable">1</property>
  <property name="meta.media.width">738</property>
  <property name="meta.media.height">800</property>
  <property name="mlt_service">qimage</property>
  <property name="kdenlive:clipname"/>
  <property name="kdenlive:duration">00:00:05,000</property>
  <property name="kdenlive:id">10</property>
  <property name="kdenlive:file_size">259123</property>
  <property name="kdenlive:file_hash">2c70589b81f9145afa5bc4456988975a</property>
  <property name="kdenlive:folderid">-1</property>
  <property name="global_feed">1</property>
 </producer>
 <producer id="producer7" in="00:00:00,000" out="00:00:07,760">
  <property name="length">00:00:07,800</property>
  <property name="eof">pause</property>
  <property name="resource">/media/lnj/LNJ-1TB-HDD/vid/yt/DuraPhilms/SynchroRemasters/images/pva-09-duraphilms-removal.png</property>
  <property name="ttl">25</property>
  <property name="aspect_ratio">1</property>
  <property name="progressive">1</property>
  <property name="seekable">1</property>
  <property name="meta.media.width">3840</property>
  <property name="meta.media.height">1600</property>
  <property name="mlt_service">qimage</property>
  <property name="kdenlive:clipname"/>
  <property name="kdenlive:duration">00:00:05,000</property>
  <property name="kdenlive:id">5</property>
  <property name="kdenlive:file_size">1401</property>
  <property name="kdenlive:file_hash">367980fc36b7607511030cda2788feba</property>
  <property name="kdenlive:folderid">-1</property>
  <property name="global_feed">1</property>
 </producer>
 <producer title="Anonymous Submission" id="producer15" in="00:00:00,000" out="00:09:40,880">
  <property name="length">14523</property>
  <property name="eof">pause</property>
  <property name="resource">/media/lnj/LNJ-1TB-HDD/vid/yt/DuraPhilms/SynchroRemasters/videos/PvA-09-orig.2160p25.mkv</property>
  <property name="audio_index">-1</property>
  <property name="video_index">0</property>
  <property name="mute_on_pause">1</property>
  <property name="mlt_service">avformat-novalidate</property>
  <property name="seekable">1</property>
  <property name="aspect_ratio">1</property>
  <property name="kdenlive:clipname">PvA-09-orig.2160p25.mkv</property>
  <property name="kdenlive:id">2</property>
  <property name="kdenlive:file_size">3488367388</property>
  <property name="kdenlive:file_hash">7c0b215136b127853b40204fe90f937c</property>
  <property name="kdenlive:folderid">-1</property>
  <property name="kdenlive:proxy">-</property>
  <property name="kdenlive:originalurl">/media/lnj/LNJ-1TB-HDD/vid/yt/DuraPhilms/SynchroRemasters/videos/PvA-09-orig.2160p25.mkv</property>
  <property name="global_feed">1</property>
  <property name="meta.media.nb_streams">1</property>
  <property name="meta.media.0.stream.type">video</property>
  <property name="meta.media.0.stream.frame_rate">25</property>
  <property name="meta.media.0.stream.sample_aspect_ratio">1</property>
  <property name="meta.media.0.codec.width">3840</property>
  <property name="meta.media.0.codec.height">1600</property>
  <property name="meta.media.0.codec.rotate">0</property>
  <property name="meta.media.0.codec.frame_rate">25</property>
  <property name="meta.media.0.codec.pix_fmt">yuv420p</property>
  <property name="meta.media.0.codec.sample_aspect_ratio">1</property>
  <property name="meta.media.0.codec.colorspace">709</property>
  <property name="meta.media.0.codec.name">h264</property>
  <property name="meta.media.0.codec.long_name">H.264 / AVC / MPEG-4 AVC / MPEG-4 part 10</property>
  <property name="meta.media.0.codec.bit_rate">0</property>
  <property name="meta.attr.0.stream.ENCODER.markup">Lavc58.35.100 libx264</property>
  <property name="meta.attr.0.stream.DURATION.markup">00:09:40.920000000</property>
  <property name="meta.attr.ENCODER.markup">Lavf58.20.100</property>
  <property name="meta.media.sample_aspect_num">1</property>
  <property name="meta.media.sample_aspect_den">1</property>
  <property name="meta.media.frame_rate_num">25</property>
  <property name="meta.media.frame_rate_den">1</property>
  <property name="meta.media.colorspace">709</property>
  <property name="meta.media.color_trc">2</property>
  <property name="meta.media.width">3840</property>
  <property name="meta.media.height">1600</property>
  <property name="meta.media.color_range">mpeg</property>
  <property name="meta.media.top_field_first">0</property>
  <property name="meta.media.progressive">1</property>
 </producer>
 <producer title="Anonymous Submission" id="producer9" in="00:00:00,000" out="00:00:04,920">
  <property name="length">124</property>
  <property name="eof">pause</property>
  <property name="resource"/>
  <property name="progressive">1</property>
  <property name="aspect_ratio">1</property>
  <property name="seekable">1</property>
  <property name="mlt_service">kdenlivetitle</property>
  <property name="kdenlive:duration">00:00:05,000</property>
  <property name="kdenlive:clipname">Neuer Klip</property>
  <property name="xmldata">&lt;kdenlivetitle duration="125" LC_NUMERIC="de_DE.UTF-8" width="3840" height="1600" out="124">
 &lt;item type="QGraphicsPixmapItem" z-index="5">
  &lt;position x="1080" y="1240">
   &lt;transform>0.511976,0,0,0,0.511976,0,0,0,1&lt;/transform>
  &lt;/position>
  &lt;content url="/media/lnj/LNJ-1TB-HDD/vid/yt/DuraPhilms/SynchroRemasters/images/pva-09-wetten-dass-totenkopf-grey.png"/>
 &lt;/item>
 &lt;item type="QGraphicsPixmapItem" z-index="4">
  &lt;position x="860" y="1240">
   &lt;transform>0.511976,0,0,0,0.511976,0,0,0,1&lt;/transform>
  &lt;/position>
  &lt;content url="/media/lnj/LNJ-1TB-HDD/vid/yt/DuraPhilms/SynchroRemasters/images/pva-09-wetten-dass-totenkopf-grey.png"/>
 &lt;/item>
 &lt;item type="QGraphicsPixmapItem" z-index="3">
  &lt;position x="640" y="1240">
   &lt;transform>0.511976,0,0,0,0.511976,0,0,0,1&lt;/transform>
  &lt;/position>
  &lt;content url="/media/lnj/LNJ-1TB-HDD/vid/yt/DuraPhilms/SynchroRemasters/images/pva-09-wetten-dass-totenkopf-grey.png"/>
 &lt;/item>
 &lt;item type="QGraphicsPixmapItem" z-index="2">
  &lt;position x="420" y="1240">
   &lt;transform>0.511976,0,0,0,0.511976,0,0,0,1&lt;/transform>
  &lt;/position>
  &lt;content url="/media/lnj/LNJ-1TB-HDD/vid/yt/DuraPhilms/SynchroRemasters/images/pva-09-wetten-dass-totenkopf-grey.png"/>
 &lt;/item>
 &lt;item type="QGraphicsPixmapItem" z-index="1">
  &lt;position x="200" y="1240">
   &lt;transform>0.511976,0,0,0,0.511976,0,0,0,1&lt;/transform>
  &lt;/position>
  &lt;content url="/media/lnj/LNJ-1TB-HDD/vid/yt/DuraPhilms/SynchroRemasters/images/pva-09-wetten-dass-totenkopf-grey.png"/>
 &lt;/item>
 &lt;item type="QGraphicsRectItem" z-index="0">
  &lt;position x="180" y="1220">
   &lt;transform zoom="100">1,0,0,0,1,0,0,0,1&lt;/transform>
  &lt;/position>
  &lt;content brushcolor="0,105,204,255" pencolor="0,0,0,255" penwidth="0" rect="0,0,1180,300"/>
 &lt;/item>
 &lt;item type="QGraphicsRectItem" z-index="-1">
  &lt;position x="200" y="1240">
   &lt;transform zoom="100">1,0,0,0,1,0,0,0,1&lt;/transform>
  &lt;/position>
  &lt;content brushcolor="0,48,90,255" pencolor="0,0,0,255" penwidth="0" rect="0,0,1180,302.667"/>
 &lt;/item>
 &lt;startviewport rect="0,0,3840,1600"/>
 &lt;endviewport rect="0,0,3840,1600"/>
 &lt;background color="0,0,0,0"/>
&lt;/kdenlivetitle>
</property>
  <property name="kdenlive:id">14</property>
  <property name="kdenlive:file_hash">c22078ed38716a25678081ea9394ada4</property>
  <property name="kdenlive:folderid">12</property>
  <property name="force_reload">0</property>
  <property name="global_feed">1</property>
  <property name="meta.media.width">3840</property>
  <property name="meta.media.height">1600</property>
 </producer>
 <producer title="Anonymous Submission" id="producer10" in="00:00:00,000" out="00:00:04,920">
  <property name="length">124</property>
  <property name="eof">pause</property>
  <property name="resource"/>
  <property name="progressive">1</property>
  <property name="aspect_ratio">1</property>
  <property name="seekable">1</property>
  <property name="mlt_service">kdenlivetitle</property>
  <property name="kdenlive:duration">00:00:05,000</property>
  <property name="kdenlive:clipname">Neuer Klip (Kopie)</property>
  <property name="xmldata">&lt;kdenlivetitle duration="125" LC_NUMERIC="de_DE.UTF-8" width="3840" height="1600" out="124">
 &lt;item type="QGraphicsPixmapItem" z-index="6">
  &lt;position x="200" y="1240">
   &lt;transform>0.511976,0,0,0,0.511976,0,0,0,1&lt;/transform>
  &lt;/position>
  &lt;content url="/media/lnj/LNJ-1TB-HDD/vid/yt/DuraPhilms/SynchroRemasters/images/pva-09-wetten-dass-totenkopf-green.png"/>
 &lt;/item>
 &lt;item type="QGraphicsPixmapItem" z-index="5">
  &lt;position x="1080" y="1240">
   &lt;transform>0.511976,0,0,0,0.511976,0,0,0,1&lt;/transform>
  &lt;/position>
  &lt;content url="/media/lnj/LNJ-1TB-HDD/vid/yt/DuraPhilms/SynchroRemasters/images/pva-09-wetten-dass-totenkopf-grey.png"/>
 &lt;/item>
 &lt;item type="QGraphicsPixmapItem" z-index="4">
  &lt;position x="860" y="1240">
   &lt;transform>0.511976,0,0,0,0.511976,0,0,0,1&lt;/transform>
  &lt;/position>
  &lt;content url="/media/lnj/LNJ-1TB-HDD/vid/yt/DuraPhilms/SynchroRemasters/images/pva-09-wetten-dass-totenkopf-grey.png"/>
 &lt;/item>
 &lt;item type="QGraphicsPixmapItem" z-index="3">
  &lt;position x="640" y="1240">
   &lt;transform>0.511976,0,0,0,0.511976,0,0,0,1&lt;/transform>
  &lt;/position>
  &lt;content url="/media/lnj/LNJ-1TB-HDD/vid/yt/DuraPhilms/SynchroRemasters/images/pva-09-wetten-dass-totenkopf-grey.png"/>
 &lt;/item>
 &lt;item type="QGraphicsPixmapItem" z-index="2">
  &lt;position x="420" y="1240">
   &lt;transform>0.511976,0,0,0,0.511976,0,0,0,1&lt;/transform>
  &lt;/position>
  &lt;content url="/media/lnj/LNJ-1TB-HDD/vid/yt/DuraPhilms/SynchroRemasters/images/pva-09-wetten-dass-totenkopf-grey.png"/>
 &lt;/item>
 &lt;item type="QGraphicsRectItem" z-index="0">
  &lt;position x="180" y="1220">
   &lt;transform zoom="100">1,0,0,0,1,0,0,0,1&lt;/transform>
  &lt;/position>
  &lt;content brushcolor="0,105,204,255" pencolor="0,0,0,255" penwidth="0" rect="0,0,1180,300"/>
 &lt;/item>
 &lt;item type="QGraphicsRectItem" z-index="-1">
  &lt;position x="200" y="1240">
   &lt;transform zoom="100">1,0,0,0,1,0,0,0,1&lt;/transform>
  &lt;/position>
  &lt;content brushcolor="0,48,90,255" pencolor="0,0,0,255" penwidth="0" rect="0,0,1180,302.667"/>
 &lt;/item>
 &lt;startviewport rect="0,0,3840,1600"/>
 &lt;endviewport rect="0,0,3840,1600"/>
 &lt;background color="0,0,0,0"/>
&lt;/kdenlivetitle>
</property>
  <property name="kdenlive:id">20</property>
  <property name="kdenlive:file_hash">f8b88c737dbfdd12d64757eeaf909503</property>
  <property name="kdenlive:folderid">12</property>
  <property name="force_reload">0</property>
  <property name="global_feed">1</property>
  <property name="meta.media.width">3840</property>
  <property name="meta.media.height">1600</property>
 </producer>
 <producer title="Anonymous Submission" id="producer11" in="00:00:00,000" out="00:00:04,920">
  <property name="length">124</property>
  <property name="eof">pause</property>
  <property name="resource"/>
  <property name="progressive">1</property>
  <property name="aspect_ratio">1</property>
  <property name="seekable">1</property>
  <property name="mlt_service">kdenlivetitle</property>
  <property name="kdenlive:duration">00:00:05,000</property>
  <property name="kdenlive:clipname">Neuer Klip (Kopie) (Kopie)</property>
  <property name="xmldata">&lt;kdenlivetitle duration="125" LC_NUMERIC="de_DE.UTF-8" width="3840" height="1600" out="124">
 &lt;item type="QGraphicsPixmapItem" z-index="7">
  &lt;position x="420" y="1240">
   &lt;transform>0.511976,0,0,0,0.511976,0,0,0,1&lt;/transform>
  &lt;/position>
  &lt;content url="/media/lnj/LNJ-1TB-HDD/vid/yt/DuraPhilms/SynchroRemasters/images/pva-09-wetten-dass-totenkopf-green.png"/>
 &lt;/item>
 &lt;item type="QGraphicsPixmapItem" z-index="6">
  &lt;position x="200" y="1240">
   &lt;transform>0.511976,0,0,0,0.511976,0,0,0,1&lt;/transform>
  &lt;/position>
  &lt;content url="/media/lnj/LNJ-1TB-HDD/vid/yt/DuraPhilms/SynchroRemasters/images/pva-09-wetten-dass-totenkopf-green.png"/>
 &lt;/item>
 &lt;item type="QGraphicsPixmapItem" z-index="5">
  &lt;position x="1080" y="1240">
   &lt;transform>0.511976,0,0,0,0.511976,0,0,0,1&lt;/transform>
  &lt;/position>
  &lt;content url="/media/lnj/LNJ-1TB-HDD/vid/yt/DuraPhilms/SynchroRemasters/images/pva-09-wetten-dass-totenkopf-grey.png"/>
 &lt;/item>
 &lt;item type="QGraphicsPixmapItem" z-index="4">
  &lt;position x="860" y="1240">
   &lt;transform>0.511976,0,0,0,0.511976,0,0,0,1&lt;/transform>
  &lt;/position>
  &lt;content url="/media/lnj/LNJ-1TB-HDD/vid/yt/DuraPhilms/SynchroRemasters/images/pva-09-wetten-dass-totenkopf-grey.png"/>
 &lt;/item>
 &lt;item type="QGraphicsPixmapItem" z-index="3">
  &lt;position x="640" y="1240">
   &lt;transform>0.511976,0,0,0,0.511976,0,0,0,1&lt;/transform>
  &lt;/position>
  &lt;content url="/media/lnj/LNJ-1TB-HDD/vid/yt/DuraPhilms/SynchroRemasters/images/pva-09-wetten-dass-totenkopf-grey.png"/>
 &lt;/item>
 &lt;item type="QGraphicsRectItem" z-index="0">
  &lt;position x="180" y="1220">
   &lt;transform zoom="100">1,0,0,0,1,0,0,0,1&lt;/transform>
  &lt;/position>
  &lt;content brushcolor="0,105,204,255" pencolor="0,0,0,255" penwidth="0" rect="0,0,1180,300"/>
 &lt;/item>
 &lt;item type="QGraphicsRectItem" z-index="-1">
  &lt;position x="200" y="1240">
   &lt;transform zoom="100">1,0,0,0,1,0,0,0,1&lt;/transform>
  &lt;/position>
  &lt;content brushcolor="0,48,90,255" pencolor="0,0,0,255" penwidth="0" rect="0,0,1180,302.667"/>
 &lt;/item>
 &lt;startviewport rect="0,0,3840,1600"/>
 &lt;endviewport rect="0,0,3840,1600"/>
 &lt;background color="0,0,0,0"/>
&lt;/kdenlivetitle>
</property>
  <property name="kdenlive:id">21</property>
  <property name="kdenlive:file_hash">eebc02bccae7af38e83e6e96b40c2784</property>
  <property name="kdenlive:folderid">12</property>
  <property name="force_reload">0</property>
  <property name="global_feed">1</property>
  <property name="meta.media.width">3840</property>
  <property name="meta.media.height">1600</property>
 </producer>
 <producer title="Anonymous Submission" id="producer12" in="00:00:00,000" out="00:00:04,920">
  <property name="length">124</property>
  <property name="eof">pause</property>
  <property name="resource"/>
  <property name="progressive">1</property>
  <property name="aspect_ratio">1</property>
  <property name="seekable">1</property>
  <property name="mlt_service">kdenlivetitle</property>
  <property name="kdenlive:duration">00:00:05,000</property>
  <property name="kdenlive:clipname">Neuer Klip (Kopie) (Kopie) (Kopie)</property>
  <property name="xmldata">&lt;kdenlivetitle duration="125" LC_NUMERIC="de_DE.UTF-8" width="3840" height="1600" out="124">
 &lt;item type="QGraphicsPixmapItem" z-index="8">
  &lt;position x="640" y="1240">
   &lt;transform>0.511976,0,0,0,0.511976,0,0,0,1&lt;/transform>
  &lt;/position>
  &lt;content url="/media/lnj/LNJ-1TB-HDD/vid/yt/DuraPhilms/SynchroRemasters/images/pva-09-wetten-dass-totenkopf-green.png"/>
 &lt;/item>
 &lt;item type="QGraphicsPixmapItem" z-index="7">
  &lt;position x="420" y="1240">
   &lt;transform>0.511976,0,0,0,0.511976,0,0,0,1&lt;/transform>
  &lt;/position>
  &lt;content url="/media/lnj/LNJ-1TB-HDD/vid/yt/DuraPhilms/SynchroRemasters/images/pva-09-wetten-dass-totenkopf-green.png"/>
 &lt;/item>
 &lt;item type="QGraphicsPixmapItem" z-index="6">
  &lt;position x="200" y="1240">
   &lt;transform>0.511976,0,0,0,0.511976,0,0,0,1&lt;/transform>
  &lt;/position>
  &lt;content url="/media/lnj/LNJ-1TB-HDD/vid/yt/DuraPhilms/SynchroRemasters/images/pva-09-wetten-dass-totenkopf-green.png"/>
 &lt;/item>
 &lt;item type="QGraphicsPixmapItem" z-index="5">
  &lt;position x="1080" y="1240">
   &lt;transform>0.511976,0,0,0,0.511976,0,0,0,1&lt;/transform>
  &lt;/position>
  &lt;content url="/media/lnj/LNJ-1TB-HDD/vid/yt/DuraPhilms/SynchroRemasters/images/pva-09-wetten-dass-totenkopf-grey.png"/>
 &lt;/item>
 &lt;item type="QGraphicsPixmapItem" z-index="4">
  &lt;position x="860" y="1240">
   &lt;transform>0.511976,0,0,0,0.511976,0,0,0,1&lt;/transform>
  &lt;/position>
  &lt;content url="/media/lnj/LNJ-1TB-HDD/vid/yt/DuraPhilms/SynchroRemasters/images/pva-09-wetten-dass-totenkopf-grey.png"/>
 &lt;/item>
 &lt;item type="QGraphicsRectItem" z-index="0">
  &lt;position x="180" y="1220">
   &lt;transform zoom="100">1,0,0,0,1,0,0,0,1&lt;/transform>
  &lt;/position>
  &lt;content brushcolor="0,105,204,255" pencolor="0,0,0,255" penwidth="0" rect="0,0,1180,300"/>
 &lt;/item>
 &lt;item type="QGraphicsRectItem" z-index="-1">
  &lt;position x="200" y="1240">
   &lt;transform zoom="100">1,0,0,0,1,0,0,0,1&lt;/transform>
  &lt;/position>
  &lt;content brushcolor="0,48,90,255" pencolor="0,0,0,255" penwidth="0" rect="0,0,1180,302.667"/>
 &lt;/item>
 &lt;startviewport rect="0,0,3840,1600"/>
 &lt;endviewport rect="0,0,3840,1600"/>
 &lt;background color="0,0,0,0"/>
&lt;/kdenlivetitle>
</property>
  <property name="kdenlive:id">22</property>
  <property name="kdenlive:file_hash">066b56cbaa5101e7c5c4020771662cb8</property>
  <property name="kdenlive:folderid">12</property>
  <property name="force_reload">0</property>
  <property name="global_feed">1</property>
  <property name="meta.media.width">3840</property>
  <property name="meta.media.height">1600</property>
 </producer>
 <producer title="Anonymous Submission" id="producer13" in="00:00:00,000" out="00:00:04,920">
  <property name="length">124</property>
  <property name="eof">pause</property>
  <property name="resource"/>
  <property name="progressive">1</property>
  <property name="aspect_ratio">1</property>
  <property name="seekable">1</property>
  <property name="mlt_service">kdenlivetitle</property>
  <property name="kdenlive:duration">00:00:05,000</property>
  <property name="kdenlive:clipname">Neuer Klip (Kopie) (Kopie) (Kopie) (Kopie)</property>
  <property name="xmldata">&lt;kdenlivetitle duration="125" LC_NUMERIC="de_DE.UTF-8" width="3840" height="1600" out="124">
 &lt;item type="QGraphicsPixmapItem" z-index="9">
  &lt;position x="860" y="1240">
   &lt;transform>0.511976,0,0,0,0.511976,0,0,0,1&lt;/transform>
  &lt;/position>
  &lt;content url="/media/lnj/LNJ-1TB-HDD/vid/yt/DuraPhilms/SynchroRemasters/images/pva-09-wetten-dass-totenkopf-green.png"/>
 &lt;/item>
 &lt;item type="QGraphicsPixmapItem" z-index="8">
  &lt;position x="640" y="1240">
   &lt;transform>0.511976,0,0,0,0.511976,0,0,0,1&lt;/transform>
  &lt;/position>
  &lt;content url="/media/lnj/LNJ-1TB-HDD/vid/yt/DuraPhilms/SynchroRemasters/images/pva-09-wetten-dass-totenkopf-green.png"/>
 &lt;/item>
 &lt;item type="QGraphicsPixmapItem" z-index="7">
  &lt;position x="420" y="1240">
   &lt;transform>0.511976,0,0,0,0.511976,0,0,0,1&lt;/transform>
  &lt;/position>
  &lt;content url="/media/lnj/LNJ-1TB-HDD/vid/yt/DuraPhilms/SynchroRemasters/images/pva-09-wetten-dass-totenkopf-green.png"/>
 &lt;/item>
 &lt;item type="QGraphicsPixmapItem" z-index="6">
  &lt;position x="200" y="1240">
   &lt;transform>0.511976,0,0,0,0.511976,0,0,0,1&lt;/transform>
  &lt;/position>
  &lt;content url="/media/lnj/LNJ-1TB-HDD/vid/yt/DuraPhilms/SynchroRemasters/images/pva-09-wetten-dass-totenkopf-green.png"/>
 &lt;/item>
 &lt;item type="QGraphicsPixmapItem" z-index="5">
  &lt;position x="1080" y="1240">
   &lt;transform>0.511976,0,0,0,0.511976,0,0,0,1&lt;/transform>
  &lt;/position>
  &lt;content url="/media/lnj/LNJ-1TB-HDD/vid/yt/DuraPhilms/SynchroRemasters/images/pva-09-wetten-dass-totenkopf-grey.png"/>
 &lt;/item>
 &lt;item type="QGraphicsRectItem" z-index="0">
  &lt;position x="180" y="1220">
   &lt;transform zoom="100">1,0,0,0,1,0,0,0,1&lt;/transform>
  &lt;/position>
  &lt;content brushcolor="0,105,204,255" pencolor="0,0,0,255" penwidth="0" rect="0,0,1180,300"/>
 &lt;/item>
 &lt;item type="QGraphicsRectItem" z-index="-1">
  &lt;position x="200" y="1240">
   &lt;transform zoom="100">1,0,0,0,1,0,0,0,1&lt;/transform>
  &lt;/position>
  &lt;content brushcolor="0,48,90,255" pencolor="0,0,0,255" penwidth="0" rect="0,0,1180,302.667"/>
 &lt;/item>
 &lt;startviewport rect="0,0,3840,1600"/>
 &lt;endviewport rect="0,0,3840,1600"/>
 &lt;background color="0,0,0,0"/>
&lt;/kdenlivetitle>
</property>
  <property name="kdenlive:id">23</property>
  <property name="kdenlive:file_hash">e60c9195ea323f57f4d42d5abb58acb2</property>
  <property name="kdenlive:folderid">12</property>
  <property name="force_reload">0</property>
  <property name="global_feed">1</property>
  <property name="meta.media.width">3840</property>
  <property name="meta.media.height">1600</property>
 </producer>
 <producer id="producer14" in="00:00:00,000" out="00:00:04,920">
  <property name="length">124</property>
  <property name="eof">pause</property>
  <property name="resource"/>
  <property name="progressive">1</property>
  <property name="aspect_ratio">1</property>
  <property name="seekable">1</property>
  <property name="mlt_service">kdenlivetitle</property>
  <property name="kdenlive:duration">00:00:05,000</property>
  <property name="kdenlive:clipname">Neuer Klip (Kopie) (Kopie) (Kopie) (Kopie) (Kopie)</property>
  <property name="xmldata">&lt;kdenlivetitle duration="125" LC_NUMERIC="de_DE.UTF-8" width="3840" height="1600" out="124">
 &lt;item type="QGraphicsPixmapItem" z-index="10">
  &lt;position x="1080" y="1240">
   &lt;transform>0.511976,0,0,0,0.511976,0,0,0,1&lt;/transform>
  &lt;/position>
  &lt;content url="/media/lnj/LNJ-1TB-HDD/vid/yt/DuraPhilms/SynchroRemasters/images/pva-09-wetten-dass-totenkopf-green.png"/>
 &lt;/item>
 &lt;item type="QGraphicsPixmapItem" z-index="9">
  &lt;position x="860" y="1240">
   &lt;transform>0.511976,0,0,0,0.511976,0,0,0,1&lt;/transform>
  &lt;/position>
  &lt;content url="/media/lnj/LNJ-1TB-HDD/vid/yt/DuraPhilms/SynchroRemasters/images/pva-09-wetten-dass-totenkopf-green.png"/>
 &lt;/item>
 &lt;item type="QGraphicsPixmapItem" z-index="8">
  &lt;position x="640" y="1240">
   &lt;transform>0.511976,0,0,0,0.511976,0,0,0,1&lt;/transform>
  &lt;/position>
  &lt;content url="/media/lnj/LNJ-1TB-HDD/vid/yt/DuraPhilms/SynchroRemasters/images/pva-09-wetten-dass-totenkopf-green.png"/>
 &lt;/item>
 &lt;item type="QGraphicsPixmapItem" z-index="7">
  &lt;position x="420" y="1240">
   &lt;transform>0.511976,0,0,0,0.511976,0,0,0,1&lt;/transform>
  &lt;/position>
  &lt;content url="/media/lnj/LNJ-1TB-HDD/vid/yt/DuraPhilms/SynchroRemasters/images/pva-09-wetten-dass-totenkopf-green.png"/>
 &lt;/item>
 &lt;item type="QGraphicsPixmapItem" z-index="6">
  &lt;position x="200" y="1240">
   &lt;transform>0.511976,0,0,0,0.511976,0,0,0,1&lt;/transform>
  &lt;/position>
  &lt;content url="/media/lnj/LNJ-1TB-HDD/vid/yt/DuraPhilms/SynchroRemasters/images/pva-09-wetten-dass-totenkopf-green.png"/>
 &lt;/item>
 &lt;item type="QGraphicsRectItem" z-index="0">
  &lt;position x="180" y="1220">
   &lt;transform zoom="100">1,0,0,0,1,0,0,0,1&lt;/transform>
  &lt;/position>
  &lt;content brushcolor="0,105,204,255" pencolor="0,0,0,255" penwidth="0" rect="0,0,1180,300"/>
 &lt;/item>
 &lt;item type="QGraphicsRectItem" z-index="-1">
  &lt;position x="200" y="1240">
   &lt;transform zoom="100">1,0,0,0,1,0,0,0,1&lt;/transform>
  &lt;/position>
  &lt;content brushcolor="0,48,90,255" pencolor="0,0,0,255" penwidth="0" rect="0,0,1180,302.667"/>
 &lt;/item>
 &lt;startviewport rect="0,0,3840,1600"/>
 &lt;endviewport rect="0,0,3840,1600"/>
 &lt;background color="0,0,0,0"/>
&lt;/kdenlivetitle>
</property>
  <property name="kdenlive:id">24</property>
  <property name="kdenlive:file_hash">a10e5433d5f0acdc0b136197375603c0</property>
  <property name="kdenlive:folderid">12</property>
  <property name="force_reload">0</property>
  <property name="global_feed">1</property>
  <property name="meta.media.width">3840</property>
  <property name="meta.media.height">1600</property>
 </producer>
 <producer id="producer17" in="00:00:00,000" out="00:00:04,960">
  <property name="length">125</property>
  <property name="eof">pause</property>
  <property name="resource"/>
  <property name="progressive">1</property>
  <property name="aspect_ratio">1</property>
  <property name="seekable">1</property>
  <property name="mlt_service">kdenlivetitle</property>
  <property name="kdenlive:duration">125</property>
  <property name="kdenlive:clipname">Excuse me, WTF</property>
  <property name="xmldata">&lt;kdenlivetitle duration="125" LC_NUMERIC="de_DE.UTF-8" width="3840" height="1600" out="124">
 &lt;item type="QGraphicsTextItem" z-index="3">
  &lt;position x="1484" y="336">
   &lt;transform>1,0,0,0,1,0,0,0,1&lt;/transform>
  &lt;/position>
  &lt;content line-spacing="0" shadow="0;#64000000;3;3;3" font-underline="0" box-height="131" font-outline-color="0,0,0,255" font="Harry P" letter-spacing="0" font-pixel-size="130" font-italic="0" alignment="1" font-weight="50" font-outline="0" box-width="57.5781" font-color="255,119,2,255">?&lt;/content>
 &lt;/item>
 &lt;item type="QGraphicsTextItem" z-index="2">
  &lt;position x="1419" y="279">
   &lt;transform>1,0,0,0,1,0,0,0,1&lt;/transform>
  &lt;/position>
  &lt;content line-spacing="0" shadow="0;#64000000;3;3;3" font-underline="0" box-height="171" font-outline-color="0,0,0,255" font="Harry P" letter-spacing="0" font-pixel-size="170" font-italic="0" alignment="1" font-weight="50" font-outline="0" box-width="47.4219" font-color="255,119,2,255">^&lt;/content>
 &lt;/item>
 &lt;item type="QGraphicsTextItem" z-index="1">
  &lt;position x="1431" y="274">
   &lt;transform>1,0,0,0,1,0,0,0,1&lt;/transform>
  &lt;/position>
  &lt;content line-spacing="0" shadow="0;#64000000;3;3;3" font-underline="0" box-height="131" font-outline-color="0,0,0,255" font="Harry P" letter-spacing="0" font-pixel-size="130" font-italic="0" alignment="1" font-weight="50" font-outline="0" box-width="28.375" font-color="255,119,2,255">I&lt;/content>
 &lt;/item>
 &lt;startviewport rect="0,0,3840,1600"/>
 &lt;endviewport rect="0,0,3840,1600"/>
 &lt;background color="0,0,0,0"/>
&lt;/kdenlivetitle>
</property>
  <property name="kdenlive:id">15</property>
  <property name="kdenlive:file_hash">895a5edd90c0aaa3bfaf6729277e83af</property>
  <property name="kdenlive:folderid">-1</property>
  <property name="force_reload">0</property>
  <property name="meta.media.width">3840</property>
  <property name="meta.media.height">1600</property>
 </producer>
 <producer id="producer18" in="00:00:00,000" out="00:00:11,760">
  <property name="length">295</property>
  <property name="eof">pause</property>
  <property name="resource">/media/lnj/LNJ-1TB-HDD/vid/yt/DuraPhilms/SynchroRemasters/images/seelsorge_mit_arnolf_huetler.relief.png</property>
  <property name="ttl">25</property>
  <property name="aspect_ratio">1</property>
  <property name="progressive">1</property>
  <property name="seekable">1</property>
  <property name="meta.media.width">3840</property>
  <property name="meta.media.height">1600</property>
  <property name="mlt_service">qimage</property>
  <property name="kdenlive:clipname"/>
  <property name="kdenlive:duration">00:00:05,000</property>
  <property name="kdenlive:id">17</property>
  <property name="kdenlive:file_size">1566961</property>
  <property name="kdenlive:file_hash">fd5c3ef2f1f1d00c850ec1fe101b4c21</property>
  <property name="kdenlive:folderid">-1</property>
  <property name="global_feed">1</property>
 </producer>
 <producer id="producer16" in="00:00:00,000" out="00:00:04,960">
  <property name="length">125</property>
  <property name="eof">pause</property>
  <property name="resource"/>
  <property name="progressive">1</property>
  <property name="aspect_ratio">1</property>
  <property name="seekable">1</property>
  <property name="mlt_service">kdenlivetitle</property>
  <property name="kdenlive:duration">00:00:01,480</property>
  <property name="kdenlive:clipname">4K-Remaster ...</property>
  <property name="xmldata">&lt;kdenlivetitle duration="37" LC_NUMERIC="de_DE.UTF-8" width="3840" height="1600" out="36">
 &lt;item type="QGraphicsTextItem" z-index="0">
  &lt;position x="1504" y="754">
   &lt;transform>1,0,0,0,1,0,0,0,1&lt;/transform>
  &lt;/position>
  &lt;content line-spacing="0" shadow="0;#64000000;3;3;3" font-underline="0" box-height="91" font="Harry P" letter-spacing="0" font-pixel-size="90" font-italic="0" alignment="1" font-weight="50" box-width="831.688" font-color="252,149,4,255">4K-Remaster von LNJ, 2019&lt;/content>
 &lt;/item>
 &lt;startviewport rect="0,0,3840,1600"/>
 &lt;endviewport rect="0,0,3840,1600"/>
 &lt;background color="0,0,0,0"/>
&lt;/kdenlivetitle>
</property>
  <property name="kdenlive:id">13</property>
  <property name="kdenlive:file_hash">7be3f20369cada3d1986dd3969fac128</property>
  <property name="kdenlive:folderid">-1</property>
  <property name="force_reload">0</property>
  <property name="global_feed">1</property>
  <property name="meta.media.width">3840</property>
  <property name="meta.media.height">1600</property>
 </producer>
 <playlist id="main_bin">
  <property name="kdenlive:folder.-1.12">wetten-dass</property>
  <property name="kdenlive:docproperties.activeTrack">4</property>
  <property name="kdenlive:docproperties.audioTarget">-1</property>
  <property name="kdenlive:docproperties.decimalPoint">,</property>
  <property name="kdenlive:docproperties.dirtypreviewchunks">15775,15800,15825,15850,15725,15750,14550,14575,14600,14625,14650,14675,14700,14725,14750,14775,14800,14825,14850,14875,14900,14925,14950,14975,15000,15025,15050,15075,15100,15125,15150,15175,15700</property>
  <property name="kdenlive:docproperties.disablepreview">0</property>
  <property name="kdenlive:docproperties.documentid">1564839246534</property>
  <property name="kdenlive:docproperties.enableTimelineZone">0</property>
  <property name="kdenlive:docproperties.enableexternalproxy">0</property>
  <property name="kdenlive:docproperties.enableproxy">1</property>
  <property name="kdenlive:docproperties.externalproxyparams"/>
  <property name="kdenlive:docproperties.generateimageproxy">0</property>
  <property name="kdenlive:docproperties.generateproxy">1</property>
  <property name="kdenlive:docproperties.groups">[
    {
        "children": [
            {
                "data": "2:0",
                "leaf": "clip",
                "type": "Leaf"
            },
            {
                "data": "1:0",
                "leaf": "clip",
                "type": "Leaf"
            }
        ],
        "type": "AVSplit"
    }
]
</property>
  <property name="kdenlive:docproperties.kdenliveversion">19.08.1</property>
  <property name="kdenlive:docproperties.position">16299</property>
  <property name="kdenlive:docproperties.previewchunks"/>
  <property name="kdenlive:docproperties.previewextension">avi</property>
  <property name="kdenlive:docproperties.previewparameters">f=avi vcodec=mjpeg progressive=1 qscale=1</property>
  <property name="kdenlive:docproperties.profile">/home/lnj/.local/share/kdenlive/profiles/customprofile0</property>
  <property name="kdenlive:docproperties.proxyextension">mov</property>
  <property name="kdenlive:docproperties.proxyimageminsize">2000</property>
  <property name="kdenlive:docproperties.proxyimagesize">800</property>
  <property name="kdenlive:docproperties.proxyminsize">2000</property>
  <property name="kdenlive:docproperties.proxyparams">-vf scale=1024:-2 -vcodec libx264 -g 1 -bf 0 -vb 0 -crf 20 -preset veryfast -acodec aac -ab 128k</property>
  <property name="kdenlive:docproperties.renderaudioquality">7</property>
  <property name="kdenlive:docproperties.rendercategory">Ultra-High Definition (4K)</property>
  <property name="kdenlive:docproperties.renderendguide">-1</property>
  <property name="kdenlive:docproperties.renderexportaudio">0</property>
  <property name="kdenlive:docproperties.renderfield">0</property>
  <property name="kdenlive:docproperties.renderguide">0</property>
  <property name="kdenlive:docproperties.renderplay">0</property>
  <property name="kdenlive:docproperties.renderprofile">WebM-VP9</property>
  <property name="kdenlive:docproperties.renderquality">18</property>
  <property name="kdenlive:docproperties.renderratio">1</property>
  <property name="kdenlive:docproperties.renderrescale">0</property>
  <property name="kdenlive:docproperties.renderrescaleheight">800</property>
  <property name="kdenlive:docproperties.renderrescalewidth">1920</property>
  <property name="kdenlive:docproperties.renderscanning">0</property>
  <property name="kdenlive:docproperties.renderspeed">2</property>
  <property name="kdenlive:docproperties.renderstartguide">-1</property>
  <property name="kdenlive:docproperties.rendertcoverlay">0</property>
  <property name="kdenlive:docproperties.rendertctype">0</property>
  <property name="kdenlive:docproperties.rendertwopass">0</property>
  <property name="kdenlive:docproperties.renderurl">/home/lnj/HPudPvA_09_Remastered.2160p.webm</property>
  <property name="kdenlive:docproperties.renderzone">0</property>
  <property name="kdenlive:docproperties.scrollPos">0</property>
  <property name="kdenlive:docproperties.seekOffset">30000</property>
  <property name="kdenlive:docproperties.version">0.99</property>
  <property name="kdenlive:docproperties.verticalzoom">1</property>
  <property name="kdenlive:docproperties.videoTarget">-1</property>
  <property name="kdenlive:docproperties.zonein">15714</property>
  <property name="kdenlive:docproperties.zoneout">15869</property>
  <property name="kdenlive:docproperties.zoom">12</property>
  <property name="kdenlive:docmetadata.meta.attr.author.markup">Duraphilms</property>
  <property name="kdenlive:docmetadata.meta.attr.title.markup">Harry Potter und der Penner von Alcatraz Teil 9</property>
  <property name="kdenlive:docmetadata.meta.attr.year.markup">2010 (2019 4k-Remastered)</property>
  <property name="kdenlive:documentnotes"/>
  <property name="xml_retain">1</property>
  <entry producer="producer0" in="00:00:00,000" out="00:10:55,560"/>
  <entry producer="producer1" in="00:00:00,000" out="00:00:06,960"/>
  <entry producer="producer4" in="00:00:00,000" out="00:00:11,800"/>
  <entry producer="producer6" in="00:00:00,000" out="00:00:00,960"/>
  <entry producer="producer8" in="00:00:00,000" out="00:00:07,760"/>
  <entry producer="producer2" in="00:00:00,000" out="00:00:37,720"/>
  <entry producer="producer3" in="00:00:00,000" out="00:00:05,800"/>
  <entry producer="producer7" in="00:00:00,000" out="00:00:07,760"/>
  <entry producer="producer15" in="00:00:00,000" out="00:09:40,880"/>
  <entry producer="producer9" in="00:00:00,000" out="00:00:04,920"/>
  <entry producer="producer10" in="00:00:00,000" out="00:00:04,920"/>
  <entry producer="producer11" in="00:00:00,000" out="00:00:04,920"/>
  <entry producer="producer12" in="00:00:00,000" out="00:00:04,920"/>
  <entry producer="producer13" in="00:00:00,000" out="00:00:04,920"/>
  <entry producer="producer14" in="00:00:00,000" out="00:00:04,920"/>
  <entry producer="producer17" in="00:00:00,000" out="00:00:04,960"/>
  <entry producer="producer18" in="00:00:00,000" out="00:00:11,760"/>
  <entry producer="producer16" in="00:00:00,000" out="00:00:04,960"/>
 </playlist>
 <producer id="black_track" in="00:00:00,000" out="00:30:55,800">
  <property name="length">2147483647</property>
  <property name="eof">continue</property>
  <property name="resource">black</property>
  <property name="aspect_ratio">1</property>
  <property name="mlt_service">color</property>
  <property name="set.test_audio">0</property>
 </producer>
 <playlist id="playlist0">
  <property name="kdenlive:audio_track">1</property>
 </playlist>
 <playlist id="playlist1">
  <property name="kdenlive:audio_track">1</property>
 </playlist>
 <tractor id="tractor0" in="00:00:00,000">
  <property name="kdenlive:audio_track">1</property>
  <property name="kdenlive:trackheight">31</property>
  <property name="kdenlive:collapsed">0</property>
  <property name="kdenlive:thumbs_format"/>
  <property name="kdenlive:audio_rec"/>
  <track hide="video" producer="playlist0"/>
  <track hide="video" producer="playlist1"/>
 </tractor>
 <producer title="Anonymous Submission" id="producer5" in="00:00:00,000" out="00:00:06,960">
  <property name="length">175</property>
  <property name="eof">pause</property>
  <property name="resource">/media/lnj/LNJ-1TB-HDD/vid/yt/DuraPhilms/SynchroRemasters/videos/HPudPvA_Intro_1080Rmk.mp4</property>
  <property name="audio_index">1</property>
  <property name="video_index">0</property>
  <property name="mute_on_pause">1</property>
  <property name="mlt_service">avformat-novalidate</property>
  <property name="seekable">1</property>
  <property name="aspect_ratio">1</property>
  <property name="kdenlive:clipname">HPudPvA_Intro_1080Rmk.mp4</property>
  <property name="kdenlive:id">4</property>
  <property name="kdenlive:file_size">3027348</property>
  <property name="kdenlive:file_hash">15d1fd6e5cc38bbc7f98ba7a7eee56ea</property>
  <property name="kdenlive:folderid">-1</property>
  <property name="kdenlive:proxy">-</property>
  <property name="kdenlive:originalurl">/media/lnj/LNJ-1TB-HDD/vid/yt/DuraPhilms/SynchroRemasters/videos/HPudPvA_Intro_1080Rmk.mp4</property>
  <property name="kdenlive:original.mlt_type">producer</property>
  <property name="kdenlive:original.in">0</property>
  <property name="kdenlive:original.out">174</property>
  <property name="kdenlive:original.length">175</property>
  <property name="kdenlive:original.eof">pause</property>
  <property name="kdenlive:original.resource">/media/lnj/LNJ-1TB-HDD/vid/yt/DuraPhilms/SynchroRemasters/videos/HPudPvA_Intro_1080Rmk.mp4</property>
  <property name="kdenlive:original.meta.media.nb_streams">2</property>
  <property name="kdenlive:original.meta.media.0.stream.type">video</property>
  <property name="kdenlive:original.meta.media.0.stream.frame_rate">25</property>
  <property name="kdenlive:original.meta.media.0.stream.sample_aspect_ratio">1</property>
  <property name="kdenlive:original.meta.media.0.codec.width">1920</property>
  <property name="kdenlive:original.meta.media.0.codec.height">1080</property>
  <property name="kdenlive:original.meta.media.0.codec.rotate">0</property>
  <property name="kdenlive:original.meta.media.0.codec.frame_rate">25</property>
  <property name="kdenlive:original.meta.media.0.codec.pix_fmt">yuv420p</property>
  <property name="kdenlive:original.meta.media.0.codec.sample_aspect_ratio">1</property>
  <property name="kdenlive:original.meta.media.0.codec.colorspace">709</property>
  <property name="kdenlive:original.meta.media.0.codec.color_trc">1</property>
  <property name="kdenlive:original.meta.media.0.codec.name">h264</property>
  <property name="kdenlive:original.meta.media.0.codec.long_name">H.264 / AVC / MPEG-4 AVC / MPEG-4 part 10</property>
  <property name="kdenlive:original.meta.media.0.codec.bit_rate">3275175</property>
  <property name="kdenlive:original.meta.attr.0.stream.handler_name.markup">VideoHandler</property>
  <property name="kdenlive:original.meta.media.1.stream.type">audio</property>
  <property name="kdenlive:original.meta.media.1.codec.sample_fmt">fltp</property>
  <property name="kdenlive:original.meta.media.1.codec.sample_rate">48000</property>
  <property name="kdenlive:original.meta.media.1.codec.channels">2</property>
  <property name="kdenlive:original.meta.media.1.codec.name">aac</property>
  <property name="kdenlive:original.meta.media.1.codec.long_name">AAC (Advanced Audio Coding)</property>
  <property name="kdenlive:original.meta.media.1.codec.bit_rate">195945</property>
  <property name="kdenlive:original.meta.attr.1.stream.handler_name.markup">SoundHandler</property>
  <property name="kdenlive:original.meta.attr.major_brand.markup">isom</property>
  <property name="kdenlive:original.meta.attr.minor_version.markup">512</property>
  <property name="kdenlive:original.meta.attr.compatible_brands.markup">isomiso2avc1mp41</property>
  <property name="kdenlive:original.meta.attr.encoder.markup">Lavf57.56.101</property>
  <property name="kdenlive:original.seekable">1</property>
  <property name="kdenlive:original.width">1920</property>
  <property name="kdenlive:original.height">1080</property>
  <property name="kdenlive:original.meta.media.sample_aspect_num">1</property>
  <property name="kdenlive:original.meta.media.sample_aspect_den">1</property>
  <property name="kdenlive:original.aspect_ratio">1</property>
  <property name="kdenlive:original.audio_index">1</property>
  <property name="kdenlive:original.video_index">0</property>
  <property name="kdenlive:original.mute_on_pause">1</property>
  <property name="kdenlive:original.mlt_service">avformat-novalidate</property>
  <property name="kdenlive:original.meta.media.frame_rate_num">25</property>
  <property name="kdenlive:original.meta.media.frame_rate_den">1</property>
  <property name="kdenlive:original.meta.media.colorspace">709</property>
  <property name="kdenlive:original.meta.media.color_trc">1</property>
  <property name="kdenlive:original.meta.media.width">1920</property>
  <property name="kdenlive:original.meta.media.height">1080</property>
  <property name="kdenlive:original.kdenlive:id">4</property>
  <property name="kdenlive:original.kdenlive:file_size">3027348</property>
  <property name="kdenlive:original.kdenlive:file_hash">15d1fd6e5cc38bbc7f98ba7a7eee56ea</property>
  <property name="kdenlive:original.kdenlive:folderid">-1</property>
  <property name="kdenlive:original.backup">1</property>
  <property name="global_feed">1</property>
  <property name="xml">was here</property>
  <property name="meta.media.nb_streams">2</property>
  <property name="meta.media.0.stream.type">video</property>
  <property name="meta.media.0.stream.frame_rate">25</property>
  <property name="meta.media.0.stream.sample_aspect_ratio">1</property>
  <property name="meta.media.0.codec.width">1920</property>
  <property name="meta.media.0.codec.height">1080</property>
  <property name="meta.media.0.codec.rotate">0</property>
  <property name="meta.media.0.codec.frame_rate">25</property>
  <property name="meta.media.0.codec.pix_fmt">yuv420p</property>
  <property name="meta.media.0.codec.sample_aspect_ratio">1</property>
  <property name="meta.media.0.codec.colorspace">709</property>
  <property name="meta.media.0.codec.name">h264</property>
  <property name="meta.media.0.codec.long_name">H.264 / AVC / MPEG-4 AVC / MPEG-4 part 10</property>
  <property name="meta.media.0.codec.bit_rate">3275175</property>
  <property name="meta.attr.0.stream.HANDLER_NAME.markup">VideoHandler</property>
  <property name="meta.attr.0.stream.ENCODER.markup">Lavc58.35.100 libx264</property>
  <property name="meta.attr.0.stream.DURATION.markup">00:00:06.981000000</property>
  <property name="meta.media.1.stream.type">audio</property>
  <property name="meta.media.1.codec.sample_fmt">fltp</property>
  <property name="meta.media.1.codec.sample_rate">48000</property>
  <property name="meta.media.1.codec.channels">2</property>
  <property name="meta.media.1.codec.name">aac</property>
  <property name="meta.media.1.codec.long_name">AAC (Advanced Audio Coding)</property>
  <property name="meta.media.1.codec.bit_rate">195945</property>
  <property name="meta.attr.1.stream.HANDLER_NAME.markup">SoundHandler</property>
  <property name="meta.attr.1.stream.ENCODER.markup">Lavc58.35.100 aac</property>
  <property name="meta.attr.1.stream.DURATION.markup">00:00:06.997000000</property>
  <property name="meta.attr.COMPATIBLE_BRANDS.markup">isomiso2avc1mp41</property>
  <property name="meta.attr.MAJOR_BRAND.markup">isom</property>
  <property name="meta.attr.MINOR_VERSION.markup">512</property>
  <property name="meta.attr.ENCODER.markup">Lavf58.20.100</property>
  <property name="meta.media.sample_aspect_num">1</property>
  <property name="meta.media.sample_aspect_den">1</property>
  <property name="meta.media.frame_rate_num">25</property>
  <property name="meta.media.frame_rate_den">1</property>
  <property name="meta.media.colorspace">709</property>
  <property name="meta.media.color_trc">1</property>
  <property name="meta.media.width">1920</property>
  <property name="meta.media.height">1080</property>
  <property name="meta.media.top_field_first">0</property>
  <property name="meta.media.progressive">1</property>
  <property name="meta.media.0.codec.color_trc">1</property>
  <property name="meta.attr.0.stream.handler_name.markup">VideoHandler</property>
  <property name="meta.attr.1.stream.handler_name.markup">SoundHandler</property>
  <property name="meta.attr.major_brand.markup">isom</property>
  <property name="meta.attr.minor_version.markup">512</property>
  <property name="meta.attr.compatible_brands.markup">isomiso2avc1mp41</property>
  <property name="meta.attr.encoder.markup">Lavf57.56.101</property>
  <property name="meta.media.color_range">mpeg</property>
  <property name="set.test_audio">0</property>
  <property name="set.test_image">1</property>
 </producer>
 <producer title="Anonymous Submission" id="producer19" in="00:00:00,000" out="00:10:55,560">
  <property name="length">16390</property>
  <property name="eof">pause</property>
  <property name="resource">/media/lnj/LNJ-1TB-HDD/vid/yt/DuraPhilms/SynchroRemasters/videos/PvA-09.mp4</property>
  <property name="audio_index">1</property>
  <property name="video_index">0</property>
  <property name="mute_on_pause">1</property>
  <property name="mlt_service">avformat-novalidate</property>
  <property name="seekable">1</property>
  <property name="aspect_ratio">1</property>
  <property name="kdenlive:clipname"/>
  <property name="kdenlive:id">3</property>
  <property name="kdenlive:file_size">139178296</property>
  <property name="kdenlive:file_hash">3e16487f4c98cfa0b5bd2bbd22992b33</property>
  <property name="kdenlive:folderid">-1</property>
  <property name="kdenlive:proxy">-</property>
  <property name="kdenlive:originalurl">/media/lnj/LNJ-1TB-HDD/vid/yt/DuraPhilms/SynchroRemasters/videos/PvA-09.mp4</property>
  <property name="kdenlive:original.mlt_type">producer</property>
  <property name="kdenlive:original.in">0</property>
  <property name="kdenlive:original.out">16389</property>
  <property name="kdenlive:original.length">16390</property>
  <property name="kdenlive:original.eof">pause</property>
  <property name="kdenlive:original.resource">/media/lnj/LNJ-1TB-HDD/vid/yt/DuraPhilms/SynchroRemasters/videos/PvA-09.mp4</property>
  <property name="kdenlive:original.meta.media.nb_streams">2</property>
  <property name="kdenlive:original.meta.media.0.stream.type">video</property>
  <property name="kdenlive:original.meta.media.0.stream.frame_rate">23,976</property>
  <property name="kdenlive:original.meta.media.0.stream.sample_aspect_ratio">0</property>
  <property name="kdenlive:original.meta.media.0.codec.width">1280</property>
  <property name="kdenlive:original.meta.media.0.codec.height">720</property>
  <property name="kdenlive:original.meta.media.0.codec.rotate">0</property>
  <property name="kdenlive:original.meta.media.0.codec.frame_rate">23,976</property>
  <property name="kdenlive:original.meta.media.0.codec.pix_fmt">yuv420p</property>
  <property name="kdenlive:original.meta.media.0.codec.sample_aspect_ratio">1</property>
  <property name="kdenlive:original.meta.media.0.codec.colorspace">709</property>
  <property name="kdenlive:original.meta.media.0.codec.color_trc">1</property>
  <property name="kdenlive:original.meta.media.0.codec.name">h264</property>
  <property name="kdenlive:original.meta.media.0.codec.long_name">H.264 / AVC / MPEG-4 AVC / MPEG-4 part 10</property>
  <property name="kdenlive:original.meta.media.0.codec.bit_rate">1533361</property>
  <property name="kdenlive:original.meta.attr.0.stream.handler_name.markup">VideoHandler</property>
  <property name="kdenlive:original.meta.media.1.stream.type">audio</property>
  <property name="kdenlive:original.meta.media.1.codec.sample_fmt">fltp</property>
  <property name="kdenlive:original.meta.media.1.codec.sample_rate">48000</property>
  <property name="kdenlive:original.meta.media.1.codec.channels">2</property>
  <property name="kdenlive:original.meta.media.1.codec.name">mp3float</property>
  <property name="kdenlive:original.meta.media.1.codec.long_name">MP3 (MPEG audio layer 3)</property>
  <property name="kdenlive:original.meta.media.1.codec.bit_rate">158679</property>
  <property name="kdenlive:original.meta.attr.1.stream.language.markup">deu</property>
  <property name="kdenlive:original.meta.attr.1.stream.handler_name.markup">Stereo</property>
  <property name="kdenlive:original.meta.attr.major_brand.markup">mp42</property>
  <property name="kdenlive:original.meta.attr.minor_version.markup">512</property>
  <property name="kdenlive:original.meta.attr.compatible_brands.markup">isomiso2avc1mp41</property>
  <property name="kdenlive:original.meta.attr.encoder.markup">HandBrake 6548svn 2014112401</property>
  <property name="kdenlive:original.meta.attr.title.markup">Harry Potter und der Penner von Alcatraz Teil 9</property>
  <property name="kdenlive:original.seekable">1</property>
  <property name="kdenlive:original.width">1280</property>
  <property name="kdenlive:original.height">720</property>
  <property name="kdenlive:original.meta.media.sample_aspect_num">1</property>
  <property name="kdenlive:original.meta.media.sample_aspect_den">1</property>
  <property name="kdenlive:original.aspect_ratio">1</property>
  <property name="kdenlive:original.audio_index">1</property>
  <property name="kdenlive:original.video_index">0</property>
  <property name="kdenlive:original.mute_on_pause">1</property>
  <property name="kdenlive:original.mlt_service">avformat-novalidate</property>
  <property name="kdenlive:original.meta.media.frame_rate_num">707310000</property>
  <property name="kdenlive:original.meta.media.frame_rate_den">29500721</property>
  <property name="kdenlive:original.meta.media.colorspace">709</property>
  <property name="kdenlive:original.meta.media.color_trc">1</property>
  <property name="kdenlive:original.meta.media.width">1280</property>
  <property name="kdenlive:original.meta.media.height">720</property>
  <property name="kdenlive:original.kdenlive:id">3</property>
  <property name="kdenlive:original.kdenlive:file_size">139178296</property>
  <property name="kdenlive:original.kdenlive:file_hash">3e16487f4c98cfa0b5bd2bbd22992b33</property>
  <property name="kdenlive:original.kdenlive:folderid">-1</property>
  <property name="kdenlive:original.backup">1</property>
  <property name="global_feed">1</property>
  <property name="xml">was here</property>
  <property name="meta.media.nb_streams">2</property>
  <property name="meta.media.0.stream.type">video</property>
  <property name="meta.media.0.stream.frame_rate">23,976</property>
  <property name="meta.media.0.stream.sample_aspect_ratio">0</property>
  <property name="meta.media.0.codec.width">1280</property>
  <property name="meta.media.0.codec.height">720</property>
  <property name="meta.media.0.codec.rotate">0</property>
  <property name="meta.media.0.codec.frame_rate">23,976</property>
  <property name="meta.media.0.codec.pix_fmt">yuv420p</property>
  <property name="meta.media.0.codec.sample_aspect_ratio">1</property>
  <property name="meta.media.0.codec.colorspace">709</property>
  <property name="meta.media.0.codec.color_trc">1</property>
  <property name="meta.media.0.codec.name">h264</property>
  <property name="meta.media.0.codec.long_name">H.264 / AVC / MPEG-4 AVC / MPEG-4 part 10</property>
  <property name="meta.media.0.codec.bit_rate">1533361</property>
  <property name="meta.attr.0.stream.handler_name.markup">VideoHandler</property>
  <property name="meta.media.1.stream.type">audio</property>
  <property name="meta.media.1.codec.sample_fmt">fltp</property>
  <property name="meta.media.1.codec.sample_rate">48000</property>
  <property name="meta.media.1.codec.channels">2</property>
  <property name="meta.media.1.codec.name">mp3float</property>
  <property name="meta.media.1.codec.long_name">MP3 (MPEG audio layer 3)</property>
  <property name="meta.media.1.codec.bit_rate">158679</property>
  <property name="meta.attr.1.stream.language.markup">deu</property>
  <property name="meta.attr.1.stream.handler_name.markup">Stereo</property>
  <property name="meta.attr.major_brand.markup">mp42</property>
  <property name="meta.attr.minor_version.markup">512</property>
  <property name="meta.attr.compatible_brands.markup">isomiso2avc1mp41</property>
  <property name="meta.attr.encoder.markup">HandBrake 6548svn 2014112401</property>
  <property name="meta.attr.title.markup">Harry Potter und der Penner von Alcatraz Teil 9</property>
  <property name="meta.media.sample_aspect_num">1</property>
  <property name="meta.media.sample_aspect_den">1</property>
  <property name="meta.media.frame_rate_num">707310000</property>
  <property name="meta.media.frame_rate_den">29500721</property>
  <property name="meta.media.colorspace">709</property>
  <property name="meta.media.color_trc">1</property>
  <property name="meta.media.width">1280</property>
  <property name="meta.media.height">720</property>
  <property name="meta.media.top_field_first">0</property>
  <property name="meta.media.progressive">1</property>
  <property name="meta.media.color_range">mpeg</property>
  <property name="set.test_audio">0</property>
  <property name="set.test_image">1</property>
 </producer>
 <playlist id="playlist2">
  <property name="kdenlive:audio_track">1</property>
  <entry producer="producer5" in="00:00:00,000" out="00:00:06,960">
   <property name="kdenlive:id">4</property>
  </entry>
  <entry producer="producer19" in="00:00:07,400" out="00:10:55,560">
   <property name="kdenlive:id">3</property>
  </entry>
 </playlist>
 <playlist id="playlist3">
  <property name="kdenlive:audio_track">1</property>
 </playlist>
 <tractor id="tractor1" in="00:00:00,000" out="00:10:55,160">
  <property name="kdenlive:audio_track">1</property>
  <property name="kdenlive:trackheight">60</property>
  <property name="kdenlive:collapsed">0</property>
  <property name="kdenlive:thumbs_format"/>
  <property name="kdenlive:audio_rec"/>
  <track hide="video" producer="playlist2"/>
  <track hide="video" producer="playlist3"/>
 </tractor>
 <producer title="Anonymous Submission" id="producer20" in="00:00:00,000" out="00:00:06,960">
  <property name="length">175</property>
  <property name="eof">pause</property>
  <property name="resource">/media/lnj/LNJ-1TB-HDD/vid/yt/DuraPhilms/SynchroRemasters/videos/HPudPvA_Intro_1080Rmk.mp4</property>
  <property name="audio_index">1</property>
  <property name="video_index">0</property>
  <property name="mute_on_pause">1</property>
  <property name="mlt_service">avformat-novalidate</property>
  <property name="seekable">1</property>
  <property name="aspect_ratio">1</property>
  <property name="kdenlive:clipname">HPudPvA_Intro_1080Rmk.mp4</property>
  <property name="kdenlive:id">4</property>
  <property name="kdenlive:file_size">3027348</property>
  <property name="kdenlive:file_hash">15d1fd6e5cc38bbc7f98ba7a7eee56ea</property>
  <property name="kdenlive:folderid">-1</property>
  <property name="kdenlive:proxy">-</property>
  <property name="kdenlive:originalurl">/media/lnj/LNJ-1TB-HDD/vid/yt/DuraPhilms/SynchroRemasters/videos/HPudPvA_Intro_1080Rmk.mp4</property>
  <property name="kdenlive:original.mlt_type">producer</property>
  <property name="kdenlive:original.in">0</property>
  <property name="kdenlive:original.out">174</property>
  <property name="kdenlive:original.length">175</property>
  <property name="kdenlive:original.eof">pause</property>
  <property name="kdenlive:original.resource">/media/lnj/LNJ-1TB-HDD/vid/yt/DuraPhilms/SynchroRemasters/videos/HPudPvA_Intro_1080Rmk.mp4</property>
  <property name="kdenlive:original.meta.media.nb_streams">2</property>
  <property name="kdenlive:original.meta.media.0.stream.type">video</property>
  <property name="kdenlive:original.meta.media.0.stream.frame_rate">25</property>
  <property name="kdenlive:original.meta.media.0.stream.sample_aspect_ratio">1</property>
  <property name="kdenlive:original.meta.media.0.codec.width">1920</property>
  <property name="kdenlive:original.meta.media.0.codec.height">1080</property>
  <property name="kdenlive:original.meta.media.0.codec.rotate">0</property>
  <property name="kdenlive:original.meta.media.0.codec.frame_rate">25</property>
  <property name="kdenlive:original.meta.media.0.codec.pix_fmt">yuv420p</property>
  <property name="kdenlive:original.meta.media.0.codec.sample_aspect_ratio">1</property>
  <property name="kdenlive:original.meta.media.0.codec.colorspace">709</property>
  <property name="kdenlive:original.meta.media.0.codec.color_trc">1</property>
  <property name="kdenlive:original.meta.media.0.codec.name">h264</property>
  <property name="kdenlive:original.meta.media.0.codec.long_name">H.264 / AVC / MPEG-4 AVC / MPEG-4 part 10</property>
  <property name="kdenlive:original.meta.media.0.codec.bit_rate">3275175</property>
  <property name="kdenlive:original.meta.attr.0.stream.handler_name.markup">VideoHandler</property>
  <property name="kdenlive:original.meta.media.1.stream.type">audio</property>
  <property name="kdenlive:original.meta.media.1.codec.sample_fmt">fltp</property>
  <property name="kdenlive:original.meta.media.1.codec.sample_rate">48000</property>
  <property name="kdenlive:original.meta.media.1.codec.channels">2</property>
  <property name="kdenlive:original.meta.media.1.codec.name">aac</property>
  <property name="kdenlive:original.meta.media.1.codec.long_name">AAC (Advanced Audio Coding)</property>
  <property name="kdenlive:original.meta.media.1.codec.bit_rate">195945</property>
  <property name="kdenlive:original.meta.attr.1.stream.handler_name.markup">SoundHandler</property>
  <property name="kdenlive:original.meta.attr.major_brand.markup">isom</property>
  <property name="kdenlive:original.meta.attr.minor_version.markup">512</property>
  <property name="kdenlive:original.meta.attr.compatible_brands.markup">isomiso2avc1mp41</property>
  <property name="kdenlive:original.meta.attr.encoder.markup">Lavf57.56.101</property>
  <property name="kdenlive:original.seekable">1</property>
  <property name="kdenlive:original.width">1920</property>
  <property name="kdenlive:original.height">1080</property>
  <property name="kdenlive:original.meta.media.sample_aspect_num">1</property>
  <property name="kdenlive:original.meta.media.sample_aspect_den">1</property>
  <property name="kdenlive:original.aspect_ratio">1</property>
  <property name="kdenlive:original.audio_index">1</property>
  <property name="kdenlive:original.video_index">0</property>
  <property name="kdenlive:original.mute_on_pause">1</property>
  <property name="kdenlive:original.mlt_service">avformat-novalidate</property>
  <property name="kdenlive:original.meta.media.frame_rate_num">25</property>
  <property name="kdenlive:original.meta.media.frame_rate_den">1</property>
  <property name="kdenlive:original.meta.media.colorspace">709</property>
  <property name="kdenlive:original.meta.media.color_trc">1</property>
  <property name="kdenlive:original.meta.media.width">1920</property>
  <property name="kdenlive:original.meta.media.height">1080</property>
  <property name="kdenlive:original.kdenlive:id">4</property>
  <property name="kdenlive:original.kdenlive:file_size">3027348</property>
  <property name="kdenlive:original.kdenlive:file_hash">15d1fd6e5cc38bbc7f98ba7a7eee56ea</property>
  <property name="kdenlive:original.kdenlive:folderid">-1</property>
  <property name="kdenlive:original.backup">1</property>
  <property name="global_feed">1</property>
  <property name="xml">was here</property>
  <property name="meta.media.nb_streams">2</property>
  <property name="meta.media.0.stream.type">video</property>
  <property name="meta.media.0.stream.frame_rate">25</property>
  <property name="meta.media.0.stream.sample_aspect_ratio">1</property>
  <property name="meta.media.0.codec.width">1920</property>
  <property name="meta.media.0.codec.height">1080</property>
  <property name="meta.media.0.codec.rotate">0</property>
  <property name="meta.media.0.codec.frame_rate">25</property>
  <property name="meta.media.0.codec.pix_fmt">yuv420p</property>
  <property name="meta.media.0.codec.sample_aspect_ratio">1</property>
  <property name="meta.media.0.codec.colorspace">709</property>
  <property name="meta.media.0.codec.name">h264</property>
  <property name="meta.media.0.codec.long_name">H.264 / AVC / MPEG-4 AVC / MPEG-4 part 10</property>
  <property name="meta.media.0.codec.bit_rate">3275175</property>
  <property name="meta.attr.0.stream.HANDLER_NAME.markup">VideoHandler</property>
  <property name="meta.attr.0.stream.ENCODER.markup">Lavc58.35.100 libx264</property>
  <property name="meta.attr.0.stream.DURATION.markup">00:00:06.981000000</property>
  <property name="meta.media.1.stream.type">audio</property>
  <property name="meta.media.1.codec.sample_fmt">fltp</property>
  <property name="meta.media.1.codec.sample_rate">48000</property>
  <property name="meta.media.1.codec.channels">2</property>
  <property name="meta.media.1.codec.name">aac</property>
  <property name="meta.media.1.codec.long_name">AAC (Advanced Audio Coding)</property>
  <property name="meta.media.1.codec.bit_rate">195945</property>
  <property name="meta.attr.1.stream.HANDLER_NAME.markup">SoundHandler</property>
  <property name="meta.attr.1.stream.ENCODER.markup">Lavc58.35.100 aac</property>
  <property name="meta.attr.1.stream.DURATION.markup">00:00:06.997000000</property>
  <property name="meta.attr.COMPATIBLE_BRANDS.markup">isomiso2avc1mp41</property>
  <property name="meta.attr.MAJOR_BRAND.markup">isom</property>
  <property name="meta.attr.MINOR_VERSION.markup">512</property>
  <property name="meta.attr.ENCODER.markup">Lavf58.20.100</property>
  <property name="meta.media.sample_aspect_num">1</property>
  <property name="meta.media.sample_aspect_den">1</property>
  <property name="meta.media.frame_rate_num">25</property>
  <property name="meta.media.frame_rate_den">1</property>
  <property name="meta.media.colorspace">709</property>
  <property name="meta.media.color_trc">1</property>
  <property name="meta.media.width">1920</property>
  <property name="meta.media.height">1080</property>
  <property name="meta.media.top_field_first">0</property>
  <property name="meta.media.progressive">1</property>
  <property name="meta.media.0.codec.color_trc">1</property>
  <property name="meta.attr.0.stream.handler_name.markup">VideoHandler</property>
  <property name="meta.attr.1.stream.handler_name.markup">SoundHandler</property>
  <property name="meta.attr.major_brand.markup">isom</property>
  <property name="meta.attr.minor_version.markup">512</property>
  <property name="meta.attr.compatible_brands.markup">isomiso2avc1mp41</property>
  <property name="meta.attr.encoder.markup">Lavf57.56.101</property>
  <property name="meta.media.color_range">mpeg</property>
  <property name="set.test_audio">1</property>
  <property name="set.test_image">0</property>
 </producer>
 <producer title="Anonymous Submission" id="producer21" in="00:00:00,000" out="00:09:40,880">
  <property name="length">14523</property>
  <property name="eof">pause</property>
  <property name="resource">/media/lnj/LNJ-1TB-HDD/vid/yt/DuraPhilms/SynchroRemasters/videos/PvA-09-orig.2160p25.mkv</property>
  <property name="audio_index">-1</property>
  <property name="video_index">0</property>
  <property name="mute_on_pause">1</property>
  <property name="mlt_service">avformat-novalidate</property>
  <property name="seekable">1</property>
  <property name="aspect_ratio">1</property>
  <property name="kdenlive:clipname">PvA-09-orig.2160p25.mkv</property>
  <property name="kdenlive:id">2</property>
  <property name="kdenlive:file_size">3488367388</property>
  <property name="kdenlive:file_hash">7c0b215136b127853b40204fe90f937c</property>
  <property name="kdenlive:folderid">-1</property>
  <property name="kdenlive:proxy">-</property>
  <property name="kdenlive:originalurl">/media/lnj/LNJ-1TB-HDD/vid/yt/DuraPhilms/SynchroRemasters/videos/PvA-09-orig.2160p25.mkv</property>
  <property name="global_feed">1</property>
  <property name="xml">was here</property>
  <property name="meta.media.nb_streams">1</property>
  <property name="meta.media.0.stream.type">video</property>
  <property name="meta.media.0.stream.frame_rate">25</property>
  <property name="meta.media.0.stream.sample_aspect_ratio">1</property>
  <property name="meta.media.0.codec.width">3840</property>
  <property name="meta.media.0.codec.height">1600</property>
  <property name="meta.media.0.codec.rotate">0</property>
  <property name="meta.media.0.codec.frame_rate">25</property>
  <property name="meta.media.0.codec.pix_fmt">yuv420p</property>
  <property name="meta.media.0.codec.sample_aspect_ratio">1</property>
  <property name="meta.media.0.codec.colorspace">709</property>
  <property name="meta.media.0.codec.name">h264</property>
  <property name="meta.media.0.codec.long_name">H.264 / AVC / MPEG-4 AVC / MPEG-4 part 10</property>
  <property name="meta.media.0.codec.bit_rate">0</property>
  <property name="meta.attr.0.stream.ENCODER.markup">Lavc58.35.100 libx264</property>
  <property name="meta.attr.0.stream.DURATION.markup">00:09:40.920000000</property>
  <property name="meta.attr.ENCODER.markup">Lavf58.20.100</property>
  <property name="meta.media.sample_aspect_num">1</property>
  <property name="meta.media.sample_aspect_den">1</property>
  <property name="meta.media.frame_rate_num">25</property>
  <property name="meta.media.frame_rate_den">1</property>
  <property name="meta.media.colorspace">709</property>
  <property name="meta.media.color_trc">2</property>
  <property name="meta.media.width">3840</property>
  <property name="meta.media.height">1600</property>
  <property name="meta.media.color_range">mpeg</property>
  <property name="meta.media.top_field_first">0</property>
  <property name="meta.media.progressive">1</property>
  <property name="set.test_audio">1</property>
  <property name="set.test_image">0</property>
 </producer>
 <producer id="producer23" in="00:00:00,000" out="00:18:47,960">
  <property name="length">28200</property>
  <property name="eof">pause</property>
  <property name="resource">0,515:/media/lnj/LNJ-1TB-HDD/vid/yt/DuraPhilms/SynchroRemasters/videos/PvA-09-orig.2160p25.mkv</property>
  <property name="aspect_ratio">1</property>
  <property name="meta.media.nb_streams">1</property>
  <property name="meta.media.0.stream.type">video</property>
  <property name="meta.media.0.stream.frame_rate">25</property>
  <property name="meta.media.0.stream.sample_aspect_ratio">1</property>
  <property name="meta.media.0.codec.width">3840</property>
  <property name="meta.media.0.codec.height">1600</property>
  <property name="meta.media.0.codec.rotate">0</property>
  <property name="meta.media.0.codec.frame_rate">25</property>
  <property name="meta.media.0.codec.pix_fmt">yuv420p</property>
  <property name="meta.media.0.codec.sample_aspect_ratio">1</property>
  <property name="meta.media.0.codec.colorspace">709</property>
  <property name="meta.media.0.codec.name">h264</property>
  <property name="meta.media.0.codec.long_name">H.264 / AVC / MPEG-4 AVC / MPEG-4 part 10</property>
  <property name="meta.media.0.codec.bit_rate">0</property>
  <property name="meta.attr.0.stream.ENCODER.markup">Lavc58.35.100 libx264</property>
  <property name="meta.attr.0.stream.DURATION.markup">00:09:40.920000000</property>
  <property name="meta.attr.ENCODER.markup">Lavf58.20.100</property>
  <property name="seekable">1</property>
  <property name="meta.media.sample_aspect_num">1</property>
  <property name="meta.media.sample_aspect_den">1</property>
  <property name="audio_index">-1</property>
  <property name="video_index">0</property>
  <property name="mute_on_pause">1</property>
  <property name="warp_speed">0,515</property>
  <property name="warp_resource">/media/lnj/LNJ-1TB-HDD/vid/yt/DuraPhilms/SynchroRemasters/videos/PvA-09-orig.2160p25.mkv</property>
  <property name="mlt_service">timewarp</property>
  <property name="kdenlive:proxy">-</property>
  <property name="kdenlive:originalurl">/media/lnj/LNJ-1TB-HDD/vid/yt/DuraPhilms/SynchroRemasters/videos/PvA-09-orig.2160p25.mkv</property>
  <property name="set.test_audio">1</property>
  <property name="set.test_image">0</property>
  <property name="kdenlive:id">2</property>
  <property name="meta.media.frame_rate_num">25</property>
  <property name="meta.media.frame_rate_den">1</property>
  <property name="meta.media.colorspace">709</property>
  <property name="meta.media.color_trc">2</property>
  <property name="meta.media.width">3840</property>
  <property name="meta.media.height">1600</property>
  <property name="meta.media.color_range">mpeg</property>
  <property name="meta.media.top_field_first">0</property>
  <property name="meta.media.progressive">1</property>
 </producer>
 <producer title="Anonymous Submission" id="producer22" in="00:00:00,000" out="00:10:55,560">
  <property name="length">16390</property>
  <property name="eof">pause</property>
  <property name="resource">/media/lnj/LNJ-1TB-HDD/vid/yt/DuraPhilms/SynchroRemasters/videos/PvA-09.mp4</property>
  <property name="audio_index">1</property>
  <property name="video_index">0</property>
  <property name="mute_on_pause">1</property>
  <property name="mlt_service">avformat-novalidate</property>
  <property name="seekable">1</property>
  <property name="aspect_ratio">1</property>
  <property name="kdenlive:clipname"/>
  <property name="kdenlive:id">3</property>
  <property name="kdenlive:file_size">139178296</property>
  <property name="kdenlive:file_hash">3e16487f4c98cfa0b5bd2bbd22992b33</property>
  <property name="kdenlive:folderid">-1</property>
  <property name="kdenlive:proxy">-</property>
  <property name="kdenlive:originalurl">/media/lnj/LNJ-1TB-HDD/vid/yt/DuraPhilms/SynchroRemasters/videos/PvA-09.mp4</property>
  <property name="kdenlive:original.mlt_type">producer</property>
  <property name="kdenlive:original.in">0</property>
  <property name="kdenlive:original.out">16389</property>
  <property name="kdenlive:original.length">16390</property>
  <property name="kdenlive:original.eof">pause</property>
  <property name="kdenlive:original.resource">/media/lnj/LNJ-1TB-HDD/vid/yt/DuraPhilms/SynchroRemasters/videos/PvA-09.mp4</property>
  <property name="kdenlive:original.meta.media.nb_streams">2</property>
  <property name="kdenlive:original.meta.media.0.stream.type">video</property>
  <property name="kdenlive:original.meta.media.0.stream.frame_rate">23,976</property>
  <property name="kdenlive:original.meta.media.0.stream.sample_aspect_ratio">0</property>
  <property name="kdenlive:original.meta.media.0.codec.width">1280</property>
  <property name="kdenlive:original.meta.media.0.codec.height">720</property>
  <property name="kdenlive:original.meta.media.0.codec.rotate">0</property>
  <property name="kdenlive:original.meta.media.0.codec.frame_rate">23,976</property>
  <property name="kdenlive:original.meta.media.0.codec.pix_fmt">yuv420p</property>
  <property name="kdenlive:original.meta.media.0.codec.sample_aspect_ratio">1</property>
  <property name="kdenlive:original.meta.media.0.codec.colorspace">709</property>
  <property name="kdenlive:original.meta.media.0.codec.color_trc">1</property>
  <property name="kdenlive:original.meta.media.0.codec.name">h264</property>
  <property name="kdenlive:original.meta.media.0.codec.long_name">H.264 / AVC / MPEG-4 AVC / MPEG-4 part 10</property>
  <property name="kdenlive:original.meta.media.0.codec.bit_rate">1533361</property>
  <property name="kdenlive:original.meta.attr.0.stream.handler_name.markup">VideoHandler</property>
  <property name="kdenlive:original.meta.media.1.stream.type">audio</property>
  <property name="kdenlive:original.meta.media.1.codec.sample_fmt">fltp</property>
  <property name="kdenlive:original.meta.media.1.codec.sample_rate">48000</property>
  <property name="kdenlive:original.meta.media.1.codec.channels">2</property>
  <property name="kdenlive:original.meta.media.1.codec.name">mp3float</property>
  <property name="kdenlive:original.meta.media.1.codec.long_name">MP3 (MPEG audio layer 3)</property>
  <property name="kdenlive:original.meta.media.1.codec.bit_rate">158679</property>
  <property name="kdenlive:original.meta.attr.1.stream.language.markup">deu</property>
  <property name="kdenlive:original.meta.attr.1.stream.handler_name.markup">Stereo</property>
  <property name="kdenlive:original.meta.attr.major_brand.markup">mp42</property>
  <property name="kdenlive:original.meta.attr.minor_version.markup">512</property>
  <property name="kdenlive:original.meta.attr.compatible_brands.markup">isomiso2avc1mp41</property>
  <property name="kdenlive:original.meta.attr.encoder.markup">HandBrake 6548svn 2014112401</property>
  <property name="kdenlive:original.meta.attr.title.markup">Harry Potter und der Penner von Alcatraz Teil 9</property>
  <property name="kdenlive:original.seekable">1</property>
  <property name="kdenlive:original.width">1280</property>
  <property name="kdenlive:original.height">720</property>
  <property name="kdenlive:original.meta.media.sample_aspect_num">1</property>
  <property name="kdenlive:original.meta.media.sample_aspect_den">1</property>
  <property name="kdenlive:original.aspect_ratio">1</property>
  <property name="kdenlive:original.audio_index">1</property>
  <property name="kdenlive:original.video_index">0</property>
  <property name="kdenlive:original.mute_on_pause">1</property>
  <property name="kdenlive:original.mlt_service">avformat-novalidate</property>
  <property name="kdenlive:original.meta.media.frame_rate_num">707310000</property>
  <property name="kdenlive:original.meta.media.frame_rate_den">29500721</property>
  <property name="kdenlive:original.meta.media.colorspace">709</property>
  <property name="kdenlive:original.meta.media.color_trc">1</property>
  <property name="kdenlive:original.meta.media.width">1280</property>
  <property name="kdenlive:original.meta.media.height">720</property>
  <property name="kdenlive:original.kdenlive:id">3</property>
  <property name="kdenlive:original.kdenlive:file_size">139178296</property>
  <property name="kdenlive:original.kdenlive:file_hash">3e16487f4c98cfa0b5bd2bbd22992b33</property>
  <property name="kdenlive:original.kdenlive:folderid">-1</property>
  <property name="kdenlive:original.backup">1</property>
  <property name="global_feed">1</property>
  <property name="xml">was here</property>
  <property name="meta.media.nb_streams">2</property>
  <property name="meta.media.0.stream.type">video</property>
  <property name="meta.media.0.stream.frame_rate">23,976</property>
  <property name="meta.media.0.stream.sample_aspect_ratio">0</property>
  <property name="meta.media.0.codec.width">1280</property>
  <property name="meta.media.0.codec.height">720</property>
  <property name="meta.media.0.codec.rotate">0</property>
  <property name="meta.media.0.codec.frame_rate">23,976</property>
  <property name="meta.media.0.codec.pix_fmt">yuv420p</property>
  <property name="meta.media.0.codec.sample_aspect_ratio">1</property>
  <property name="meta.media.0.codec.colorspace">709</property>
  <property name="meta.media.0.codec.color_trc">1</property>
  <property name="meta.media.0.codec.name">h264</property>
  <property name="meta.media.0.codec.long_name">H.264 / AVC / MPEG-4 AVC / MPEG-4 part 10</property>
  <property name="meta.media.0.codec.bit_rate">1533361</property>
  <property name="meta.attr.0.stream.handler_name.markup">VideoHandler</property>
  <property name="meta.media.1.stream.type">audio</property>
  <property name="meta.media.1.codec.sample_fmt">fltp</property>
  <property name="meta.media.1.codec.sample_rate">48000</property>
  <property name="meta.media.1.codec.channels">2</property>
  <property name="meta.media.1.codec.name">mp3float</property>
  <property name="meta.media.1.codec.long_name">MP3 (MPEG audio layer 3)</property>
  <property name="meta.media.1.codec.bit_rate">158679</property>
  <property name="meta.attr.1.stream.language.markup">deu</property>
  <property name="meta.attr.1.stream.handler_name.markup">Stereo</property>
  <property name="meta.attr.major_brand.markup">mp42</property>
  <property name="meta.attr.minor_version.markup">512</property>
  <property name="meta.attr.compatible_brands.markup">isomiso2avc1mp41</property>
  <property name="meta.attr.encoder.markup">HandBrake 6548svn 2014112401</property>
  <property name="meta.attr.title.markup">Harry Potter und der Penner von Alcatraz Teil 9</property>
  <property name="meta.media.sample_aspect_num">1</property>
  <property name="meta.media.sample_aspect_den">1</property>
  <property name="meta.media.frame_rate_num">707310000</property>
  <property name="meta.media.frame_rate_den">29500721</property>
  <property name="meta.media.colorspace">709</property>
  <property name="meta.media.color_trc">1</property>
  <property name="meta.media.width">1280</property>
  <property name="meta.media.height">720</property>
  <property name="meta.media.top_field_first">0</property>
  <property name="meta.media.progressive">1</property>
  <property name="meta.media.color_range">mpeg</property>
  <property name="set.test_audio">1</property>
  <property name="set.test_image">0</property>
 </producer>
 <producer id="producer25" in="00:00:00,000" out="00:09:26,720">
  <property name="length">14169</property>
  <property name="eof">pause</property>
  <property name="resource">1,025:/media/lnj/LNJ-1TB-HDD/vid/yt/DuraPhilms/SynchroRemasters/videos/PvA-09-orig.2160p25.mkv</property>
  <property name="aspect_ratio">1</property>
  <property name="meta.media.nb_streams">1</property>
  <property name="meta.media.0.stream.type">video</property>
  <property name="meta.media.0.stream.frame_rate">25</property>
  <property name="meta.media.0.stream.sample_aspect_ratio">1</property>
  <property name="meta.media.0.codec.width">3840</property>
  <property name="meta.media.0.codec.height">1600</property>
  <property name="meta.media.0.codec.rotate">0</property>
  <property name="meta.media.0.codec.frame_rate">25</property>
  <property name="meta.media.0.codec.pix_fmt">yuv420p</property>
  <property name="meta.media.0.codec.sample_aspect_ratio">1</property>
  <property name="meta.media.0.codec.colorspace">709</property>
  <property name="meta.media.0.codec.name">h264</property>
  <property name="meta.media.0.codec.long_name">H.264 / AVC / MPEG-4 AVC / MPEG-4 part 10</property>
  <property name="meta.media.0.codec.bit_rate">0</property>
  <property name="meta.attr.0.stream.ENCODER.markup">Lavc58.35.100 libx264</property>
  <property name="meta.attr.0.stream.DURATION.markup">00:09:40.920000000</property>
  <property name="meta.attr.ENCODER.markup">Lavf58.20.100</property>
  <property name="seekable">1</property>
  <property name="meta.media.sample_aspect_num">1</property>
  <property name="meta.media.sample_aspect_den">1</property>
  <property name="audio_index">-1</property>
  <property name="video_index">0</property>
  <property name="mute_on_pause">1</property>
  <property name="warp_speed">1,025</property>
  <property name="warp_resource">/media/lnj/LNJ-1TB-HDD/vid/yt/DuraPhilms/SynchroRemasters/videos/PvA-09-orig.2160p25.mkv</property>
  <property name="mlt_service">timewarp</property>
  <property name="kdenlive:proxy">-</property>
  <property name="kdenlive:originalurl">/media/lnj/LNJ-1TB-HDD/vid/yt/DuraPhilms/SynchroRemasters/videos/PvA-09-orig.2160p25.mkv</property>
  <property name="set.test_audio">1</property>
  <property name="set.test_image">0</property>
  <property name="kdenlive:id">2</property>
  <property name="meta.media.frame_rate_num">25</property>
  <property name="meta.media.frame_rate_den">1</property>
  <property name="meta.media.colorspace">709</property>
  <property name="meta.media.color_trc">2</property>
  <property name="meta.media.width">3840</property>
  <property name="meta.media.height">1600</property>
  <property name="meta.media.color_range">mpeg</property>
  <property name="meta.media.top_field_first">0</property>
  <property name="meta.media.progressive">1</property>
 </producer>
 <producer title="Anonymous Submission" id="producer24" in="00:00:00,000" out="00:00:11,800">
  <property name="length">296</property>
  <property name="eof">pause</property>
  <property name="resource">/media/lnj/LNJ-1TB-HDD/vid/yt/DuraPhilms/SynchroRemasters/videos/PvA-09-seelsorge.mkv</property>
  <property name="audio_index">-1</property>
  <property name="video_index">0</property>
  <property name="mute_on_pause">1</property>
  <property name="mlt_service">avformat-novalidate</property>
  <property name="seekable">1</property>
  <property name="aspect_ratio">1</property>
  <property name="kdenlive:clipname">PvA-09-seelsorge.mkv</property>
  <property name="kdenlive:id">6</property>
  <property name="kdenlive:file_size">24401843</property>
  <property name="kdenlive:file_hash">424a705af3096f21e6b04d4a4c5ba35c</property>
  <property name="kdenlive:folderid">-1</property>
  <property name="kdenlive:proxy">-</property>
  <property name="kdenlive:originalurl">/media/lnj/LNJ-1TB-HDD/vid/yt/DuraPhilms/SynchroRemasters/videos/PvA-09-seelsorge.mkv</property>
  <property name="kdenlive:original.mlt_type">producer</property>
  <property name="kdenlive:original.in">0</property>
  <property name="kdenlive:original.out">295</property>
  <property name="kdenlive:original.length">296</property>
  <property name="kdenlive:original.eof">pause</property>
  <property name="kdenlive:original.resource">/media/lnj/LNJ-1TB-HDD/vid/yt/DuraPhilms/SynchroRemasters/videos/PvA-09-seelsorge.mkv</property>
  <property name="kdenlive:original.meta.media.nb_streams">1</property>
  <property name="kdenlive:original.meta.media.0.stream.type">video</property>
  <property name="kdenlive:original.meta.media.0.stream.frame_rate">25</property>
  <property name="kdenlive:original.meta.media.0.stream.sample_aspect_ratio">1</property>
  <property name="kdenlive:original.meta.media.0.codec.width">3840</property>
  <property name="kdenlive:original.meta.media.0.codec.height">1600</property>
  <property name="kdenlive:original.meta.media.0.codec.rotate">0</property>
  <property name="kdenlive:original.meta.media.0.codec.frame_rate">25</property>
  <property name="kdenlive:original.meta.media.0.codec.pix_fmt">yuv420p</property>
  <property name="kdenlive:original.meta.media.0.codec.sample_aspect_ratio">1</property>
  <property name="kdenlive:original.meta.media.0.codec.colorspace">709</property>
  <property name="kdenlive:original.meta.media.0.codec.name">hevc</property>
  <property name="kdenlive:original.meta.media.0.codec.long_name">HEVC (High Efficiency Video Coding)</property>
  <property name="kdenlive:original.meta.media.0.codec.bit_rate">0</property>
  <property name="kdenlive:original.meta.attr.0.stream.ENCODER.markup">Lavc58.35.100 libx265</property>
  <property name="kdenlive:original.meta.attr.0.stream.DURATION.markup">00:00:11.840000000</property>
  <property name="kdenlive:original.meta.attr.ENCODER.markup">Lavf58.20.100</property>
  <property name="kdenlive:original.seekable">1</property>
  <property name="kdenlive:original.width">3840</property>
  <property name="kdenlive:original.height">1600</property>
  <property name="kdenlive:original.meta.media.sample_aspect_num">1</property>
  <property name="kdenlive:original.meta.media.sample_aspect_den">1</property>
  <property name="kdenlive:original.aspect_ratio">1</property>
  <property name="kdenlive:original.audio_index">-1</property>
  <property name="kdenlive:original.video_index">0</property>
  <property name="kdenlive:original.mute_on_pause">1</property>
  <property name="kdenlive:original.mlt_service">avformat-novalidate</property>
  <property name="kdenlive:original.meta.media.frame_rate_num">25</property>
  <property name="kdenlive:original.meta.media.frame_rate_den">1</property>
  <property name="kdenlive:original.meta.media.colorspace">709</property>
  <property name="kdenlive:original.meta.media.color_trc">2</property>
  <property name="kdenlive:original.meta.media.width">3840</property>
  <property name="kdenlive:original.meta.media.height">1600</property>
  <property name="kdenlive:original.kdenlive:id">6</property>
  <property name="kdenlive:original.kdenlive:file_size">24401843</property>
  <property name="kdenlive:original.kdenlive:file_hash">424a705af3096f21e6b04d4a4c5ba35c</property>
  <property name="kdenlive:original.kdenlive:folderid">-1</property>
  <property name="kdenlive:original.backup">1</property>
  <property name="global_feed">1</property>
  <property name="xml">was here</property>
  <property name="meta.media.nb_streams">1</property>
  <property name="meta.media.0.stream.type">video</property>
  <property name="meta.media.0.stream.frame_rate">25</property>
  <property name="meta.media.0.stream.sample_aspect_ratio">1</property>
  <property name="meta.media.0.codec.width">3840</property>
  <property name="meta.media.0.codec.height">1600</property>
  <property name="meta.media.0.codec.rotate">0</property>
  <property name="meta.media.0.codec.frame_rate">25</property>
  <property name="meta.media.0.codec.pix_fmt">yuv420p</property>
  <property name="meta.media.0.codec.sample_aspect_ratio">1</property>
  <property name="meta.media.0.codec.colorspace">709</property>
  <property name="meta.media.0.codec.name">hevc</property>
  <property name="meta.media.0.codec.long_name">HEVC (High Efficiency Video Coding)</property>
  <property name="meta.media.0.codec.bit_rate">0</property>
  <property name="meta.attr.0.stream.ENCODER.markup">Lavc58.35.100 libx265</property>
  <property name="meta.attr.0.stream.DURATION.markup">00:00:11.840000000</property>
  <property name="meta.attr.ENCODER.markup">Lavf58.20.100</property>
  <property name="meta.media.sample_aspect_num">1</property>
  <property name="meta.media.sample_aspect_den">1</property>
  <property name="meta.media.frame_rate_num">25</property>
  <property name="meta.media.frame_rate_den">1</property>
  <property name="meta.media.colorspace">709</property>
  <property name="meta.media.color_trc">2</property>
  <property name="meta.media.width">3840</property>
  <property name="meta.media.height">1600</property>
  <property name="meta.media.top_field_first">0</property>
  <property name="meta.media.progressive">1</property>
  <property name="meta.media.color_range">mpeg</property>
  <property name="set.test_audio">1</property>
  <property name="set.test_image">0</property>
 </producer>
 <producer id="producer27" in="00:00:00,000" out="00:12:15,280">
  <property name="length">18384</property>
  <property name="eof">pause</property>
  <property name="resource">0,79:/media/lnj/LNJ-1TB-HDD/vid/yt/DuraPhilms/SynchroRemasters/videos/PvA-09-orig.2160p25.mkv</property>
  <property name="aspect_ratio">1</property>
  <property name="meta.media.nb_streams">1</property>
  <property name="meta.media.0.stream.type">video</property>
  <property name="meta.media.0.stream.frame_rate">25</property>
  <property name="meta.media.0.stream.sample_aspect_ratio">1</property>
  <property name="meta.media.0.codec.width">3840</property>
  <property name="meta.media.0.codec.height">1600</property>
  <property name="meta.media.0.codec.rotate">0</property>
  <property name="meta.media.0.codec.frame_rate">25</property>
  <property name="meta.media.0.codec.pix_fmt">yuv420p</property>
  <property name="meta.media.0.codec.sample_aspect_ratio">1</property>
  <property name="meta.media.0.codec.colorspace">709</property>
  <property name="meta.media.0.codec.name">h264</property>
  <property name="meta.media.0.codec.long_name">H.264 / AVC / MPEG-4 AVC / MPEG-4 part 10</property>
  <property name="meta.media.0.codec.bit_rate">0</property>
  <property name="meta.attr.0.stream.ENCODER.markup">Lavc58.35.100 libx264</property>
  <property name="meta.attr.0.stream.DURATION.markup">00:09:40.920000000</property>
  <property name="meta.attr.ENCODER.markup">Lavf58.20.100</property>
  <property name="seekable">1</property>
  <property name="meta.media.sample_aspect_num">1</property>
  <property name="meta.media.sample_aspect_den">1</property>
  <property name="audio_index">-1</property>
  <property name="video_index">0</property>
  <property name="mute_on_pause">1</property>
  <property name="warp_speed">0,79</property>
  <property name="warp_resource">/media/lnj/LNJ-1TB-HDD/vid/yt/DuraPhilms/SynchroRemasters/videos/PvA-09-orig.2160p25.mkv</property>
  <property name="mlt_service">timewarp</property>
  <property name="kdenlive:proxy">-</property>
  <property name="kdenlive:originalurl">/media/lnj/LNJ-1TB-HDD/vid/yt/DuraPhilms/SynchroRemasters/videos/PvA-09-orig.2160p25.mkv</property>
  <property name="set.test_audio">1</property>
  <property name="set.test_image">0</property>
  <property name="kdenlive:id">2</property>
  <property name="meta.media.frame_rate_num">25</property>
  <property name="meta.media.frame_rate_den">1</property>
  <property name="meta.media.colorspace">709</property>
  <property name="meta.media.color_trc">2</property>
  <property name="meta.media.width">3840</property>
  <property name="meta.media.height">1600</property>
  <property name="meta.media.color_range">mpeg</property>
  <property name="meta.media.top_field_first">0</property>
  <property name="meta.media.progressive">1</property>
 </producer>
 <producer title="Anonymous Submission" id="producer26" in="00:00:00,000" out="00:00:37,720">
  <property name="length">944</property>
  <property name="eof">pause</property>
  <property name="resource">/media/lnj/LNJ-1TB-HDD/vid/yt/DuraPhilms/SynchroRemasters/videos/PvA-09-wetten-dass-intro.mkv</property>
  <property name="audio_index">1</property>
  <property name="video_index">0</property>
  <property name="mute_on_pause">1</property>
  <property name="mlt_service">avformat-novalidate</property>
  <property name="seekable">1</property>
  <property name="aspect_ratio">1</property>
  <property name="kdenlive:clipname"/>
  <property name="kdenlive:id">7</property>
  <property name="kdenlive:file_size">4193620</property>
  <property name="kdenlive:file_hash">b5199e42b66a574bcfd9d0298d40096e</property>
  <property name="kdenlive:folderid">-1</property>
  <property name="global_feed">1</property>
  <property name="xml">was here</property>
  <property name="meta.media.nb_streams">2</property>
  <property name="meta.media.0.stream.type">video</property>
  <property name="meta.media.0.stream.frame_rate">25</property>
  <property name="meta.media.0.stream.sample_aspect_ratio">0</property>
  <property name="meta.media.0.codec.width">640</property>
  <property name="meta.media.0.codec.height">480</property>
  <property name="meta.media.0.codec.rotate">0</property>
  <property name="meta.media.0.codec.frame_rate">25</property>
  <property name="meta.media.0.codec.pix_fmt">yuv420p</property>
  <property name="meta.media.0.codec.sample_aspect_ratio">0</property>
  <property name="meta.media.0.codec.colorspace">601</property>
  <property name="meta.media.0.codec.name">h264</property>
  <property name="meta.media.0.codec.long_name">H.264 / AVC / MPEG-4 AVC / MPEG-4 part 10</property>
  <property name="meta.media.0.codec.bit_rate">0</property>
  <property name="meta.attr.0.stream.HANDLER_NAME.markup">VideoHandler</property>
  <property name="meta.attr.0.stream.DURATION.markup">00:00:37.640000000</property>
  <property name="meta.media.1.stream.type">audio</property>
  <property name="meta.media.1.codec.sample_fmt">fltp</property>
  <property name="meta.media.1.codec.sample_rate">48000</property>
  <property name="meta.media.1.codec.channels">2</property>
  <property name="meta.media.1.codec.name">opus</property>
  <property name="meta.media.1.codec.long_name">Opus</property>
  <property name="meta.media.1.codec.bit_rate">0</property>
  <property name="meta.attr.1.stream.language.markup">ger</property>
  <property name="meta.attr.1.stream.DURATION.markup">00:00:37.741000000</property>
  <property name="meta.attr.COMPATIBLE_BRANDS.markup">iso6avc1mp41</property>
  <property name="meta.attr.MAJOR_BRAND.markup">dash</property>
  <property name="meta.attr.MINOR_VERSION.markup">0</property>
  <property name="meta.attr.ENCODER.markup">Lavf58.20.100</property>
  <property name="meta.media.sample_aspect_num">1</property>
  <property name="meta.media.sample_aspect_den">1</property>
  <property name="meta.media.frame_rate_num">25</property>
  <property name="meta.media.frame_rate_den">1</property>
  <property name="meta.media.colorspace">601</property>
  <property name="meta.media.color_trc">2</property>
  <property name="meta.media.width">640</property>
  <property name="meta.media.height">480</property>
  <property name="meta.media.top_field_first">0</property>
  <property name="meta.media.progressive">1</property>
  <property name="meta.media.color_range">mpeg</property>
  <property name="set.test_audio">1</property>
  <property name="set.test_image">0</property>
 </producer>
 <producer id="producer29" in="00:00:00,000" out="00:08:25,120">
  <property name="length">12629</property>
  <property name="eof">pause</property>
  <property name="resource">1,15:/media/lnj/LNJ-1TB-HDD/vid/yt/DuraPhilms/SynchroRemasters/videos/PvA-09-orig.2160p25.mkv</property>
  <property name="aspect_ratio">1</property>
  <property name="meta.media.nb_streams">1</property>
  <property name="meta.media.0.stream.type">video</property>
  <property name="meta.media.0.stream.frame_rate">25</property>
  <property name="meta.media.0.stream.sample_aspect_ratio">1</property>
  <property name="meta.media.0.codec.width">3840</property>
  <property name="meta.media.0.codec.height">1600</property>
  <property name="meta.media.0.codec.rotate">0</property>
  <property name="meta.media.0.codec.frame_rate">25</property>
  <property name="meta.media.0.codec.pix_fmt">yuv420p</property>
  <property name="meta.media.0.codec.sample_aspect_ratio">1</property>
  <property name="meta.media.0.codec.colorspace">709</property>
  <property name="meta.media.0.codec.name">h264</property>
  <property name="meta.media.0.codec.long_name">H.264 / AVC / MPEG-4 AVC / MPEG-4 part 10</property>
  <property name="meta.media.0.codec.bit_rate">0</property>
  <property name="meta.attr.0.stream.ENCODER.markup">Lavc58.35.100 libx264</property>
  <property name="meta.attr.0.stream.DURATION.markup">00:09:40.920000000</property>
  <property name="meta.attr.ENCODER.markup">Lavf58.20.100</property>
  <property name="seekable">1</property>
  <property name="meta.media.sample_aspect_num">1</property>
  <property name="meta.media.sample_aspect_den">1</property>
  <property name="audio_index">-1</property>
  <property name="video_index">0</property>
  <property name="mute_on_pause">1</property>
  <property name="warp_speed">1,15</property>
  <property name="warp_resource">/media/lnj/LNJ-1TB-HDD/vid/yt/DuraPhilms/SynchroRemasters/videos/PvA-09-orig.2160p25.mkv</property>
  <property name="mlt_service">timewarp</property>
  <property name="kdenlive:proxy">-</property>
  <property name="kdenlive:originalurl">/media/lnj/LNJ-1TB-HDD/vid/yt/DuraPhilms/SynchroRemasters/videos/PvA-09-orig.2160p25.mkv</property>
  <property name="set.test_audio">1</property>
  <property name="set.test_image">0</property>
  <property name="kdenlive:id">2</property>
  <property name="meta.media.frame_rate_num">25</property>
  <property name="meta.media.frame_rate_den">1</property>
  <property name="meta.media.colorspace">709</property>
  <property name="meta.media.color_trc">2</property>
  <property name="meta.media.width">3840</property>
  <property name="meta.media.height">1600</property>
  <property name="meta.media.color_range">mpeg</property>
  <property name="meta.media.top_field_first">0</property>
  <property name="meta.media.progressive">1</property>
 </producer>
 <producer id="producer30" in="00:00:00,000" out="00:08:25,120">
  <property name="length">12629</property>
  <property name="eof">pause</property>
  <property name="resource">1,15:/media/lnj/LNJ-1TB-HDD/vid/yt/DuraPhilms/SynchroRemasters/videos/PvA-09-orig.2160p25.mkv</property>
  <property name="aspect_ratio">1</property>
  <property name="meta.media.nb_streams">1</property>
  <property name="meta.media.0.stream.type">video</property>
  <property name="meta.media.0.stream.frame_rate">25</property>
  <property name="meta.media.0.stream.sample_aspect_ratio">1</property>
  <property name="meta.media.0.codec.width">3840</property>
  <property name="meta.media.0.codec.height">1600</property>
  <property name="meta.media.0.codec.rotate">0</property>
  <property name="meta.media.0.codec.frame_rate">25</property>
  <property name="meta.media.0.codec.pix_fmt">yuv420p</property>
  <property name="meta.media.0.codec.sample_aspect_ratio">1</property>
  <property name="meta.media.0.codec.colorspace">709</property>
  <property name="meta.media.0.codec.name">h264</property>
  <property name="meta.media.0.codec.long_name">H.264 / AVC / MPEG-4 AVC / MPEG-4 part 10</property>
  <property name="meta.media.0.codec.bit_rate">0</property>
  <property name="meta.attr.0.stream.ENCODER.markup">Lavc58.35.100 libx264</property>
  <property name="meta.attr.0.stream.DURATION.markup">00:09:40.920000000</property>
  <property name="meta.attr.ENCODER.markup">Lavf58.20.100</property>
  <property name="seekable">1</property>
  <property name="meta.media.sample_aspect_num">1</property>
  <property name="meta.media.sample_aspect_den">1</property>
  <property name="audio_index">-1</property>
  <property name="video_index">0</property>
  <property name="mute_on_pause">1</property>
  <property name="warp_speed">1,15</property>
  <property name="warp_resource">/media/lnj/LNJ-1TB-HDD/vid/yt/DuraPhilms/SynchroRemasters/videos/PvA-09-orig.2160p25.mkv</property>
  <property name="mlt_service">timewarp</property>
  <property name="kdenlive:proxy">-</property>
  <property name="kdenlive:originalurl">/media/lnj/LNJ-1TB-HDD/vid/yt/DuraPhilms/SynchroRemasters/videos/PvA-09-orig.2160p25.mkv</property>
  <property name="set.test_audio">1</property>
  <property name="set.test_image">0</property>
  <property name="kdenlive:id">2</property>
  <property name="meta.media.frame_rate_num">25</property>
  <property name="meta.media.frame_rate_den">1</property>
  <property name="meta.media.colorspace">709</property>
  <property name="meta.media.color_trc">2</property>
  <property name="meta.media.width">3840</property>
  <property name="meta.media.height">1600</property>
  <property name="meta.media.color_range">mpeg</property>
  <property name="meta.media.top_field_first">0</property>
  <property name="meta.media.progressive">1</property>
 </producer>
 <producer id="producer31" in="00:00:00,000" out="00:14:27,000">
  <property name="length">21676</property>
  <property name="eof">pause</property>
  <property name="resource">0,67:/media/lnj/LNJ-1TB-HDD/vid/yt/DuraPhilms/SynchroRemasters/videos/PvA-09-orig.2160p25.mkv</property>
  <property name="aspect_ratio">1</property>
  <property name="meta.media.nb_streams">1</property>
  <property name="meta.media.0.stream.type">video</property>
  <property name="meta.media.0.stream.frame_rate">25</property>
  <property name="meta.media.0.stream.sample_aspect_ratio">1</property>
  <property name="meta.media.0.codec.width">3840</property>
  <property name="meta.media.0.codec.height">1600</property>
  <property name="meta.media.0.codec.rotate">0</property>
  <property name="meta.media.0.codec.frame_rate">25</property>
  <property name="meta.media.0.codec.pix_fmt">yuv420p</property>
  <property name="meta.media.0.codec.sample_aspect_ratio">1</property>
  <property name="meta.media.0.codec.colorspace">709</property>
  <property name="meta.media.0.codec.name">h264</property>
  <property name="meta.media.0.codec.long_name">H.264 / AVC / MPEG-4 AVC / MPEG-4 part 10</property>
  <property name="meta.media.0.codec.bit_rate">0</property>
  <property name="meta.attr.0.stream.ENCODER.markup">Lavc58.35.100 libx264</property>
  <property name="meta.attr.0.stream.DURATION.markup">00:09:40.920000000</property>
  <property name="meta.attr.ENCODER.markup">Lavf58.20.100</property>
  <property name="seekable">1</property>
  <property name="meta.media.sample_aspect_num">1</property>
  <property name="meta.media.sample_aspect_den">1</property>
  <property name="audio_index">-1</property>
  <property name="video_index">0</property>
  <property name="mute_on_pause">1</property>
  <property name="warp_speed">0,67</property>
  <property name="warp_resource">/media/lnj/LNJ-1TB-HDD/vid/yt/DuraPhilms/SynchroRemasters/videos/PvA-09-orig.2160p25.mkv</property>
  <property name="mlt_service">timewarp</property>
  <property name="kdenlive:proxy">-</property>
  <property name="kdenlive:originalurl">/media/lnj/LNJ-1TB-HDD/vid/yt/DuraPhilms/SynchroRemasters/videos/PvA-09-orig.2160p25.mkv</property>
  <property name="set.test_audio">1</property>
  <property name="set.test_image">0</property>
  <property name="kdenlive:id">2</property>
  <property name="meta.media.frame_rate_num">25</property>
  <property name="meta.media.frame_rate_den">1</property>
  <property name="meta.media.colorspace">709</property>
  <property name="meta.media.color_trc">2</property>
  <property name="meta.media.width">3840</property>
  <property name="meta.media.height">1600</property>
  <property name="meta.media.color_range">mpeg</property>
  <property name="meta.media.top_field_first">0</property>
  <property name="meta.media.progressive">1</property>
 </producer>
 <producer id="producer32" in="00:00:00,000" out="00:08:25,120">
  <property name="length">12629</property>
  <property name="eof">pause</property>
  <property name="resource">1,15:/media/lnj/LNJ-1TB-HDD/vid/yt/DuraPhilms/SynchroRemasters/videos/PvA-09-orig.2160p25.mkv</property>
  <property name="aspect_ratio">1</property>
  <property name="meta.media.nb_streams">1</property>
  <property name="meta.media.0.stream.type">video</property>
  <property name="meta.media.0.stream.frame_rate">25</property>
  <property name="meta.media.0.stream.sample_aspect_ratio">1</property>
  <property name="meta.media.0.codec.width">3840</property>
  <property name="meta.media.0.codec.height">1600</property>
  <property name="meta.media.0.codec.rotate">0</property>
  <property name="meta.media.0.codec.frame_rate">25</property>
  <property name="meta.media.0.codec.pix_fmt">yuv420p</property>
  <property name="meta.media.0.codec.sample_aspect_ratio">1</property>
  <property name="meta.media.0.codec.colorspace">709</property>
  <property name="meta.media.0.codec.name">h264</property>
  <property name="meta.media.0.codec.long_name">H.264 / AVC / MPEG-4 AVC / MPEG-4 part 10</property>
  <property name="meta.media.0.codec.bit_rate">0</property>
  <property name="meta.attr.0.stream.ENCODER.markup">Lavc58.35.100 libx264</property>
  <property name="meta.attr.0.stream.DURATION.markup">00:09:40.920000000</property>
  <property name="meta.attr.ENCODER.markup">Lavf58.20.100</property>
  <property name="seekable">1</property>
  <property name="meta.media.sample_aspect_num">1</property>
  <property name="meta.media.sample_aspect_den">1</property>
  <property name="audio_index">-1</property>
  <property name="video_index">0</property>
  <property name="mute_on_pause">1</property>
  <property name="warp_speed">1,15</property>
  <property name="warp_resource">/media/lnj/LNJ-1TB-HDD/vid/yt/DuraPhilms/SynchroRemasters/videos/PvA-09-orig.2160p25.mkv</property>
  <property name="mlt_service">timewarp</property>
  <property name="kdenlive:proxy">-</property>
  <property name="kdenlive:originalurl">/media/lnj/LNJ-1TB-HDD/vid/yt/DuraPhilms/SynchroRemasters/videos/PvA-09-orig.2160p25.mkv</property>
  <property name="set.test_audio">1</property>
  <property name="set.test_image">0</property>
  <property name="kdenlive:id">2</property>
  <property name="meta.media.frame_rate_num">25</property>
  <property name="meta.media.frame_rate_den">1</property>
  <property name="meta.media.colorspace">709</property>
  <property name="meta.media.color_trc">2</property>
  <property name="meta.media.width">3840</property>
  <property name="meta.media.height">1600</property>
  <property name="meta.media.color_range">mpeg</property>
  <property name="meta.media.top_field_first">0</property>
  <property name="meta.media.progressive">1</property>
 </producer>
 <producer id="producer33" in="00:00:00,000" out="00:14:27,000">
  <property name="length">21676</property>
  <property name="eof">pause</property>
  <property name="resource">0,67:/media/lnj/LNJ-1TB-HDD/vid/yt/DuraPhilms/SynchroRemasters/videos/PvA-09-orig.2160p25.mkv</property>
  <property name="aspect_ratio">1</property>
  <property name="meta.media.nb_streams">1</property>
  <property name="meta.media.0.stream.type">video</property>
  <property name="meta.media.0.stream.frame_rate">25</property>
  <property name="meta.media.0.stream.sample_aspect_ratio">1</property>
  <property name="meta.media.0.codec.width">3840</property>
  <property name="meta.media.0.codec.height">1600</property>
  <property name="meta.media.0.codec.rotate">0</property>
  <property name="meta.media.0.codec.frame_rate">25</property>
  <property name="meta.media.0.codec.pix_fmt">yuv420p</property>
  <property name="meta.media.0.codec.sample_aspect_ratio">1</property>
  <property name="meta.media.0.codec.colorspace">709</property>
  <property name="meta.media.0.codec.name">h264</property>
  <property name="meta.media.0.codec.long_name">H.264 / AVC / MPEG-4 AVC / MPEG-4 part 10</property>
  <property name="meta.media.0.codec.bit_rate">0</property>
  <property name="meta.attr.0.stream.ENCODER.markup">Lavc58.35.100 libx264</property>
  <property name="meta.attr.0.stream.DURATION.markup">00:09:40.920000000</property>
  <property name="meta.attr.ENCODER.markup">Lavf58.20.100</property>
  <property name="seekable">1</property>
  <property name="meta.media.sample_aspect_num">1</property>
  <property name="meta.media.sample_aspect_den">1</property>
  <property name="audio_index">-1</property>
  <property name="video_index">0</property>
  <property name="mute_on_pause">1</property>
  <property name="warp_speed">0,67</property>
  <property name="warp_resource">/media/lnj/LNJ-1TB-HDD/vid/yt/DuraPhilms/SynchroRemasters/videos/PvA-09-orig.2160p25.mkv</property>
  <property name="mlt_service">timewarp</property>
  <property name="kdenlive:proxy">-</property>
  <property name="kdenlive:originalurl">/media/lnj/LNJ-1TB-HDD/vid/yt/DuraPhilms/SynchroRemasters/videos/PvA-09-orig.2160p25.mkv</property>
  <property name="set.test_audio">1</property>
  <property name="set.test_image">0</property>
  <property name="kdenlive:id">2</property>
  <property name="meta.media.frame_rate_num">25</property>
  <property name="meta.media.frame_rate_den">1</property>
  <property name="meta.media.colorspace">709</property>
  <property name="meta.media.color_trc">2</property>
  <property name="meta.media.width">3840</property>
  <property name="meta.media.height">1600</property>
  <property name="meta.media.color_range">mpeg</property>
  <property name="meta.media.top_field_first">0</property>
  <property name="meta.media.progressive">1</property>
 </producer>
 <producer id="producer34" in="00:00:00,000" out="00:19:21,800">
  <property name="length">29046</property>
  <property name="eof">pause</property>
  <property name="resource">0,5:/media/lnj/LNJ-1TB-HDD/vid/yt/DuraPhilms/SynchroRemasters/videos/PvA-09-orig.2160p25.mkv</property>
  <property name="aspect_ratio">1</property>
  <property name="meta.media.nb_streams">1</property>
  <property name="meta.media.0.stream.type">video</property>
  <property name="meta.media.0.stream.frame_rate">25</property>
  <property name="meta.media.0.stream.sample_aspect_ratio">1</property>
  <property name="meta.media.0.codec.width">3840</property>
  <property name="meta.media.0.codec.height">1600</property>
  <property name="meta.media.0.codec.rotate">0</property>
  <property name="meta.media.0.codec.frame_rate">25</property>
  <property name="meta.media.0.codec.pix_fmt">yuv420p</property>
  <property name="meta.media.0.codec.sample_aspect_ratio">1</property>
  <property name="meta.media.0.codec.colorspace">709</property>
  <property name="meta.media.0.codec.name">h264</property>
  <property name="meta.media.0.codec.long_name">H.264 / AVC / MPEG-4 AVC / MPEG-4 part 10</property>
  <property name="meta.media.0.codec.bit_rate">0</property>
  <property name="meta.attr.0.stream.ENCODER.markup">Lavc58.35.100 libx264</property>
  <property name="meta.attr.0.stream.DURATION.markup">00:09:40.920000000</property>
  <property name="meta.attr.ENCODER.markup">Lavf58.20.100</property>
  <property name="seekable">1</property>
  <property name="meta.media.sample_aspect_num">1</property>
  <property name="meta.media.sample_aspect_den">1</property>
  <property name="audio_index">-1</property>
  <property name="video_index">0</property>
  <property name="mute_on_pause">1</property>
  <property name="warp_speed">0,5</property>
  <property name="warp_resource">/media/lnj/LNJ-1TB-HDD/vid/yt/DuraPhilms/SynchroRemasters/videos/PvA-09-orig.2160p25.mkv</property>
  <property name="mlt_service">timewarp</property>
  <property name="kdenlive:proxy">-</property>
  <property name="kdenlive:originalurl">/media/lnj/LNJ-1TB-HDD/vid/yt/DuraPhilms/SynchroRemasters/videos/PvA-09-orig.2160p25.mkv</property>
  <property name="set.test_audio">1</property>
  <property name="set.test_image">0</property>
  <property name="meta.media.frame_rate_num">25</property>
  <property name="meta.media.frame_rate_den">1</property>
  <property name="meta.media.colorspace">709</property>
  <property name="meta.media.color_trc">2</property>
  <property name="meta.media.width">3840</property>
  <property name="meta.media.height">1600</property>
  <property name="meta.media.color_range">mpeg</property>
  <property name="meta.media.top_field_first">0</property>
  <property name="meta.media.progressive">1</property>
  <property name="kdenlive:id">2</property>
 </producer>
 <playlist id="playlist4">
  <entry producer="producer20" in="00:00:00,000" out="00:00:06,960">
   <property name="kdenlive:id">4</property>
   <filter id="filter0">
    <property name="background">colour:0x00000000</property>
    <property name="mlt_service">affine</property>
    <property name="kdenlive_id">pan_zoom</property>
    <property name="transition.geometry">0=0 -280 3840 2160</property>
    <property name="transition.distort">0</property>
    <property name="use_normalised">0</property>
    <property name="kdenlive:collapsed">0</property>
   </filter>
  </entry>
  <entry producer="producer21" in="00:00:00,000" out="00:00:20,560">
   <property name="kdenlive:id">2</property>
   <filter id="filter1">
    <property name="mirror">flip</property>
    <property name="mlt_service">mirror</property>
    <property name="kdenlive_id">mirror</property>
    <property name="reverse">0</property>
    <property name="kdenlive:collapsed">0</property>
   </filter>
  </entry>
  <entry producer="producer23" in="00:00:40,000" out="00:00:44,920">
   <property name="kdenlive:id">2</property>
   <filter id="filter2">
    <property name="mirror">flip</property>
    <property name="mlt_service">mirror</property>
    <property name="kdenlive_id">mirror</property>
    <property name="reverse">0</property>
    <property name="kdenlive:collapsed">0</property>
   </filter>
  </entry>
  <entry producer="producer21" in="00:00:23,160" out="00:00:39,360">
   <property name="kdenlive:id">2</property>
   <filter id="filter3">
    <property name="mirror">flip</property>
    <property name="mlt_service">mirror</property>
    <property name="kdenlive_id">mirror</property>
    <property name="reverse">0</property>
    <property name="kdenlive:collapsed">0</property>
   </filter>
  </entry>
  <entry producer="producer22" in="00:00:49,200" out="00:00:52,760">
   <property name="kdenlive:id">3</property>
   <filter id="filter4">
    <property name="version">0,2</property>
    <property name="mlt_service">frei0r.contrast0r</property>
    <property name="kdenlive_id">frei0r.contrast0r</property>
    <property name="Contrast">00:00:49,200=0,54</property>
    <property name="kdenlive:collapsed">0</property>
   </filter>
   <filter id="filter5">
    <property name="mlt_service">crop</property>
    <property name="kdenlive_id">crop</property>
    <property name="top">23</property>
    <property name="left">22</property>
    <property name="bottom">20</property>
    <property name="right">0</property>
    <property name="center">0</property>
    <property name="center_bias">0</property>
    <property name="use_profile">0</property>
    <property name="kdenlive:collapsed">0</property>
   </filter>
   <filter id="filter6">
    <property name="background">colour:0x00000000</property>
    <property name="mlt_service">affine</property>
    <property name="kdenlive_id">pan_zoom</property>
    <property name="transition.geometry">1230=0 0 3840 1600</property>
    <property name="transition.distort">1</property>
    <property name="use_normalised">0</property>
    <property name="kdenlive:collapsed">0</property>
   </filter>
   <filter id="filter7">
    <property name="version">0,1</property>
    <property name="mlt_service">frei0r.IIRblur</property>
    <property name="kdenlive_id">frei0r.IIRblur</property>
    <property name="Amount">00:00:49,200=1</property>
    <property name="Type">0,999</property>
    <property name="Edge">1</property>
    <property name="kdenlive:collapsed">0</property>
   </filter>
  </entry>
  <entry producer="producer21" in="00:00:46,520" out="00:00:48,360">
   <property name="kdenlive:id">2</property>
   <filter id="filter8">
    <property name="mirror">flip</property>
    <property name="mlt_service">mirror</property>
    <property name="kdenlive_id">mirror</property>
    <property name="reverse">0</property>
    <property name="kdenlive:collapsed">0</property>
   </filter>
  </entry>
  <entry producer="producer22" in="00:00:54,680" out="00:00:57,400">
   <property name="kdenlive:id">3</property>
   <filter id="filter9">
    <property name="version">0,2</property>
    <property name="mlt_service">frei0r.contrast0r</property>
    <property name="kdenlive_id">frei0r.contrast0r</property>
    <property name="Contrast">00:00:54,680=0,54</property>
   </filter>
   <filter id="filter10">
    <property name="mlt_service">crop</property>
    <property name="kdenlive_id">crop</property>
    <property name="top">14</property>
    <property name="left">22</property>
    <property name="bottom">16</property>
    <property name="right">0</property>
    <property name="center">0</property>
    <property name="center_bias">0</property>
    <property name="use_profile">0</property>
   </filter>
   <filter id="filter11">
    <property name="background">colour:0x00000000</property>
    <property name="mlt_service">affine</property>
    <property name="kdenlive_id">pan_zoom</property>
    <property name="transition.geometry">1367=0 0 3840 1600</property>
    <property name="transition.distort">1</property>
    <property name="use_normalised">0</property>
   </filter>
   <filter id="filter12">
    <property name="version">0,1</property>
    <property name="mlt_service">frei0r.IIRblur</property>
    <property name="kdenlive_id">frei0r.IIRblur</property>
    <property name="Amount">00:00:54,680=1</property>
    <property name="Type">0,999</property>
    <property name="Edge">1</property>
   </filter>
  </entry>
  <entry producer="producer21" in="00:00:50,000" out="00:03:21,960">
   <property name="kdenlive:id">2</property>
   <filter id="filter13">
    <property name="mirror">flip</property>
    <property name="mlt_service">mirror</property>
    <property name="kdenlive_id">mirror</property>
    <property name="reverse">0</property>
    <property name="kdenlive:collapsed">0</property>
   </filter>
  </entry>
  <entry producer="producer25" in="00:03:17,080" out="00:03:22,800">
   <property name="kdenlive:id">2</property>
   <filter id="filter14">
    <property name="mirror">flip</property>
    <property name="mlt_service">mirror</property>
    <property name="kdenlive_id">mirror</property>
    <property name="reverse">0</property>
    <property name="kdenlive:collapsed">0</property>
   </filter>
  </entry>
  <entry producer="producer21" in="00:03:27,920" out="00:03:44,320">
   <property name="kdenlive:id">2</property>
   <filter id="filter15">
    <property name="mirror">flip</property>
    <property name="mlt_service">mirror</property>
    <property name="kdenlive_id">mirror</property>
    <property name="reverse">0</property>
    <property name="kdenlive:collapsed">0</property>
   </filter>
  </entry>
  <blank length="00:00:01,640"/>
  <entry producer="producer24" in="00:00:00,040" out="00:00:11,800">
   <property name="kdenlive:id">6</property>
  </entry>
  <entry producer="producer21" in="00:03:44,680" out="00:05:15,560">
   <property name="kdenlive:id">2</property>
   <filter id="filter16">
    <property name="mirror">flip</property>
    <property name="mlt_service">mirror</property>
    <property name="kdenlive_id">mirror</property>
    <property name="reverse">0</property>
    <property name="kdenlive:collapsed">0</property>
   </filter>
  </entry>
  <entry producer="producer21" in="00:05:15,600" out="00:05:59,400">
   <property name="kdenlive:id">2</property>
   <filter id="filter17">
    <property name="mirror">flip</property>
    <property name="mlt_service">mirror</property>
    <property name="kdenlive_id">mirror</property>
    <property name="reverse">0</property>
    <property name="kdenlive:collapsed">0</property>
   </filter>
  </entry>
  <entry producer="producer21" in="00:05:59,440" out="00:06:08,840">
   <property name="kdenlive:id">2</property>
   <filter id="filter18">
    <property name="mirror">flip</property>
    <property name="mlt_service">mirror</property>
    <property name="kdenlive_id">mirror</property>
    <property name="reverse">0</property>
    <property name="kdenlive:collapsed">0</property>
   </filter>
  </entry>
  <entry producer="producer27" in="00:07:46,920" out="00:07:55,400">
   <property name="kdenlive:id">2</property>
   <filter id="filter19">
    <property name="mirror">flip</property>
    <property name="mlt_service">mirror</property>
    <property name="kdenlive_id">mirror</property>
    <property name="reverse">0</property>
    <property name="kdenlive:collapsed">0</property>
   </filter>
  </entry>
  <entry producer="producer21" in="00:06:15,640" out="00:08:21,040">
   <property name="kdenlive:id">2</property>
   <filter id="filter20">
    <property name="mirror">flip</property>
    <property name="mlt_service">mirror</property>
    <property name="kdenlive_id">mirror</property>
    <property name="reverse">0</property>
    <property name="kdenlive:collapsed">0</property>
    <property name="disable">0</property>
   </filter>
  </entry>
  <entry producer="producer21" in="00:08:22,480" out="00:08:29,200">
   <property name="kdenlive:id">2</property>
   <filter id="filter21">
    <property name="mirror">flip</property>
    <property name="mlt_service">mirror</property>
    <property name="kdenlive_id">mirror</property>
    <property name="reverse">0</property>
    <property name="kdenlive:collapsed">0</property>
   </filter>
  </entry>
  <entry producer="producer21" in="00:08:29,240" out="00:09:22,200">
   <property name="kdenlive:id">2</property>
   <filter id="filter22">
    <property name="mirror">flip</property>
    <property name="mlt_service">mirror</property>
    <property name="kdenlive_id">mirror</property>
    <property name="reverse">0</property>
    <property name="kdenlive:collapsed">0</property>
   </filter>
  </entry>
  <entry producer="producer26" in="00:00:00,000" out="00:00:06,840">
   <property name="kdenlive:id">7</property>
   <filter id="filter23">
    <property name="mlt_service">crop</property>
    <property name="kdenlive_id">crop</property>
    <property name="top">4</property>
    <property name="left">10</property>
    <property name="bottom">4</property>
    <property name="right">9</property>
    <property name="center">0</property>
    <property name="center_bias">0</property>
    <property name="use_profile">0</property>
    <property name="kdenlive:collapsed">0</property>
   </filter>
   <filter id="filter24">
    <property name="background">colour:0x00000000</property>
    <property name="mlt_service">affine</property>
    <property name="kdenlive_id">pan_zoom</property>
    <property name="transition.geometry">0=-9 -4 3859 1608</property>
    <property name="transition.distort">1</property>
    <property name="use_normalised">0</property>
    <property name="kdenlive:collapsed">0</property>
   </filter>
   <filter id="filter25">
    <property name="version">0,1</property>
    <property name="mlt_service">frei0r.IIRblur</property>
    <property name="kdenlive_id">frei0r.IIRblur</property>
    <property name="Amount">00:00:00,000=1</property>
    <property name="Type">0,5</property>
    <property name="Edge">1</property>
    <property name="kdenlive:collapsed">0</property>
   </filter>
  </entry>
  <entry producer="producer22" in="00:09:49,880" out="00:09:51,600">
   <property name="kdenlive:id">3</property>
   <filter id="filter26">
    <property name="version">0,2</property>
    <property name="mlt_service">frei0r.contrast0r</property>
    <property name="kdenlive_id">frei0r.contrast0r</property>
    <property name="Contrast">00:09:49,880=0,54</property>
    <property name="kdenlive:collapsed">0</property>
   </filter>
   <filter id="filter27">
    <property name="background">colour:0x00000000</property>
    <property name="mlt_service">affine</property>
    <property name="kdenlive_id">pan_zoom</property>
    <property name="transition.geometry">14747=0 0 3840 1600</property>
    <property name="transition.distort">1</property>
    <property name="use_normalised">0</property>
    <property name="kdenlive:collapsed">0</property>
   </filter>
   <filter id="filter28">
    <property name="version">0,1</property>
    <property name="mlt_service">frei0r.IIRblur</property>
    <property name="kdenlive_id">frei0r.IIRblur</property>
    <property name="Amount">00:09:49,880=1</property>
    <property name="Type">0,5</property>
    <property name="Edge">1</property>
    <property name="kdenlive:collapsed">0</property>
   </filter>
  </entry>
  <entry producer="producer22" in="00:09:51,640" out="00:10:23,960">
   <property name="kdenlive:id">3</property>
   <filter id="filter29">
    <property name="version">0,2</property>
    <property name="mlt_service">frei0r.sharpness</property>
    <property name="kdenlive_id">frei0r.sharpness</property>
    <property name="Amount">00:09:51,640=0,268</property>
    <property name="Size">00:09:51,640=0</property>
    <property name="kdenlive:collapsed">0</property>
   </filter>
   <filter id="filter30">
    <property name="version">0,2</property>
    <property name="mlt_service">frei0r.contrast0r</property>
    <property name="kdenlive_id">frei0r.contrast0r</property>
    <property name="Contrast">00:09:51,640=0,54</property>
    <property name="kdenlive:collapsed">0</property>
   </filter>
   <filter id="filter31">
    <property name="mlt_service">crop</property>
    <property name="kdenlive_id">crop</property>
    <property name="top">62</property>
    <property name="left">0</property>
    <property name="bottom">90</property>
    <property name="right">0</property>
    <property name="center">0</property>
    <property name="center_bias">0</property>
    <property name="use_profile">0</property>
    <property name="kdenlive:collapsed">0</property>
   </filter>
   <filter id="filter32">
    <property name="background">colour:0x00000000</property>
    <property name="mlt_service">affine</property>
    <property name="kdenlive_id">pan_zoom</property>
    <property name="transition.geometry">14791=0 0 4260 1775</property>
    <property name="transition.distort">1</property>
    <property name="use_normalised">0</property>
    <property name="kdenlive:collapsed">0</property>
   </filter>
   <filter id="filter33">
    <property name="version">0,1</property>
    <property name="mlt_service">frei0r.IIRblur</property>
    <property name="kdenlive_id">frei0r.IIRblur</property>
    <property name="Amount">00:09:51,640=0,504</property>
    <property name="Type">0,5</property>
    <property name="Edge">1</property>
    <property name="kdenlive:collapsed">0</property>
   </filter>
  </entry>
  <entry producer="producer22" in="00:10:24,000" out="00:10:24,680">
   <property name="kdenlive:id">3</property>
   <filter id="filter34">
    <property name="version">0,2</property>
    <property name="mlt_service">frei0r.sharpness</property>
    <property name="kdenlive_id">frei0r.sharpness</property>
    <property name="Amount">00:10:24,000=0,268</property>
    <property name="Size">00:10:24,000=0</property>
    <property name="kdenlive:collapsed">0</property>
   </filter>
   <filter id="filter35">
    <property name="version">0,2</property>
    <property name="mlt_service">frei0r.contrast0r</property>
    <property name="kdenlive_id">frei0r.contrast0r</property>
    <property name="Contrast">00:10:24,000=0,54</property>
    <property name="kdenlive:collapsed">0</property>
   </filter>
   <filter id="filter36">
    <property name="mlt_service">crop</property>
    <property name="kdenlive_id">crop</property>
    <property name="top">62</property>
    <property name="left">0</property>
    <property name="bottom">90</property>
    <property name="right">0</property>
    <property name="center">0</property>
    <property name="center_bias">0</property>
    <property name="use_profile">0</property>
    <property name="kdenlive:collapsed">0</property>
   </filter>
   <filter id="filter37">
    <property name="background">colour:0x00000000</property>
    <property name="mlt_service">affine</property>
    <property name="kdenlive_id">pan_zoom</property>
    <property name="transition.geometry">15600=0 0 3840 1600</property>
    <property name="transition.distort">1</property>
    <property name="use_normalised">0</property>
    <property name="kdenlive:collapsed">0</property>
    <property name="disable">0</property>
   </filter>
  </entry>
  <entry producer="producer21" in="00:09:26,240" out="00:09:26,520">
   <property name="kdenlive:id">2</property>
   <filter id="filter38">
    <property name="mirror">flip</property>
    <property name="mlt_service">mirror</property>
    <property name="kdenlive_id">mirror</property>
    <property name="reverse">0</property>
    <property name="kdenlive:collapsed">0</property>
   </filter>
  </entry>
  <entry producer="producer29" in="00:08:12,640" out="00:08:13,040">
   <property name="kdenlive:id">2</property>
   <filter id="filter39">
    <property name="mirror">flip</property>
    <property name="mlt_service">mirror</property>
    <property name="kdenlive_id">mirror</property>
    <property name="reverse">0</property>
    <property name="kdenlive:collapsed">0</property>
   </filter>
  </entry>
  <entry producer="producer30" in="00:08:13,080" out="00:08:13,160">
   <property name="kdenlive:id">2</property>
   <filter id="filter40">
    <property name="mirror">flip</property>
    <property name="mlt_service">mirror</property>
    <property name="kdenlive_id">mirror</property>
    <property name="reverse">0</property>
   </filter>
  </entry>
  <entry producer="producer21" in="00:09:27,160" out="00:09:27,440">
   <property name="kdenlive:id">2</property>
   <filter id="filter41">
    <property name="mirror">flip</property>
    <property name="mlt_service">mirror</property>
    <property name="kdenlive_id">mirror</property>
    <property name="reverse">0</property>
    <property name="kdenlive:collapsed">0</property>
   </filter>
  </entry>
  <entry producer="producer31" in="00:14:06,960" out="00:14:07,040">
   <property name="kdenlive:id">2</property>
   <filter id="filter42">
    <property name="mirror">flip</property>
    <property name="mlt_service">mirror</property>
    <property name="kdenlive_id">mirror</property>
    <property name="reverse">0</property>
    <property name="kdenlive:collapsed">0</property>
   </filter>
   <filter id="filter43">
    <property name="mlt_service">avfilter.tmix</property>
    <property name="kdenlive_id">avfilter.tmix</property>
    <property name="av.frames">2</property>
    <property name="av.weights">1 1 1</property>
    <property name="av.scale">0</property>
    <property name="av.threads">0</property>
    <property name="kdenlive:collapsed">0</property>
    <property name="position">0</property>
   </filter>
  </entry>
  <entry producer="producer32" in="00:08:13,080" out="00:08:13,160">
   <property name="kdenlive:id">2</property>
   <filter id="filter48">
    <property name="mirror">flip</property>
    <property name="mlt_service">mirror</property>
    <property name="kdenlive_id">mirror</property>
    <property name="reverse">0</property>
    <property name="kdenlive:collapsed">0</property>
   </filter>
  </entry>
  <entry producer="producer21" in="00:09:27,160" out="00:09:27,440">
   <property name="kdenlive:id">2</property>
   <filter id="filter49">
    <property name="mirror">flip</property>
    <property name="mlt_service">mirror</property>
    <property name="kdenlive_id">mirror</property>
    <property name="reverse">0</property>
    <property name="kdenlive:collapsed">0</property>
   </filter>
  </entry>
  <entry producer="producer33" in="00:14:06,960" out="00:14:07,040">
   <property name="kdenlive:id">2</property>
   <filter id="filter50">
    <property name="mirror">flip</property>
    <property name="mlt_service">mirror</property>
    <property name="kdenlive_id">mirror</property>
    <property name="reverse">0</property>
    <property name="kdenlive:collapsed">0</property>
   </filter>
   <filter id="filter51">
    <property name="mlt_service">avfilter.tmix</property>
    <property name="kdenlive_id">avfilter.tmix</property>
    <property name="av.frames">2</property>
    <property name="av.weights">1 1 1</property>
    <property name="av.scale">0</property>
    <property name="av.threads">0</property>
    <property name="kdenlive:collapsed">0</property>
    <property name="position">0</property>
   </filter>
  </entry>
  <entry producer="producer21" in="00:09:26,880" out="00:09:27,480">
   <property name="kdenlive:id">2</property>
   <filter id="filter44">
    <property name="mirror">flip</property>
    <property name="mlt_service">mirror</property>
    <property name="kdenlive_id">mirror</property>
    <property name="reverse">0</property>
    <property name="kdenlive:collapsed">0</property>
   </filter>
  </entry>
  <entry producer="producer21" in="00:09:26,920" out="00:09:27,880">
   <property name="kdenlive:id">2</property>
   <filter id="filter45">
    <property name="mirror">flip</property>
    <property name="mlt_service">mirror</property>
    <property name="kdenlive_id">mirror</property>
    <property name="reverse">0</property>
    <property name="kdenlive:collapsed">0</property>
   </filter>
  </entry>
  <entry producer="producer34" in="00:18:54,200" out="00:18:55,880">
   <property name="kdenlive:id">2</property>
   <filter id="filter46">
    <property name="mirror">flip</property>
    <property name="mlt_service">mirror</property>
    <property name="kdenlive_id">mirror</property>
    <property name="reverse">0</property>
    <property name="kdenlive:collapsed">0</property>
   </filter>
  </entry>
  <entry producer="producer21" in="00:09:27,960" out="00:09:33,960">
   <property name="kdenlive:id">2</property>
   <filter id="filter47">
    <property name="mirror">flip</property>
    <property name="mlt_service">mirror</property>
    <property name="kdenlive_id">mirror</property>
    <property name="reverse">0</property>
    <property name="kdenlive:collapsed">0</property>
   </filter>
  </entry>
  <entry producer="producer21" in="00:09:34,000" out="00:09:36,560">
   <property name="kdenlive:id">2</property>
   <filter id="filter52">
    <property name="mirror">flip</property>
    <property name="mlt_service">mirror</property>
    <property name="kdenlive_id">mirror</property>
    <property name="reverse">0</property>
   </filter>
  </entry>
  <entry producer="producer21" in="00:09:36,600" out="00:09:40,880">
   <property name="kdenlive:id">2</property>
   <filter id="filter53">
    <property name="mirror">flip</property>
    <property name="mlt_service">mirror</property>
    <property name="kdenlive_id">mirror</property>
    <property name="reverse">0</property>
    <property name="kdenlive:collapsed">0</property>
   </filter>
  </entry>
  <blank length="00:00:04,880"/>
  <entry producer="producer22" in="00:10:47,800" out="00:10:54,680">
   <property name="kdenlive:id">3</property>
   <filter id="filter106">
    <property name="version">0,2</property>
    <property name="mlt_service">frei0r.contrast0r</property>
    <property name="kdenlive_id">frei0r.contrast0r</property>
    <property name="Contrast">00:10:47,800=0,54</property>
    <property name="kdenlive:collapsed">0</property>
   </filter>
   <filter id="filter107">
    <property name="version">0,2</property>
    <property name="mlt_service">frei0r.sharpness</property>
    <property name="kdenlive_id">frei0r.sharpness</property>
    <property name="Amount">00:10:47,800=0,38</property>
    <property name="Size">00:10:47,800=0</property>
    <property name="kdenlive:collapsed">0</property>
    <property name="disable">0</property>
   </filter>
  </entry>
 </playlist>
 <playlist id="playlist5"/>
 <tractor id="tractor2" in="00:00:00,000" out="00:10:54,280">
  <property name="kdenlive:trackheight">60</property>
  <property name="kdenlive:collapsed">0</property>
  <property name="kdenlive:thumbs_format"/>
  <property name="kdenlive:audio_rec"/>
  <track hide="audio" producer="playlist4"/>
  <track hide="audio" producer="playlist5"/>
 </tractor>
 <producer title="Anonymous Submission" id="producer28" in="00:00:00,000" out="00:10:55,560">
  <property name="length">16390</property>
  <property name="eof">pause</property>
  <property name="resource">/media/lnj/LNJ-1TB-HDD/vid/yt/DuraPhilms/SynchroRemasters/videos/PvA-09.mp4</property>
  <property name="audio_index">1</property>
  <property name="video_index">0</property>
  <property name="mute_on_pause">1</property>
  <property name="mlt_service">avformat-novalidate</property>
  <property name="seekable">1</property>
  <property name="aspect_ratio">1</property>
  <property name="kdenlive:clipname"/>
  <property name="kdenlive:id">3</property>
  <property name="kdenlive:file_size">139178296</property>
  <property name="kdenlive:file_hash">3e16487f4c98cfa0b5bd2bbd22992b33</property>
  <property name="kdenlive:folderid">-1</property>
  <property name="kdenlive:proxy">-</property>
  <property name="kdenlive:originalurl">/media/lnj/LNJ-1TB-HDD/vid/yt/DuraPhilms/SynchroRemasters/videos/PvA-09.mp4</property>
  <property name="kdenlive:original.mlt_type">producer</property>
  <property name="kdenlive:original.in">0</property>
  <property name="kdenlive:original.out">16389</property>
  <property name="kdenlive:original.length">16390</property>
  <property name="kdenlive:original.eof">pause</property>
  <property name="kdenlive:original.resource">/media/lnj/LNJ-1TB-HDD/vid/yt/DuraPhilms/SynchroRemasters/videos/PvA-09.mp4</property>
  <property name="kdenlive:original.meta.media.nb_streams">2</property>
  <property name="kdenlive:original.meta.media.0.stream.type">video</property>
  <property name="kdenlive:original.meta.media.0.stream.frame_rate">23,976</property>
  <property name="kdenlive:original.meta.media.0.stream.sample_aspect_ratio">0</property>
  <property name="kdenlive:original.meta.media.0.codec.width">1280</property>
  <property name="kdenlive:original.meta.media.0.codec.height">720</property>
  <property name="kdenlive:original.meta.media.0.codec.rotate">0</property>
  <property name="kdenlive:original.meta.media.0.codec.frame_rate">23,976</property>
  <property name="kdenlive:original.meta.media.0.codec.pix_fmt">yuv420p</property>
  <property name="kdenlive:original.meta.media.0.codec.sample_aspect_ratio">1</property>
  <property name="kdenlive:original.meta.media.0.codec.colorspace">709</property>
  <property name="kdenlive:original.meta.media.0.codec.color_trc">1</property>
  <property name="kdenlive:original.meta.media.0.codec.name">h264</property>
  <property name="kdenlive:original.meta.media.0.codec.long_name">H.264 / AVC / MPEG-4 AVC / MPEG-4 part 10</property>
  <property name="kdenlive:original.meta.media.0.codec.bit_rate">1533361</property>
  <property name="kdenlive:original.meta.attr.0.stream.handler_name.markup">VideoHandler</property>
  <property name="kdenlive:original.meta.media.1.stream.type">audio</property>
  <property name="kdenlive:original.meta.media.1.codec.sample_fmt">fltp</property>
  <property name="kdenlive:original.meta.media.1.codec.sample_rate">48000</property>
  <property name="kdenlive:original.meta.media.1.codec.channels">2</property>
  <property name="kdenlive:original.meta.media.1.codec.name">mp3float</property>
  <property name="kdenlive:original.meta.media.1.codec.long_name">MP3 (MPEG audio layer 3)</property>
  <property name="kdenlive:original.meta.media.1.codec.bit_rate">158679</property>
  <property name="kdenlive:original.meta.attr.1.stream.language.markup">deu</property>
  <property name="kdenlive:original.meta.attr.1.stream.handler_name.markup">Stereo</property>
  <property name="kdenlive:original.meta.attr.major_brand.markup">mp42</property>
  <property name="kdenlive:original.meta.attr.minor_version.markup">512</property>
  <property name="kdenlive:original.meta.attr.compatible_brands.markup">isomiso2avc1mp41</property>
  <property name="kdenlive:original.meta.attr.encoder.markup">HandBrake 6548svn 2014112401</property>
  <property name="kdenlive:original.meta.attr.title.markup">Harry Potter und der Penner von Alcatraz Teil 9</property>
  <property name="kdenlive:original.seekable">1</property>
  <property name="kdenlive:original.width">1280</property>
  <property name="kdenlive:original.height">720</property>
  <property name="kdenlive:original.meta.media.sample_aspect_num">1</property>
  <property name="kdenlive:original.meta.media.sample_aspect_den">1</property>
  <property name="kdenlive:original.aspect_ratio">1</property>
  <property name="kdenlive:original.audio_index">1</property>
  <property name="kdenlive:original.video_index">0</property>
  <property name="kdenlive:original.mute_on_pause">1</property>
  <property name="kdenlive:original.mlt_service">avformat-novalidate</property>
  <property name="kdenlive:original.meta.media.frame_rate_num">707310000</property>
  <property name="kdenlive:original.meta.media.frame_rate_den">29500721</property>
  <property name="kdenlive:original.meta.media.colorspace">709</property>
  <property name="kdenlive:original.meta.media.color_trc">1</property>
  <property name="kdenlive:original.meta.media.width">1280</property>
  <property name="kdenlive:original.meta.media.height">720</property>
  <property name="kdenlive:original.kdenlive:id">3</property>
  <property name="kdenlive:original.kdenlive:file_size">139178296</property>
  <property name="kdenlive:original.kdenlive:file_hash">3e16487f4c98cfa0b5bd2bbd22992b33</property>
  <property name="kdenlive:original.kdenlive:folderid">-1</property>
  <property name="kdenlive:original.backup">1</property>
  <property name="global_feed">1</property>
  <property name="xml">was here</property>
  <property name="meta.media.nb_streams">2</property>
  <property name="meta.media.0.stream.type">video</property>
  <property name="meta.media.0.stream.frame_rate">23,976</property>
  <property name="meta.media.0.stream.sample_aspect_ratio">0</property>
  <property name="meta.media.0.codec.width">1280</property>
  <property name="meta.media.0.codec.height">720</property>
  <property name="meta.media.0.codec.rotate">0</property>
  <property name="meta.media.0.codec.frame_rate">23,976</property>
  <property name="meta.media.0.codec.pix_fmt">yuv420p</property>
  <property name="meta.media.0.codec.sample_aspect_ratio">1</property>
  <property name="meta.media.0.codec.colorspace">709</property>
  <property name="meta.media.0.codec.color_trc">1</property>
  <property name="meta.media.0.codec.name">h264</property>
  <property name="meta.media.0.codec.long_name">H.264 / AVC / MPEG-4 AVC / MPEG-4 part 10</property>
  <property name="meta.media.0.codec.bit_rate">1533361</property>
  <property name="meta.attr.0.stream.handler_name.markup">VideoHandler</property>
  <property name="meta.media.1.stream.type">audio</property>
  <property name="meta.media.1.codec.sample_fmt">fltp</property>
  <property name="meta.media.1.codec.sample_rate">48000</property>
  <property name="meta.media.1.codec.channels">2</property>
  <property name="meta.media.1.codec.name">mp3float</property>
  <property name="meta.media.1.codec.long_name">MP3 (MPEG audio layer 3)</property>
  <property name="meta.media.1.codec.bit_rate">158679</property>
  <property name="meta.attr.1.stream.language.markup">deu</property>
  <property name="meta.attr.1.stream.handler_name.markup">Stereo</property>
  <property name="meta.attr.major_brand.markup">mp42</property>
  <property name="meta.attr.minor_version.markup">512</property>
  <property name="meta.attr.compatible_brands.markup">isomiso2avc1mp41</property>
  <property name="meta.attr.encoder.markup">HandBrake 6548svn 2014112401</property>
  <property name="meta.attr.title.markup">Harry Potter und der Penner von Alcatraz Teil 9</property>
  <property name="meta.media.sample_aspect_num">1</property>
  <property name="meta.media.sample_aspect_den">1</property>
  <property name="meta.media.frame_rate_num">707310000</property>
  <property name="meta.media.frame_rate_den">29500721</property>
  <property name="meta.media.colorspace">709</property>
  <property name="meta.media.color_trc">1</property>
  <property name="meta.media.width">1280</property>
  <property name="meta.media.height">720</property>
  <property name="meta.media.top_field_first">0</property>
  <property name="meta.media.progressive">1</property>
  <property name="meta.media.color_range">mpeg</property>
  <property name="set.test_audio">1</property>
  <property name="set.test_image">0</property>
 </producer>
 <producer title="Anonymous Submission" id="producer35" in="00:00:00,000" out="00:00:37,720">
  <property name="length">944</property>
  <property name="eof">pause</property>
  <property name="resource">/media/lnj/LNJ-1TB-HDD/vid/yt/DuraPhilms/SynchroRemasters/videos/PvA-09-wetten-dass-intro.mkv</property>
  <property name="audio_index">1</property>
  <property name="video_index">0</property>
  <property name="mute_on_pause">1</property>
  <property name="mlt_service">avformat-novalidate</property>
  <property name="seekable">1</property>
  <property name="aspect_ratio">1</property>
  <property name="kdenlive:clipname"/>
  <property name="kdenlive:id">7</property>
  <property name="kdenlive:file_size">4193620</property>
  <property name="kdenlive:file_hash">b5199e42b66a574bcfd9d0298d40096e</property>
  <property name="kdenlive:folderid">-1</property>
  <property name="global_feed">1</property>
  <property name="xml">was here</property>
  <property name="meta.media.nb_streams">2</property>
  <property name="meta.media.0.stream.type">video</property>
  <property name="meta.media.0.stream.frame_rate">25</property>
  <property name="meta.media.0.stream.sample_aspect_ratio">0</property>
  <property name="meta.media.0.codec.width">640</property>
  <property name="meta.media.0.codec.height">480</property>
  <property name="meta.media.0.codec.rotate">0</property>
  <property name="meta.media.0.codec.frame_rate">25</property>
  <property name="meta.media.0.codec.pix_fmt">yuv420p</property>
  <property name="meta.media.0.codec.sample_aspect_ratio">0</property>
  <property name="meta.media.0.codec.colorspace">601</property>
  <property name="meta.media.0.codec.name">h264</property>
  <property name="meta.media.0.codec.long_name">H.264 / AVC / MPEG-4 AVC / MPEG-4 part 10</property>
  <property name="meta.media.0.codec.bit_rate">0</property>
  <property name="meta.attr.0.stream.HANDLER_NAME.markup">VideoHandler</property>
  <property name="meta.attr.0.stream.DURATION.markup">00:00:37.640000000</property>
  <property name="meta.media.1.stream.type">audio</property>
  <property name="meta.media.1.codec.sample_fmt">fltp</property>
  <property name="meta.media.1.codec.sample_rate">48000</property>
  <property name="meta.media.1.codec.channels">2</property>
  <property name="meta.media.1.codec.name">opus</property>
  <property name="meta.media.1.codec.long_name">Opus</property>
  <property name="meta.media.1.codec.bit_rate">0</property>
  <property name="meta.attr.1.stream.language.markup">ger</property>
  <property name="meta.attr.1.stream.DURATION.markup">00:00:37.741000000</property>
  <property name="meta.attr.COMPATIBLE_BRANDS.markup">iso6avc1mp41</property>
  <property name="meta.attr.MAJOR_BRAND.markup">dash</property>
  <property name="meta.attr.MINOR_VERSION.markup">0</property>
  <property name="meta.attr.ENCODER.markup">Lavf58.20.100</property>
  <property name="meta.media.sample_aspect_num">1</property>
  <property name="meta.media.sample_aspect_den">1</property>
  <property name="meta.media.frame_rate_num">25</property>
  <property name="meta.media.frame_rate_den">1</property>
  <property name="meta.media.colorspace">601</property>
  <property name="meta.media.color_trc">2</property>
  <property name="meta.media.width">640</property>
  <property name="meta.media.height">480</property>
  <property name="meta.media.top_field_first">0</property>
  <property name="meta.media.progressive">1</property>
  <property name="meta.media.color_range">mpeg</property>
  <property name="set.test_audio">1</property>
  <property name="set.test_image">0</property>
 </producer>
 <playlist id="playlist6">
  <blank length="00:00:48,800"/>
  <entry producer="producer28" in="00:00:49,200" out="00:00:52,760">
   <property name="kdenlive:id">3</property>
   <filter id="filter54">
    <property name="version">0,2</property>
    <property name="mlt_service">frei0r.contrast0r</property>
    <property name="kdenlive_id">frei0r.contrast0r</property>
    <property name="Contrast">00:00:49,200=0,54</property>
    <property name="kdenlive:collapsed">0</property>
   </filter>
   <filter id="filter55">
    <property name="mlt_service">crop</property>
    <property name="kdenlive_id">crop</property>
    <property name="top">22</property>
    <property name="left">22</property>
    <property name="bottom">20</property>
    <property name="right">0</property>
    <property name="center">0</property>
    <property name="center_bias">0</property>
    <property name="use_profile">0</property>
    <property name="kdenlive:collapsed">0</property>
   </filter>
  </entry>
  <blank length="00:00:01,880"/>
  <entry producer="producer28" in="00:00:54,680" out="00:00:57,400">
   <property name="kdenlive:id">3</property>
   <filter id="filter56">
    <property name="version">0,2</property>
    <property name="mlt_service">frei0r.contrast0r</property>
    <property name="kdenlive_id">frei0r.contrast0r</property>
    <property name="Contrast">00:00:54,680=0,54</property>
   </filter>
   <filter id="filter57">
    <property name="mlt_service">crop</property>
    <property name="kdenlive_id">crop</property>
    <property name="top">14</property>
    <property name="left">22</property>
    <property name="bottom">16</property>
    <property name="right">0</property>
    <property name="center">0</property>
    <property name="center_bias">0</property>
    <property name="use_profile">0</property>
   </filter>
  </entry>
  <blank length="00:02:53,600"/>
  <entry producer="producer28" in="00:03:51,040" out="00:03:52,440">
   <property name="kdenlive:id">3</property>
   <filter id="filter58">
    <property name="background">colour:0x00000000</property>
    <property name="mlt_service">affine</property>
    <property name="kdenlive_id">pan_zoom</property>
    <property name="transition.geometry">5776=0 -280 3840 2160</property>
    <property name="transition.distort">0</property>
    <property name="use_normalised">0</property>
    <property name="kdenlive:collapsed">0</property>
   </filter>
   <filter id="filter59">
    <property name="version">0,2</property>
    <property name="mlt_service">frei0r.contrast0r</property>
    <property name="kdenlive_id">frei0r.contrast0r</property>
    <property name="Contrast">00:03:51,040=0,54</property>
    <property name="kdenlive:collapsed">0</property>
   </filter>
   <filter id="filter60">
    <property name="version">0,5</property>
    <property name="mlt_service">frei0r.select0r</property>
    <property name="kdenlive_id">frei0r.select0r</property>
    <property name="Color to select">0xf1bb96ff</property>
    <property name="Invert selection">1</property>
    <property name="Selection subspace">0</property>
    <property name="Subspace shape">0,5</property>
    <property name="Edge mode">0,7</property>
    <property name="Delta R / A / Hue">00:03:51,040=1</property>
    <property name="Delta G / B / Chroma">00:03:51,040=1</property>
    <property name="Delta B / I / I">00:03:51,040=1</property>
    <property name="Slope">00:03:51,040=0</property>
    <property name="Operation">1</property>
    <property name="kdenlive:collapsed">0</property>
    <property name="disable">0</property>
   </filter>
  </entry>
  <blank length="00:00:00,800"/>
  <entry producer="producer18" in="00:00:00,000" out="00:00:11,760">
   <property name="kdenlive:id">17</property>
  </entry>
  <blank length="00:01:30,920"/>
  <entry producer="producer28" in="00:05:36,000" out="00:05:47,960">
   <property name="kdenlive:id">3</property>
   <filter id="filter61">
    <property name="background">colour:0x00000000</property>
    <property name="mlt_service">affine</property>
    <property name="kdenlive_id">pan_zoom</property>
    <property name="transition.geometry">8400=0 -280 3840 2160</property>
    <property name="transition.distort">0</property>
    <property name="use_normalised">0</property>
    <property name="kdenlive:collapsed">0</property>
   </filter>
   <filter id="filter62">
    <property name="version">0,2</property>
    <property name="mlt_service">frei0r.contrast0r</property>
    <property name="kdenlive_id">frei0r.contrast0r</property>
    <property name="Contrast">00:05:36,000=0,54</property>
    <property name="kdenlive:collapsed">0</property>
   </filter>
   <filter id="filter63">
    <property name="version">0,1</property>
    <property name="mlt_service">frei0r.alphaspot</property>
    <property name="kdenlive_id">frei0r.alphaspot</property>
    <property name="Shape">0,38</property>
    <property name="Position X">00:05:36,000=0,517;00:05:39,400=0,524;00:05:41,840=0,534;00:05:46,480=0,526;00:05:47,560=0,526</property>
    <property name="Position Y">00:05:36,000=0,5;00:05:39,400=0,42;00:05:41,840=0,487;00:05:46,480=0,559;00:05:47,560=0,659</property>
    <property name="Size X">00:05:36,000=0,375;00:05:39,400=0,287671;00:05:41,840=0,225;00:05:46,480=0,144;00:05:47,560=0,14</property>
    <property name="Size Y">00:05:36,000=0,9;00:05:39,400=0,690411;00:05:41,840=0,54;00:05:46,480=0,345;00:05:47,560=0,336</property>
    <property name="Tilt">00:05:36,000=0;00:05:39,400=0;00:05:41,840=0;00:05:46,480=0;00:05:47,560=0</property>
    <property name="Transition width">00:05:36,000=0,114;00:05:39,400=0,118;00:05:41,840=0,155993;00:05:46,480=0,189358;00:05:47,560=0,2</property>
    <property name="Min">00:05:36,000=0;00:05:39,400=0;00:05:41,840=0;00:05:46,480=0;00:05:47,560=0</property>
    <property name="Max">00:05:36,000=1;00:05:39,400=1;00:05:41,840=1;00:05:46,480=1;00:05:47,560=1</property>
    <property name="Operation">0</property>
    <property name="kdenlive:collapsed">0</property>
    <property name="disable">0</property>
   </filter>
  </entry>
  <entry producer="producer28" in="00:05:47,960" out="00:05:47,960">
   <property name="kdenlive:id">3</property>
   <filter id="filter64">
    <property name="background">colour:0x00000000</property>
    <property name="mlt_service">affine</property>
    <property name="kdenlive_id">pan_zoom</property>
    <property name="transition.geometry">8699=0 -280 3840 2160</property>
    <property name="transition.distort">0</property>
    <property name="use_normalised">0</property>
    <property name="kdenlive:collapsed">0</property>
   </filter>
   <filter id="filter65">
    <property name="version">0,2</property>
    <property name="mlt_service">frei0r.contrast0r</property>
    <property name="kdenlive_id">frei0r.contrast0r</property>
    <property name="Contrast">00:05:47,960=0,54</property>
    <property name="kdenlive:collapsed">0</property>
   </filter>
   <filter id="filter66">
    <property name="version">0,1</property>
    <property name="mlt_service">frei0r.alphaspot</property>
    <property name="kdenlive_id">frei0r.alphaspot</property>
    <property name="Shape">0,38</property>
    <property name="Position X">00:05:39,400=0,524;00:05:41,840=0,534;00:05:46,480=0,526;00:05:47,560=0,526;00:05:47,960=0,526</property>
    <property name="Position Y">00:05:39,400=0,42;00:05:41,840=0,487;00:05:46,480=0,559;00:05:47,560=0,659;00:05:47,960=0,659</property>
    <property name="Size X">00:05:39,400=0,287671;00:05:41,840=0,225;00:05:46,480=0,144;00:05:47,560=0,14;00:05:47,960=0,14</property>
    <property name="Size Y">00:05:39,400=0,690411;00:05:41,840=0,54;00:05:46,480=0,345;00:05:47,560=0,336;00:05:47,960=0,336</property>
    <property name="Tilt">00:05:39,400=0;00:05:41,840=0;00:05:46,480=0;00:05:47,560=0;00:05:47,960=0</property>
    <property name="Transition width">00:05:39,400=0,118;00:05:41,840=0,155993;00:05:46,480=0,189358;00:05:47,560=0,2;00:05:47,960=0,2</property>
    <property name="Min">00:05:39,400=0;00:05:41,840=0;00:05:46,480=0;00:05:47,560=0;00:05:47,960=0</property>
    <property name="Max">00:05:39,400=1;00:05:41,840=1;00:05:46,480=1;00:05:47,560=1;00:05:47,960=1</property>
    <property name="Operation">0</property>
    <property name="kdenlive:collapsed">0</property>
   </filter>
  </entry>
  <blank length="00:00:43,920"/>
  <entry producer="producer3" in="00:00:00,000" out="00:00:05,800">
   <property name="kdenlive:id">10</property>
  </entry>
  <blank length="00:03:05,200"/>
  <entry producer="producer35" in="00:00:00,000" out="00:00:06,840">
   <property name="kdenlive:id">7</property>
   <filter id="filter67">
    <property name="mlt_service">crop</property>
    <property name="kdenlive_id">crop</property>
    <property name="top">4</property>
    <property name="left">10</property>
    <property name="bottom">0</property>
    <property name="right">9</property>
    <property name="center">0</property>
    <property name="center_bias">0</property>
    <property name="use_profile">0</property>
    <property name="kdenlive:collapsed">0</property>
   </filter>
  </entry>
  <entry producer="producer28" in="00:09:49,880" out="00:09:51,600">
   <property name="kdenlive:id">3</property>
   <filter id="filter68">
    <property name="version">0,2</property>
    <property name="mlt_service">frei0r.contrast0r</property>
    <property name="kdenlive_id">frei0r.contrast0r</property>
    <property name="Contrast">00:09:49,880=0,54</property>
    <property name="kdenlive:collapsed">0</property>
   </filter>
   <filter id="filter69">
    <property name="mlt_service">crop</property>
    <property name="kdenlive_id">crop</property>
    <property name="top">3</property>
    <property name="left">1</property>
    <property name="bottom">3</property>
    <property name="right">1</property>
    <property name="center">0</property>
    <property name="center_bias">0</property>
    <property name="use_profile">0</property>
    <property name="kdenlive:collapsed">0</property>
   </filter>
  </entry>
  <entry producer="producer28" in="00:09:51,640" out="00:10:23,960">
   <property name="kdenlive:id">3</property>
   <filter id="filter70">
    <property name="version">0,2</property>
    <property name="mlt_service">frei0r.sharpness</property>
    <property name="kdenlive_id">frei0r.sharpness</property>
    <property name="Amount">00:09:51,640=0,268</property>
    <property name="Size">00:09:51,640=0</property>
    <property name="kdenlive:collapsed">0</property>
    <property name="disable">0</property>
   </filter>
   <filter id="filter71">
    <property name="version">0,2</property>
    <property name="mlt_service">frei0r.contrast0r</property>
    <property name="kdenlive_id">frei0r.contrast0r</property>
    <property name="Contrast">00:09:51,640=0,54</property>
    <property name="kdenlive:collapsed">0</property>
    <property name="disable">0</property>
   </filter>
   <filter id="filter72">
    <property name="mlt_service">crop</property>
    <property name="kdenlive_id">crop</property>
    <property name="top">62</property>
    <property name="left">0</property>
    <property name="bottom">90</property>
    <property name="right">0</property>
    <property name="center">0</property>
    <property name="center_bias">0</property>
    <property name="use_profile">0</property>
    <property name="kdenlive:collapsed">0</property>
   </filter>
  </entry>
  <entry producer="producer28" in="00:10:24,000" out="00:10:24,680">
   <property name="kdenlive:id">3</property>
   <filter id="filter73">
    <property name="version">0,2</property>
    <property name="mlt_service">frei0r.sharpness</property>
    <property name="kdenlive_id">frei0r.sharpness</property>
    <property name="Amount">00:10:24,000=0,268</property>
    <property name="Size">00:10:24,000=0</property>
    <property name="kdenlive:collapsed">0</property>
   </filter>
   <filter id="filter74">
    <property name="version">0,2</property>
    <property name="mlt_service">frei0r.contrast0r</property>
    <property name="kdenlive_id">frei0r.contrast0r</property>
    <property name="Contrast">00:10:24,000=0,54</property>
    <property name="kdenlive:collapsed">0</property>
   </filter>
   <filter id="filter75">
    <property name="mlt_service">crop</property>
    <property name="kdenlive_id">crop</property>
    <property name="top">62</property>
    <property name="left">0</property>
    <property name="bottom">90</property>
    <property name="right">0</property>
    <property name="center">0</property>
    <property name="center_bias">0</property>
    <property name="use_profile">0</property>
    <property name="kdenlive:collapsed">0</property>
   </filter>
   <filter id="filter76">
    <property name="version">0,2</property>
    <property name="mlt_service">frei0r.alphagrad</property>
    <property name="kdenlive_id">frei0r.alphagrad</property>
    <property name="Position">00:10:24,000=0,193</property>
    <property name="Transition width">00:10:24,000=0,012</property>
    <property name="Tilt">00:10:24,000=0,747</property>
    <property name="Min">00:10:24,000=0</property>
    <property name="Max">00:10:24,000=1</property>
    <property name="Operation">1</property>
    <property name="kdenlive:collapsed">0</property>
   </filter>
  </entry>
  <entry producer="producer9" in="00:00:00,000" out="00:00:01,040">
   <property name="kdenlive:id">14</property>
  </entry>
  <entry producer="producer10" in="00:00:00,000" out="00:00:00,440">
   <property name="kdenlive:id">20</property>
  </entry>
  <entry producer="producer11" in="00:00:00,000" out="00:00:00,680">
   <property name="kdenlive:id">21</property>
  </entry>
  <entry producer="producer12" in="00:00:00,000" out="00:00:00,760">
   <property name="kdenlive:id">22</property>
  </entry>
  <entry producer="producer13" in="00:00:00,000" out="00:00:01,120">
   <property name="kdenlive:id">23</property>
  </entry>
  <entry producer="producer14" in="00:00:00,000" out="00:00:01,520">
   <property name="kdenlive:id">24</property>
  </entry>
  <blank length="00:00:17,280"/>
  <entry producer="producer8" in="00:00:00,000" out="00:00:06,880">
   <property name="kdenlive:id">11</property>
  </entry>
 </playlist>
 <playlist id="playlist7"/>
 <tractor id="tractor3" in="00:00:00,000" out="00:10:54,280">
  <property name="kdenlive:trackheight">60</property>
  <property name="kdenlive:collapsed">0</property>
  <property name="kdenlive:thumbs_format"/>
  <property name="kdenlive:audio_rec"/>
  <track hide="audio" producer="playlist6"/>
  <track hide="audio" producer="playlist7"/>
 </tractor>
 <producer title="Anonymous Submission" id="producer36" in="00:00:00,000" out="00:10:55,560">
  <property name="length">16390</property>
  <property name="eof">pause</property>
  <property name="resource">/media/lnj/LNJ-1TB-HDD/vid/yt/DuraPhilms/SynchroRemasters/videos/PvA-09.mp4</property>
  <property name="audio_index">1</property>
  <property name="video_index">0</property>
  <property name="mute_on_pause">1</property>
  <property name="mlt_service">avformat-novalidate</property>
  <property name="seekable">1</property>
  <property name="aspect_ratio">1</property>
  <property name="kdenlive:clipname"/>
  <property name="kdenlive:id">3</property>
  <property name="kdenlive:file_size">139178296</property>
  <property name="kdenlive:file_hash">3e16487f4c98cfa0b5bd2bbd22992b33</property>
  <property name="kdenlive:folderid">-1</property>
  <property name="kdenlive:proxy">-</property>
  <property name="kdenlive:originalurl">/media/lnj/LNJ-1TB-HDD/vid/yt/DuraPhilms/SynchroRemasters/videos/PvA-09.mp4</property>
  <property name="kdenlive:original.mlt_type">producer</property>
  <property name="kdenlive:original.in">0</property>
  <property name="kdenlive:original.out">16389</property>
  <property name="kdenlive:original.length">16390</property>
  <property name="kdenlive:original.eof">pause</property>
  <property name="kdenlive:original.resource">/media/lnj/LNJ-1TB-HDD/vid/yt/DuraPhilms/SynchroRemasters/videos/PvA-09.mp4</property>
  <property name="kdenlive:original.meta.media.nb_streams">2</property>
  <property name="kdenlive:original.meta.media.0.stream.type">video</property>
  <property name="kdenlive:original.meta.media.0.stream.frame_rate">23,976</property>
  <property name="kdenlive:original.meta.media.0.stream.sample_aspect_ratio">0</property>
  <property name="kdenlive:original.meta.media.0.codec.width">1280</property>
  <property name="kdenlive:original.meta.media.0.codec.height">720</property>
  <property name="kdenlive:original.meta.media.0.codec.rotate">0</property>
  <property name="kdenlive:original.meta.media.0.codec.frame_rate">23,976</property>
  <property name="kdenlive:original.meta.media.0.codec.pix_fmt">yuv420p</property>
  <property name="kdenlive:original.meta.media.0.codec.sample_aspect_ratio">1</property>
  <property name="kdenlive:original.meta.media.0.codec.colorspace">709</property>
  <property name="kdenlive:original.meta.media.0.codec.color_trc">1</property>
  <property name="kdenlive:original.meta.media.0.codec.name">h264</property>
  <property name="kdenlive:original.meta.media.0.codec.long_name">H.264 / AVC / MPEG-4 AVC / MPEG-4 part 10</property>
  <property name="kdenlive:original.meta.media.0.codec.bit_rate">1533361</property>
  <property name="kdenlive:original.meta.attr.0.stream.handler_name.markup">VideoHandler</property>
  <property name="kdenlive:original.meta.media.1.stream.type">audio</property>
  <property name="kdenlive:original.meta.media.1.codec.sample_fmt">fltp</property>
  <property name="kdenlive:original.meta.media.1.codec.sample_rate">48000</property>
  <property name="kdenlive:original.meta.media.1.codec.channels">2</property>
  <property name="kdenlive:original.meta.media.1.codec.name">mp3float</property>
  <property name="kdenlive:original.meta.media.1.codec.long_name">MP3 (MPEG audio layer 3)</property>
  <property name="kdenlive:original.meta.media.1.codec.bit_rate">158679</property>
  <property name="kdenlive:original.meta.attr.1.stream.language.markup">deu</property>
  <property name="kdenlive:original.meta.attr.1.stream.handler_name.markup">Stereo</property>
  <property name="kdenlive:original.meta.attr.major_brand.markup">mp42</property>
  <property name="kdenlive:original.meta.attr.minor_version.markup">512</property>
  <property name="kdenlive:original.meta.attr.compatible_brands.markup">isomiso2avc1mp41</property>
  <property name="kdenlive:original.meta.attr.encoder.markup">HandBrake 6548svn 2014112401</property>
  <property name="kdenlive:original.meta.attr.title.markup">Harry Potter und der Penner von Alcatraz Teil 9</property>
  <property name="kdenlive:original.seekable">1</property>
  <property name="kdenlive:original.width">1280</property>
  <property name="kdenlive:original.height">720</property>
  <property name="kdenlive:original.meta.media.sample_aspect_num">1</property>
  <property name="kdenlive:original.meta.media.sample_aspect_den">1</property>
  <property name="kdenlive:original.aspect_ratio">1</property>
  <property name="kdenlive:original.audio_index">1</property>
  <property name="kdenlive:original.video_index">0</property>
  <property name="kdenlive:original.mute_on_pause">1</property>
  <property name="kdenlive:original.mlt_service">avformat-novalidate</property>
  <property name="kdenlive:original.meta.media.frame_rate_num">707310000</property>
  <property name="kdenlive:original.meta.media.frame_rate_den">29500721</property>
  <property name="kdenlive:original.meta.media.colorspace">709</property>
  <property name="kdenlive:original.meta.media.color_trc">1</property>
  <property name="kdenlive:original.meta.media.width">1280</property>
  <property name="kdenlive:original.meta.media.height">720</property>
  <property name="kdenlive:original.kdenlive:id">3</property>
  <property name="kdenlive:original.kdenlive:file_size">139178296</property>
  <property name="kdenlive:original.kdenlive:file_hash">3e16487f4c98cfa0b5bd2bbd22992b33</property>
  <property name="kdenlive:original.kdenlive:folderid">-1</property>
  <property name="kdenlive:original.backup">1</property>
  <property name="global_feed">1</property>
  <property name="xml">was here</property>
  <property name="meta.media.nb_streams">2</property>
  <property name="meta.media.0.stream.type">video</property>
  <property name="meta.media.0.stream.frame_rate">23,976</property>
  <property name="meta.media.0.stream.sample_aspect_ratio">0</property>
  <property name="meta.media.0.codec.width">1280</property>
  <property name="meta.media.0.codec.height">720</property>
  <property name="meta.media.0.codec.rotate">0</property>
  <property name="meta.media.0.codec.frame_rate">23,976</property>
  <property name="meta.media.0.codec.pix_fmt">yuv420p</property>
  <property name="meta.media.0.codec.sample_aspect_ratio">1</property>
  <property name="meta.media.0.codec.colorspace">709</property>
  <property name="meta.media.0.codec.color_trc">1</property>
  <property name="meta.media.0.codec.name">h264</property>
  <property name="meta.media.0.codec.long_name">H.264 / AVC / MPEG-4 AVC / MPEG-4 part 10</property>
  <property name="meta.media.0.codec.bit_rate">1533361</property>
  <property name="meta.attr.0.stream.handler_name.markup">VideoHandler</property>
  <property name="meta.media.1.stream.type">audio</property>
  <property name="meta.media.1.codec.sample_fmt">fltp</property>
  <property name="meta.media.1.codec.sample_rate">48000</property>
  <property name="meta.media.1.codec.channels">2</property>
  <property name="meta.media.1.codec.name">mp3float</property>
  <property name="meta.media.1.codec.long_name">MP3 (MPEG audio layer 3)</property>
  <property name="meta.media.1.codec.bit_rate">158679</property>
  <property name="meta.attr.1.stream.language.markup">deu</property>
  <property name="meta.attr.1.stream.handler_name.markup">Stereo</property>
  <property name="meta.attr.major_brand.markup">mp42</property>
  <property name="meta.attr.minor_version.markup">512</property>
  <property name="meta.attr.compatible_brands.markup">isomiso2avc1mp41</property>
  <property name="meta.attr.encoder.markup">HandBrake 6548svn 2014112401</property>
  <property name="meta.attr.title.markup">Harry Potter und der Penner von Alcatraz Teil 9</property>
  <property name="meta.media.sample_aspect_num">1</property>
  <property name="meta.media.sample_aspect_den">1</property>
  <property name="meta.media.frame_rate_num">707310000</property>
  <property name="meta.media.frame_rate_den">29500721</property>
  <property name="meta.media.colorspace">709</property>
  <property name="meta.media.color_trc">1</property>
  <property name="meta.media.width">1280</property>
  <property name="meta.media.height">720</property>
  <property name="meta.media.top_field_first">0</property>
  <property name="meta.media.progressive">1</property>
  <property name="meta.media.color_range">mpeg</property>
  <property name="set.test_audio">1</property>
  <property name="set.test_image">0</property>
 </producer>
 <producer id="producer38" in="00:00:00,000" out="00:12:15,280">
  <property name="length">18384</property>
  <property name="eof">pause</property>
  <property name="resource">0,79:/media/lnj/LNJ-1TB-HDD/vid/yt/DuraPhilms/SynchroRemasters/videos/PvA-09-orig.2160p25.mkv</property>
  <property name="aspect_ratio">1</property>
  <property name="meta.media.nb_streams">1</property>
  <property name="meta.media.0.stream.type">video</property>
  <property name="meta.media.0.stream.frame_rate">25</property>
  <property name="meta.media.0.stream.sample_aspect_ratio">1</property>
  <property name="meta.media.0.codec.width">3840</property>
  <property name="meta.media.0.codec.height">1600</property>
  <property name="meta.media.0.codec.rotate">0</property>
  <property name="meta.media.0.codec.frame_rate">25</property>
  <property name="meta.media.0.codec.pix_fmt">yuv420p</property>
  <property name="meta.media.0.codec.sample_aspect_ratio">1</property>
  <property name="meta.media.0.codec.colorspace">709</property>
  <property name="meta.media.0.codec.name">h264</property>
  <property name="meta.media.0.codec.long_name">H.264 / AVC / MPEG-4 AVC / MPEG-4 part 10</property>
  <property name="meta.media.0.codec.bit_rate">0</property>
  <property name="meta.attr.0.stream.ENCODER.markup">Lavc58.35.100 libx264</property>
  <property name="meta.attr.0.stream.DURATION.markup">00:09:40.920000000</property>
  <property name="meta.attr.ENCODER.markup">Lavf58.20.100</property>
  <property name="seekable">1</property>
  <property name="meta.media.sample_aspect_num">1</property>
  <property name="meta.media.sample_aspect_den">1</property>
  <property name="audio_index">-1</property>
  <property name="video_index">0</property>
  <property name="mute_on_pause">1</property>
  <property name="warp_speed">0,79</property>
  <property name="warp_resource">/media/lnj/LNJ-1TB-HDD/vid/yt/DuraPhilms/SynchroRemasters/videos/PvA-09-orig.2160p25.mkv</property>
  <property name="mlt_service">timewarp</property>
  <property name="kdenlive:proxy">-</property>
  <property name="kdenlive:originalurl">/media/lnj/LNJ-1TB-HDD/vid/yt/DuraPhilms/SynchroRemasters/videos/PvA-09-orig.2160p25.mkv</property>
  <property name="set.test_audio">1</property>
  <property name="set.test_image">0</property>
  <property name="kdenlive:id">2</property>
 </producer>
 <playlist id="playlist8">
  <blank length="00:03:50,640"/>
  <entry producer="producer36" in="00:03:51,040" out="00:03:52,440">
   <property name="kdenlive:id">3</property>
   <filter id="filter77">
    <property name="background">colour:0x00000000</property>
    <property name="mlt_service">affine</property>
    <property name="kdenlive_id">pan_zoom</property>
    <property name="transition.geometry">5776=0 -280 3840 2160</property>
    <property name="transition.distort">0</property>
    <property name="use_normalised">0</property>
    <property name="kdenlive:collapsed">0</property>
   </filter>
   <filter id="filter78">
    <property name="version">0,2</property>
    <property name="mlt_service">frei0r.contrast0r</property>
    <property name="kdenlive_id">frei0r.contrast0r</property>
    <property name="Contrast">00:03:51,040=0,54</property>
    <property name="kdenlive:collapsed">0</property>
   </filter>
   <filter id="filter79">
    <property name="version">0,5</property>
    <property name="mlt_service">frei0r.select0r</property>
    <property name="kdenlive_id">frei0r.select0r</property>
    <property name="Color to select">0xffffffff</property>
    <property name="Invert selection">1</property>
    <property name="Selection subspace">0</property>
    <property name="Subspace shape">0,5</property>
    <property name="Edge mode">0,7</property>
    <property name="Delta R / A / Hue">00:03:51,040=1</property>
    <property name="Delta G / B / Chroma">00:03:51,040=1</property>
    <property name="Delta B / I / I">00:03:51,040=1</property>
    <property name="Slope">00:03:51,040=0</property>
    <property name="Operation">1</property>
    <property name="kdenlive:collapsed">0</property>
    <property name="disable">0</property>
   </filter>
  </entry>
  <blank length="00:02:43,520"/>
  <entry producer="producer38" in="00:07:53,640" out="00:07:55,400">
   <property name="kdenlive:id">2</property>
   <filter id="filter80">
    <property name="mirror">flip</property>
    <property name="mlt_service">mirror</property>
    <property name="kdenlive_id">mirror</property>
    <property name="reverse">0</property>
    <property name="kdenlive:collapsed">0</property>
   </filter>
   <filter id="filter81">
    <property name="version">0,1</property>
    <property name="mlt_service">frei0r.alphaspot</property>
    <property name="kdenlive_id">frei0r.alphaspot</property>
    <property name="Shape">0</property>
    <property name="Position X">00:07:53,640=0,55</property>
    <property name="Position Y">00:07:53,640=0,5</property>
    <property name="Size X">00:07:53,640=0,087</property>
    <property name="Size Y">00:07:53,640=0,28</property>
    <property name="Tilt">00:07:53,640=0,496</property>
    <property name="Transition width">00:07:53,640=0,006</property>
    <property name="Min">00:07:53,640=0</property>
    <property name="Max">00:07:53,640=1</property>
    <property name="Operation">0</property>
    <property name="kdenlive:collapsed">0</property>
   </filter>
  </entry>
  <blank length="00:03:13,840"/>
  <entry producer="producer36" in="00:09:51,640" out="00:10:23,760">
   <property name="kdenlive:id">3</property>
   <filter id="filter82">
    <property name="version">0,2</property>
    <property name="mlt_service">frei0r.sharpness</property>
    <property name="kdenlive_id">frei0r.sharpness</property>
    <property name="Amount">00:09:51,640=0,268</property>
    <property name="Size">00:09:51,640=0</property>
    <property name="kdenlive:collapsed">0</property>
   </filter>
   <filter id="filter83">
    <property name="version">0,2</property>
    <property name="mlt_service">frei0r.contrast0r</property>
    <property name="kdenlive_id">frei0r.contrast0r</property>
    <property name="Contrast">00:09:51,640=0,54</property>
    <property name="kdenlive:collapsed">0</property>
   </filter>
   <filter id="filter84">
    <property name="mlt_service">crop</property>
    <property name="kdenlive_id">crop</property>
    <property name="top">62</property>
    <property name="left">0</property>
    <property name="bottom">90</property>
    <property name="right">0</property>
    <property name="center">0</property>
    <property name="center_bias">0</property>
    <property name="use_profile">0</property>
    <property name="kdenlive:collapsed">0</property>
   </filter>
   <filter id="filter85">
    <property name="version">0,1</property>
    <property name="mlt_service">frei0r.alphaspot</property>
    <property name="kdenlive_id">frei0r.alphaspot</property>
    <property name="Shape">0</property>
    <property name="Position X">00:09:51,640=0,104</property>
    <property name="Position Y">00:09:51,640=0,536</property>
    <property name="Size X">00:09:51,640=0,022</property>
    <property name="Size Y">00:09:51,640=0,05</property>
    <property name="Tilt">00:09:51,640=0,5</property>
    <property name="Transition width">00:09:51,640=0,28</property>
    <property name="Min">00:09:51,640=0</property>
    <property name="Max">00:09:51,640=1</property>
    <property name="Operation">0</property>
    <property name="kdenlive:collapsed">0</property>
   </filter>
   <filter id="filter86">
    <property name="version">0,1</property>
    <property name="mlt_service">frei0r.scale0tilt</property>
    <property name="kdenlive_id">frei0r.scale0tilt</property>
    <property name="Clip left">00:09:51,640=0</property>
    <property name="Clip right">00:09:51,640=0</property>
    <property name="Clip top">00:09:51,640=0</property>
    <property name="Clip bottom">00:09:51,640=0</property>
    <property name="Scale X">0,5</property>
    <property name="Scale Y">0,595</property>
    <property name="Tilt X">00:09:51,640=0,5</property>
    <property name="Tilt Y">00:09:51,640=0,5</property>
    <property name="kdenlive:collapsed">0</property>
   </filter>
  </entry>
  <blank length="00:00:00,200"/>
  <entry producer="producer36" in="00:10:24,000" out="00:10:24,680">
   <property name="kdenlive:id">3</property>
   <filter id="filter87">
    <property name="version">0,2</property>
    <property name="mlt_service">frei0r.sharpness</property>
    <property name="kdenlive_id">frei0r.sharpness</property>
    <property name="Amount">00:10:24,000=0,268</property>
    <property name="Size">00:10:24,000=0</property>
    <property name="kdenlive:collapsed">0</property>
   </filter>
   <filter id="filter88">
    <property name="version">0,2</property>
    <property name="mlt_service">frei0r.contrast0r</property>
    <property name="kdenlive_id">frei0r.contrast0r</property>
    <property name="Contrast">00:10:24,000=0,54</property>
    <property name="kdenlive:collapsed">0</property>
   </filter>
   <filter id="filter89">
    <property name="mlt_service">crop</property>
    <property name="kdenlive_id">crop</property>
    <property name="top">62</property>
    <property name="left">0</property>
    <property name="bottom">90</property>
    <property name="right">0</property>
    <property name="center">0</property>
    <property name="center_bias">0</property>
    <property name="use_profile">0</property>
    <property name="kdenlive:collapsed">0</property>
   </filter>
   <filter id="filter90">
    <property name="version">0,1</property>
    <property name="mlt_service">frei0r.alphaspot</property>
    <property name="kdenlive_id">frei0r.alphaspot</property>
    <property name="Shape">0</property>
    <property name="Position X">00:10:24,000=0,104</property>
    <property name="Position Y">00:10:24,000=0,536</property>
    <property name="Size X">00:10:24,000=0,022</property>
    <property name="Size Y">00:10:24,000=0,05</property>
    <property name="Tilt">00:10:24,000=0,5</property>
    <property name="Transition width">00:10:24,000=0,28</property>
    <property name="Min">00:10:24,000=0</property>
    <property name="Max">00:10:24,000=1</property>
    <property name="Operation">0</property>
    <property name="kdenlive:collapsed">0</property>
   </filter>
   <filter id="filter91">
    <property name="version">0,1</property>
    <property name="mlt_service">frei0r.scale0tilt</property>
    <property name="kdenlive_id">frei0r.scale0tilt</property>
    <property name="Clip left">00:10:24,000=0</property>
    <property name="Clip right">00:10:24,000=0</property>
    <property name="Clip top">00:10:24,000=0</property>
    <property name="Clip bottom">00:10:24,000=0</property>
    <property name="Scale X">0,5</property>
    <property name="Scale Y">0,595</property>
    <property name="Tilt X">00:10:24,000=0,5</property>
    <property name="Tilt Y">00:10:24,000=0,5</property>
    <property name="kdenlive:collapsed">0</property>
   </filter>
  </entry>
  <blank length="00:00:05,320"/>
  <entry producer="producer36" in="00:10:30,040" out="00:10:35,320">
   <property name="kdenlive:id">3</property>
   <filter id="filter98">
    <property name="background">colour:0x00000000</property>
    <property name="mlt_service">affine</property>
    <property name="kdenlive_id">pan_zoom</property>
    <property name="transition.geometry">15751=0 -280 3840 2160</property>
    <property name="transition.distort">0</property>
    <property name="use_normalised">0</property>
    <property name="kdenlive:collapsed">0</property>
   </filter>
   <filter id="filter99">
    <property name="version">0,2</property>
    <property name="mlt_service">frei0r.contrast0r</property>
    <property name="kdenlive_id">frei0r.contrast0r</property>
    <property name="Contrast">00:10:30,040=0,54</property>
    <property name="kdenlive:collapsed">0</property>
   </filter>
   <filter id="filter92">
    <property name="version">0,1</property>
    <property name="mlt_service">frei0r.alphaspot</property>
    <property name="kdenlive_id">frei0r.alphaspot</property>
    <property name="Shape">0,38</property>
    <property name="Position X">00:10:30,040=0,5</property>
    <property name="Position Y">00:10:30,040=0,5</property>
    <property name="Size X">00:10:30,040=0,342</property>
    <property name="Size Y">00:10:30,040=0,5</property>
    <property name="Tilt">00:10:30,040=0,5</property>
    <property name="Transition width">00:10:30,040=0,308</property>
    <property name="Min">00:10:30,040=0</property>
    <property name="Max">00:10:30,040=1</property>
    <property name="Operation">0</property>
    <property name="kdenlive:collapsed">0</property>
   </filter>
  </entry>
  <blank length="00:00:06,120"/>
  <entry producer="producer36" in="00:10:41,480" out="00:10:42,360">
   <property name="kdenlive:id">3</property>
   <filter id="filter93">
    <property name="background">colour:0x00000000</property>
    <property name="mlt_service">affine</property>
    <property name="kdenlive_id">pan_zoom</property>
    <property name="transition.geometry">16037=0 -278 3840 2160</property>
    <property name="transition.distort">0</property>
    <property name="use_normalised">0</property>
    <property name="kdenlive:collapsed">0</property>
   </filter>
   <filter id="filter94">
    <property name="version">0,2</property>
    <property name="mlt_service">frei0r.contrast0r</property>
    <property name="kdenlive_id">frei0r.contrast0r</property>
    <property name="Contrast">00:10:41,480=0,54</property>
    <property name="kdenlive:collapsed">0</property>
   </filter>
   <filter id="filter95">
    <property name="version">0,1</property>
    <property name="mlt_service">frei0r.alphaspot</property>
    <property name="kdenlive_id">frei0r.alphaspot</property>
    <property name="Shape">0,38</property>
    <property name="Position X">00:10:41,480=0,606</property>
    <property name="Position Y">00:10:41,480=0,452</property>
    <property name="Size X">00:10:41,480=0,04</property>
    <property name="Size Y">00:10:41,480=0,113</property>
    <property name="Tilt">00:10:41,480=0,5</property>
    <property name="Transition width">00:10:41,480=0,426</property>
    <property name="Min">00:10:41,480=0</property>
    <property name="Max">00:10:41,480=1</property>
    <property name="Operation">0</property>
    <property name="kdenlive:collapsed">0</property>
   </filter>
  </entry>
  <entry producer="producer36" in="00:10:42,400" out="00:10:42,720">
   <property name="kdenlive:id">3</property>
   <filter id="filter96">
    <property name="background">colour:0x00000000</property>
    <property name="mlt_service">affine</property>
    <property name="kdenlive_id">pan_zoom</property>
    <property name="transition.geometry">16060=0 -278 3840 2160</property>
    <property name="transition.distort">0</property>
    <property name="use_normalised">0</property>
    <property name="kdenlive:collapsed">0</property>
   </filter>
   <filter id="filter97">
    <property name="version">0,2</property>
    <property name="mlt_service">frei0r.contrast0r</property>
    <property name="kdenlive_id">frei0r.contrast0r</property>
    <property name="Contrast">00:10:42,400=0,54</property>
    <property name="kdenlive:collapsed">0</property>
   </filter>
   <filter id="filter100">
    <property name="version">0,1</property>
    <property name="mlt_service">frei0r.alphaspot</property>
    <property name="kdenlive_id">frei0r.alphaspot</property>
    <property name="Shape">0,38</property>
    <property name="Position X">00:10:42,400=0,606;00:10:42,720=0,606</property>
    <property name="Position Y">00:10:42,400=0,452;00:10:42,720=0,552</property>
    <property name="Size X">00:10:42,400=0,03;00:10:42,720=0,138</property>
    <property name="Size Y">00:10:42,400=0,109;00:10:42,720=0,271</property>
    <property name="Tilt">00:10:42,400=0,5;00:10:42,720=0,5</property>
    <property name="Transition width">00:10:42,400=0,426;00:10:42,720=0,592</property>
    <property name="Min">00:10:42,400=0;00:10:42,720=0</property>
    <property name="Max">00:10:42,400=1;00:10:42,720=1</property>
    <property name="Operation">0</property>
    <property name="kdenlive:collapsed">0</property>
   </filter>
  </entry>
  <entry producer="producer36" in="00:10:42,760" out="00:10:42,880">
   <property name="kdenlive:id">3</property>
   <filter id="filter101">
    <property name="background">colour:0x00000000</property>
    <property name="mlt_service">affine</property>
    <property name="kdenlive_id">pan_zoom</property>
    <property name="transition.geometry">16069=0 -278 3840 2160</property>
    <property name="transition.distort">0</property>
    <property name="use_normalised">0</property>
   </filter>
   <filter id="filter102">
    <property name="version">0,2</property>
    <property name="mlt_service">frei0r.contrast0r</property>
    <property name="kdenlive_id">frei0r.contrast0r</property>
    <property name="Contrast">00:10:42,760=0,54</property>
   </filter>
   <filter id="filter103">
    <property name="version">0,5</property>
    <property name="mlt_service">frei0r.select0r</property>
    <property name="kdenlive_id">frei0r.select0r</property>
    <property name="Color to select">0xffffffff</property>
    <property name="Invert selection">0</property>
    <property name="Selection subspace">0</property>
    <property name="Subspace shape">0,5</property>
    <property name="Edge mode">0,7</property>
    <property name="Delta R / A / Hue">00:10:42,760=0,814</property>
    <property name="Delta G / B / Chroma">00:10:42,760=0,73</property>
    <property name="Delta B / I / I">00:10:42,760=0,752</property>
    <property name="Slope">00:10:42,760=0</property>
    <property name="Operation">0</property>
   </filter>
  </entry>
  <entry producer="producer36" in="00:10:42,920" out="00:10:43,720">
   <property name="kdenlive:id">3</property>
   <filter id="filter104">
    <property name="background">colour:0x00000000</property>
    <property name="mlt_service">affine</property>
    <property name="kdenlive_id">pan_zoom</property>
    <property name="transition.geometry">16073=0 -278 3840 2160</property>
    <property name="transition.distort">0</property>
    <property name="use_normalised">0</property>
    <property name="kdenlive:collapsed">0</property>
   </filter>
   <filter id="filter105">
    <property name="version">0,2</property>
    <property name="mlt_service">frei0r.contrast0r</property>
    <property name="kdenlive_id">frei0r.contrast0r</property>
    <property name="Contrast">00:10:42,920=0,54</property>
    <property name="kdenlive:collapsed">0</property>
   </filter>
  </entry>
  <blank length="00:00:04,760"/>
  <entry producer="producer17" in="00:00:00,000" out="00:00:00,120">
   <property name="kdenlive:id">15</property>
  </entry>
  <blank length="00:00:06,040"/>
  <entry producer="producer16" in="00:00:00,000" out="00:00:01,440">
   <property name="kdenlive:id">13</property>
  </entry>
 </playlist>
 <playlist id="playlist9"/>
 <tractor id="tractor4" in="00:00:00,000" out="00:10:55,760">
  <property name="kdenlive:trackheight">60</property>
  <property name="kdenlive:collapsed">0</property>
  <property name="kdenlive:thumbs_format"/>
  <property name="kdenlive:audio_rec"/>
  <track hide="audio" producer="playlist8"/>
  <track hide="audio" producer="playlist9"/>
 </tractor>
 <producer id="producer39" in="00:00:00,000" out="00:12:15,280">
  <property name="length">18384</property>
  <property name="eof">pause</property>
  <property name="resource">0,79:/media/lnj/LNJ-1TB-HDD/vid/yt/DuraPhilms/SynchroRemasters/videos/PvA-09-orig.2160p25.mkv</property>
  <property name="aspect_ratio">1</property>
  <property name="meta.media.nb_streams">1</property>
  <property name="meta.media.0.stream.type">video</property>
  <property name="meta.media.0.stream.frame_rate">25</property>
  <property name="meta.media.0.stream.sample_aspect_ratio">1</property>
  <property name="meta.media.0.codec.width">3840</property>
  <property name="meta.media.0.codec.height">1600</property>
  <property name="meta.media.0.codec.rotate">0</property>
  <property name="meta.media.0.codec.frame_rate">25</property>
  <property name="meta.media.0.codec.pix_fmt">yuv420p</property>
  <property name="meta.media.0.codec.sample_aspect_ratio">1</property>
  <property name="meta.media.0.codec.colorspace">709</property>
  <property name="meta.media.0.codec.name">h264</property>
  <property name="meta.media.0.codec.long_name">H.264 / AVC / MPEG-4 AVC / MPEG-4 part 10</property>
  <property name="meta.media.0.codec.bit_rate">0</property>
  <property name="meta.attr.0.stream.ENCODER.markup">Lavc58.35.100 libx264</property>
  <property name="meta.attr.0.stream.DURATION.markup">00:09:40.920000000</property>
  <property name="meta.attr.ENCODER.markup">Lavf58.20.100</property>
  <property name="seekable">1</property>
  <property name="meta.media.sample_aspect_num">1</property>
  <property name="meta.media.sample_aspect_den">1</property>
  <property name="audio_index">-1</property>
  <property name="video_index">0</property>
  <property name="mute_on_pause">1</property>
  <property name="warp_speed">0,79</property>
  <property name="warp_resource">/media/lnj/LNJ-1TB-HDD/vid/yt/DuraPhilms/SynchroRemasters/videos/PvA-09-orig.2160p25.mkv</property>
  <property name="mlt_service">timewarp</property>
  <property name="kdenlive:proxy">-</property>
  <property name="kdenlive:originalurl">/media/lnj/LNJ-1TB-HDD/vid/yt/DuraPhilms/SynchroRemasters/videos/PvA-09-orig.2160p25.mkv</property>
  <property name="set.test_audio">1</property>
  <property name="set.test_image">0</property>
  <property name="kdenlive:id">2</property>
 </producer>
 <producer title="Anonymous Submission" id="producer37" in="00:00:00,000" out="00:09:40,880">
  <property name="length">14523</property>
  <property name="eof">pause</property>
  <property name="resource">/media/lnj/LNJ-1TB-HDD/vid/yt/DuraPhilms/SynchroRemasters/videos/PvA-09-orig.2160p25.mkv</property>
  <property name="audio_index">-1</property>
  <property name="video_index">0</property>
  <property name="mute_on_pause">1</property>
  <property name="mlt_service">avformat-novalidate</property>
  <property name="seekable">1</property>
  <property name="aspect_ratio">1</property>
  <property name="kdenlive:clipname">PvA-09-orig.2160p25.mkv</property>
  <property name="kdenlive:id">2</property>
  <property name="kdenlive:file_size">3488367388</property>
  <property name="kdenlive:file_hash">7c0b215136b127853b40204fe90f937c</property>
  <property name="kdenlive:folderid">-1</property>
  <property name="kdenlive:proxy">-</property>
  <property name="kdenlive:originalurl">/media/lnj/LNJ-1TB-HDD/vid/yt/DuraPhilms/SynchroRemasters/videos/PvA-09-orig.2160p25.mkv</property>
  <property name="global_feed">1</property>
  <property name="xml">was here</property>
  <property name="meta.media.nb_streams">1</property>
  <property name="meta.media.0.stream.type">video</property>
  <property name="meta.media.0.stream.frame_rate">25</property>
  <property name="meta.media.0.stream.sample_aspect_ratio">1</property>
  <property name="meta.media.0.codec.width">3840</property>
  <property name="meta.media.0.codec.height">1600</property>
  <property name="meta.media.0.codec.rotate">0</property>
  <property name="meta.media.0.codec.frame_rate">25</property>
  <property name="meta.media.0.codec.pix_fmt">yuv420p</property>
  <property name="meta.media.0.codec.sample_aspect_ratio">1</property>
  <property name="meta.media.0.codec.colorspace">709</property>
  <property name="meta.media.0.codec.name">h264</property>
  <property name="meta.media.0.codec.long_name">H.264 / AVC / MPEG-4 AVC / MPEG-4 part 10</property>
  <property name="meta.media.0.codec.bit_rate">0</property>
  <property name="meta.attr.0.stream.ENCODER.markup">Lavc58.35.100 libx264</property>
  <property name="meta.attr.0.stream.DURATION.markup">00:09:40.920000000</property>
  <property name="meta.attr.ENCODER.markup">Lavf58.20.100</property>
  <property name="meta.media.sample_aspect_num">1</property>
  <property name="meta.media.sample_aspect_den">1</property>
  <property name="meta.media.frame_rate_num">25</property>
  <property name="meta.media.frame_rate_den">1</property>
  <property name="meta.media.colorspace">709</property>
  <property name="meta.media.color_trc">2</property>
  <property name="meta.media.width">3840</property>
  <property name="meta.media.height">1600</property>
  <property name="meta.media.color_range">mpeg</property>
  <property name="meta.media.top_field_first">0</property>
  <property name="meta.media.progressive">1</property>
  <property name="set.test_audio">1</property>
  <property name="set.test_image">0</property>
 </producer>
 <playlist id="playlist10">
  <blank length="00:03:50,640"/>
  <entry producer="producer7" in="00:00:00,000" out="00:00:01,400">
   <property name="kdenlive:id">5</property>
  </entry>
  <blank length="00:02:42,520"/>
  <entry producer="producer39" in="00:07:52,640" out="00:07:55,400">
   <property name="kdenlive:id">2</property>
   <filter id="filter108">
    <property name="mirror">flip</property>
    <property name="mlt_service">mirror</property>
    <property name="kdenlive_id">mirror</property>
    <property name="reverse">0</property>
    <property name="kdenlive:collapsed">0</property>
   </filter>
   <filter id="filter109">
    <property name="version">0,1</property>
    <property name="mlt_service">frei0r.alphaspot</property>
    <property name="kdenlive_id">frei0r.alphaspot</property>
    <property name="Shape">0</property>
    <property name="Position X">00:07:52,640=0,349</property>
    <property name="Position Y">00:07:52,640=0,5</property>
    <property name="Size X">00:07:52,640=0,1</property>
    <property name="Size Y">00:07:52,640=0,281</property>
    <property name="Tilt">00:07:52,640=0,497</property>
    <property name="Transition width">00:07:52,640=0,004</property>
    <property name="Min">00:07:52,640=0</property>
    <property name="Max">00:07:52,640=1</property>
    <property name="Operation">0</property>
    <property name="kdenlive:collapsed">0</property>
   </filter>
  </entry>
  <blank length="00:04:04,960"/>
  <entry producer="producer37" in="00:09:40,760" out="00:09:40,880">
   <property name="kdenlive:id">2</property>
   <filter id="filter110">
    <property name="mirror">flip</property>
    <property name="mlt_service">mirror</property>
    <property name="kdenlive_id">mirror</property>
    <property name="reverse">0</property>
    <property name="kdenlive:collapsed">0</property>
   </filter>
   <filter id="filter111">
    <property name="version">0,1</property>
    <property name="mlt_service">frei0r.alphaspot</property>
    <property name="kdenlive_id">frei0r.alphaspot</property>
    <property name="Shape">0,38</property>
    <property name="Position X">00:09:40,760=0,982</property>
    <property name="Position Y">00:09:40,760=0,991</property>
    <property name="Size X">00:09:40,760=0,124</property>
    <property name="Size Y">00:09:40,760=0,153</property>
    <property name="Tilt">00:09:40,760=0,5</property>
    <property name="Transition width">00:09:40,760=0,46</property>
    <property name="Min">00:09:40,760=0</property>
    <property name="Max">00:09:40,760=1</property>
    <property name="Operation">0</property>
    <property name="kdenlive:collapsed">0</property>
   </filter>
  </entry>
  <blank length="00:00:00,480"/>
  <entry producer="producer6" in="00:00:00,000" out="00:00:00,320">
   <property name="kdenlive:id">9</property>
   <filter id="filter112">
    <property name="version">0,1</property>
    <property name="mlt_service">frei0r.alphaspot</property>
    <property name="kdenlive_id">frei0r.alphaspot</property>
    <property name="Shape">0,38</property>
    <property name="Position X">00:00:00,000=1</property>
    <property name="Position Y">00:00:00,000=1</property>
    <property name="Size X">00:00:00,000=0,108</property>
    <property name="Size Y">00:00:00,000=0,163</property>
    <property name="Tilt">00:00:00,000=0,5</property>
    <property name="Transition width">00:00:00,000=0,199</property>
    <property name="Min">00:00:00,000=0</property>
    <property name="Max">00:00:00,000=1</property>
    <property name="Operation">0</property>
    <property name="kdenlive:collapsed">0</property>
   </filter>
  </entry>
 </playlist>
 <playlist id="playlist11"/>
 <tractor id="tractor5" in="00:00:00,000" out="00:10:43,320">
  <property name="kdenlive:trackheight">60</property>
  <property name="kdenlive:collapsed">0</property>
  <property name="kdenlive:thumbs_format"/>
  <property name="kdenlive:audio_rec"/>
  <track hide="audio" producer="playlist10"/>
  <track hide="audio" producer="playlist11"/>
 </tractor>
 <playlist id="timeline_preview"/>
 <tractor title="Anonymous Submission" id="tractor6" global_feed="1" in="00:00:00,000" out="00:30:55,800">
  <track producer="black_track"/>
  <track producer="tractor0"/>
  <track producer="tractor1"/>
  <track producer="tractor2"/>
  <track producer="tractor3"/>
  <track producer="tractor4"/>
  <track producer="tractor5"/>
  <track hide="audio" producer="timeline_preview"/>
  <transition id="transition0" in="00:10:43,000" out="00:10:43,080">
   <property name="a_track">5</property>
   <property name="b_track">6</property>
   <property name="start">0/0:100%x100%</property>
   <property name="factory">loader</property>
   <property name="aligned">0</property>
   <property name="progressive">1</property>
   <property name="mlt_service">composite</property>
   <property name="kdenlive_id">wipe</property>
   <property name="softness">0</property>
   <property name="luma"/>
   <property name="luma_invert">0</property>
   <property name="geometry">0%/0%:100%x100%:0;-1=0%/0%:100%x100%:100</property>
   <property name="fill">1</property>
  </transition>
  <transition id="transition1" in="00:10:41,080" out="00:10:41,120">
   <property name="a_track">4</property>
   <property name="b_track">5</property>
   <property name="start">0/0:100%x100%</property>
   <property name="factory">loader</property>
   <property name="aligned">0</property>
   <property name="progressive">1</property>
   <property name="mlt_service">composite</property>
   <property name="kdenlive_id">wipe</property>
   <property name="softness">0</property>
   <property name="luma"/>
   <property name="luma_invert">0</property>
   <property name="geometry">0%/0%:100%x100%:0;-1=0%/0%:100%x100%:100</property>
   <property name="fill">1</property>
  </transition>
  <transition id="transition2" in="00:06:31,560" out="00:06:37,360">
   <property name="a_track">3</property>
   <property name="b_track">4</property>
   <property name="distort">0</property>
   <property name="rect">0%/0%:100%x100%:100%</property>
   <property name="fill">1</property>
   <property name="mlt_service">affine</property>
   <property name="kdenlive_id">affine</property>
   <property name="geometry">0=1508 -356 868 362 100;5=1529 -229 852 349 100;12=1558 -161 830 331 100;20=1593 11 806 311 100;26=1931 71 190 262 100;31=1939 163 178 252 100;35=1932 185 169 244 100;44=1912 296 161 232 100;60=1860 381 145 210 100;84=1703 473 109 169 100;99=1653 492 92 148 100;105=1684 520 91 146 100;117=1725 524 90 142 100;124=1784 574 90 142 100</property>
   <property name="rotate_x">00:00:00,000=0;00:00:00,200=0;00:00:00,480=0;00:00:00,800=0;00:00:01,040=0;00:00:01,240=0;00:00:01,400=0;00:00:01,760=0;00:00:02,400=0;00:00:03,360=0;00:00:03,960=0;00:00:04,200=0;00:00:04,680=0;00:00:04,960=0</property>
   <property name="rotate_y">00:00:00,000=0;00:00:00,200=0;00:00:00,480=0;00:00:00,800=0;00:00:01,040=0;00:00:01,240=0;00:00:01,400=0;00:00:01,760=0;00:00:02,400=0;00:00:03,360=0;00:00:03,960=0;00:00:04,200=0;00:00:04,680=0;00:00:04,960=0</property>
   <property name="rotate_z">00:00:00,000=0;00:00:00,200=0;00:00:00,480=0;00:00:00,800=0;00:00:01,040=0;00:00:01,240=0;00:00:01,400=0;00:00:01,760=0;00:00:02,400=0;00:00:03,360=0;00:00:03,960=0;00:00:04,200=0;00:00:04,680=0;00:00:04,960=0</property>
   <property name="keyed">1</property>
  </transition>
  <transition id="transition3" in="00:03:52,880" out="00:03:54,120">
   <property name="a_track">3</property>
   <property name="b_track">4</property>
   <property name="start">0/0:100%x100%</property>
   <property name="factory">loader</property>
   <property name="aligned">0</property>
   <property name="progressive">1</property>
   <property name="mlt_service">composite</property>
   <property name="kdenlive_id">wipe</property>
   <property name="softness">0</property>
   <property name="luma"/>
   <property name="luma_invert">1</property>
   <property name="geometry">0%/0%:100%x100%:0;-1=0%/0%:100%x100%:100</property>
   <property name="fill">1</property>
  </transition>
  <transition id="transition4" in="00:10:29,640" out="00:10:30,080">
   <property name="a_track">3</property>
   <property name="b_track">4</property>
   <property name="start">0/0:100%x100%</property>
   <property name="factory">loader</property>
   <property name="aligned">0</property>
   <property name="progressive">1</property>
   <property name="mlt_service">composite</property>
   <property name="kdenlive_id">wipe</property>
   <property name="softness">0</property>
   <property name="luma"/>
   <property name="luma_invert">0</property>
   <property name="geometry">0%/0%:100%x100%:100;-1=0%/0%:100%x100%:0</property>
   <property name="fill">1</property>
  </transition>
  <transition id="transition5" in="00:10:29,640" out="00:10:30,080">
   <property name="a_track">3</property>
   <property name="b_track">5</property>
   <property name="start">0/0:100%x100%</property>
   <property name="factory">loader</property>
   <property name="aligned">0</property>
   <property name="progressive">1</property>
   <property name="mlt_service">composite</property>
   <property name="kdenlive_id">wipe</property>
   <property name="force_track">1</property>
   <property name="softness">0</property>
   <property name="luma"/>
   <property name="luma_invert">0</property>
   <property name="geometry">0%/0%:100%x100%:0;-1=0%/0%:100%x100%:100</property>
   <property name="fill">1</property>
  </transition>
  <transition id="transition6" in="00:10:33,960" out="00:10:34,920">
   <property name="a_track">3</property>
   <property name="b_track">5</property>
   <property name="start">0/0:100%x100%</property>
   <property name="factory">loader</property>
   <property name="aligned">0</property>
   <property name="progressive">1</property>
   <property name="mlt_service">composite</property>
   <property name="kdenlive_id">wipe</property>
   <property name="force_track">1</property>
   <property name="softness">0</property>
   <property name="luma"/>
   <property name="luma_invert">0</property>
   <property name="geometry">0%/0%:100%x100%:100;-1=0%/0%:100%x100%:0</property>
   <property name="fill">1</property>
  </transition>
  <transition id="transition7" in="00:03:52,880" out="00:03:54,120">
   <property name="a_track">0</property>
   <property name="b_track">3</property>
   <property name="start">0/0:100%x100%</property>
   <property name="factory">loader</property>
   <property name="aligned">0</property>
   <property name="progressive">1</property>
   <property name="mlt_service">composite</property>
   <property name="kdenlive_id">wipe</property>
   <property name="softness">0</property>
   <property name="luma"/>
   <property name="luma_invert">1</property>
   <property name="geometry">0%/0%:100%x100%:0;-1=0%/0%:100%x100%:100</property>
   <property name="fill">1</property>
  </transition>
  <transition id="transition8">
   <property name="a_track">0</property>
   <property name="b_track">1</property>
   <property name="mlt_service">mix</property>
   <property name="kdenlive_id">mix</property>
   <property name="internal_added">237</property>
   <property name="always_active">1</property>
   <property name="sum">1</property>
  </transition>
  <transition id="transition9">
   <property name="a_track">0</property>
   <property name="b_track">2</property>
   <property name="mlt_service">mix</property>
   <property name="kdenlive_id">mix</property>
   <property name="internal_added">237</property>
   <property name="always_active">1</property>
   <property name="sum">1</property>
  </transition>
  <transition id="transition10">
   <property name="a_track">0</property>
   <property name="b_track">3</property>
   <property name="compositing">0</property>
   <property name="distort">0</property>
   <property name="rotate_center">0</property>
   <property name="mlt_service">qtblend</property>
   <property name="kdenlive_id">qtblend</property>
   <property name="internal_added">237</property>
   <property name="always_active">1</property>
  </transition>
  <transition id="transition11">
   <property name="a_track">0</property>
   <property name="b_track">4</property>
   <property name="compositing">0</property>
   <property name="distort">0</property>
   <property name="rotate_center">0</property>
   <property name="mlt_service">qtblend</property>
   <property name="kdenlive_id">qtblend</property>
   <property name="internal_added">237</property>
   <property name="always_active">1</property>
  </transition>
  <transition id="transition12">
   <property name="a_track">0</property>
   <property name="b_track">5</property>
   <property name="compositing">0</property>
   <property name="distort">0</property>
   <property name="rotate_center">0</property>
   <property name="mlt_service">qtblend</property>
   <property name="kdenlive_id">qtblend</property>
   <property name="internal_added">237</property>
   <property name="always_active">1</property>
  </transition>
  <transition id="transition13">
   <property name="a_track">0</property>
   <property name="b_track">6</property>
   <property name="compositing">0</property>
   <property name="distort">0</property>
   <property name="rotate_center">0</property>
   <property name="mlt_service">qtblend</property>
   <property name="kdenlive_id">qtblend</property>
   <property name="internal_added">237</property>
   <property name="always_active">1</property>
  </transition>
 </tractor>
</mlt>
